<?xml version="1.0" encoding="UTF-8"?>
<svg id="_圖層_2" data-name="圖層 2" xmlns="http://www.w3.org/2000/svg" viewBox="0 0 194.74 66.99">
  <g id="content">
    <g>
      <g>
        <path d="M2.12,54.93l-2.12-.91c2.54-3.41,4.13-7.04,4.76-10.86l2.22,.4c-.49,2.42-1.1,4.42-1.8,6.03v17.39H2.96v-13.17c-.28,.47-.56,.84-.85,1.11Zm5.4-4.83l-1.27-2.11c4.59-1.47,7.55-3.12,8.89-4.93l2.22,.5c-.14,.07-.25,.2-.32,.41,2.33,1.67,5.11,3.01,8.36,4.02l-1.27,2.11c-1.34-.53-2.47-1.04-3.39-1.51v2.11H10.9v-2.11c-.99,.54-2.12,1.04-3.39,1.51Zm6.99,10.56v5.93h-2.33v-5.93h-2.75v5.93h-2.33v-13.67c.07-.33,.24-.5,.53-.5H23.92c.43,.07,.63,.24,.63,.5v11.56c-.07,.94-.46,1.61-1.16,2.01-.63,.41-1.8,.47-3.5,.2l-.1-2.51c.98,.47,1.58,.6,1.8,.4,.43-.2,.63-.54,.63-1v-2.92h-2.75v5.93h-2.33v-5.93h-2.65Zm-2.33-6.03h-2.64c-.07,0-.11,.04-.11,.1v3.72h2.75v-3.82Zm8.26-6.13c-1.42-.74-3-1.74-4.76-3.01-1.06,.94-2.58,1.94-4.55,3.01h9.32Zm-3.28,6.13h-2.65v3.82h2.65v-3.82Zm2.33,3.82h2.75v-3.72c-.07-.07-.14-.1-.21-.1h-2.54v3.82Z" fill="#fff"/>
        <path d="M39.54,43.06h2.33v1.91h5.61v2.01h-13.34v-2.01h5.4v-1.91Zm3.18,22.22c-.36,.6-.85,1.04-1.48,1.3-1.34,.4-3.07,.27-5.19-.4l.11-2.31c1.91,.94,3.18,1.27,3.81,1,.36-.2,.63-.44,.85-.7,.21-.47,.21-1.21,0-2.21l-5.93,.9-.53-2.11,5.72-.81c-.28-.53-.63-1.04-1.06-1.51h1.06l1.91-1.91c.07-.14,.11-.23,.11-.3-.07-.13-.15-.2-.21-.2h-6.88v-1.91h9.84l1.48,1.31-4.34,3.92c.07,.14,.14,.24,.21,.3l4.87-.71,.32,2.11-4.45,.6c.5,1.75,.43,2.95-.21,3.62Zm3.07-12.07h-10.48c-.14,0-.21-.1-.21-.3v-4.72c.07-.2,.14-.3,.21-.3h10.48c.21,0,.31,.1,.31,.3v4.72c0,.2-.11,.3-.31,.3Zm-8.57-3.62c-.07,0-.07,.04,0,.1v1.81h6.67c.07,0,.11-.04,.11-.1v-1.71c0-.07-.04-.1-.11-.1h-6.67Zm11.01,5.13l-2.12-.6c1.98-3.49,2.97-7.07,2.97-10.76l2.22,.1c-.07,.94-.14,1.74-.21,2.41h7.94v2.11h-1.91v.91c0,3.89-1.06,7.67-3.18,11.36,1.2,1.67,2.96,3.55,5.29,5.63l-2.01,1.11c-1.91-1.88-3.39-3.55-4.44-5.02-1.48,1.94-3.5,3.62-6.03,5.02l-1.59-1.61c2.61-1.34,4.76-3.12,6.45-5.33-1.2-2.41-1.94-4.96-2.22-7.64-.36,.87-.74,1.64-1.16,2.31Zm3.38-.6c.36,1.41,.78,2.75,1.27,4.02,1.34-2.68,2.04-5.76,2.12-9.25v-.91h-3.81c-.14,2.28,0,4.32,.42,6.13Z" fill="#fff"/>
        <path d="M84.8,54.73h-8.57c-.14,.2-.25,.33-.31,.4-.57,.6-1.1,1.14-1.59,1.61,1.34,1.34,2.22,2.25,2.64,2.71l-1.69,1.21c-.49-.54-1.38-1.41-2.64-2.61-1.06,.94-2.05,1.64-2.96,2.11l-1.69-1.51c2.33-1.41,4.13-2.71,5.4-3.92h-5.08v-2.11h7.09c.49-.67,.95-1.31,1.38-1.91h-6.57v-2.11h7.62c.36-.8,.56-1.44,.63-1.91h-9.21v-2.11h9.53c.14-.54,.25-1.04,.32-1.51l2.22,.2c-.07,.47-.14,.9-.21,1.31h10.9v2.11h-11.43c-.14,.8-.32,1.44-.53,1.91h10.9v2.11h-6.35c.43,.81,.85,1.45,1.27,1.91h6.99v2.11h-5.19c1.41,1.27,3.28,2.51,5.61,3.72l-1.8,1.71c-1.27-.81-2.47-1.64-3.6-2.51-.92,.87-2.04,1.74-3.38,2.61l-1.38-1.61c1.27-.94,2.33-1.75,3.18-2.42-.49-.4-.99-.9-1.48-1.51Zm-6.56,7.94c-2.05,1.48-4.76,2.85-8.15,4.13l-.95-2.01c3.39-1.34,6.04-2.61,7.94-3.82l1.17,1.7Zm3.6-6.33v8.14c0,1-.42,1.74-1.27,2.21-.85,.4-2.37,.37-4.55-.1v-2.21c1.76,.4,2.86,.47,3.28,.2,.14-.2,.21-.44,.21-.71v-7.54h2.33Zm.21-5.63h-2.86c-.42,.67-.84,1.31-1.27,1.91h5.29c-.36-.6-.74-1.24-1.16-1.91Zm2.33,10.56c3.6,1.74,6.07,3.05,7.41,3.92l-1.27,1.81c-2.05-1.27-4.49-2.55-7.31-3.82l1.17-1.91Z" fill="#fff"/>
        <path d="M104.75,65.79h-2.22v-20.51c.07-.47,.32-.7,.74-.7h5.51c.49,.07,.74,.3,.74,.7v18.3c0,.47-.25,.7-.74,.7h-4.03v1.51Zm.43-19.1c-.28,0-.43,.13-.43,.4v6.33h2.55v-6.33c0-.27-.11-.4-.32-.4h-1.8Zm2.12,8.84h-2.55v6.64h2.12c.28,0,.43-.13,.43-.4v-6.24Zm7.09-5.33h-3.07v-2.01h3.49l.54-2.11h-4.77v-2.01h15.67v2.01h-8.57l-.53,2.11h6.98c.36-.07,.54,.1,.54,.5v4.83h2.43v2.01h-16.83v-2.01h3.39l.74-3.32Zm-.95,16.19h-2.22v-8.85c0-.2,.14-.3,.42-.3h13.77c.27,0,.42,.14,.42,.41v8.75h-2.22v-.81h-10.16v.81Zm10.16-2.82v-4.13c0-.13-.1-.2-.31-.2h-9.53c-.21,0-.31,.1-.31,.3v4.02h10.16Zm-1.17-10.06v-3.12c-.07-.13-.14-.2-.2-.2h-5.61l-.74,3.32h6.56Z" fill="#fff"/>
        <path d="M147.26,51.01h-11.01v-2.31h11.01v-5.33h2.54v5.33h10.91v2.31h-10.91v12.67h9.74v2.31h-22.12v-2.31h9.84v-12.67Z" fill="#fff"/>
        <path d="M171.03,49.7c1.41,.74,2.96,1.75,4.66,3.02l-1.38,1.81c-1.77-1.34-3.28-2.31-4.55-2.91l1.27-1.91Zm5.29,7.54c-.98,3.89-2.43,6.94-4.33,9.15l-2.22-1.01c2.25-2.68,3.7-5.53,4.33-8.54l2.22,.4Zm-5.07-13.87c1.48,.74,3.18,1.75,5.07,3.01l-1.37,1.91c-1.91-1.41-3.53-2.42-4.87-3.02l1.17-1.91Zm5.5,2.71v-2.21h18v2.21h-2.02v18.1c0,1-.42,1.74-1.27,2.21-1.27,.8-3.63,.77-7.09-.1v-2.21c1.34,.33,2.26,.53,2.76,.6,.7,.07,1.3,.1,1.8,.1,.43,.07,.84-.1,1.27-.5,.14-.2,.21-.44,.21-.7v-17.49h-13.66Zm10.8,15.38h-8.68c-.43,0-.64-.2-.64-.6v-11.87c0-.4,.21-.6,.64-.6h8.68c.43,0,.64,.2,.64,.6v11.87c0,.4-.21,.6-.64,.6Zm-6.88-10.86c-.07,0-.1,.03-.1,.1v8.45c0,.07,.03,.1,.1,.1h5.08l.1-.1v-8.45l-.1-.1h-5.08Z" fill="#fff"/>
      </g>
      <g>
        <path d="M58.16,22.16l-2.27,1.77c-.27-.26-1.21-1.26-2.84-3-1.62-1.74-4.12-4.44-7.5-8.11v-.15c.48-.12,1.09-.37,1.85-.75,.76-.39,1.4-.81,1.93-1.26,.45-.39,.84-.87,1.17-1.45,.34-.58,.5-1.35,.5-2.32,0-.88-.24-1.65-.74-2.29-.49-.64-1.17-1.11-2.03-1.41-.7-.25-1.44-.41-2.21-.45-.78-.05-1.49-.08-2.15-.08-.43,0-.77,0-1,0-.23,0-.4,0-.51,0-.02,2.19-.04,4.12-.04,5.79,0,1.67,0,2.85,0,3.54,0,1.58,0,3.72,.02,6.43,.02,2.71,.03,4.4,.04,5.1h-3c0-.69,.03-2.03,.05-4.01,.02-1.99,.03-4.45,.03-7.41v-3.19c0-1.55-.03-4.38-.09-8.49,.12,0,.73,0,1.81-.03s2.09-.03,3.02-.03c1.05,0,2.07,.06,3.06,.17s1.96,.36,2.91,.74c1.2,.48,2.15,1.19,2.85,2.13s1.05,2.04,1.05,3.3c0,1.64-.53,3-1.59,4.08-1.06,1.08-2.06,1.89-3,2.42v.08c1.66,1.84,3.48,3.75,5.46,5.7,1.98,1.96,3.04,3.01,3.19,3.16Z" fill="#fff"/>
        <path d="M69.74,23.54h-3c0-.69,.03-1.92,.05-3.69,.02-1.77,.03-4.32,.03-7.63,0-1.31,0-3.03-.01-5.16-.01-2.13-.04-4.34-.07-6.63h3c-.02,1.65-.04,3.56-.06,5.74s-.03,3.96-.03,5.34c0,3.5,.01,6.2,.04,8.12s.04,3.22,.05,3.91Z" fill="#fff"/>
        <path d="M102.11,1.23c-.06,.14-1.34,2.76-3.85,7.87-2.5,5.12-4.89,10.04-7.17,14.78h-2.42c-2.51-5.32-4.91-10.35-7.2-15.08-2.29-4.73-3.49-7.21-3.6-7.44L80.72,.03c.08,.23,1.18,2.62,3.28,7.19,2.11,4.56,4.13,8.86,6.08,12.89h.03c1.98-4.13,4.04-8.48,6.18-13.05,2.14-4.57,3.24-6.92,3.31-7.06l2.51,1.23Z" fill="#fff"/>
        <path d="M125.84,23.51c-.11,0-.91,0-2.42-.01-1.5-.01-3.36-.02-5.58-.02-1.54,0-2.95,0-4.23,.02-1.28,0-2.36,.01-3.24,.01,.02-.67,.04-2.11,.06-4.34,.01-2.22,.02-4.51,.02-6.89,0-1.3,0-3.02-.02-5.16,0-2.14-.03-4.35-.07-6.65,.86,0,1.93,0,3.22,.02s2.62,.01,3.99,.01c2.32,0,4.2,0,5.65-.01s2.24-.02,2.36-.02V2.88c-.12,0-.88,0-2.28-.02-1.4-.02-3.14-.03-5.23-.03-.9,0-1.8,0-2.67,0-.87,0-1.56,0-2.07,0,0,1.3-.01,2.6-.04,3.89-.02,1.3-.03,2.52-.03,3.67,.54,0,1.19,0,1.94,0,.74,0,1.41,0,1.99,0,2.14,0,4.04,0,5.72-.02,1.68-.02,2.57-.03,2.68-.03v2.38c-.1,0-1.1,0-3-.02-1.9-.01-3.64-.02-5.21-.02-.58,0-1.28,0-2.08,0s-1.48,0-2.03,0c0,2.17,0,3.91,.02,5.18,0,1.28,.02,2.35,.03,3.21,.72,0,1.58,.02,2.6,.02s2.12,0,3.29,0c1.81,0,3.33,0,4.55-.02,1.23,0,1.92-.01,2.07-.01v2.4Z" fill="#fff"/>
        <path d="M155.35,22.16l-2.27,1.77c-.27-.26-1.22-1.26-2.84-3-1.62-1.74-4.12-4.44-7.5-8.11l.02-.15c.46-.12,1.07-.37,1.84-.75,.76-.39,1.4-.81,1.93-1.26,.44-.39,.84-.87,1.17-1.45,.34-.58,.5-1.35,.5-2.32,0-.88-.25-1.65-.74-2.29-.48-.64-1.17-1.11-2.03-1.41-.7-.25-1.43-.41-2.21-.45-.77-.05-1.49-.08-2.15-.08-.43,0-.77,0-1,0s-.4,0-.5,0c-.03,2.19-.04,4.12-.05,5.79s0,2.85,0,3.54c0,1.58,0,3.72,.03,6.43s.03,4.4,.04,5.1h-3c0-.69,.03-2.03,.06-4.01,.02-1.99,.03-4.45,.03-7.41v-3.19c0-1.55-.03-4.38-.09-8.49,.12,0,.73,0,1.82-.03s2.09-.03,3.02-.03c1.05,0,2.07,.06,3.06,.17,.99,.11,1.96,.36,2.91,.74,1.2,.48,2.15,1.19,2.85,2.13s1.05,2.04,1.05,3.3c0,1.64-.52,3-1.58,4.08-1.06,1.08-2.06,1.89-3.01,2.42v.08c1.66,1.84,3.48,3.75,5.47,5.7,1.98,1.96,3.04,3.01,3.19,3.16Z" fill="#fff"/>
      </g>
    </g>
  </g>
</svg>