<?xml version="1.0" encoding="UTF-8"?>
<svg xmlns="http://www.w3.org/2000/svg" viewBox="0 0 422.9 84.28">
  <g isolation="isolate">
    <g id="_圖層_2" data-name="圖層 2">
      <g id="content">
        <g mix-blend-mode="lighten" opacity=".4">
          <path d="M72.95,19.21h-.9c-.41-5.12-1.98-8.44-4.72-9.96-2.74-1.51-6.11-2.27-10.12-2.27h-16.47V73.02c0,5.59,3,8.47,8.99,8.65v.85H23.38v-.85c2.47-.07,4.56-.76,6.26-2.06s2.56-3.5,2.56-6.59V6.99H15.74c-4.01,0-7.37,.76-10.09,2.27C2.93,10.77,1.35,14.09,.9,19.21H0V0H.9c.6,.89,1.12,1.55,1.57,1.97,.45,.43,1.03,.8,1.74,1.09,.71,.3,1.55,.52,2.5,.64,.96,.12,2.09,.19,3.4,.19H63.73c3.56,0,6.33-1.3,8.32-3.9h.9V19.21Z" fill="#1df5ff"/>
          <path d="M137.89,39.87V13.55c0-2.56-.73-4.66-2.19-6.3-1.46-1.64-3.73-2.45-6.8-2.45v-.91h26.36v.91c-3.07,0-5.32,.81-6.74,2.43-1.43,1.62-2.13,3.73-2.13,6.32v59.46c0,5.77,2.96,8.65,8.88,8.65v.85h-26.36v-.85c2.81,0,5.01-.72,6.6-2.16,1.59-1.44,2.39-3.56,2.39-6.38v-30.85h-47.44v30.74c0,2.74,.82,4.87,2.45,6.38,1.63,1.51,3.81,2.27,6.55,2.27v.85h-26.36v-.85c2.85,0,5.03-.76,6.55-2.27,1.51-1.51,2.28-3.64,2.28-6.38V13.55c0-5.83-2.94-8.75-8.82-8.75v-.91h26.36v.91c-3.11,0-5.39,.81-6.83,2.43-1.44,1.62-2.16,3.73-2.16,6.32v26.32h47.44Z" fill="#1df5ff"/>
          <path d="M195.14,2.93l24.79,67.36c1.31,3.49,2.54,6.01,3.71,7.58s2.28,2.55,3.34,2.96,2.43,.68,4.08,.83v.85h-27.04v-.85c2.77,0,4.91-.25,6.41-.75,1.49-.5,2.25-1.85,2.25-4.06,0-1.21-.36-2.83-1.07-4.86-.15-.28-.22-.49-.22-.64l-7.36-20.87h-28.66l-6.57,19.32c-.9,2.64-1.35,4.75-1.35,6.35,0,2.21,.58,3.68,1.74,4.4s2.81,1.09,4.95,1.09v.85h-19.44v-.85c2.77-.25,4.99-1.25,6.66-3.02,1.67-1.76,3.12-4.44,4.36-8.03L189.07,2.93h6.07Zm-18.83,44.73h26.36l-13.49-37.31h-.22l-12.65,37.31Z" fill="#1df5ff"/>
          <path d="M318.64,3.9v.91c-1.57,.18-2.7,.33-3.37,.45-.68,.12-1.43,.49-2.26,1.09-1.27,.92-2.07,1.8-2.38,2.61-.32,.82-.52,2.24-.6,4.27-.11,.32-.11,.64,0,.96l2.87,58.39c.07,2.46,.69,4.57,1.86,6.35,1.16,1.78,3.69,2.69,7.59,2.72v.85h-26.81v-.85c3.52-.36,5.9-1.32,7.13-2.91,1.24-1.58,1.77-4.05,1.58-7.39l-2.87-60.42h-.22l-29.23,71.58L244.29,13.55h-.22l-2.98,55.73c-.15,3.06,.05,5.43,.59,7.12,.55,1.69,1.42,2.9,2.62,3.63,1.2,.73,2.98,1.27,5.34,1.63v.85h-20.85v-.85c2.66-.03,4.68-.64,6.07-1.82,1.39-1.17,2.29-2.64,2.72-4.4,.43-1.76,.76-4.17,.99-7.24l3.32-57.65c0-.21-.22-.6-.67-1.15-.46-.55-1.01-1.1-1.66-1.66s-1.29-.99-1.88-1.31c-1.28-.75-2.38-1.18-3.32-1.3-.94-.13-2.25-.24-3.93-.35v-.91h19.22l25.62,64.32L301.28,3.9h17.36Z" fill="#1df5ff"/>
          <path d="M323.29,4.8v-.91h49.34v12.38h-.78c0-6.62-4.65-9.93-13.94-9.93h-17.26V42.06h15.18c3,0,5.67-.46,8.04-1.39,2.35-.93,3.7-3.04,4.04-6.35h.84v17.83h-.84c-.34-2.03-.98-3.58-1.91-4.67-.94-1.08-1.87-1.8-2.78-2.16s-1.73-.54-2.44-.54c-1.35-.21-2.75-.32-4.21-.32h-15.91v27.92c0,2.1,.42,3.92,1.26,5.44,.85,1.53,2.8,2.29,5.88,2.29h12.3c2.96,0,5.4-.41,7.3-1.23,1.91-.82,3.42-1.96,4.52-3.42,1.11-1.46,2.04-3.22,2.78-5.28h.79l-2.87,12.33h-49.34v-.85h1.12c1.76,0,3.49-.67,5.17-2.03,1.69-1.35,2.53-3.56,2.53-6.62V13.77c0-2.42-.57-4.52-1.71-6.3-1.14-1.78-3.14-2.67-5.99-2.67h-1.12Z" fill="#1df5ff"/>
          <path d="M418.86,19h-.9c-.53-3.8-2.28-7.14-5.25-10-2.98-2.87-6.9-4.3-11.78-4.3-3.18,0-6.02,.71-8.49,2.13-2.47,1.43-4.38,3.36-5.73,5.82-1.35,2.45-2.02,5.26-2.02,8.43,0,2.46,.4,4.63,1.21,6.54,.8,1.9,1.99,3.58,3.56,5.04s3.43,2.82,5.57,4.08c2.14,1.26,5.02,2.86,8.65,4.78,6.07,3.16,10.79,6.32,14.17,9.47,3.37,3.15,5.05,7.47,5.05,12.94,0,3.34-.91,6.57-2.72,9.69s-4.56,5.67-8.23,7.66-8.22,2.99-13.65,2.99c-3.41,0-6.43-.35-9.05-1.04-2.62-.7-5.28-1.67-7.98-2.91-1.12-.36-1.89-.54-2.3-.54-.78,0-1.3,.27-1.54,.8-.24,.54-.58,1.69-.99,3.47h-.96v-19.7h.96c1.35,5.77,3.97,10.13,7.87,13.08,3.9,2.95,8.63,4.43,14.22,4.43,4.19,0,7.56-.75,10.09-2.24s4.28-3.31,5.25-5.44c.98-2.14,1.46-4.27,1.46-6.41,0-4.41-1.42-8.02-4.25-10.81s-7.13-5.65-12.9-8.56c-3.96-2.07-6.91-3.67-8.82-4.8-1.91-1.14-3.85-2.62-5.82-4.43-1.96-1.82-3.54-3.96-4.69-6.44-1.16-2.47-1.75-5.31-1.75-8.51,0-3.7,1.04-7.24,3.1-10.62,2.06-3.38,4.98-6.09,8.76-8.14,3.79-2.05,8.08-3.07,12.87-3.07,3.63,0,7.36,.59,11.19,1.76,.6,.29,1.4,.43,2.41,.43,1.24,0,2.08-.8,2.53-2.4h.9V19Z" fill="#1df5ff"/>
        </g>
      </g>
    </g>
  </g>
</svg>