<?xml version="1.0" encoding="UTF-8"?>
<svg id="_圖層_2" data-name="圖層 2" xmlns="http://www.w3.org/2000/svg" viewBox="0 0 191.57 67.02">
  <g id="content">
    <g>
      <g>
        <path d="M7.61,50.79H.52v-2.27H7.61v-4.95h2.39v23.16h-2.39v-6.23c-1.88,1.18-3.96,2.37-6.25,3.56l-1.35-1.88c2.71-1.32,5.24-2.77,7.61-4.35v-7.03Zm7.91,.59c2.99-1.97,5.25-3.69,6.78-5.14l1.56,1.78c-2.15,1.98-4.93,3.99-8.34,6.04v8.81c.07,.53,.14,.89,.21,1.09,.21,.26,.63,.4,1.25,.4h3.33c.84,0,1.35-.2,1.56-.6,.28-.46,.42-1.88,.42-4.25l2.4,.39c0,3.23-.24,5.15-.73,5.74-.49,.53-.87,.83-1.14,.89-.42,.06-.98,.1-1.67,.1h-5.11c-.7,0-1.25-.13-1.67-.4-.84-.59-1.25-1.58-1.25-2.96v-19.89h2.39v8.01Z" fill="#231815"/>
        <path d="M44.65,51.29h-10.84v-2.28h10.84v-5.24h2.5v5.24h10.74v2.28h-10.74v12.47h9.59v2.28h-21.77v-2.28h9.69v-12.47Z" fill="#231815"/>
        <path d="M73.77,67.02h-2.29v-10.49c-.83,1.65-1.7,3.1-2.61,4.35l-2.18-.79c2.01-2.24,3.47-4.78,4.37-7.62h-3.96v-2.17h4.38v-3.56c-1.25,.13-2.54,.23-3.86,.29l-.21-2.17c4.03-.26,7.22-.7,9.59-1.29l.31,2.18c-1.11,.26-2.29,.49-3.54,.69v3.86h3.75v2.17h-3.75v.3c1.46,1.65,2.92,3.4,4.38,5.24l-1.77,1.29c-.84-1.12-1.71-2.28-2.61-3.46v11.18Zm2.92-4.75l-.52-2.08,10.52-1.68v-14.94h2.29v14.55l2.19-.39,.42,2.17-2.61,.4v6.63h-2.29v-6.24l-10,1.59Zm3.13-11.28c2.15,2.04,3.65,3.56,4.48,4.55l-1.77,1.29c-1.18-1.39-2.64-2.87-4.37-4.46l1.67-1.38Zm1.14-6.13c2.36,2.24,3.96,3.89,4.8,4.94l-1.77,1.29c-1.25-1.65-2.82-3.27-4.69-4.85l1.67-1.38Z" fill="#231815"/>
        <path d="M108.63,57.32c-2.57,2.64-4.93,4.39-7.08,5.24l-1.35-1.78c2.15-.92,3.99-2.07,5.52-3.46h-5.32v-1.98h4.59v-8.41h-3.96v-1.98h3.96v-1.48h2.29v1.48h10.62v-1.48h2.3v1.48h4.06v1.98h-4.06v8.41h4.69v1.98h-5.94c1.39,1.32,3.44,2.51,6.15,3.56l-1.56,1.78c-2.92-1.38-5.35-3.16-7.29-5.34h-7.61Zm2.81,4.85h-5.62v-1.98h5.62v-1.88h2.29v1.88h5.53v1.98h-5.53v2.27h10.32v1.98h-22.81v-1.98h10.21v-2.27Zm6.46-13.66v-1.59h-10.62v1.59h10.62Zm0,3.46v-1.68h-10.62v1.68h10.62Zm0,3.36v-1.58h-10.62v1.58h10.62Z" fill="#231815"/>
        <path d="M136.81,66.82h-2.19v-22.27c.07-.13,.11-.23,.11-.3h5.73l1.56,.89-1.77,5.94c-.07,.39-.07,.69,0,.89,.9,1.45,1.45,2.77,1.66,3.96,.35,1.97,.11,3.46-.73,4.45-.49,.46-1.04,.73-1.67,.79-.69,.06-1.59-.03-2.71-.3v5.94Zm.21-20.59h-.1l-.11,.1v12.37c.77,.39,1.39,.56,1.88,.49,.35,0,.63-.1,.83-.3,.21-.19,.32-.49,.32-.89,.21-1.32-.42-3.4-1.88-6.23v-.1l1.46-4.94c.14-.4-.04-.56-.52-.5h-1.88Zm12.3,16.23h-5.21v-1.88h5.21v-1.88h-4.17c-.77,1.25-1.46,2.17-2.08,2.77-.49-.66-.98-1.09-1.46-1.29,1.39-1.39,2.33-3.07,2.82-5.05l2.08,.7c-.21,.39-.35,.73-.42,.99h3.23v-1.69h2.19v1.69h6.04v1.88h-6.04v1.88h5.62v1.88h-5.62v2.07h6.78v1.98h-16.16v-1.98h7.19v-2.07Zm-6.78-8.71l-.84-1.88c2.79-.66,5-1.32,6.68-1.98-.84-.73-1.67-1.42-2.51-2.08-.83,.79-1.8,1.52-2.92,2.18l-1.14-1.68c1.25-.6,2.12-1.19,2.61-1.78,.69-.79,1.38-1.82,2.08-3.07l2.09,.2c-.14,.2-.25,.39-.32,.59h6.88l1.56,1.19c-1.17,1.78-2.71,3.3-4.58,4.55,1.66,.86,3.78,1.52,6.36,1.98l-1.04,1.88c-.91-.26-1.77-.5-2.61-.69v1.38h-9.38v-1.58c-.9,.26-1.87,.53-2.92,.79Zm11.15-.99c-1.04-.46-2.02-.93-2.92-1.39-.15-.13-.32-.23-.53-.29-1.04,.46-2.43,1.02-4.17,1.68h7.61Zm-3.44-3.86c1.32-.79,2.43-1.68,3.33-2.67,0-.06-.03-.1-.1-.1h-6.26l-.1,.1c1.18,1.12,2.22,2.01,3.12,2.67Z" fill="#231815"/>
        <path d="M168.23,50c1.38,.73,2.92,1.72,4.59,2.97l-1.36,1.78c-1.73-1.32-3.22-2.28-4.48-2.87l1.25-1.88Zm5.2,7.42c-.98,3.83-2.4,6.83-4.27,9l-2.19-.99c2.22-2.64,3.65-5.44,4.27-8.41l2.19,.4Zm-4.99-13.66c1.45,.73,3.12,1.72,4.99,2.97l-1.35,1.88c-1.87-1.38-3.47-2.37-4.8-2.96l1.15-1.88Zm5.41,2.67v-2.18h17.72v2.18h-1.98v17.81c0,.99-.42,1.71-1.25,2.17-1.25,.79-3.58,.76-6.98-.1v-2.17c1.32,.33,2.23,.53,2.72,.59,.69,.06,1.28,.1,1.77,.1,.41,.06,.83-.1,1.24-.49,.14-.2,.21-.43,.21-.7v-17.22h-13.44Zm10.63,15.14h-8.54c-.42,0-.63-.19-.63-.59v-11.68c0-.4,.21-.6,.63-.6h8.54c.42,0,.63,.2,.63,.6v11.68c0,.4-.21,.59-.63,.59Zm-6.77-10.69c-.07,0-.11,.03-.11,.1v8.31c0,.06,.04,.1,.11,.1h4.99l.11-.1v-8.31l-.11-.1h-4.99Z" fill="#231815"/>
      </g>
      <g>
        <path d="M56.58,22.16l-2.27,1.77c-.27-.26-1.21-1.26-2.84-3-1.62-1.74-4.12-4.44-7.5-8.11v-.15c.48-.12,1.09-.37,1.85-.75,.76-.39,1.4-.81,1.93-1.26,.45-.39,.84-.87,1.17-1.45,.34-.58,.5-1.35,.5-2.32,0-.88-.24-1.65-.74-2.29-.49-.64-1.17-1.11-2.03-1.41-.7-.25-1.44-.41-2.21-.45-.78-.05-1.49-.08-2.15-.08-.43,0-.77,0-1,0-.23,0-.4,0-.51,0-.02,2.19-.04,4.12-.04,5.79,0,1.67,0,2.85,0,3.54,0,1.58,0,3.72,.02,6.43,.02,2.71,.03,4.4,.04,5.1h-3c0-.69,.03-2.03,.05-4.01,.02-1.99,.03-4.45,.03-7.41v-3.19c0-1.55-.03-4.38-.09-8.49,.12,0,.73,0,1.81-.03s2.09-.03,3.02-.03c1.05,0,2.07,.06,3.06,.17s1.96,.36,2.91,.74c1.2,.48,2.15,1.19,2.85,2.13s1.05,2.04,1.05,3.3c0,1.64-.53,3-1.59,4.08-1.06,1.08-2.06,1.89-3,2.42v.08c1.66,1.84,3.48,3.75,5.46,5.7,1.98,1.96,3.04,3.01,3.19,3.16Z" fill="#231815"/>
        <path d="M68.16,23.54h-3c0-.69,.03-1.92,.05-3.69,.02-1.77,.03-4.32,.03-7.63,0-1.31,0-3.03-.01-5.16-.01-2.13-.04-4.34-.07-6.63h3c-.02,1.65-.04,3.56-.06,5.74s-.03,3.96-.03,5.34c0,3.5,.01,6.2,.04,8.12s.04,3.22,.05,3.91Z" fill="#231815"/>
        <path d="M100.53,1.23c-.06,.14-1.34,2.76-3.85,7.87-2.5,5.12-4.89,10.04-7.17,14.78h-2.42c-2.51-5.32-4.91-10.35-7.2-15.08-2.29-4.73-3.49-7.21-3.6-7.44L79.13,.03c.08,.23,1.18,2.62,3.28,7.19,2.11,4.56,4.13,8.86,6.08,12.89h.03c1.98-4.13,4.04-8.48,6.18-13.05,2.14-4.57,3.24-6.92,3.31-7.06l2.51,1.23Z" fill="#231815"/>
        <path d="M124.26,23.51c-.11,0-.91,0-2.42-.01-1.5-.01-3.36-.02-5.58-.02-1.54,0-2.95,0-4.23,.02-1.28,0-2.36,.01-3.24,.01,.02-.67,.04-2.11,.06-4.34,.01-2.22,.02-4.51,.02-6.89,0-1.3,0-3.02-.02-5.16,0-2.14-.03-4.35-.07-6.65,.86,0,1.93,0,3.22,.02s2.62,.01,3.99,.01c2.32,0,4.2,0,5.65-.01s2.24-.02,2.36-.02V2.88c-.12,0-.88,0-2.28-.02-1.4-.02-3.14-.03-5.23-.03-.9,0-1.8,0-2.67,0-.87,0-1.56,0-2.07,0,0,1.3-.01,2.6-.04,3.89-.02,1.3-.03,2.52-.03,3.67,.54,0,1.19,0,1.94,0,.74,0,1.41,0,1.99,0,2.14,0,4.04,0,5.72-.02,1.68-.02,2.57-.03,2.68-.03v2.38c-.1,0-1.1,0-3-.02-1.9-.01-3.64-.02-5.21-.02-.58,0-1.28,0-2.08,0s-1.48,0-2.03,0c0,2.17,0,3.91,.02,5.18,0,1.28,.02,2.35,.03,3.21,.72,0,1.58,.02,2.6,.02s2.12,0,3.29,0c1.81,0,3.33,0,4.55-.02,1.23,0,1.92-.01,2.07-.01v2.4Z" fill="#231815"/>
        <path d="M153.76,22.16l-2.27,1.77c-.27-.26-1.22-1.26-2.84-3-1.62-1.74-4.12-4.44-7.5-8.11l.02-.15c.46-.12,1.07-.37,1.84-.75,.76-.39,1.4-.81,1.93-1.26,.44-.39,.84-.87,1.17-1.45,.34-.58,.5-1.35,.5-2.32,0-.88-.25-1.65-.74-2.29-.48-.64-1.17-1.11-2.03-1.41-.7-.25-1.43-.41-2.21-.45-.77-.05-1.49-.08-2.15-.08-.43,0-.77,0-1,0s-.4,0-.5,0c-.03,2.19-.04,4.12-.05,5.79,0,1.67,0,2.85,0,3.54,0,1.58,0,3.72,.03,6.43s.03,4.4,.04,5.1h-3c0-.69,.03-2.03,.06-4.01,.02-1.99,.03-4.45,.03-7.41v-3.19c0-1.55-.03-4.38-.09-8.49,.12,0,.73,0,1.82-.03s2.09-.03,3.02-.03c1.05,0,2.07,.06,3.06,.17,.99,.11,1.96,.36,2.91,.74,1.2,.48,2.15,1.19,2.85,2.13,.7,.94,1.05,2.04,1.05,3.3,0,1.64-.52,3-1.58,4.08-1.06,1.08-2.06,1.89-3.01,2.42v.08c1.66,1.84,3.48,3.75,5.47,5.7,1.98,1.96,3.04,3.01,3.19,3.16Z" fill="#231815"/>
      </g>
    </g>
  </g>
</svg>