<?xml version="1.0" encoding="UTF-8"?>
<svg id="_圖層_2" data-name="圖層 2" xmlns="http://www.w3.org/2000/svg" xmlns:xlink="http://www.w3.org/1999/xlink" viewBox="0 0 554.75 83.33">
  <defs>
    <linearGradient id="_未命名漸層_25" data-name="未命名漸層 25" x1="36.28" y1="81.24" x2="36.28" y2="2.3" gradientUnits="userSpaceOnUse">
      <stop offset="0" stop-color="#1d7b9e" stop-opacity=".45"/>
      <stop offset=".65" stop-color="#1d7b9e"/>
    </linearGradient>
    <linearGradient id="_未命名漸層_25-2" data-name="未命名漸層 25" x1="97.73" x2="97.73" xlink:href="#_未命名漸層_25"/>
    <linearGradient id="_未命名漸層_25-3" data-name="未命名漸層 25" x1="150.85" x2="150.85" xlink:href="#_未命名漸層_25"/>
    <linearGradient id="_未命名漸層_25-4" data-name="未命名漸層 25" x1="213.18" x2="213.18" xlink:href="#_未命名漸層_25"/>
    <linearGradient id="_未命名漸層_25-5" data-name="未命名漸層 25" x1="274.29" x2="274.29" xlink:href="#_未命名漸層_25"/>
    <linearGradient id="_未命名漸層_25-6" data-name="未命名漸層 25" x1="338.03" y1="83.33" x2="338.03" xlink:href="#_未命名漸層_25"/>
    <linearGradient id="_未命名漸層_25-7" data-name="未命名漸層 25" x1="422.55" y1="83.22" x2="422.55" xlink:href="#_未命名漸層_25"/>
    <linearGradient id="_未命名漸層_25-8" data-name="未命名漸層 25" x1="513.17" y1="83.33" x2="513.17" y2="0" xlink:href="#_未命名漸層_25"/>
  </defs>
  <g id="content">
    <g opacity=".38">
      <path d="M68.95,2.3v.91c-2.33,.14-4.39,.41-6.18,.81-1.79,.39-3.58,1.37-5.39,2.94-1.31,1.18-2.21,1.97-2.68,2.36-.47,.4-.99,.84-1.55,1.34l-28.33,26.58,33.85,36.33c2.63,2.78,4.88,4.54,6.74,5.25,1.86,.72,4.24,1.24,7.14,1.55v.86h-17.94L17.43,41.31v30.39c0,5.61,2.97,8.5,8.92,8.68v.86H0v-.86c1.66-.07,3.12-.37,4.4-.88s2.34-1.41,3.19-2.68c.84-1.27,1.27-2.97,1.27-5.12V11.79c0-3.32-.87-5.57-2.62-6.72-1.75-1.16-3.83-1.78-6.24-1.85v-.91H26.35v.91c-5.94,.18-8.92,3.04-8.92,8.57v29.15L49.31,10.66c0,.07,.07-.03,.22-.32,1.77-1.54,2.65-2.86,2.65-3.96,0-1.25-.52-2.04-1.55-2.36-1.03-.32-2.58-.59-4.65-.81v-.91h22.96Z" fill="url(#_未命名漸層_25)"/>
      <path d="M71.52,3.21v-.91h49.54V14.74h-.79c0-6.65-4.67-9.97-13.99-9.97h-17.32V40.62h15.23c3.01,0,5.7-.46,8.07-1.39,2.37-.93,3.72-3.06,4.06-6.38h.84v17.9h-.84c-.34-2.04-.98-3.6-1.92-4.69-.94-1.09-1.87-1.81-2.79-2.17s-1.74-.54-2.46-.54c-1.35-.21-2.76-.32-4.23-.32h-15.97v28.03c0,2.11,.42,3.93,1.26,5.46,.85,1.54,2.81,2.3,5.9,2.3h12.36c2.97,0,5.42-.41,7.33-1.23s3.43-1.97,4.54-3.43,2.04-3.23,2.79-5.3h.79l-2.88,12.38h-49.54v-.86h1.13c1.77,0,3.5-.67,5.19-2.04,1.69-1.36,2.54-3.57,2.54-6.64V12.22c0-2.43-.57-4.54-1.72-6.32s-3.15-2.68-6.01-2.68h-1.13Z" fill="url(#_未命名漸層_25-2)"/>
      <path d="M124.64,3.21v-.91h49.54V14.74h-.79c0-6.65-4.67-9.97-13.99-9.97h-17.32V40.62h15.23c3.01,0,5.7-.46,8.07-1.39,2.37-.93,3.72-3.06,4.06-6.38h.84v17.9h-.84c-.34-2.04-.98-3.6-1.92-4.69-.94-1.09-1.87-1.81-2.79-2.17s-1.74-.54-2.46-.54c-1.35-.21-2.76-.32-4.23-.32h-15.97v28.03c0,2.11,.42,3.93,1.26,5.46,.85,1.54,2.81,2.3,5.9,2.3h12.36c2.97,0,5.42-.41,7.33-1.23s3.43-1.97,4.54-3.43,2.04-3.23,2.79-5.3h.79l-2.88,12.38h-49.54v-.86h1.13c1.77,0,3.5-.67,5.19-2.04,1.69-1.36,2.54-3.57,2.54-6.64V12.22c0-2.43-.57-4.54-1.72-6.32s-3.15-2.68-6.01-2.68h-1.13Z" fill="url(#_未命名漸層_25-3)"/>
      <path d="M178.79,3.43h-1.13v-1.13h28.77c4.62,0,8.55,.68,11.76,2.04,3.22,1.36,5.72,3.09,7.5,5.18s3.07,4.29,3.84,6.62,1.16,4.61,1.16,6.86c0,2.86-.63,5.6-1.89,8.22-1.26,2.63-3.2,4.89-5.82,6.78-2.61,1.89-5.87,3.18-9.79,3.86v.21c4.96,2.29,9.55,6.82,13.76,13.61l7.5,12.06c3.38,5.4,6.1,8.81,8.15,10.24,2.05,1.43,4.07,2.23,6.06,2.41v.86h-15.12c-.64-.79-1.24-1.54-1.81-2.28-.56-.73-1.17-1.51-1.81-2.33-.38-.54-.93-1.35-1.66-2.44-.74-1.09-1.18-1.7-1.33-1.85l-9.93-15.59c-1.99-3.18-4.03-5.76-6.12-7.74-2.09-1.98-4.04-3.4-5.84-4.26-1.81-.85-3.43-1.39-4.88-1.61s-3.15-.32-5.11-.32v28.89c0,5.61,3.01,8.5,9.03,8.68v.86h-26.46v-.86c1.66-.07,3.12-.37,4.4-.88s2.34-1.41,3.19-2.68c.84-1.27,1.27-2.97,1.27-5.12V12c0-3.14-.81-5.36-2.43-6.65s-3.38-1.93-5.3-1.93Zm16.3,37.29h4.74c4.97,0,9.04-.68,12.22-2.04s5.48-3.3,6.91-5.82c1.43-2.51,2.14-5.6,2.14-9.24,0-3.03-.64-6.01-1.92-8.92s-3.45-5.36-6.51-7.34c-3.07-1.99-7.19-2.98-12.39-2.98-2.1,0-3.83,.16-5.19,.48V40.72Z" fill="url(#_未命名漸層_25-4)"/>
      <path d="M248,80.38h1.13c2.03,0,3.83-.76,5.39-2.28,1.56-1.52,2.34-3.65,2.34-6.4V12.11c0-3.29-.87-5.58-2.62-6.86s-3.83-1.96-6.24-2.04v-.91h26.58v.91c-2.33,.07-4.4,.73-6.21,1.98-1.81,1.25-2.71,3.55-2.71,6.91v57.6c0,3.43,.9,5.81,2.71,7.13,1.8,1.32,4.76,1.98,8.86,1.98h7.16c3.12,0,5.62-.36,7.48-1.07,1.87-.72,3.34-1.81,4.42-3.27,1.09-1.46,2.21-3.54,3.33-6.22h.97l-3.16,12.97h-49.43v-.86Z" fill="url(#_未命名漸層_25-5)"/>
      <path d="M379.05,81.24h-17.43v-13.08l-.28-.21c-2.41,5.33-6.02,9.22-10.81,11.68s-9.8,3.7-15.03,3.7c-5.91,0-11.22-1.34-15.95-4.02-4.72-2.68-8.18-5.98-10.41-9.91-1.57-2.79-2.57-5.69-2.99-8.71-.41-3.02-.62-6.15-.62-9.4V12c0-2.36-.5-4.34-1.49-5.95-1.01-1.61-3.38-2.55-7.14-2.84v-.91h26.12v.91c-3.84,.43-6.29,1.48-7.33,3.16-1.05,1.68-1.58,3.55-1.58,5.62V50.64c0,7.86,.85,13.66,2.54,17.41,1.81,4,4.51,7.13,8.12,9.38s7.71,3.37,12.29,3.37c1.92,0,4.2-.32,6.83-.96,2.64-.64,5.1-1.72,7.39-3.22,6.88-4.46,10.33-11.63,10.33-21.49V12c0-2.18-.53-4.11-1.58-5.79s-3.54-2.68-7.45-3v-.91h26.57v.91c-3.83,.18-6.3,1.2-7.38,3.06-1.09,1.86-1.64,3.73-1.64,5.62v59.8c0,2.07,.37,3.71,1.1,4.9s1.75,2.05,3.05,2.54c1.3,.5,2.88,.91,4.77,1.23v.86Z" fill="url(#_未命名漸層_25-6)"/>
      <path d="M467.5,2.3v.91c-2.11,.25-3.78,.63-5,1.15s-2.17,1.54-2.85,3.06c-.67,1.52-1.02,3.71-1.02,6.56V83.22h-.56L394.25,15.59v48.55c0,4.04,.18,7.04,.51,9,.34,1.96,.83,3.37,1.47,4.23,1.39,1.86,3.81,2.86,7.28,3v.86h-20.82v-.86c2.33-.11,4.15-.58,5.44-1.42,1.3-.84,2.23-2.38,2.77-4.61,.54-2.23,.81-5.6,.81-10.1V12.75l-2.76-2.94c-2.44-2.64-4.39-4.32-5.87-5.01-1.46-.7-3.29-1.23-5.47-1.58v-.91h15.62l62.86,66.88V18.22c0-3.82-.17-6.68-.49-8.57-.31-1.89-1.16-3.41-2.54-4.56-1.37-1.14-3.53-1.77-6.46-1.88v-.91h20.88Z" fill="url(#_未命名漸層_25-7)"/>
      <path d="M545.61,18.7h-.9c-1.21-5.15-4.4-9.14-9.59-11.98-5.2-2.84-11.12-4.26-17.77-4.26-3.47,0-7.18,.51-11.14,1.53-3.97,1.02-7.84,2.87-11.6,5.55s-6.88,6.56-9.37,11.66-3.72,11.49-3.72,19.21c0,12.29,3.02,22.11,9.05,29.47,6.04,7.36,15.73,11.04,29.08,11.04,5.27,0,9.14-.34,11.63-1.02,2.48-.68,4.07-1.61,4.77-2.79s1.04-2.77,1.04-4.77v-14.47c0-3.43-.78-5.7-2.34-6.81-1.56-1.1-3.91-1.84-7.02-2.2v-.91h27.02v.91c-2.48,.25-4.4,.76-5.75,1.53-1.36,.77-2.26,1.76-2.71,2.97-.45,1.22-.67,2.82-.67,4.82v21.97c-8.27,2.1-16.82,3.16-25.62,3.16-4.55,0-9.04-.36-13.49-1.07-4.43-.72-9.06-2.3-13.88-4.77s-9.06-6.11-12.75-10.93c-5.53-7.25-8.29-15.45-8.29-24.59,0-5.32,1.04-10.5,3.13-15.54,2.08-5.04,5.1-9.55,9.02-13.53,3.94-3.98,8.74-7.13,14.41-9.43,5.68-2.3,11.98-3.45,18.91-3.45,2.67,0,5.28,.17,7.84,.51,2.56,.34,6.38,1.03,11.46,2.06,1.99,.43,3.42,.64,4.29,.64,1.84,0,3.19-.87,4.06-2.63h.9V18.7Z" fill="url(#_未命名漸層_25-8)"/>
    </g>
  </g>
</svg>