<?xml version="1.0" encoding="UTF-8"?>
<svg id="_圖層_2" data-name="圖層 2" xmlns="http://www.w3.org/2000/svg" viewBox="0 0 191.1 66.67">
  <g id="content">
    <g>
      <g>
        <path d="M.73,56.3c-.14-.66-.35-1.31-.62-1.98l1.56-.3c.76-.72,1.56-1.61,2.39-2.66-1.38-1.31-2.74-2.3-4.05-2.96,.42-.59,.76-1.19,1.04-1.77,.13,.06,.42,.23,.83,.49,.76-1.25,1.45-2.6,2.08-4.04,.62,.39,1.25,.72,1.87,.98-.48,1.12-1.25,2.5-2.29,4.15,.48,.46,1.04,.92,1.67,1.38,.9-1.51,1.59-2.96,2.08-4.34l1.98,.49c-.48,2.11-2.08,4.74-4.78,7.9l2.81-.49c-.28-.73-.45-1.22-.52-1.48l1.98-.49c.9,2.37,1.45,4.08,1.66,5.14l-1.97,.4c-.21-.53-.35-1.02-.42-1.48l-1.76,.2v11.16h-2.18v-10.76l-3.33,.49Zm2.39,1.38c-.55,4.15-.93,6.85-1.14,8.1l-1.98-.4c.62-2.76,.97-5.43,1.04-8l2.08,.3Zm6.86,4.94l-1.98,.3-.73-5.14,1.98-.4,.73,5.23Zm2.81-7.21h-2.18v-2.17h2.5l.73-7.11h-3.12v-2.17h11.43c.21-.06,.42,0,.62,.2,.28,.27,.38,.49,.32,.69l-.52,8.39h1.98v2.17h-2.18l-.52,8.29h2.81v2.17H9.15v-2.17h2.8l.84-8.29Zm6.76,8.29l.52-8.29h-4.99l-.83,8.29h5.3Zm.73-10.46l.52-6.71c.07-.26-.03-.4-.31-.4h-4.36l-.73,7.11h4.89Z" fill="#fff"/>
        <path d="M36.75,57.48c-.07,2.24-.52,4.84-1.35,7.8l-2.08-.3c.76-3.22,1.18-5.82,1.25-7.8l2.18,.29Zm-2.81-1.48c-.07-.59-.24-1.29-.52-2.08l1.87-.19c.69-.73,1.45-1.52,2.28-2.37-1.31-1.25-2.7-2.27-4.16-3.06,.42-.59,.76-1.19,1.04-1.77,.21,.06,.62,.29,1.25,.69,.76-1.25,1.49-2.6,2.18-4.04,.63,.39,1.25,.72,1.87,.98-.55,1.12-1.39,2.57-2.5,4.34,.42,.33,.94,.73,1.56,1.19,1.11-1.65,1.9-3.19,2.39-4.64l2.08,.69c-.69,1.97-2.43,4.54-5.2,7.7l3.53-.4c-.28-.86-.52-1.41-.73-1.68l2.08-.69c.97,2.44,1.66,4.18,2.08,5.23l-2.08,.59c-.14-.53-.31-1.02-.52-1.48l-2.18,.3v11.35h-2.18v-11.16l-4.16,.49Zm10.91,7.9l-2.08,.49-1.46-6.51,2.08-.49,1.45,6.52Zm-.31-12.94l-1.87-1.28c.83-.92,1.49-1.88,1.97-2.87,.35-.85,.62-2.07,.84-3.65l2.28,.19c-.14,.59-.24,1.19-.31,1.78h9.25c.14,0,.31,.03,.52,.1,.21,.13,.31,.49,.31,1.09,0,3.88-.03,7.34-.1,10.37-.14,4.93-1.14,7.99-3.02,9.18-1.39,.79-3.85,.79-7.38,0l-.21-2.57c3.26,.92,5.33,1.05,6.24,.4,.55-.33,1.04-.99,1.45-1.98,.42-1.05,.66-2.86,.73-5.43,.07-5.66,.07-8.62,0-8.89-.14-.06-.24-.1-.31-.1h-8.11c-.48,1.25-1.25,2.47-2.29,3.65Zm4.26-.49c1.39,3.49,2.39,6.45,3.02,8.89l-2.18,.49c-.7-2.63-1.67-5.56-2.91-8.79l2.08-.59Z" fill="#fff"/>
        <path d="M69.64,65.68h-2.29v-20.14c0-.46,.24-.69,.73-.69h5.51c.55,0,.83,.23,.83,.69v17.08c-.07,.52-.35,.79-.83,.79h-3.95v2.27Zm.31-18.66c-.21,0-.31,.1-.31,.3v13.92h1.98c.35-.06,.52-.23,.52-.49v-13.43c0-.2-.14-.3-.42-.3h-1.77Zm6.34,3.85l-1.67-1.87c2.08-.86,3.64-1.68,4.68-2.47,1.11-.79,2.32-1.91,3.64-3.36l1.76,.98c-.14,.07-.24,.2-.31,.4,1.8,1.52,4.05,2.86,6.76,4.05l-1.45,1.97c-2.57-1.18-4.78-2.69-6.65-4.54-2.01,1.97-4.26,3.59-6.76,4.83Zm2.39,15.11h-2.29v-10.56c0-.2,.1-.3,.31-.3h12.89c.34,0,.52,.13,.52,.4v10.46h-2.29v-.89h-9.14v.89Zm10.18-15.11v2.17h-11.33v-2.17h11.33Zm-1.04,12.05v-5.33c0-.2-.1-.29-.31-.29h-8.52c-.28,0-.39,.09-.31,.29v5.33h9.14Z" fill="#fff"/>
        <path d="M106.08,43.96c-1.25,2.7-2.7,4.74-4.36,6.12l-1.87-1.38c1.87-1.51,3.26-3.36,4.16-5.53l2.08,.79Zm-4.36,12.44l-1.87-1.38c2.36-1.84,4.09-4.05,5.2-6.61l2.08,.89c-.83,1.51-1.59,2.76-2.28,3.75v13.43h-2.18v-10.96c-.35,.33-.66,.63-.93,.89Zm7.8,2.96c-.35,2.5-1.04,4.64-2.08,6.42-.76-.53-1.38-.89-1.87-1.09,1.04-1.58,1.59-3.46,1.66-5.63l2.29,.3Zm13.83-4.84h-15.49c-.21,0-.31-.1-.31-.3v-5.63c0-.2,.1-.3,.31-.3h6.24v-1.48h-7.17v-1.97h7.17v-1.58h2.18v1.58h7.8v1.97h-7.8v1.48h7.07c.21,0,.31,.1,.31,.3v5.63c0,.2-.1,.3-.31,.3Zm.93,1.29v1.97h-17.26v-1.97h17.26Zm-12.16-5.63h-2.5c-.07,0-.07,.03,0,.1v2.37h2.5v-2.47Zm.52,8.78v3.85c.06,.59,.14,.92,.21,.99,.28,.26,.66,.4,1.14,.4h3.33c.42-.07,.73-.1,.93-.1,.14-.07,.31-.23,.52-.49,.07-.2,.1-.79,.1-1.78l2.29,.3c-.14,1.78-.35,2.86-.62,3.26-.35,.4-.66,.63-.93,.69-.42,.13-.94,.2-1.56,.2h-4.99c-.69-.06-1.18-.2-1.46-.4-.76-.59-1.14-1.48-1.14-2.66v-4.25h2.18Zm3.53-.4c.21,.33,.45,.83,.73,1.48,.42,.72,.73,1.31,.93,1.77l-1.97,.69c-.63-1.25-1.18-2.27-1.67-3.06l1.98-.89Zm.52-8.39h-2.39v2.47h2.39v-2.47Zm2.18,2.47h2.6c.07,0,.1-.03,.1-.1v-2.27c0-.07-.03-.1-.1-.1h-2.6v2.47Zm3.33,5.82c.97,1.58,1.8,3.59,2.5,6.02l-2.08,.69c-.76-2.5-1.56-4.44-2.39-5.82l1.97-.89Z" fill="#fff"/>
        <path d="M136.68,56.6c0-.2-.11-.3-.32-.3h-2.49v-2.08h4.47c.42,0,.62,.2,.62,.59v5.93c.07,.46,.35,.98,.83,1.58,.48,.66,1.18,1.12,2.09,1.38,.9,.33,2.17,.46,3.85,.4,4.57-.07,8.62-.13,12.16-.2l-.62,2.37c-4.58-.06-8.88-.1-12.89-.1-3.12-.2-5.23-1.22-6.34-3.06-.15,.59-.63,1.22-1.46,1.87-.83,.73-1.59,1.22-2.28,1.48l-1.15-1.98c1.46-.59,2.39-1.18,2.81-1.77,.42-.46,.66-.99,.73-1.58v-4.54Zm-1.98-8.2c1.25,.73,2.6,1.68,4.05,2.86l-1.45,1.78c-1.52-1.31-2.81-2.27-3.85-2.86l1.25-1.78Zm.52-5.04c1.25,.73,2.59,1.68,4.05,2.87l-1.46,1.77c-1.52-1.31-2.8-2.27-3.85-2.86l1.26-1.78Zm6.13,7.01c0-.13,.03-.29,.1-.49l2.29-3.46v-.3l-.11-.1h-3.74v-1.98h5.71l1.35,.79-3.12,4.94c-.14,.26-.21,.43-.21,.49,.42,.66,.76,1.31,1.04,1.97,.84-.4,1.49-.72,1.98-.99l1.04,1.88c-.55,.26-1.34,.62-2.38,1.08,.35,1.32,.55,2.57,.62,3.75,0,.99-.25,1.91-.73,2.77-.35,.66-.73,1.12-1.15,1.38-.55,.27-1.14,.4-1.76,.4-.49-.06-1.35-.43-2.6-1.09l.62-2.07c.97,.66,1.56,.99,1.77,.99,.28,0,.55-.03,.83-.1,.21-.2,.42-.49,.62-.89,.42-1.05,.38-2.5-.11-4.34-1.18,.53-2.18,.92-3.02,1.19l-.93-1.88c.97-.33,2.08-.72,3.32-1.18-.35-.86-.83-1.78-1.45-2.77Zm8.94,7.21c-1.04,2.44-1.8,4.08-2.28,4.94l-1.77-.99c.62-1.12,1.38-2.69,2.28-4.74l1.77,.79Zm-2.81-1.77c-.14-.59-.31-1.22-.51-1.88l2.7-.29c.35-.46,.73-.89,1.15-1.29-1.39-1.25-2.74-2.2-4.05-2.86,.35-.66,.65-1.22,.93-1.68,.14,0,.55,.23,1.26,.69,.62-.79,1.14-1.61,1.55-2.47-1.04,.06-1.91,.13-2.6,.2l-.31-1.98c3.94-.2,6.89-.49,8.84-.89l.31,1.88c-.76,.2-1.91,.4-3.43,.59h-.31c-.63,.98-1.46,2.27-2.5,3.85,.48,.33,.97,.69,1.45,1.08,.76-1.05,1.56-2.17,2.39-3.36l1.56,.99c-.83,1.38-2.01,3.06-3.54,5.04l3.02-.3c-.28-.99-.44-1.61-.51-1.88l1.87-.3c.48,1.32,.87,2.86,1.15,4.64l-1.88,.3c-.07-.4-.14-.72-.21-.99l-2.49,.3v8.1h-2.08v-7.9l-3.75,.4Zm8.84,1.09c.48,1.12,1.04,2.66,1.66,4.64l-1.98,.49c-.42-1.45-.97-3-1.66-4.64l1.98-.49Z" fill="#fff"/>
        <path d="M167.82,49.69c1.38,.72,2.91,1.71,4.58,2.96l-1.35,1.77c-1.73-1.31-3.22-2.27-4.47-2.86l1.25-1.87Zm5.2,7.4c-.97,3.82-2.39,6.81-4.26,8.98l-2.18-.99c2.21-2.63,3.64-5.43,4.26-8.39l2.18,.4Zm-4.99-13.63c1.45,.73,3.11,1.72,4.99,2.97l-1.35,1.87c-1.87-1.38-3.47-2.37-4.78-2.96l1.15-1.88Zm5.41,2.67v-2.17h17.67v2.17h-1.98v17.77c0,.98-.42,1.71-1.25,2.17-1.25,.79-3.57,.76-6.96-.1v-2.17c1.31,.33,2.21,.52,2.7,.59,.69,.07,1.29,.1,1.77,.1,.42,.07,.83-.1,1.25-.49,.14-.2,.21-.43,.21-.69v-17.18h-13.41Zm10.6,15.1h-8.52c-.42,0-.62-.2-.62-.59v-11.65c0-.4,.21-.59,.62-.59h8.52c.42,0,.62,.2,.62,.59v11.65c0,.39-.21,.59-.62,.59Zm-6.75-10.66c-.07,0-.11,.03-.11,.1v8.29c0,.06,.04,.1,.11,.1h4.99l.1-.1v-8.29l-.1-.1h-4.99Z" fill="#fff"/>
      </g>
      <g>
        <path d="M56.34,22.16l-2.27,1.77c-.27-.26-1.21-1.26-2.84-3-1.62-1.74-4.12-4.44-7.5-8.11v-.15c.48-.12,1.09-.37,1.85-.75,.76-.39,1.4-.81,1.93-1.26,.45-.39,.84-.87,1.17-1.45,.34-.58,.5-1.35,.5-2.32,0-.88-.24-1.65-.74-2.29-.49-.64-1.17-1.11-2.03-1.41-.7-.25-1.44-.41-2.21-.45-.78-.05-1.49-.08-2.15-.08-.43,0-.77,0-1,0-.23,0-.4,0-.51,0-.02,2.19-.04,4.12-.04,5.79,0,1.67,0,2.85,0,3.54,0,1.58,0,3.72,.02,6.43,.02,2.71,.03,4.4,.04,5.1h-3c0-.69,.03-2.03,.05-4.01s.03-4.45,.03-7.41v-3.19c0-1.55-.03-4.38-.09-8.49,.12,0,.73,0,1.81-.03s2.09-.03,3.02-.03c1.05,0,2.07,.06,3.06,.17s1.96,.36,2.91,.74c1.2,.48,2.15,1.19,2.85,2.13,.7,.94,1.05,2.04,1.05,3.3,0,1.64-.53,3-1.59,4.08-1.06,1.08-2.06,1.89-3,2.42v.08c1.66,1.84,3.48,3.75,5.46,5.7,1.98,1.96,3.04,3.01,3.19,3.16Z" fill="#fff"/>
        <path d="M67.92,23.54h-3c0-.69,.03-1.92,.05-3.69,.02-1.77,.03-4.32,.03-7.63,0-1.31,0-3.03-.01-5.16-.01-2.13-.04-4.34-.07-6.63h3c-.02,1.65-.04,3.56-.06,5.74s-.03,3.96-.03,5.34c0,3.5,.01,6.2,.04,8.12s.04,3.22,.05,3.91Z" fill="#fff"/>
        <path d="M100.29,1.23c-.06,.14-1.34,2.76-3.85,7.87-2.5,5.12-4.89,10.04-7.17,14.78h-2.42c-2.51-5.32-4.91-10.35-7.2-15.08-2.29-4.73-3.49-7.21-3.6-7.44L78.9,.03c.08,.23,1.18,2.62,3.28,7.19,2.11,4.56,4.13,8.86,6.08,12.89h.03c1.98-4.13,4.04-8.48,6.18-13.05,2.14-4.57,3.24-6.92,3.31-7.06l2.51,1.23Z" fill="#fff"/>
        <path d="M124.02,23.51c-.11,0-.91,0-2.42-.01-1.5-.01-3.36-.02-5.58-.02-1.54,0-2.95,0-4.23,.02-1.28,0-2.36,.01-3.24,.01,.02-.67,.04-2.11,.06-4.34,.01-2.22,.02-4.51,.02-6.89,0-1.3,0-3.02-.02-5.16,0-2.14-.03-4.35-.07-6.65,.86,0,1.93,0,3.22,.02s2.62,.01,3.99,.01c2.32,0,4.2,0,5.65-.01s2.24-.02,2.36-.02V2.88c-.12,0-.88,0-2.28-.02-1.4-.02-3.14-.03-5.23-.03-.9,0-1.8,0-2.67,0-.87,0-1.56,0-2.07,0,0,1.3-.01,2.6-.04,3.89s-.03,2.52-.03,3.67c.54,0,1.19,0,1.94,0,.74,0,1.41,0,1.99,0,2.14,0,4.04,0,5.72-.02,1.68-.02,2.57-.03,2.68-.03v2.38c-.1,0-1.1,0-3-.02-1.9-.01-3.64-.02-5.21-.02-.58,0-1.28,0-2.08,0s-1.48,0-2.03,0c0,2.17,0,3.91,.02,5.18,0,1.28,.02,2.35,.03,3.21,.72,0,1.58,.02,2.6,.02s2.12,0,3.29,0c1.81,0,3.33,0,4.55-.02,1.23,0,1.92-.01,2.07-.01v2.4Z" fill="#fff"/>
        <path d="M153.53,22.16l-2.27,1.77c-.27-.26-1.22-1.26-2.84-3-1.62-1.74-4.12-4.44-7.5-8.11l.02-.15c.46-.12,1.07-.37,1.84-.75,.76-.39,1.4-.81,1.93-1.26,.44-.39,.84-.87,1.17-1.45,.34-.58,.5-1.35,.5-2.32,0-.88-.25-1.65-.74-2.29-.48-.64-1.17-1.11-2.03-1.41-.7-.25-1.43-.41-2.21-.45-.77-.05-1.49-.08-2.15-.08-.43,0-.77,0-1,0s-.4,0-.5,0c-.03,2.19-.04,4.12-.05,5.79s0,2.85,0,3.54c0,1.58,0,3.72,.03,6.43s.03,4.4,.04,5.1h-3c0-.69,.03-2.03,.06-4.01,.02-1.99,.03-4.45,.03-7.41v-3.19c0-1.55-.03-4.38-.09-8.49,.12,0,.73,0,1.82-.03s2.09-.03,3.02-.03c1.05,0,2.07,.06,3.06,.17,.99,.11,1.96,.36,2.91,.74,1.2,.48,2.15,1.19,2.85,2.13,.7,.94,1.05,2.04,1.05,3.3,0,1.64-.52,3-1.58,4.08-1.06,1.08-2.06,1.89-3.01,2.42v.08c1.66,1.84,3.48,3.75,5.47,5.7,1.98,1.96,3.04,3.01,3.19,3.16Z" fill="#fff"/>
      </g>
    </g>
  </g>
</svg>