<?xml version="1.0" encoding="UTF-8"?>
<svg xmlns="http://www.w3.org/2000/svg" viewBox="0 0 484.15 83.66">
  <g isolation="isolate">
    <g id="_圖層_2" data-name="圖層 2">
      <g id="content">
        <g mix-blend-mode="soft-light">
          <path d="M65.31,38.57V12.05c0-2.58-.74-4.7-2.21-6.35-1.47-1.65-3.75-2.48-6.85-2.48v-.91h26.56v.91c-3.1,0-5.36,.82-6.8,2.45s-2.15,3.76-2.15,6.38v59.93c0,5.81,2.98,8.72,8.95,8.72v.86h-26.56v-.86c2.83,0,5.05-.73,6.66-2.18,1.6-1.45,2.41-3.59,2.41-6.43v-31.1H17.5v30.99c0,2.76,.82,4.9,2.46,6.43,1.65,1.53,3.84,2.29,6.6,2.29v.86H0v-.86c2.87,0,5.07-.76,6.6-2.29,1.53-1.52,2.29-3.66,2.29-6.43V12.05C8.89,6.17,5.93,3.23,0,3.23v-.91H26.57v.91c-3.13,0-5.43,.82-6.88,2.45-1.45,1.63-2.18,3.76-2.18,6.38v26.52h47.81Z" fill="#1df5ff"/>
          <path d="M167.36,81.56h-17.5v-13.12l-.28-.21c-2.42,5.34-6.03,9.25-10.84,11.72-4.81,2.48-9.85,3.72-15.1,3.72-5.93,0-11.26-1.35-16-4.04-4.74-2.69-8.22-6.01-10.45-9.95-1.59-2.8-2.59-5.71-3-8.74-.42-3.03-.62-6.18-.62-9.44V12.05c0-2.37-.5-4.36-1.5-5.97-1-1.62-3.39-2.56-7.17-2.85v-.91h26.23v.91c-3.85,.43-6.3,1.49-7.36,3.17-1.05,1.68-1.58,3.57-1.58,5.65V50.84c0,7.89,.85,13.72,2.55,17.49,1.81,4.01,4.53,7.15,8.15,9.41,3.63,2.26,7.74,3.39,12.35,3.39,1.92,0,4.21-.32,6.86-.97,2.64-.65,5.12-1.72,7.42-3.23,6.91-4.48,10.37-11.67,10.37-21.57V12.05c0-2.19-.53-4.13-1.58-5.81-1.06-1.68-3.55-2.69-7.48-3.01v-.91h26.68v.91c-3.85,.18-6.32,1.2-7.42,3.07-1.1,1.87-1.65,3.75-1.65,5.65v60.04c0,2.08,.37,3.72,1.1,4.92,.74,1.2,1.76,2.06,3.06,2.55,1.3,.5,2.9,.92,4.79,1.24v.86Z" fill="#1df5ff"/>
          <path d="M169.89,3.23v-.91h32.11c4.5,0,8.64,.37,12.44,1.1,3.79,.74,7.19,1.71,10.2,2.93s5.6,2.55,7.79,4.01c2.19,1.45,4.04,2.93,5.55,4.44,2.64,2.51,4.89,5.3,6.74,8.36s3.24,6.3,4.17,9.71c.92,3.41,1.39,6.92,1.39,10.54s-.45,7.07-1.36,10.33c-.91,3.26-2.21,6.28-3.91,9.06-1.7,2.78-3.73,5.3-6.09,7.56-2.36,2.26-5.11,4.31-8.24,6.13-2.68,1.51-5.76,2.73-9.23,3.66-3.47,.93-8.17,1.4-14.1,1.4h-37.44v-.86h1.13c2.6,0,4.55-.93,5.83-2.8,1.28-1.87,1.92-3.84,1.92-5.92V12.16c0-2.01-.35-3.7-1.05-5.06s-1.63-2.35-2.8-2.96-2.47-.91-3.91-.91h-1.13Zm17.5,2.85v62.78c0,3.09,.52,5.35,1.56,6.81,1.04,1.45,2.66,2.39,4.84,2.82,2.19,.43,5.4,.64,9.63,.64,6.04,0,11.14-.56,15.3-1.69,4.15-1.13,8.17-3.65,12.07-7.56,2.87-2.91,5.17-6.46,6.91-10.65,1.74-4.2,2.61-9.27,2.61-15.23,0-4.7-.7-9.35-2.1-13.96-1.4-4.6-3.53-8.71-6.4-12.29-3.21-4.05-7.33-7.23-12.37-9.53-5.04-2.29-11.11-3.44-18.21-3.44-3.66,0-8.27,.43-13.82,1.29Z" fill="#1df5ff"/>
          <path d="M297.43,17.54h-.9c-.54-3.84-2.29-7.2-5.3-10.09-3-2.89-6.95-4.33-11.87-4.33-3.21,0-6.06,.72-8.55,2.15-2.49,1.44-4.41,3.39-5.77,5.86-1.36,2.48-2.04,5.31-2.04,8.5,0,2.48,.41,4.67,1.22,6.59,.82,1.92,2.01,3.61,3.6,5.08,1.58,1.47,3.46,2.84,5.61,4.12s5.06,2.88,8.72,4.81c6.12,3.19,10.88,6.38,14.28,9.55s5.1,7.52,5.1,13.05c0,3.37-.92,6.63-2.74,9.77-1.84,3.13-4.6,5.71-8.3,7.72-3.7,2.01-8.29,3.01-13.77,3.01-3.43,0-6.47-.35-9.11-1.05-2.65-.7-5.33-1.68-8.05-2.93-1.13-.36-1.9-.54-2.32-.54-.8,0-1.31,.27-1.56,.81-.25,.54-.58,1.7-.99,3.5h-.97v-19.85h.97c1.36,5.81,4,10.21,7.93,13.18,3.93,2.98,8.7,4.47,14.33,4.47,4.23,0,7.62-.75,10.17-2.26,2.55-1.5,4.32-3.33,5.29-5.49,.99-2.15,1.47-4.3,1.47-6.46,0-4.45-1.43-8.08-4.28-10.89s-7.19-5.69-13-8.63c-4-2.08-6.97-3.7-8.9-4.84s-3.88-2.64-5.86-4.47c-1.98-1.83-3.56-3.99-4.73-6.48-1.17-2.5-1.76-5.36-1.76-8.58,0-3.73,1.04-7.29,3.12-10.7,2.08-3.41,5.02-6.14,8.84-8.2,3.81-2.07,8.13-3.1,12.97-3.1,3.66,0,7.42,.59,11.27,1.78,.61,.28,1.42,.43,2.44,.43,1.24,0,2.09-.81,2.55-2.42h.9V17.54Z" fill="#1df5ff"/>
          <path d="M393.19,42.02c0,7.42-1.93,14.33-5.8,20.71-3.88,6.38-9.15,11.46-15.83,15.25-6.69,3.78-14.09,5.68-22.21,5.68s-15.63-1.89-22.43-5.68-12.15-8.88-16.06-15.3c-3.91-6.42-5.86-13.41-5.86-20.98,0-5.81,1.16-11.27,3.49-16.38,2.32-5.11,5.57-9.57,9.74-13.37,4.18-3.8,8.94-6.74,14.28-8.82s10.93-3.12,16.74-3.12,11.18,1,16.43,2.98c5.25,1.99,9.96,4.87,14.14,8.64,4.17,3.76,7.44,8.23,9.82,13.39s3.56,10.83,3.56,17Zm-9.97,.21c0-10.55-1.96-18.79-5.89-24.75-3.93-5.96-8.46-9.95-13.59-11.97s-9.97-3.04-14.5-3.04c-3.51,0-7.16,.55-10.93,1.64-3.78,1.09-7.45,3.09-11.02,6-3.57,2.91-6.51,6.99-8.81,12.27-2.3,5.27-3.46,11.78-3.46,19.53,0,6.81,.95,12.76,2.86,17.83,1.9,5.08,4.53,9.22,7.87,12.43,3.34,3.21,7.02,5.53,11.04,6.94,4.02,1.42,8.2,2.12,12.55,2.12,3.89,0,7.82-.65,11.81-1.96s7.63-3.44,10.94-6.4c3.3-2.96,5.99-6.98,8.04-12.05,2.06-5.08,3.09-11.27,3.09-18.59Z" fill="#1df5ff"/>
          <path d="M484.15,2.31v.91c-2.12,.25-3.79,.63-5.02,1.16-1.22,.52-2.18,1.54-2.86,3.07-.67,1.52-1.02,3.72-1.02,6.59V83.55h-.57L410.62,15.65v48.74c0,4.05,.17,7.07,.51,9.04s.83,3.39,1.47,4.25c1.4,1.87,3.83,2.87,7.3,3.01v.86h-20.9v-.86c2.33-.11,4.16-.59,5.46-1.43,1.31-.84,2.23-2.39,2.78-4.63,.55-2.24,.82-5.62,.82-10.14V12.8l-2.78-2.96c-2.45-2.65-4.41-4.33-5.89-5.03s-3.3-1.23-5.49-1.59v-.91h15.68l63.11,67.14V18.29c0-3.84-.17-6.71-.48-8.61-.32-1.9-1.17-3.42-2.55-4.58-1.39-1.15-3.54-1.77-6.49-1.88v-.91h20.97Z" fill="#1df5ff"/>
        </g>
      </g>
    </g>
  </g>
</svg>