<?xml version="1.0" encoding="UTF-8"?>
<svg xmlns="http://www.w3.org/2000/svg" xmlns:xlink="http://www.w3.org/1999/xlink" viewBox="0 0 368.99 421.03">
  <defs>
    <linearGradient id="_新增漸層色票_20" data-name="新增漸層色票 20" x1="215.7" y1="-2.49" x2="216.48" y2="105.5" gradientUnits="userSpaceOnUse">
      <stop offset="0" stop-color="#fff"/>
      <stop offset=".07" stop-color="#dbd4d2"/>
      <stop offset=".17" stop-color="#b0a29f"/>
      <stop offset=".26" stop-color="#8f7a76"/>
      <stop offset=".34" stop-color="#775e59"/>
      <stop offset=".41" stop-color="#694d47"/>
      <stop offset=".47" stop-color="#644741"/>
      <stop offset=".86" stop-color="#a88d81"/>
      <stop offset=".99" stop-color="#bfa597"/>
    </linearGradient>
    <linearGradient id="_新增漸層色票_20-2" data-name="新增漸層色票 20" x1="153.47" y1="-2.04" x2="154.25" y2="105.95" xlink:href="#_新增漸層色票_20"/>
    <linearGradient id="_未命名漸層_1049" data-name="未命名漸層 1049" x1="185.14" y1="-17.99" x2="185.92" y2="90" gradientUnits="userSpaceOnUse">
      <stop offset=".1" stop-color="#fff"/>
      <stop offset=".16" stop-color="#dbd4d2"/>
      <stop offset=".23" stop-color="#b0a29f"/>
      <stop offset=".3" stop-color="#8f7a76"/>
      <stop offset=".37" stop-color="#775e59"/>
      <stop offset=".43" stop-color="#694d47"/>
      <stop offset=".47" stop-color="#644741"/>
      <stop offset=".86" stop-color="#a88d81"/>
      <stop offset=".99" stop-color="#bfa597"/>
    </linearGradient>
  </defs>
  <g isolation="isolate">
    <g id="_圖層_2" data-name="圖層 2">
      <g id="content">
        <g>
          <g>
            <g>
              <path d="M125.04,113.76s.04-.08,.06-.13c.02-.04,.06-.07,.11-.09,.05-.02,.12-.04,.2-.05s.2-.02,.35-.02c.07,0,.15,0,.26,0,.11,0,.23-.01,.35-.02,.13,0,.25-.01,.38-.02,.13-.01,.25-.02,.36-.03,.02,.1,.03,.19,.03,.25,0,.17-.04,.26-.13,.27-.3,.05-.5,.12-.6,.21-.1,.09-.15,.21-.15,.35,0,.01,0,.15,.02,.42s.03,.71,.06,1.33c.03,.62,.06,1.45,.09,2.49,.04,1.04,.08,2.32,.13,3.86,0,.2,.06,.35,.16,.44,.1,.09,.31,.17,.61,.24,.04,.01,.07,.04,.09,.09,.02,.05,.03,.1,.03,.16s0,.15-.03,.25c-.29-.02-.56-.04-.8-.05-.24-.02-.46-.02-.66-.02-.08,0-.19,0-.31,0-.13,0-.26,.01-.4,.02-.14,0-.27,.01-.41,.02-.13,.01-.25,.02-.35,.03-.02-.1-.03-.19-.03-.25,0-.17,.04-.25,.13-.25,.33-.08,.56-.17,.68-.25,.12-.08,.18-.22,.18-.42,0-.03,0-.22-.02-.58-.01-.36-.03-.79-.05-1.3-.02-.51-.04-1.07-.06-1.66-.02-.6-.04-1.16-.06-1.69-.02-.53-.04-.98-.06-1.37-.02-.38-.03-.61-.03-.7l-2.75,8.31c-.03,.09-.06,.16-.09,.21-.03,.05-.07,.07-.12,.07-.06,0-.1,0-.11-.02l-3.07-8.82c0,.1-.02,.36-.03,.76-.01,.4-.03,.88-.05,1.44-.02,.55-.04,1.14-.07,1.76-.03,.62-.05,1.19-.07,1.71-.02,.52-.04,.96-.05,1.32-.01,.36-.02,.54-.02,.57,0,.32,.28,.55,.85,.68,.08,.01,.13,.09,.13,.25,0,.06,0,.15-.03,.25-.23-.02-.45-.04-.66-.05-.22-.02-.41-.02-.58-.02-.13,0-.31,0-.54,.02-.23,.02-.44,.03-.64,.05-.02-.1-.03-.19-.03-.25,0-.15,.04-.23,.13-.25,.23-.05,.41-.13,.55-.23,.14-.1,.22-.25,.23-.45,0-.09,0-.36,.03-.79,.02-.43,.04-.95,.06-1.55s.04-1.23,.07-1.9c.03-.67,.05-1.29,.07-1.86,.02-.57,.04-1.04,.05-1.41,.01-.37,.02-.56,.02-.57,0-.17-.05-.29-.16-.37-.1-.08-.3-.15-.6-.21-.08-.01-.13-.1-.13-.27,0-.06,0-.15,.03-.25,.11,.01,.23,.02,.37,.03,.14,.01,.28,.02,.41,.02,.14,0,.27,.01,.4,.02,.13,0,.23,0,.3,0,.15,0,.27,0,.35,.02s.15,.03,.2,.05c.05,.02,.09,.05,.11,.09,.02,.04,.04,.08,.06,.13l2.68,7.84,2.55-7.84Z" fill="#c7ba9a"/>
              <path d="M143.22,114.1v4.02h1.96c.17,0,.29-.1,.36-.31,.07-.2,.13-.45,.17-.75,.03-.14,.1-.2,.23-.2,.03,0,.06,0,.1,.02,.04,.01,.08,.02,.1,.03-.02,.23-.03,.49-.04,.78-.01,.29-.02,.55-.02,.77,0,.18,0,.4,.01,.65,0,.26,.03,.55,.05,.87-.07,.02-.13,.03-.19,.03-.13,0-.21-.07-.24-.2-.04-.29-.1-.54-.17-.75-.07-.2-.19-.31-.36-.31h-1.96v3.71c0,.22,.11,.37,.34,.44,.23,.07,.6,.11,1.12,.11h.69c.24,0,.45-.04,.63-.13,.18-.09,.34-.21,.48-.36,.14-.15,.26-.33,.37-.54,.11-.21,.21-.44,.31-.69,.03-.07,.09-.11,.19-.11,.04,0,.09,.02,.13,.05s.09,.06,.13,.09c-.08,.2-.14,.44-.19,.71-.05,.28-.11,.54-.16,.79-.05,.25-.1,.47-.16,.64-.05,.18-.12,.27-.21,.27-.07,0-.16,0-.29-.02-.13-.01-.26-.02-.41-.02-.15,0-.29-.01-.45-.02-.15-.01-.28-.02-.39-.02h-2.75c-.24,0-.5,0-.78,.02-.28,.02-.54,.03-.79,.05-.02-.1-.03-.19-.03-.25,0-.15,.04-.23,.13-.25,.32-.07,.55-.15,.68-.24,.14-.08,.21-.23,.21-.44v-7.99c0-.21-.06-.35-.18-.43-.12-.08-.36-.16-.71-.24-.08-.02-.13-.11-.13-.27,0-.05,0-.1,0-.13,0-.04,.01-.08,.02-.12,.36,.03,.66,.05,.9,.06,.24,.01,.46,.02,.65,.02h2.47c.38,0,.7-.02,.98-.05,.28-.03,.46-.05,.55-.05,.11,0,.18,.09,.22,.26,.04,.17,.07,.38,.09,.62,.03,.24,.05,.5,.09,.77,.03,.27,.1,.5,.19,.69-.07,.06-.14,.09-.23,.09-.11,0-.18-.05-.21-.14-.1-.27-.2-.5-.29-.7-.09-.19-.2-.35-.32-.48-.12-.13-.27-.22-.44-.28-.17-.06-.38-.09-.63-.09h-1.86Z" fill="#c7ba9a"/>
              <path d="M169.59,119.08h-.93v3.45c0,.23,.09,.39,.26,.47s.43,.15,.78,.2c.1,.02,.15,.11,.15,.27,0,.07,0,.16-.03,.27-.23-.02-.5-.04-.82-.05-.32-.02-.64-.02-.95-.02-.22,0-.47,0-.75,.02-.28,.02-.55,.03-.8,.05-.02-.1-.03-.19-.03-.25,0-.15,.05-.23,.14-.25,.32-.06,.54-.14,.67-.23,.13-.09,.19-.24,.19-.45v-7.99c0-.2-.06-.35-.18-.45-.12-.1-.36-.18-.71-.23-.08-.01-.13-.1-.13-.27,0-.06,0-.15,.03-.25,.25,.02,.51,.04,.78,.05,.27,.02,.52,.02,.77,.02h1.69c.9,0,1.58,.25,2.04,.75,.46,.5,.69,1.17,.69,2.02,0,.23-.03,.47-.09,.72-.06,.25-.16,.5-.29,.74-.13,.24-.3,.46-.5,.67-.21,.2-.45,.37-.72,.49l2.09,3.64c.16,.27,.33,.46,.53,.57,.19,.1,.37,.18,.54,.24,.08,.02,.11,.09,.11,.22,0,.08,0,.18-.02,.28-.19-.02-.43-.04-.7-.05-.28-.02-.53-.02-.77-.02-.18,0-.35-.09-.53-.28-.18-.19-.35-.43-.51-.72l-2.01-3.63Zm-.26-.64c.58,0,1.04-.15,1.35-.46,.32-.31,.48-.85,.48-1.63,0-.32-.03-.62-.1-.9-.07-.27-.17-.51-.32-.71-.15-.2-.34-.36-.58-.47-.24-.12-.53-.17-.87-.17h-.63v4.33h.66Z" fill="#c7ba9a"/>
              <path d="M189.15,122.56c0,.21,.06,.35,.18,.43,.12,.08,.33,.16,.65,.24,.08,.02,.13,.1,.13,.25,0,.06,0,.15-.03,.25-.26-.02-.52-.04-.78-.05-.26-.02-.51-.02-.74-.02s-.47,0-.75,.02c-.27,.02-.53,.03-.77,.05-.02-.1-.03-.19-.03-.25,0-.15,.04-.23,.13-.25,.32-.07,.54-.15,.65-.24s.18-.23,.18-.44v-7.99c0-.21-.06-.36-.18-.45-.12-.09-.33-.16-.65-.23-.05-.01-.08-.04-.1-.09-.02-.05-.03-.11-.03-.17s0-.15,.03-.25c.25,.02,.51,.04,.78,.05,.27,.02,.52,.02,.73,.02s.45,0,.72-.02c.27-.02,.54-.03,.8-.05,.02,.1,.03,.19,.03,.25,0,.16-.04,.25-.13,.27-.32,.06-.54,.14-.65,.23-.12,.09-.18,.24-.18,.45v7.99Z" fill="#c7ba9a"/>
              <path d="M209.87,114.71c.03-.12,.05-.22,.05-.31,0-.15-.06-.26-.18-.33-.12-.07-.31-.13-.56-.17-.1-.01-.15-.1-.15-.27,0-.05,0-.1,.01-.14,0-.03,0-.07,.01-.11,.02,0,.07,0,.16,.02,.09,.01,.2,.02,.33,.03,.13,.01,.27,.02,.42,.02,.15,0,.29,0,.43,0,.28,0,.53-.01,.76-.03,.23-.02,.37-.04,.41-.05,0,.03,0,.07,.01,.11,0,.03,0,.06,0,.09s0,.05,0,.07c0,.17-.05,.26-.14,.28-.27,.02-.46,.07-.59,.16-.13,.08-.22,.23-.29,.42l-3.1,9.33s-.04,0-.06,0-.04,0-.06,0c-.09,0-.17-.09-.23-.27l-2.95-9.15c-.05-.15-.13-.26-.25-.33-.12-.07-.33-.14-.63-.19-.09-.01-.14-.1-.14-.28,0-.08,0-.17,.03-.25,.25,.02,.52,.04,.82,.05,.29,.02,.55,.02,.76,.02s.46,0,.77-.02c.3-.02,.58-.03,.84-.05,.02,.1,.03,.19,.03,.25,0,.16-.05,.25-.15,.27-.49,.06-.74,.23-.74,.5,0,.07,0,.14,.03,.2l2.13,6.83,2.19-6.72Z" fill="#c7ba9a"/>
              <path d="M226.84,114.1v4.02h1.96c.17,0,.29-.1,.36-.31,.07-.2,.13-.45,.17-.75,.03-.14,.1-.2,.23-.2,.03,0,.06,0,.1,.02,.04,.01,.08,.02,.1,.03-.02,.23-.03,.49-.04,.78-.01,.29-.02,.55-.02,.77,0,.18,0,.4,.01,.65,0,.26,.03,.55,.05,.87-.07,.02-.13,.03-.19,.03-.13,0-.21-.07-.24-.2-.04-.29-.1-.54-.17-.75-.07-.2-.19-.31-.36-.31h-1.96v3.71c0,.22,.11,.37,.34,.44,.23,.07,.6,.11,1.12,.11h.69c.24,0,.45-.04,.63-.13,.18-.09,.34-.21,.48-.36,.14-.15,.26-.33,.37-.54,.11-.21,.21-.44,.31-.69,.03-.07,.09-.11,.19-.11,.04,0,.09,.02,.13,.05s.09,.06,.13,.09c-.08,.2-.14,.44-.19,.71-.05,.28-.11,.54-.16,.79-.05,.25-.1,.47-.16,.64-.05,.18-.12,.27-.21,.27-.07,0-.16,0-.29-.02-.13-.01-.26-.02-.41-.02-.15,0-.29-.01-.45-.02-.15-.01-.28-.02-.39-.02h-2.75c-.24,0-.5,0-.78,.02-.28,.02-.54,.03-.79,.05-.02-.1-.03-.19-.03-.25,0-.15,.04-.23,.13-.25,.32-.07,.55-.15,.68-.24,.14-.08,.21-.23,.21-.44v-7.99c0-.21-.06-.35-.18-.43-.12-.08-.36-.16-.71-.24-.08-.02-.13-.11-.13-.27,0-.05,0-.1,0-.13,0-.04,.01-.08,.02-.12,.36,.03,.66,.05,.9,.06,.24,.01,.46,.02,.65,.02h2.47c.38,0,.7-.02,.98-.05,.28-.03,.46-.05,.55-.05,.11,0,.18,.09,.22,.26,.04,.17,.07,.38,.09,.62,.03,.24,.05,.5,.09,.77,.03,.27,.1,.5,.19,.69-.07,.06-.14,.09-.23,.09-.11,0-.18-.05-.21-.14-.1-.27-.2-.5-.29-.7-.09-.19-.2-.35-.32-.48-.12-.13-.27-.22-.44-.28-.17-.06-.38-.09-.63-.09h-1.86Z" fill="#c7ba9a"/>
              <path d="M247.78,119.08h-.93v3.45c0,.23,.09,.39,.26,.47s.43,.15,.78,.2c.1,.02,.15,.11,.15,.27,0,.07,0,.16-.03,.27-.23-.02-.5-.04-.82-.05-.32-.02-.64-.02-.95-.02-.22,0-.47,0-.75,.02-.28,.02-.55,.03-.8,.05-.02-.1-.03-.19-.03-.25,0-.15,.05-.23,.14-.25,.32-.06,.54-.14,.67-.23,.13-.09,.19-.24,.19-.45v-7.99c0-.2-.06-.35-.18-.45-.12-.1-.36-.18-.71-.23-.08-.01-.13-.1-.13-.27,0-.06,0-.15,.03-.25,.25,.02,.51,.04,.78,.05,.27,.02,.52,.02,.77,.02h1.69c.9,0,1.58,.25,2.04,.75,.46,.5,.69,1.17,.69,2.02,0,.23-.03,.47-.09,.72s-.16,.5-.29,.74c-.13,.24-.3,.46-.5,.67-.21,.2-.45,.37-.72,.49l2.09,3.64c.16,.27,.33,.46,.53,.57,.19,.1,.37,.18,.54,.24,.08,.02,.11,.09,.11,.22,0,.08,0,.18-.02,.28-.19-.02-.43-.04-.7-.05-.28-.02-.53-.02-.77-.02-.18,0-.35-.09-.53-.28-.18-.19-.35-.43-.51-.72l-2.01-3.63Zm-.26-.64c.58,0,1.04-.15,1.35-.46,.32-.31,.48-.85,.48-1.63,0-.32-.03-.62-.1-.9-.07-.27-.17-.51-.32-.71-.15-.2-.34-.36-.58-.47-.24-.12-.53-.17-.87-.17h-.63v4.33h.66Z" fill="#c7ba9a"/>
            </g>
            <g>
              <path d="M214.84,107.59v.07h.57c.93-.54,1.84-1.1,2.73-1.69h-.41c-.95,.56-1.91,1.11-2.89,1.62Z" fill="url(#_新增漸層色票_20)"/>
              <path d="M152.94,105.8c.84,.56,1.7,1.1,2.58,1.62l.06-.43c-.76-.39-1.52-.77-2.26-1.2h-.37Z" fill="url(#_新增漸層色票_20-2)"/>
              <path d="M244.82,56.57c0-11.99-3.59-23.15-9.75-32.47-8.42-11.88-21.21-20.51-36.52-23.05-19.72-3.27-41.04,.94-55.75,15.08-1.04,1-2.02,2.04-2.97,3.1-8.32,10.19-13.32,23.19-13.32,37.34,0,20.51,10.5,38.62,26.41,49.23h.37c.74,.42,1.5,.81,2.26,1.2,0,0,0,0,0,0l.7-5.83c.02-.29,.05-.6,.09-.92l4.49-48.68,23.21,49.05c.4,.84,.73,1.52,1.01,2.11v.33c.29-.61,.63-1.33,1.06-2.22l23.21-49.05,4.49,48.68s0,.04,0,.06l.99,7.06c.98-.51,1.94-1.05,2.89-1.62h.41c16.06-10.59,26.68-28.77,26.68-49.41Zm-23.69,37.38l-6.27-57.26c-.19-1.77-.47-2.52-1.12-2.52s-1.03,.65-1.4,1.49l-27.21,57.91v-.11l-27.26-58.03c-.37-.84-.75-1.49-1.4-1.49s-.94,.75-1.12,2.52l-6.27,57.26c-.11,.96-.25,2.08-.48,3.22-1.71-1.74-3.32-3.59-4.81-5.56-13.21-17.44-15.15-41.69-4.84-61,10.87-20.37,35.29-34.46,58.37-28.07,24.75,6.84,41.2,29.43,41.73,54.79-.32,15.54-6.56,30.14-17.28,40.69-.31-1.35-.49-2.7-.61-3.84Z" fill="url(#_未命名漸層_1049)"/>
            </g>
            <g mix-blend-mode="overlay">
              <path d="M214.84,107.59v.07h.57c.93-.54,1.84-1.1,2.73-1.69h-.41c-.95,.56-1.91,1.11-2.89,1.62Z" fill="#beb292"/>
              <path d="M152.94,105.8c.84,.56,1.7,1.1,2.58,1.62l.06-.43c-.76-.39-1.52-.77-2.26-1.2h-.37Z" fill="#beb292"/>
              <path d="M244.82,56.57c0-11.99-3.59-23.15-9.75-32.47-8.42-11.88-21.21-20.51-36.52-23.05-19.72-3.27-41.04,.94-55.75,15.08-1.04,1-2.02,2.04-2.97,3.1-8.32,10.19-13.32,23.19-13.32,37.34,0,20.51,10.5,38.62,26.41,49.23h.37c.74,.42,1.5,.81,2.26,1.2,0,0,0,0,0,0l.7-5.83c.02-.29,.05-.6,.09-.92l4.49-48.68,23.21,49.05c.4,.84,.73,1.52,1.01,2.11v.33c.29-.61,.63-1.33,1.06-2.22l23.21-49.05,4.49,48.68s0,.04,0,.06l.99,7.06c.98-.51,1.94-1.05,2.89-1.62h.41c16.06-10.59,26.68-28.77,26.68-49.41Zm-23.69,37.38l-6.27-57.26c-.19-1.77-.47-2.52-1.12-2.52s-1.03,.65-1.4,1.49l-27.21,57.91v-.11l-27.26-58.03c-.37-.84-.75-1.49-1.4-1.49s-.94,.75-1.12,2.52l-6.27,57.26c-.11,.96-.25,2.08-.48,3.22-1.71-1.74-3.32-3.59-4.81-5.56-13.21-17.44-15.15-41.69-4.84-61,10.87-20.37,35.29-34.46,58.37-28.07,24.75,6.84,41.2,29.43,41.73,54.79-.32,15.54-6.56,30.14-17.28,40.69-.31-1.35-.49-2.7-.61-3.84Z" fill="#beb292"/>
            </g>
            <g>
              <path d="M90.14,150.51h-2.05c-.37,0-.66-.27-.66-.59v-7.91c0-.33-.3-.59-.66-.59h-1.2c-.37,0-.66,.27-.66,.59v7.91c0,.33-.3,.59-.66,.59h-3.81c-.37,0-.66,.27-.66,.59s.31,.6,.68,.59l2.87-.07h.1c-.3,4.24-.75,6.79-1.46,9.64-.63,2.53-1.01,4.34-2,6.29,1.56-1.99,3.31-4.63,4.16-7.93l.78-3.05v26.55s.17,0,.17,0c.22-.33,.92-1.56,1.7-5.21,.36-1.67,.54-4.72,.72-8.23,0-3.25-.03-10.83-.04-14.87v-2.6s.77,2.43,.77,2.43c.76,2.37,1.35,5.09,1.7,6.72,.07,.33,.13,.6,.18,.8h.19c-.12-4.55-.43-8.15-.77-9.92l-.06-.56h.69c.37,0,.67-.26,.67-.59v-.02c0-.33-.3-.59-.66-.59Z" fill="#fff"/>
              <path d="M92.82,146.96h3.58c.43,0,.79,.31,.79,.7v2.52c0,.39,.35,.7,.79,.7h1.11c.43,0,.79-.31,.79-.7v-2.52c0-.39,.35-.7,.79-.7h6.83c.43,0,.79,.31,.79,.7v2.44c0,.39,.35,.7,.79,.7h1.11c.43,0,.79-.31,.79-.7v-2.44c0-.39,.35-.7,.79-.7h3.81c.43,0,.79-.31,.79-.7s-.35-.7-.79-.7h-3.81c-.43,0-.79-.31-.79-.7v-2.62c0-.39-.35-.7-.79-.7h-1.11c-.43,0-.79,.31-.79,.7v2.62c0,.39-.35,.7-.79,.7h-6.83c-.43,0-.79-.31-.79-.7v-2.54c0-.39-.35-.7-.79-.7h-1.11c-.43,0-.79,.31-.79,.7v2.54c0,.39-.35,.7-.79,.7h-3.58c-.43,0-.79,.32-.79,.7s.35,.7,.79,.7Z" fill="#fff"/>
              <path d="M116.26,175.47h-10.24c-.38,0-.69-.28-.69-.61v-4.64c0-.34,.31-.61,.69-.61h8.84c.38,0,.69-.28,.69-.61v-.04c0-.34-.31-.61-.69-.61h-1.35c-.38,0-.69-.28-.69-.61v-5.08c0-.34,.31-.61,.69-.61h2.59c.38,0,.69-.28,.69-.61v-.26c0-.34-.31-.61-.69-.61h-2.59c-.38,0-.69-.28-.69-.61v-5.39c0-.34,.31-.61,.69-.61h1.35c.38,0,.69-.28,.69-.61h0c0-.34-.31-.61-.69-.61h-21.05c-.38,0-.69,.28-.69,.61v.04c0,.34,.31,.61,.69,.61h.88c.38,0,.69,.28,.69,.61v5.35c0,.34-.31,.61-.69,.61h-1.97c-.38,0-.69,.28-.69,.61v.18c0,.34,.31,.61,.69,.61h1.97c.38,0,.69,.28,.69,.61v5.2c0,.34-.31,.61-.69,.61h-1.19c-.38,0-.69,.28-.69,.61s.31,.61,.69,.61h8.47c.38,0,.69,.28,.69,.61v4.6c0,.34-.31,.61-.69,.61h-10.03c-.38,0-.69,.28-.69,.61v.08c0,.34,.31,.61,.69,.61h10.03c.38,0,.69,.28,.69,.61v5.08c0,.34,.31,.61,.69,.61h1.31c.38,0,.69-.28,.69-.61v-5.08c0-.34,.31-.61,.69-.61h10.24c.38,0,.69-.28,.69-.61v-.04c0-.34-.31-.61-.69-.61Zm-10.92-20.94c0-.34,.31-.61,.69-.61h3.35c.38,0,.69,.28,.69,.61v5.39c0,.34-.31,.61-.69,.61h-3.35c-.38,0-.69-.28-.69-.61v-5.39Zm0,8.03c0-.34,.31-.61,.69-.61h3.35c.38,0,.69,.28,.69,.61v5.2c0,.34-.31,.61-.69,.61h-3.35c-.38,0-.69-.28-.69-.61v-5.2Zm-2.68,5.2c0,.34-.31,.61-.69,.61h-3.23c-.38,0-.69-.28-.69-.61v-5.16c0-.34,.31-.61,.69-.61h3.23c.38,0,.69,.28,.69,.61v5.16Zm0-7.83c0,.34-.31,.61-.69,.61h-3.23c-.38,0-.69-.28-.69-.61v-5.39c0-.34,.31-.61,.69-.61h3.23c.38,0,.69,.28,.69,.61v5.39Z" fill="#fff"/>
            </g>
            <path d="M173.39,176.24h-7.95c-.38,0-.7-.29-.7-.64v-2.77c0-.36,.31-.64,.69-.64l6.62-.02c.38,0,.69-.29,.69-.64v-14.97c0-.36-.31-.64-.7-.64h-6.61c-.38,0-.7-.29-.7-.64v-2.3c0-.36,.31-.64,.7-.64h4.68c.38,0,.7-.29,.7-.64v-.09c0-.36-.31-.64-.7-.64h-4.68c-.38,0-.7-.29-.7-.64v-2.53c0-.36-.31-.64-.7-.64h-1.24c-.38,0-.7,.29-.7,.64v2.53c0,.36-.31,.64-.7,.64h-5.65c-.38,0-.7,.29-.7,.64h0c0,.37,.31,.65,.7,.65h5.65c.38,0,.7,.29,.7,.64v2.32c0,.36-.31,.64-.69,.64h-6.61c-.39,.01-.7,.3-.69,.66l.07,14.98c0,.35,.31,.64,.7,.64h6.54c.38,0,.7,.29,.7,.64v2.82c0,.36-.31,.64-.7,.64h-8.08c-.38,0-.7,.29-.7,.64s.31,.64,.7,.64h8.08c.38,0,.7,.29,.7,.64v4.67c0,.36,.31,.64,.7,.64h1.24c.38,0,.7-.29,.7-.64v-4.67c0-.36,.31-.64,.7-.64h7.95c.38,0,.7-.29,.7-.64s-.31-.64-.7-.64Zm-8.65-18.12c0-.36,.31-.64,.7-.64h3.99c.38,0,.7,.29,.7,.64v4.36c0,.36-.31,.64-.7,.64h-3.99c-.38,0-.7-.29-.7-.64v-4.36Zm0,7.03c0-.36,.31-.64,.7-.64h3.99c.38,0,.7,.29,.7,.64v5.1c0,.36-.31,.64-.7,.64h-3.99c-.38,0-.7-.29-.7-.64v-5.1Zm-2.63,4.95c0,.36-.31,.64-.7,.64h-3.99c-.38,0-.7-.29-.7-.64v-4.87c0-.36,.31-.64,.7-.64h3.99c.38,0,.7,.29,.7,.64v4.87Zm0-7.61c0,.36-.31,.64-.7,.64h-3.99c-.38,0-.7-.29-.7-.64v-4.36c0-.36,.31-.64,.7-.64h3.99c.38,0,.7,.29,.7,.64v4.36Z" fill="#fff"/>
            <path d="M148.67,156.07h1.08c.38,0,.69-.29,.7-.64l.13-11.45h-.22c-.17,.11-.83,.64-1.58,2.36-.32,.73-.6,2.12-.78,3.82,0,.02,0,.04,0,.06-.05,2.47-.04,4.2-.03,5.22,0,.35,.32,.63,.7,.63Z" fill="#fff"/>
            <path d="M139.61,156.38h1.02c.38,0,.69-.28,.7-.63,.01-1.02,.02-2.76-.03-5.22,0-.02,0-.04,0-.06-.18-1.65-.46-3.04-.78-3.77-.74-1.72-1.4-2.25-1.58-2.37h-.15s.13,11.41,.13,11.41c0,.35,.31,.64,.7,.64Z" fill="#fff"/>
            <path d="M154.51,151.28c.32-.73,.6-2.12,.78-3.82,0-.02,0-.04,0-.06,.01-.68,.02-1.35,.03-1.94v-.45h15.54c.39,0,.7,.29,.7,.65l-.1,7.83h.22c.17-.11,.83-.64,1.58-2.36,.32-.73,.6-2.12,.78-3.82,0-.02,0-.04,0-.06,.04-1.82,.04-3.26,.04-4.2,0-.35-.31-.64-.7-.64h-1.09c-.38,0-.69,.29-.7,.64v.26c0,.35-.32,.64-.7,.64h-15.56v-.45c0-.41,0-.73-.01-.98h-1.78c-.38,0-.69,.29-.69,.64l-.13,10.49h.22c.17-.11,.83-.64,1.58-2.36Z" fill="#fff"/>
            <path d="M148.78,172.7v-1.17c-.06-4.66-.06-10.54-.06-11.2v-.45l1.55-.02c.38,0,.69-.29,.69-.65v-.24c0-.36-.31-.64-.7-.64h-3.8c-.38,0-.7-.29-.7-.64v-14.89c0-.36-.31-.64-.7-.64h-1.07c-.38,0-.7,.29-.7,.64v15.03c0,.36-.31,.64-.7,.64h-4.1c-.38,0-.7,.29-.7,.64v.1c0,.36,.31,.64,.7,.64h1.79c.38,0,.7,.29,.7,.64v.04s.02,0,.03,0c.01,.1,.02,.19,.02,.26-.02,2.27-.21,8.04-.8,12.35-.5,3.6-2.7,7.75-3.65,9.47l.11,.06c.52-.46,1.95-2.04,3.36-3.99,2.12-2.92,2.75-6.96,2.95-18.05,0,0,.01,0,.02,0,0-.2,0-.32,0-.33v-.46s2.81,0,2.81,0c.38,0,.7,.29,.7,.64v15.26c0,.16-.06,.31-.18,.43l-.38,.39c-.24,.24-.37,.56-.37,.89v2.22c0,.62,.85,.88,1.26,.38,.61-.75,2.33-3.64,2.33-3.64,.8-1.43,1.14-2.41,1.47-3.15,1.04-2.41,1.14-4.15,1.1-4.54l-2.96,3.95Z" fill="#fff"/>
            <path d="M227.68,159.49l-.06-6.78c0-.45,.38-.82,.87-.82h1.51c.48,0,.87-.36,.87-.81s-.39-.81-.87-.81h-9.71c-.48,0-.87-.36-.87-.81v-7.72c0-.45-.39-.81-.87-.81h-1.2c-.48,0-.87,.36-.87,.81v7.88c0,.45-.39,.81-.87,.81h-8.84c-.48,0-.87,.36-.87,.81h0c0,.45,.39,.81,.87,.81h.91c.47,0,.86,.36,.87,.81l.06,5.97c-.09,15.09-3.34,22.14-3.95,23.96l.15,.16c.85-1.26,4.04-6.81,5.19-10.32,1.3-3.96,1.52-16.39,1.56-20.11v-.46h4.05c.48,0,.87,.36,.87,.81v29.86c0,.45,.39,.81,.87,.81h1.2c.48,0,.87-.36,.87-.81v-30.01c0-.45,.39-.81,.87-.81h4.32v.46c.04,3.84,.28,16.65,1.56,20.57,1.15,3.51,4.34,9.06,5.19,10.32l.15-.16c-.6-1.81-3.87-8.36-3.83-23.6Z" fill="#fff"/>
            <path d="M201.71,160.49l-1.13-.02c-.48,0-.87,.35-.88,.8-.02,2.3-.19,7.8-.79,12.18-.5,3.65-2.57,8.15-3.03,9.86l.11,.06c.52-.46,2.12-1.97,3.36-4.05,1.92-3.21,2.68-6.35,3.2-17.98,.02-.46-.36-.84-.85-.85Z" fill="#fff"/>
            <path d="M199.21,147.67s.05,.04,.08,.06c.8,.49,1.57,.95,2.39,1.45,.58,.35,1.34-.04,1.34-.68v-1.64c0-.28-.15-.53-.4-.68l-7.35-4.43-.16,.36c.01,.18,.12,1.17,1.29,2.9,.47,.7,1.49,1.67,2.81,2.68Z" fill="#fff"/>
            <path d="M202.84,154.11l-7.82-4.66-.16,.44c.01,.18,.12,1.17,1.29,2.9,.47,.7,1.49,1.68,2.81,2.68,.03,.02,.06,.04,.08,.06,1.02,.62,1.99,1.2,2.9,1.72,.58,.33,1.31-.06,1.31-.7v-1.75c0-.28-.15-.54-.4-.69Z" fill="#fff"/>
            <path d="M268.19,143.87l-14.26,.02c-.6,0-1.09,.46-1.09,1.02v35.61c0,.56,.49,1.02,1.09,1.02h12.23s2.03,.01,2.03,.01c.6,0,1.09-.46,1.09-1.02v-35.65c0-.57-.49-1.02-1.09-1.02Zm-5.73,2.92c0-.56,.49-1.02,1.09-1.02h1.75c.6,0,1.09,.46,1.09,1.02v14.62c0,.56-.49,1.02-1.09,1.02h-1.75c-.6,0-1.09-.46-1.09-1.02v-14.62Zm-2.77,31.86c0,.56-.49,1.02-1.09,1.02h-2c-.6,0-1.09-.46-1.09-1.02v-13.56c0-.56,.49-1.02,1.09-1.02h2c.6,0,1.09,.46,1.09,1.02v13.56Zm0-17.25c0,.56-.49,1.02-1.09,1.02h-2c-.6,0-1.09-.46-1.09-1.02v-14.53c0-.56,.49-1.02,1.09-1.02h2c.6,0,1.09,.46,1.09,1.02v14.53Zm6.72,17.17c0,.56-.49,1.02-1.09,1.02h-1.84c-.6,0-1.09-.46-1.09-1.02v-13.57c0-.56,.49-1.02,1.09-1.02h1.84c.6,0,1.09,.46,1.09,1.02v13.57Z" fill="#fff"/>
            <path d="M283.84,169.78c.17-.19,.27-.43,.27-.68v-1.2c0-.93-1.21-1.38-1.88-.7-.67,.68-1.49,1.49-2.51,2.46-2.39,2.29-7.4,5.78-8.68,6.67l.03,.09c.72-.05,2.71-.25,6.66-2.13,2.83-1.35,4.09-2.35,6.11-4.52Z" fill="#fff"/>
            <path d="M275.12,161.74c.71,1.44,1.43,2.58,1.97,3.1,1.3,1.27,2.08,1.41,2.26,1.43l.25-.17-3.5-9.75c-.15-.43-.59-.71-1.08-.69l-.59,.02c-.71,.03-1.19,.67-1,1.31,.41,1.35,.93,2.82,1.65,4.65,.01,.03,.03,.06,.04,.09Z" fill="#fff"/>
            <path d="M288.14,146.95l-13.08-.04,.09-.55c.27-1.66,.45-2.99,.55-3.95,.07-.59-.41-1.1-1.04-1.13l-.96-.04c-.61-.02-1.12,.42-1.13,.99-.04,1.43-.1,3.65-.25,5.51-.21,2.47-1.44,7.05-1.79,8.82l.33-.08c.43-.56,2.58-3.46,3.76-7.52l.09-.31h10.73c.6,0,1.09,.46,1.09,1.02v24.26s0,.06,0,.09c-.36,4.5-2,7.08-4.85,7.08l-5.33-.04c-.6,0-1.09,.45-1.1,1.02,0,.56,.48,1.02,1.08,1.03l5.33,.04c2.04,0,3.93-.95,5.35-2.67,1.43-1.73,2.22-4.04,2.22-6.5v-26.01c0-.56-.48-1.02-1.08-1.02Z" fill="#fff"/>
          </g>
          <g>
            <g opacity=".22">
              <path d="M43.79,269.2c4.31-2.47,9.56-3.7,15.75-3.7,3.82,0,7.44,.52,10.89,1.55,3.43,1.03,6.39,2.68,8.9,4.93,2.5,2.26,4.48,5.09,5.95,8.48,1.48,3.4,2.21,7.51,2.21,12.34,0,3.5-.39,6.76-1.17,9.79-.78,3.03-1.94,5.99-3.47,8.87-1.51,2.88-3.43,5.78-5.72,8.71-2.31,2.93-5.03,6.04-8.17,9.33-1.87,1.95-4.03,4.21-6.47,6.78-2.45,2.57-4.93,5.22-7.42,7.95-2.5,2.72-4.89,5.42-7.13,8.09-2.26,2.68-4.18,5.14-5.74,7.4h13.98c7.05,0,13.3-.13,18.75-.38,5.44-.25,10.23-.54,14.34-.85-.49,2.27-.73,4.16-.73,5.71,0,1.44,.24,3.18,.73,5.24-5.3-.2-10.55-.31-15.75-.31h-31.54c-5.25,0-10.51,.1-15.81,.31v-1.85c6.86-7.09,12.82-13.33,17.87-18.74,5.06-5.39,9.34-10.25,12.88-14.57,3.53-4.31,6.4-8.22,8.61-11.72,2.19-3.49,3.94-6.8,5.21-9.95,1.27-3.13,2.12-6.22,2.56-9.25,.44-3.03,.66-6.3,.66-9.79,0-7.61-1.63-13.24-4.93-16.88-3.28-3.65-7.13-5.48-11.53-5.48-3.14,0-5.84,.59-8.1,1.78-2.26,1.18-4.11,2.62-5.59,4.31-1.46,1.7-2.6,3.52-3.38,5.48-.78,1.95-1.32,3.7-1.61,5.24l-1.04,.31-5.15-7.55c3.14-5.25,6.86-9.1,11.18-11.57Z" fill="#fff"/>
              <path d="M113.23,297.96c1.17-6.42,3.11-12.03,5.81-16.81,2.7-4.78,6.25-8.58,10.67-11.41,4.42-2.82,9.8-4.24,16.17-4.24,7.07,0,12.82,1.42,17.29,4.24,4.45,2.84,7.97,6.63,10.51,11.41,2.55,4.78,4.28,10.39,5.21,16.81,.93,6.43,1.41,13.29,1.41,20.59s-.7,13.84-2.07,20.2c-1.38,6.38-3.45,11.98-6.25,16.81-2.79,4.83-6.35,8.64-10.67,11.41-4.31,2.78-9.46,4.16-15.44,4.16-7.05,0-12.82-1.33-17.27-4.01-4.47-2.68-7.97-6.4-10.51-11.18-2.56-4.78-4.3-10.39-5.23-16.82-.93-6.42-1.39-13.28-1.39-20.59s.59-14.16,1.77-20.59Zm11.4,39.56c.73,5.86,1.99,10.95,3.75,15.26,1.77,4.32,4.06,7.71,6.91,10.18,2.84,2.46,6.37,3.69,10.58,3.69s7.75-1.23,10.6-3.69c2.84-2.47,5.15-5.86,6.91-10.18,1.77-4.31,3.01-9.4,3.75-15.26,.73-5.86,1.09-12.19,1.09-18.97s-.36-13.1-1.09-18.96c-.75-5.86-1.99-10.95-3.75-15.27-1.77-4.31-4.08-7.71-6.91-10.17-2.85-2.47-6.39-3.7-10.6-3.7s-7.75,1.14-10.58,3.4c-2.85,2.26-5.15,5.5-6.91,9.72-1.77,4.21-3.02,9.27-3.75,15.19-.73,5.91-1.1,12.52-1.1,19.81,0,6.79,.37,13.11,1.1,18.97Z" fill="#fff"/>
              <path d="M207.37,269.2c4.31-2.47,9.56-3.7,15.75-3.7,3.82,0,7.44,.52,10.89,1.55,3.43,1.03,6.39,2.68,8.9,4.93,2.5,2.26,4.48,5.09,5.95,8.48,1.48,3.4,2.21,7.51,2.21,12.34,0,3.5-.39,6.76-1.17,9.79-.78,3.03-1.94,5.99-3.47,8.87-1.51,2.88-3.43,5.78-5.72,8.71-2.31,2.93-5.03,6.04-8.17,9.33-1.87,1.95-4.03,4.21-6.47,6.78-2.45,2.57-4.93,5.22-7.42,7.95-2.5,2.72-4.89,5.42-7.13,8.09-2.26,2.68-4.18,5.14-5.74,7.4h13.98c7.05,0,13.3-.13,18.75-.38,5.44-.25,10.23-.54,14.34-.85-.49,2.27-.73,4.16-.73,5.71,0,1.44,.24,3.18,.73,5.24-5.3-.2-10.55-.31-15.75-.31h-31.54c-5.25,0-10.51,.1-15.81,.31v-1.85c6.86-7.09,12.82-13.33,17.87-18.74,5.06-5.39,9.34-10.25,12.88-14.57,3.53-4.31,6.4-8.22,8.61-11.72,2.19-3.49,3.94-6.8,5.21-9.95,1.27-3.13,2.12-6.22,2.56-9.25,.44-3.03,.66-6.3,.66-9.79,0-7.61-1.63-13.24-4.93-16.88-3.28-3.65-7.13-5.48-11.53-5.48-3.14,0-5.84,.59-8.1,1.78-2.26,1.18-4.11,2.62-5.59,4.31-1.46,1.7-2.6,3.52-3.38,5.48-.78,1.95-1.32,3.7-1.61,5.24l-1.04,.31-5.15-7.55c3.14-5.25,6.86-9.1,11.18-11.57Z" fill="#fff"/>
              <path d="M285.11,318.86c4.65-6.89,9.17-13.57,13.54-20.05,4.37-6.47,8.37-12.51,12.06-18.12,3.67-5.61,6.69-10.36,9.04-14.27,1.97,.52,3.64,.77,5.01,.77s2.94-.25,4.71-.77c-.29,6.79-.54,14.42-.73,22.9-.2,8.48-.31,17.2-.31,26.14v16.97c2.85,0,5.54-.14,8.1-.39,2.55-.25,4.65-.54,6.32-.85-.49,2.06-.73,3.75-.73,5.09s.24,3.04,.73,5.1c-1.66-.31-3.77-.54-6.32-.7-2.56-.15-5.25-.23-8.1-.23v6.47c0,4.01,.1,8.15,.31,12.42,.19,4.26,.39,7.64,.58,10.1-1.95-.2-4.11-.31-6.47-.31s-4.5,.1-6.47,.31c.2-2.67,.44-6.12,.75-10.33,.29-4.21,.44-8.28,.44-12.19v-6.47c-2.26,0-5.52,.03-9.78,.08-4.26,.05-8.73,.13-13.39,.23-4.67,.1-9.1,.23-13.32,.38-4.21,.16-7.35,.29-9.41,.39v-2.78c4.31-6.37,8.8-13,13.45-19.89Zm32.14-38.24c-2.06,2.98-4.65,6.81-7.8,11.48-3.14,4.68-6.37,9.51-9.7,14.5-3.35,4.99-6.51,9.79-9.5,14.42-2.99,4.63-5.32,8.43-6.98,11.41h34.28v-51.82h-.31Z" fill="#fff"/>
            </g>
            <g>
              <path d="M8.04,336.05H1.01c-.07,0-.14-.01-.22-.03-.1-.02-.19-.05-.27-.09-.2-.1-.31-.28-.31-.56,0-.26,.1-.44,.31-.56,.07-.04,.15-.07,.25-.09,.07-.02,.15-.03,.25-.03h7.03v-5.65c0-.12,.01-.22,.03-.33,.02-.25,.07-.47,.16-.64,.22-.47,.64-.71,1.29-.71s1.06,.24,1.28,.71c.09,.17,.14,.39,.16,.64,.02,.1,.03,.22,.03,.35v23.75c0,.12-.01,.23-.03,.33-.02,.26-.07,.47-.16,.65-.21,.47-.64,.71-1.28,.71s-1.06-.24-1.29-.71c-.09-.18-.14-.39-.16-.65-.02-.1-.03-.2-.03-.33v-6.12l-1.55,.86c-.76,.43-1.47,.81-2.13,1.14-.8,.41-1.47,.74-2.01,.97-.64,.28-1.06,.41-1.26,.41-.37,0-.64-.18-.85-.53-.16-.28-.25-.58-.25-.91,0-.45,.14-.79,.44-1,.12-.08,.28-.15,.46-.21,.07-.04,.16-.07,.28-.09l2.59-.77c.65-.19,1.3-.4,1.91-.62,.51-.17,.99-.35,1.45-.53l.92-.38v-9Zm9.11,15.15c0,.92,.42,1.38,1.26,1.38h2.21c.56,0,.99-.31,1.29-.94,.1-.24,.2-.53,.3-.88l.33-1.76c.07-.28,.15-.49,.25-.65,.21-.37,.59-.56,1.11-.56,1.06,0,1.58,.47,1.58,1.41l-.02,.5c-.04,.28-.09,.57-.16,.88-.2,.86-.49,1.59-.85,2.18-.26,.39-.54,.67-.85,.85-.44,.21-1.04,.32-1.83,.32h-4.5c-2.02,0-3.03-.97-3.03-2.91v-21.95c0-.12,.01-.22,.03-.32,.02-.26,.07-.47,.16-.65,.2-.45,.62-.67,1.26-.67s1.06,.22,1.28,.67c.09,.18,.15,.39,.16,.65,.02,.1,.03,.2,.03,.32v9.21c.07-.04,.12-.08,.16-.12l.62-.47c.41-.3,.79-.6,1.15-.91,.47-.39,.92-.81,1.36-1.24,.53-.49,1.04-1.01,1.53-1.56,.66-.78,1.22-1.18,1.63-1.18,1.05,0,1.58,.58,1.58,1.74,0,.59-.6,1.27-1.81,2.06-.58,.37-1.19,.74-1.82,1.09-.55,.32-1.12,.63-1.73,.94l-2.7,1.33v11.24Z" fill="#fff"/>
              <path d="M68.37,329.41c0-.12,.01-.21,.02-.3,.02-.25,.07-.48,.16-.67,.22-.53,.64-.8,1.29-.8s1.07,.27,1.31,.8c.09,.18,.14,.39,.16,.65,.02,.1,.03,.19,.03,.29v8.71h10.31c.07,0,.14,.01,.21,.03,.09,.02,.17,.05,.25,.09,.2,.12,.3,.31,.3,.56,0,.27-.09,.46-.3,.56-.07,.04-.15,.07-.25,.09-.07,.02-.14,.03-.21,.03h-10.31v12.91h8.56c.07,0,.14,.01,.21,.03,.09,.02,.17,.05,.25,.09,.2,.12,.31,.3,.31,.56,0,.28-.1,.46-.31,.56-.07,.04-.15,.07-.25,.09-.07,.02-.14,.03-.21,.03h-20.16c-.07,0-.14-.01-.21-.03-.09-.02-.17-.05-.25-.09-.2-.12-.31-.3-.31-.56,0-.28,.1-.46,.31-.56,.07-.04,.15-.07,.25-.09,.07-.02,.14-.03,.21-.03h8.62v-12.91h-10.29c-.09,0-.17-.01-.25-.03-.09-.02-.17-.05-.25-.09-.18-.12-.27-.3-.27-.56s.09-.44,.3-.56c.07-.04,.15-.07,.25-.09,.07-.02,.14-.03,.21-.03h10.29v-8.68Z" fill="#fff"/>
              <path d="M122.15,352.79c0,.12-.01,.22-.03,.3-.02,.26-.06,.48-.13,.68-.22,.51-.64,.76-1.26,.76s-1.03-.26-1.23-.76c-.09-.18-.14-.39-.16-.65-.02-.1-.03-.2-.03-.3v-9.92c-.42,.79-.88,1.54-1.39,2.27-.44,.63-.87,1.21-1.31,1.74-.88,1.02-1.44,1.53-1.7,1.53-.43,0-.65-.22-.65-.67,0-.16,.1-.36,.31-.62,1.01-1.33,1.91-2.84,2.67-4.51,.89-2,1.53-4.1,1.91-6.29h-3.68c-.09,0-.17-.01-.25-.03-.09-.02-.17-.05-.25-.09-.18-.12-.28-.31-.28-.56s.1-.44,.3-.56c.07-.04,.15-.07,.25-.09,.08-.02,.15-.03,.22-.03h3.84v-4.48c-.63,.06-1.4,.11-2.29,.15-.79,.04-1.29,.06-1.53,.06-.49,0-.74-.22-.74-.68,0-.26,.1-.44,.31-.56l.27-.12c.08-.02,.16-.03,.28-.03,.07,0,.15-.01,.25-.03l1.58-.2c.65-.08,1.23-.17,1.72-.27,1.19-.21,2.28-.51,3.3-.88l.85-.32,.49-.15c.16-.06,.28-.09,.33-.09,.87,0,1.31,.47,1.31,1.41,0,.45-.2,.77-.62,.95-.4,.17-1.29,.34-2.65,.5v4.74h2.83c.09,0,.17,.01,.25,.03,.09,.02,.17,.05,.25,.09,.18,.12,.28,.31,.28,.56,0,.28-.1,.46-.3,.56-.07,.04-.15,.07-.25,.09-.07,.02-.15,.03-.22,.03h-2.83v.24c.09,.35,.19,.74,.33,1.15,.18,.59,.39,1.18,.62,1.76,.31,.75,.65,1.46,1.04,2.15,.43,.8,.91,1.56,1.44,2.26,.07,.08,.13,.16,.16,.24,.05,.1,.08,.2,.08,.3,0,.45-.2,.67-.62,.67-.16,0-.4-.15-.72-.44-.26-.26-.55-.61-.9-1.06-.27-.35-.56-.74-.87-1.18l-.57-.85v11.21Zm14.35,.03c0,.1-.01,.2-.03,.3-.02,.24-.06,.45-.13,.65-.21,.51-.63,.76-1.26,.76s-1.02-.26-1.23-.76c-.09-.18-.14-.39-.16-.65-.02-.08-.03-.18-.03-.3v-7.65l-7.27,2.38c-.15,.04-.29,.06-.42,.06-.38,0-.57-.22-.57-.68,0-.37,.2-.62,.6-.74l7.66-2.47v-14.71c0-.1,.01-.2,.03-.3,.02-.24,.06-.44,.13-.62,.22-.51,.63-.77,1.23-.77,.62,0,1.04,.25,1.26,.74,.09,.18,.14,.39,.16,.65,.02,.08,.03,.18,.03,.3v13.8l2.53-.82,.19-.03c.07-.02,.13-.03,.19-.03,.36,0,.54,.21,.54,.65,0,.35-.19,.59-.57,.71l-2.89,.94v8.59Zm-8.76-16.71c.2,.1,.45,.25,.74,.44,.21,.14,.46,.31,.74,.5l1.26,.94c.31,.26,.56,.49,.77,.71,.58,.57,.87,1.07,.87,1.5,0,1.14-.52,1.71-1.55,1.71-.56,0-.99-.35-1.29-1.06-.49-1.15-1.3-2.4-2.42-3.73-.07-.1-.12-.18-.13-.24-.06-.1-.08-.2-.08-.3,0-.45,.2-.68,.62-.68,.09,0,.26,.07,.49,.21Zm.52-6.83l.65,.38,.65,.44c.19,.12,.37,.24,.52,.35,.94,.67,1.56,1.2,1.88,1.59,.24,.3,.35,.6,.35,.91,0,1.08-.48,1.61-1.44,1.61-.29,0-.52-.09-.68-.27-.16-.17-.5-.67-1.01-1.5-.25-.41-.54-.85-.87-1.32l-1.09-1.42c-.03-.1-.05-.18-.05-.27,0-.45,.2-.67,.62-.67,.09,0,.25,.05,.47,.15Z" fill="#fff"/>
              <path d="M192.93,337.54h3.25c.07,0,.14,.01,.21,.03,.09,.02,.17,.05,.25,.09,.2,.12,.31,.31,.31,.56,0,.16-.03,.29-.08,.38-.06,.08-.13,.14-.22,.2-.07,.04-.16,.06-.27,.06-.06,.02-.12,.03-.19,.03h-3.25v6.03h2.07c.09,0,.17,.01,.25,.03,.09,.02,.17,.05,.25,.09,.18,.12,.28,.31,.28,.56s-.1,.44-.3,.56c-.08,.04-.16,.07-.25,.09s-.15,.03-.22,.03h-21.41c-.09,0-.17-.01-.25-.03-.09-.02-.17-.05-.25-.09-.18-.12-.28-.31-.28-.56s.1-.44,.3-.56c.07-.04,.15-.07,.25-.09,.07-.02,.15-.03,.22-.03h2.09v-6.03h-3.14c-.07,0-.14-.01-.21-.03-.09-.02-.17-.05-.25-.09-.2-.1-.3-.28-.3-.56,0-.26,.08-.44,.27-.56,.07-.04,.15-.07,.25-.09,.07-.02,.15-.03,.25-.03h3.14v-3.88l-.65,.59c-.33,.3-.62,.55-.9,.77-.35,.3-.63,.51-.87,.65-.3,.19-.5,.29-.63,.29-.42,0-.62-.22-.62-.67,0-.18,.11-.38,.33-.62l.6-.71c.33-.43,.64-.87,.95-1.33,.42-.6,.79-1.22,1.12-1.85,.41-.77,.78-1.54,1.08-2.32l.19-.44c.09-.17,.19-.32,.3-.44,.26-.32,.6-.47,1.04-.47s.87,.14,1.26,.41c.4,.3,.59,.66,.59,1.09,0,.39-.26,.93-.76,1.62h15.84c.08,0,.15,.01,.22,.03,.09,.02,.17,.05,.25,.09,.18,.12,.28,.31,.28,.56,0,.27-.09,.46-.28,.56-.07,.04-.15,.07-.25,.09-.07,.02-.14,.03-.22,.03h-1.63v5.97Zm-20.29,16.3c-.35-.31-.51-.71-.51-1.18,0-.3,.08-.55,.25-.77s.59-.66,1.31-1.35l.71-.79c.47-.57,.96-1.23,1.45-1.97,.19-.28,.38-.41,.54-.41,.42,0,.62,.21,.62,.65,0,.06-.01,.17-.05,.35l-.21,.79c-.11,.39-.25,.82-.41,1.27-.2,.55-.44,1.12-.72,1.71-.63,1.42-1.29,2.12-1.96,2.12-.37,0-.69-.14-1.01-.41Zm7.94-22.27h-2.26v5.97h2.26v-5.97Zm0,7.33h-2.26v6.03h2.26v-6.03Zm1.29,15.18c-.53,0-.9-.19-1.09-.59-.09-.18-.17-.43-.25-.77l-.19-1.14c-.07-.49-.17-.98-.3-1.47-.04-.2-.09-.4-.16-.62l-.25-.88c-.02-.1-.03-.19-.03-.27,0-.43,.2-.65,.6-.65,.16,0,.43,.21,.82,.62,.33,.37,.68,.84,1.06,1.42,.91,1.37,1.36,2.32,1.36,2.85,0,1-.52,1.5-1.57,1.5Zm3.57-22.51h-2.29v5.97h2.29v-5.97Zm0,7.33h-2.29v6.03h2.29v-6.03Zm3.95,14.66c-.31,.25-.65,.38-1.03,.38-.65,0-1.15-.67-1.5-2.03-.29-1.14-.68-2.16-1.18-3.06l-.1-.27c-.04-.1-.06-.18-.06-.27,0-.45,.21-.67,.63-.67,.14,0,.42,.18,.84,.56,.41,.37,.82,.83,1.26,1.35,.49,.57,.88,1.1,1.18,1.59,.35,.55,.52,.96,.52,1.24,0,.47-.18,.86-.55,1.18Zm.9-21.98h-2.26v5.97h2.26v-5.97Zm0,7.33h-2.26v6.03h2.26v-6.03Zm1.99,8.68c.16,0,.48,.2,.96,.59,.43,.37,.91,.82,1.41,1.35,.53,.59,.96,1.13,1.29,1.62,.38,.55,.57,.97,.57,1.27,0,1.12-.55,1.68-1.67,1.68-.65,0-1.15-.58-1.5-1.74-.43-1.43-.92-2.61-1.47-3.53-.12-.24-.18-.42-.18-.56,0-.45,.19-.68,.59-.68Z" fill="#fff"/>
              <path d="M232.3,329.08c0-.12,.01-.22,.02-.33,.04-.25,.09-.47,.16-.64,.22-.47,.63-.71,1.24-.71,.63,0,1.06,.27,1.28,.8,.09,.18,.14,.39,.16,.65,.02,.08,.03,.16,.03,.26v6.24h2.18c.07,0,.14,.01,.22,.03,.08,.02,.16,.05,.25,.09,.19,.12,.3,.3,.3,.56s-.1,.44-.3,.56c-.08,.04-.16,.07-.25,.09s-.15,.03-.22,.03h-2.18v10.13s.12-.07,.33-.15c.07-.02,.17-.06,.3-.12l.57-.24s.06-.01,.08-.03l.74-.3c.11-.06,.21-.09,.31-.09,.41,0,.62,.22,.62,.68,0,.27-.17,.52-.52,.74-.35,.21-.86,.51-1.55,.88l-2.37,1.33c-.95,.51-1.73,.9-2.35,1.18-.35,.18-.62,.31-.84,.38-.26,.1-.43,.15-.52,.15-.79,0-1.18-.47-1.18-1.42,0-.57,.22-.95,.68-1.14,.18-.08,.65-.24,1.42-.48l1.39-.41v-11.1h-2.56c-.09,0-.17,0-.25-.03-.09-.02-.17-.05-.25-.09-.18-.12-.28-.3-.28-.56,0-.28,.1-.46,.3-.56,.07-.04,.15-.07,.25-.09,.08-.02,.15-.03,.22-.03h2.56v-6.27Zm21.24,23.54c.07,0,.14,.01,.22,.03s.16,.05,.25,.09c.19,.1,.3,.29,.3,.56,0,.26-.1,.44-.3,.56-.08,.04-.16,.07-.25,.09-.08,.02-.15,.03-.22,.03h-5.48c-2.19,0-3.87-.31-5.05-.94-1.04-.55-1.9-1.48-2.6-2.79-.44,.66-.99,1.29-1.67,1.88-.56,.49-1.18,.95-1.85,1.35-.55,.32-1.07,.58-1.58,.8-.44,.17-.71,.27-.82,.27-.4,0-.6-.22-.6-.68,0-.28,.19-.52,.57-.74,1.89-1.08,3.18-2.38,3.85-3.91,.27-.64,.47-1.39,.59-2.23,.06-.34,.1-.72,.14-1.15l.08-1.24c.07-1.06,.55-1.59,1.44-1.59,1,0,1.5,.53,1.5,1.59,0,.81-.12,1.66-.36,2.56,.55,2.16,1.43,3.64,2.65,4.44v-10.03h-6.11c-.07,0-.14-.01-.21-.03-.09,0-.17-.03-.25-.09-.2-.1-.3-.28-.3-.53,0-.28,.09-.46,.3-.56,.07-.04,.15-.07,.25-.09,.07-.02,.14-.03,.21-.03h15.03c.09,0,.17,.01,.25,.03,.09,0,.17,.02,.25,.06,.18,.12,.28,.3,.28,.56,0,.28-.1,.46-.3,.56-.08,.04-.16,.07-.25,.09s-.15,.03-.22,.03h-5.97v3.85h4.66c.09,0,.17,.01,.25,.03,.09,0,.17,.02,.25,.06,.18,.12,.28,.3,.28,.56,0,.28-.1,.46-.31,.56-.07,.04-.15,.07-.25,.09-.07,.02-.14,.03-.21,.03h-4.66v5.77c.27,.04,.6,.07,1,.09,.15,.02,.31,.03,.47,.03h4.74Zm-1.14-16.65c0,1.55-.83,2.32-2.48,2.32h-8.18c-1.66,0-2.48-.77-2.48-2.32v-5.35c0-1.55,.83-2.32,2.48-2.32h8.18c1.66,0,2.48,.78,2.48,2.32v5.35Zm-2.92-3.38v-1.82c0-.75-.34-1.12-1.03-1.12h-5.21c-.71,0-1.06,.37-1.06,1.12v1.82h7.31Zm-7.31,1.32v1.92c0,.75,.36,1.12,1.06,1.12h5.21c.69,0,1.03-.37,1.03-1.12v-1.92h-7.31Z" fill="#fff"/>
              <path d="M287.12,334.65c-.09,0-.17-.01-.25-.03-.09,0-.17-.03-.25-.09-.18-.1-.28-.28-.28-.53,0-.28,.1-.46,.3-.56,.07-.04,.15-.07,.25-.09,.08-.02,.15-.03,.22-.03h7.37c.76,0,1.33,.2,1.72,.62,.27,.31,.41,.69,.41,1.14,0,.33-.07,.83-.22,1.5-.16,.82-.39,1.68-.67,2.56-.35,1.1-.77,2.15-1.26,3.15-.58,1.2-1.23,2.29-1.94,3.27-.59,.8-1.24,1.58-1.91,2.32-.58,.61-1.15,1.16-1.74,1.68-1.09,.94-1.79,1.41-2.07,1.41-.42,0-.63-.22-.63-.67,0-.21,.13-.44,.39-.68,1.33-1.13,2.49-2.53,3.51-4.17,.82-1.34,1.52-2.81,2.1-4.44,.24-.67,.44-1.33,.62-2,.14-.59,.28-1.16,.38-1.74,.09-.45,.16-.88,.22-1.29,.03-.31,.05-.56,.05-.74,0-.39-.21-.59-.65-.59h-5.67Zm13.22,16.39c0,1.02-.27,1.74-.82,2.15-.45,.35-1.14,.53-2.07,.53h-3.71c-.1-.02-.19-.05-.27-.09-.11-.04-.19-.1-.25-.18-.07-.1-.11-.22-.11-.38s.04-.28,.11-.38c.05-.1,.13-.16,.25-.2,.07-.04,.16-.07,.27-.09h2.27c.93,0,1.39-.51,1.39-1.53v-22.36c0-.1,.01-.19,.03-.3,.02-.25,.07-.48,.16-.67,.21-.53,.64-.8,1.28-.8s1.06,.27,1.29,.8c.09,.19,.14,.42,.16,.67,.02,.1,.02,.2,.02,.3v2.94c.3,1.35,.57,2.48,.85,3.38,.11,.35,.25,.75,.41,1.18l.31,.85c.05,.12,.08,.21,.1,.29,.82-.61,1.66-1.35,2.51-2.23,.91-.92,1.69-1.84,2.34-2.77,.55-.78,1.07-1.18,1.56-1.18,.43,0,.83,.19,1.2,.59s.54,.82,.54,1.29c0,.36-.11,.67-.35,.95-.33,.37-1.04,.94-2.13,1.71-.91,.63-1.76,1.18-2.54,1.65l-2.53,1.42c2.09,4.63,4.99,8.33,8.67,11.09,.28,.18,.41,.39,.41,.65,0,.47-.2,.71-.6,.71-.1,0-.37-.13-.79-.38-.44-.26-.95-.59-1.53-1-.63-.45-1.26-.93-1.88-1.44-.73-.59-1.37-1.16-1.93-1.74-.6-.61-1.18-1.24-1.73-1.91-.47-.57-.91-1.16-1.31-1.79-.33-.49-.64-1.01-.95-1.56l-.36-.64c-.09-.16-.18-.34-.28-.53v11.03Z" fill="#fff"/>
              <path d="M345.89,340.92c0-1.06,.26-1.8,.77-2.23,.44-.35,1.14-.53,2.13-.53h19.44c.09,0,.17,.01,.25,.03,.09,0,.17,.02,.25,.06,.18,.12,.28,.31,.28,.56,0,.28-.1,.46-.3,.56-.07,.04-.15,.07-.25,.09-.07,.02-.15,.03-.22,.03h-18.08c-.85,0-1.28,.46-1.28,1.38v2.71c0,2.14-.19,3.95-.57,5.44-.35,1.35-.92,2.67-1.72,3.94-.35,.53-.75,1.06-1.21,1.59-.56,.65-.95,.97-1.16,.97-.44,0-.66-.22-.66-.67,0-.06,.04-.17,.11-.33l.74-1.14c.62-1.1,1.05-2.5,1.29-4.21,.09-.68,.15-1.44,.18-2.26,.02-.61,.03-1.33,.03-2.18v-3.8Zm9.22-10.59c0-.1,.01-.19,.03-.3,.02-.25,.07-.48,.16-.67,.21-.55,.64-.82,1.28-.82s1.07,.27,1.32,.82c.08,.19,.14,.42,.16,.67,.01,.08,.02,.17,.02,.27v4.56h4.64c.79,0,1.18-.43,1.18-1.29v-2.21c0-.55,.09-.98,.28-1.3,.25-.41,.65-.62,1.2-.62s.96,.2,1.2,.59c.2,.34,.31,.78,.31,1.33v2.21c0,1.74-.9,2.62-2.7,2.62h-15.06c-1.8,0-2.7-.87-2.7-2.62v-2.39c0-.12,.01-.21,.02-.3,.02-.25,.08-.48,.16-.67,.22-.51,.64-.77,1.26-.77,.64,0,1.07,.26,1.31,.77,.07,.18,.13,.39,.16,.65,.02,.1,.03,.19,.03,.29v2.42c0,.86,.39,1.29,1.18,1.29h4.58v-4.53Zm4.69,17.56h8.21c.09,0,.17,.01,.25,.03,.09,.02,.17,.05,.25,.09,.18,.12,.28,.3,.28,.56s-.1,.44-.31,.56c-.07,.04-.15,.07-.25,.09-.07,.02-.14,.03-.21,.03h-8.21v4.71c0,.12,0,.22-.02,.32-.02,.26-.07,.48-.16,.68-.22,.55-.64,.82-1.29,.82s-1.06-.27-1.28-.79c-.09-.2-.14-.43-.16-.71-.02-.1-.03-.2-.03-.32v-4.71h-6.9c-.09,0-.17,0-.25-.03-.09-.02-.17-.05-.25-.09-.18-.12-.28-.3-.28-.56,0-.28,.1-.46,.3-.56,.08-.04,.16-.07,.25-.09s.15-.03,.22-.03h6.9v-4.65h-5.43c-.07,0-.14,0-.21-.03-.09-.02-.17-.05-.25-.09-.2-.1-.31-.28-.31-.56s.1-.46,.31-.56c.07-.04,.15-.07,.25-.09,.07-.02,.14-.03,.21-.03h14.02c.09,0,.17,.01,.25,.03,.09,.02,.17,.05,.25,.09,.18,.12,.28,.3,.28,.56,0,.28-.1,.46-.31,.56-.07,.04-.15,.07-.25,.09-.07,.02-.14,.03-.21,.03h-5.65v4.65Z" fill="#fff"/>
            </g>
            <g>
              <path d="M68.85,419.68h-2.53v-24.55c0-.54,.26-.82,.8-.82h6.44c.61,0,.93,.27,.93,.82v21.52c-.08,.62-.39,.94-.93,.94h-4.72v2.1Zm.35-22.8c-.23,0-.35,.11-.35,.35v7.48h3.11v-7.48c0-.24-.16-.35-.46-.35h-2.3Zm2.76,10.41h-3.11v7.72h2.54c.38-.08,.57-.27,.57-.59v-7.13Zm3.57,2.45v-2.57h11.61v-2.93h-11.61v-2.45h7.36v-3.39h-6.56v-2.45h6.56v-2.81h2.53v2.81h6.56v2.45h-6.56v3.39h7.25v2.45h-2.99v2.93h2.76v2.57h-2.76v8.18c0,1.17-.46,2.03-1.39,2.57-1.15,.78-3.21,.7-6.2-.23v-2.69c1.06,.39,1.83,.62,2.3,.7,.54,.08,1.03,.16,1.5,.24,.38,0,.73-.16,1.03-.47,.16-.24,.23-.51,.23-.82v-7.49h-11.61Zm3.79,.82c1.07,1.48,2.07,3.28,2.99,5.38l-2.3,1.17c-1-2.26-1.96-4.01-2.87-5.26l2.18-1.29Z"/>
              <path d="M138.14,408.93l-2.54-1.05c1.61-2.33,2.99-5.07,4.15-8.18v-.11c.76-1.95,1.26-4.09,1.5-6.43l2.64,.35c-.46,2.34-.96,4.44-1.5,6.31v20.93h-2.64v-14.62c-.54,1.09-1.07,2.03-1.61,2.81Zm5.86-4.91l-.35-2.57,6.79-.47c-.23-2.42-.39-4.95-.46-7.6l2.53,.12c0,2.57,.12,5.03,.35,7.37l9.32-.59,.12,2.57-9.09,.59c.92,5.69,2.53,9.86,4.83,12.51,.76,1.01,1.29,1.52,1.61,1.52,.22-.07,.34-.23,.34-.47,.23-.85,.39-2.34,.46-4.44l2.41,.59c-.07,3.74-.57,6.08-1.5,7.01-.38,.31-.73,.51-1.03,.59-.84,0-1.73-.47-2.64-1.4-.23-.08-.39-.23-.46-.47-3.37-3.58-5.52-8.65-6.44-15.2l-6.78,.35Zm12.19-10.87c1.76,.94,3.72,2.34,5.86,4.21l-1.5,2.1c-2.22-1.95-4.14-3.31-5.75-4.09l1.38-2.22Z"/>
              <path d="M208.43,396.89h-2.18v-2.58h25.42v2.58h-20.58v4.09h17.71c.54,0,.8,.27,.8,.82v10.17c0,.62-.26,.94-.8,.94h-17.71v4.56h21.05v2.57h-26.34v-2.57h2.64v-20.57Zm2.65,6.66v6.78h15.63c.16-.07,.23-.16,.23-.24v-6.31c.07-.16,0-.23-.23-.23h-15.63Z"/>
              <path d="M280.82,396.53c-.93,1.02-2.12,2.11-3.57,3.28l-2.19-1.52c2.61-1.72,4.26-3.28,4.95-4.68h2.31c-.08,.23-.12,.39-.12,.47,1.15,.94,2.41,1.75,3.79,2.45l-1.73,1.99c-1.15-.78-2.18-1.63-3.11-2.57-.15,.16-.26,.35-.34,.58Zm-1.84,11.34h-3.34v-2.33h3.34v-2.93h-2.53v-2.34h7.59v2.34h-2.77v2.93h3.11v2.33h-3.11v8.53c1.16-.31,2.07-.58,2.77-.82l.8,2.22c-2.07,.86-5.06,1.64-8.97,2.34l-.69-2.34c1.16-.23,2.42-.51,3.8-.82v-9.12Zm-1.38,1.99c.46,2.1,.68,3.97,.68,5.61l-1.95,.11c-.16-2.1-.39-3.97-.69-5.61l1.96-.12Zm6.78,.12c-.15,1.48-.38,2.96-.68,4.44l-1.84-.47c.23-1.01,.46-2.46,.69-4.33l1.83,.36Zm8.63,3.86v-1.98h5.05v-1.52h-12.76v-2.1h17.13v2.1h-2.06v1.52h2.06v1.98h-2.06v4.44c-.07,1.02-.51,1.8-1.26,2.34-.77,.47-2.19,.47-4.26,0l-.11-2.34c1.76,.39,2.79,.43,3.11,.12,.15-.16,.22-.39,.22-.7v-3.86h-5.05Zm6.33-9.7h-4.6v1.17h6.43v1.87h-15.41v-1.87h6.67v-1.17h-5.98v-1.64h12.89v1.05l.57-1.29c.07-.24,.07-.39,0-.47,0-.08-.04-.12-.12-.12h-14.37v-2.1h16.1l1.15,.94c-.45,1.32-.96,2.61-1.5,3.86-.68-.23-1.31-.47-1.83-.7v.47Zm-11.62,16.13h-2.18v-8.53c0-.24,.12-.35,.34-.35h6.1c.31,.07,.46,.23,.46,.47v8.42h-2.19v-1.17h-2.53v1.17Zm4.83-24.32h-6.79v-1.87h6.79v-1.05h2.3v1.05h7.02v1.87h-7.02v1.17h6.1v1.63h-14.26v-1.63h5.86v-1.17Zm-2.31,21.16v-3.39c-.07-.23-.15-.35-.22-.35h-1.96c-.23,0-.35,.12-.35,.35v3.39h2.53Zm4.26-2.81c.84,.47,1.64,1.17,2.41,2.1l-1.38,1.52c-1-.94-1.77-1.63-2.3-2.1l1.26-1.52Z"/>
            </g>
          </g>
        </g>
      </g>
    </g>
  </g>
</svg>