<?xml version="1.0" encoding="UTF-8"?>
<svg xmlns="http://www.w3.org/2000/svg" xmlns:xlink="http://www.w3.org/1999/xlink" viewBox="0 0 191.32 191.32">
  <defs>
    <linearGradient id="_未命名漸層_3094" data-name="未命名漸層 3094" x1="106.54" y1="89.56" x2="106.54" y2="-101.67" gradientTransform="translate(-4.04 133.72) rotate(-17.64)" gradientUnits="userSpaceOnUse">
      <stop offset=".22" stop-color="#1d2086" stop-opacity="0"/>
      <stop offset=".78" stop-color="#1d2086"/>
    </linearGradient>
  </defs>
  <g isolation="isolate">
    <g id="_圖層_2" data-name="圖層 2">
      <g id="content">
        <g mix-blend-mode="overlay">
          <path d="M124.64,186.78c-24.34,7.74-50.23,5.54-72.92-6.2-22.68-11.74-39.44-31.61-47.18-55.94C-3.2,100.3-1,74.4,10.74,51.72,22.48,29.04,42.35,12.28,66.69,4.54S116.92-1,139.6,10.74c22.68,11.74,39.44,31.61,47.18,55.94,7.74,24.34,5.54,50.23-6.2,72.92-11.74,22.68-31.61,39.44-55.94,47.18ZM66.77,4.81C42.51,12.53,22.7,29.23,10.99,51.85-.71,74.47-2.9,100.29,4.81,124.55c7.72,24.27,24.42,44.08,47.04,55.78,22.62,11.7,48.44,13.9,72.7,6.18,24.27-7.72,44.07-24.42,55.78-47.04,11.71-22.62,13.9-48.44,6.18-72.7-7.72-24.27-24.42-44.08-47.04-55.78C116.86-.71,91.04-2.9,66.77,4.81Z" fill="url(#_未命名漸層_3094)"/>
        </g>
      </g>
    </g>
  </g>
</svg>