<?xml version="1.0" encoding="UTF-8"?>
<svg id="_圖層_2" data-name="圖層 2" xmlns="http://www.w3.org/2000/svg" viewBox="0 0 544.16 33.21">
  <g id="content">
    <g>
      <path d="M16.91,24.99l.48,1.19c-4.43,2.66-10.41,4.94-16.21,6.37l-1.18-3.54c3.69-.56,7.13-1.29,10.23-2.1V14.77H1.03v-1.75H10.23V1.5h3.4V26.01l3.29-1.02Zm9.19,6.58c-6.79,0-7.31-.77-7.31-5.46V1.5h3.4V14.46c2.33-1.65,4.65-3.71,6.91-6.34l2.92,2.84c-3.29,2.21-7.02,4.1-9.82,5.18v9.87c0,2.24,.33,2.55,4.58,2.55,3.62,0,3.77-.56,3.73-7.91h1.33c2.33,9.49,1.88,10.92-5.72,10.92Z" fill="#fff"/>
      <path d="M66.54,12.04h14.44v1.93h-14.44v14.56h12.52v1.82h-28.32v-1.82h12.26V13.97h-14.36v-1.93h14.36V1.12h3.54V12.04Z" fill="#fff"/>
      <path d="M105.98,15.65v17.43h-3.18v-15.23c-1.37,3.01-3.21,5.95-5.91,8.72l-.92-.8c2.84-3.89,4.95-9.1,6.2-14.21h-5.54v-1.58h6.17V4.9c-2.03,.35-4.02,.59-5.72,.74l-.26-1.19c4.14-.91,8.01-2.1,11.78-4.38l2.62,2.73c-1.55,.56-3.36,1.05-5.24,1.47v5.71h5.24v1.58h-5.24v2.07c1.96,1.33,4.5,3.36,5.72,4.69l-2.62,2.31c-.74-1.37-1.96-3.26-3.1-4.97Zm18.32,5.92v11.17h-3.25v-10.47c-3.95,.84-7.94,1.68-11.89,2.45l-.55-1.58c4.14-.81,8.31-1.65,12.44-2.52V.56h3.25V19.92c1.51-.35,3.06-.67,4.58-1.01l.44,1.54c-1.66,.38-3.36,.77-5.02,1.12Zm-12.22-9.17c2.62,1.47,4.65,2.94,6.79,5.22l-2.81,2.35c-1.51-2.52-3.06-4.38-4.91-6.65l.92-.91Zm4.84-1.64c-1.74-2.31-3.21-4.03-5.17-6.09l.81-.95c2.55,1.29,4.69,2.62,6.87,4.69l-2.51,2.35Z" fill="#fff"/>
      <path d="M147.75,10.12h10.12v1.57h-4.06v4.03h5.35v1.58h-5.35v10.01c2.07-.35,3.99-.77,5.21-1.12l.41,1.16c-2.99,1.65-10.38,3.92-14.11,4.76l-1.03-3.57c1.62-.11,3.99-.39,6.43-.74v-10.5h-5.76v-1.58h5.76v-4.03h-3.95v-.7c-.66,.52-1.33,1.05-1.99,1.5l-.81-.98c2.55-2.42,5.43-6.44,7.2-11.27l3.43,1.08c-.22,.49-.48,.95-.74,1.4,1.96,1.12,4.25,2.91,5.72,4.48l-2.4,2.07c-1.29-1.96-2.77-3.99-3.99-5.43-1.51,2.31-3.4,4.45-5.43,6.27Zm1.99,15.51l-3.1,.73c-.22-2.17-.63-4.9-1.07-7.21l1.22-.35c1.22,2.07,2.4,4.69,2.95,6.83Zm4.62-.07c.66-2,1.33-5.15,1.51-7.11l3.18,.91c-.74,2-2.29,5.04-3.54,6.65l-1.14-.46Zm21.31-18.34v25.83h-3.32v-3.67h-8.97v3.67h-3.25V7.21h5.83c.33-2.17,.52-4.06,.7-6.86l4.06,.74c-1.11,2.66-2.1,4.52-3.1,6.12h8.05Zm-3.32,1.58h-8.97v8.09h8.97V8.79Zm0,9.66h-8.97v9.31h8.97v-9.31Z" fill="#fff"/>
      <path d="M225.74,11.34l-2.14,3.43c-4.91-1.96-10.71-5.78-14.36-10.85-4.65,5.67-10.63,9.31-16.73,11.73l-.59-1.16c5.17-2.52,11.59-7.53,15.14-14.49l4.06,1.43c-.33,.49-.66,.95-1,1.37,5.06,5.15,11.23,7.35,15.62,8.54Zm-15.25,18.55h12.96v1.93h-29.28v-1.93h12.78v-10.57h-11.37v-1.58h11.37v-4.66l-5.98-.04v-1.58l15.66,.04v1.58h-6.13v4.66h11.41v1.58h-11.41v10.57Zm-5.5-2.55l-3.32,1.75c-1.07-2.66-2.47-5.46-3.88-7.95l1.03-.81c2.14,1.89,4.54,4.66,6.17,7Zm7.09,.95c1.55-2.1,3.36-5.32,4.43-7.95l3.47,1.93c-1.99,2.55-4.87,5.36-6.94,6.86l-.96-.84Z" fill="#fff"/>
      <path d="M250,15.65v17.43h-3.18v-15.23c-1.37,3.01-3.21,5.95-5.91,8.72l-.92-.8c2.84-3.89,4.95-9.1,6.2-14.21h-5.54v-1.58h6.17V4.9c-2.03,.35-4.02,.59-5.72,.74l-.26-1.19c4.14-.91,8.01-2.1,11.78-4.38l2.62,2.73c-1.55,.56-3.36,1.05-5.24,1.47v5.71h5.24v1.58h-5.24v2.07c1.96,1.33,4.5,3.36,5.72,4.69l-2.62,2.31c-.74-1.37-1.96-3.26-3.1-4.97Zm18.32,5.92v11.17h-3.25v-10.47c-3.95,.84-7.94,1.68-11.89,2.45l-.55-1.58c4.14-.81,8.31-1.65,12.44-2.52V.56h3.25V19.92c1.51-.35,3.06-.67,4.58-1.01l.44,1.54c-1.66,.38-3.36,.77-5.02,1.12Zm-12.22-9.17c2.62,1.47,4.65,2.94,6.79,5.22l-2.81,2.35c-1.51-2.52-3.06-4.38-4.91-6.65l.92-.91Zm4.84-1.64c-1.74-2.31-3.21-4.03-5.17-6.09l.81-.95c2.55,1.29,4.69,2.62,6.87,4.69l-2.51,2.35Z" fill="#fff"/>
      <path d="M297.19,19.22l-.04,10.61c0,3.04-2.55,4.41-8.12,1.01l.37-1.16c3.88,.88,4.65,.67,4.65-.98v-8.23c-1.51,.56-3.03,1.02-4.58,1.47l-1.07-3.43c2.03-.28,3.88-.52,5.65-.88v-7.39h-5.28v-1.58h5.28V.56h3.18l-.04,8.12h4.39v1.58h-4.39v6.76c1.07-.25,2.18-.56,3.29-.88l.48,1.19c-1.26,.7-2.51,1.33-3.77,1.89Zm22.23,13.44c-3.54-1.16-6.68-2.73-9.27-5.08-3.06,2.45-7.02,4.13-12.37,5.39l-.44-1.19c4.99-1.68,8.46-3.71,10.97-6.13-2.18-2.62-3.77-5.99-4.65-10.4h-2.47v-1.58h6.94V7.91h-7.39v-1.58h7.39V.56h3.32V6.33h8.49v1.58h-8.49v5.78h2.62l.89-.56,3.36,1.58c-1.59,4.59-3.4,8.09-5.91,10.78,2.47,1.54,5.5,2.59,9.27,3.54l-2.25,3.64Zm-9.34-8.93c1.96-2.45,3.18-5.29,4.14-8.47h-9.23c1.18,3.75,2.81,6.44,5.1,8.47Z" fill="#fff"/>
      <path d="M350.37,9.63c-1.59,7.63-5.98,16.17-13.37,20.48l-.81-1.09c6.39-5.29,9.23-12.39,10.19-18.27l-8.68,.04v-1.58l8.49-.04,.74-.7,3.43,1.16Zm19.53,17.19l-2.7,3.82c-4.06-2.38-9.45-8.47-12.11-19.71V28.81c0,4.66-3.62,5.67-10.08,1.51l.44-1.23c5.58,1.29,6.31,.95,6.31-1.22V.59h3.32v3.78c.59,3.15,1.48,6.3,2.81,9.24,2.25-1.86,5.06-4.66,6.91-7.49l3.36,2.56c-2.99,2.66-6.98,4.9-9.67,6.23,2.44,4.94,6.09,9.21,11.41,11.9Z" fill="#fff"/>
      <path d="M388.22,11.55h28.21v1.58h-24.74c.04,10.89-1.4,15.65-6.09,19.81l-1.03-.81c3.4-4.17,3.66-8.37,3.66-20.58Zm4.06-9.63V7.49h7.39V.52h3.25V7.49h7.39V1.92h3.18v7.14h-24.37V1.92h3.18Zm-.41,22.19v-1.58h10.23v-4.76h-8.57v-1.58h21.01v1.58h-9.12v4.76h11.26v1.58h-11.26v8.68h-3.32v-8.68h-10.23Z" fill="#fff"/>
      <path d="M451.03,20.23h12.67c-.18,2.87-.48,5.18-.81,6.72-1.07,4.97-4.76,4.62-9.64,1.15l.55-1.15c4.76,1.5,5.24,1.19,5.76-.35,.33-1.01,.63-3.01,.7-4.79h-9.23v11.03h-3.25v-8.93c-3.29,3.5-9.9,6.69-14.99,7.91l-.48-1.19c4.91-1.86,10.19-5.04,13.48-8.82h-6.68c-.3,.94-.59,1.79-.85,2.45l-3.18-.7c1.22-3.12,2.1-5.99,2.77-9l2.77,.88h7.16v-3.29h-11.89v-1.58h25.66v6.44h-10.52v3.22Zm-17.32-9.14l-1-.88c2.29-2.42,4.54-6.58,5.61-10.08l3.58,1.02c-.3,.7-.81,1.64-1.51,2.66h9.42v1.58h-5.83c.78,1.01,1.51,2.17,2.22,3.64l-2.95,.81c-.26-1.4-.59-2.8-1.11-4.45h-2.88c-1.59,2.1-3.66,4.34-5.54,5.71Zm5.87,9.14h8.2v-3.22h-7.24l-.96,3.22Zm25.22-16.42v1.58h-6.5c.81,.98,1.51,2.17,2.33,3.67l-2.99,.77c-.3-1.44-.59-2.77-1.11-4.45h-3.06c-1.4,1.82-2.99,3.43-4.58,4.69l-.96-.88c2.22-2.52,3.95-6.23,4.8-9.03l3.43,.98c-.44,.91-1,1.79-1.55,2.66h10.19Zm-13.77,11.62h7.35v-3.29h-7.35v3.29Z" fill="#fff"/>
      <path d="M487.7,7.6l-5.61,2.34v-2.76l6.72-2.24h2.73V30h-3.62V7.6h-.22Z" fill="#fff"/>
      <path d="M515.47,15.12c-1.48-2.07-2.95-3.67-4.39-5.29l.74-1.02c1.96,.95,4.32,2.42,5.98,3.96l-2.33,2.34Zm.96,2.24l1.29,.39c-.81,4.87-1.92,10.68-2.84,13.62l-3.58-1.4c1.62-3.25,3.66-8.47,5.13-12.6Zm.44-11.27c-1.62-1.89-3.25-3.43-4.73-4.87l.66-.98c1.81,.73,4.5,2.06,6.28,3.46l-2.22,2.38Zm2.92,12.08l-2.03-1.08c1.07-1.23,1.85-2.66,2.36-4.2l.92,.28c-.15,1.75-.59,3.57-1.26,5.01Zm0-12.04c.7-1.75,1.22-3.99,1.59-5.71l2.44,.7c-1,1.96-1.88,3.67-2.73,4.97,.63-.03,1.29-.07,1.96-.14,.44-.88,.85-1.75,1.18-2.62l2.03,.95v-.88h4.95c-1.03-.95-1.96-1.58-2.99-2.31l.41-.88c1.33,.31,2.81,.84,4.51,1.82l-1,1.37h3.77v1.4h-9.64v-.07c-1.51,2.27-3.36,4.38-4.73,5.67,1.03-.14,1.99-.31,3.03-.56-.18-.42-.37-.88-.59-1.29l.78-.42c1.11,.98,1.92,2.07,2.55,3.22l-1.81,.8c-.15-.46-.33-.91-.52-1.36-1.92,.91-3.99,1.61-5.95,2.03l-.7-2.1c.63-.04,1.22-.07,1.81-.14,.7-.88,1.44-2,2.14-3.22-1.26,.38-2.36,.67-3.25,.77l-.44-2.03c.41,0,.81,.04,1.22,.04Zm4.39,18.8h19.2c-.33,2.21-1,4.73-1.55,5.95-1.4,3.12-4.58,3.22-10.12-.31l.48-1.16c5.32,1.5,5.95,1.79,6.87-.21,.3-.63,.52-1.75,.7-2.77h-16.25c-.33,.74-.63,1.47-.96,2.17l-3.1-.59c1.07-2,2.55-5.57,3.14-7.6l2.84,1.26h12.89v-1.92h-17.54v-1.51h20.57v4.83h-16.43c-.22,.63-.48,1.26-.74,1.86Zm-1.55-12.15c.78,1.43,1.37,2.94,1.74,4.17l-2.14,.46c-.07-1.47-.26-2.94-.48-4.38l.89-.25Zm2.7,3.89c-.37-1.37-.89-2.8-1.44-4.13l.81-.42c1,1.05,1.96,2.42,2.66,3.75l-2.03,.81Zm9.34-9.24h-7.2v-1.33h7.2v1.33Zm0,2.7h-7.2v-1.33h7.2v1.33Zm-7.02,6.65v-5.29h7.02v5.29h-7.02Zm2.03-1.29h2.92v-2.73h-2.92v2.73Zm5.32,1.58c.92-1.19,1.62-2.62,2.07-4.1l.96,.25c-.18,1.75-.41,3.19-1.11,4.73l-1.92-.88Zm1.48-11.1c.7-1.75,1.29-3.99,1.59-5.78l2.36,.67c-.63,1.58-1.85,3.75-2.73,5.11,.63-.04,1.29-.07,1.99-.14,.44-.95,.85-1.89,1.22-2.8l2.33,.98c-1.48,2.45-3.47,4.9-4.91,6.37,1.07-.1,2.03-.28,3.06-.49-.22-.53-.44-1.09-.7-1.61l.74-.46c1.03,.98,2.03,2.28,2.62,3.46l-1.88,.88-.44-1.36c-1.92,.91-4.03,1.47-5.95,1.96l-.7-2.21c.66,0,1.29-.04,1.85-.07,.74-.91,1.44-2.1,2.14-3.36-1.26,.42-2.29,.63-3.21,.74l-.52-1.93c.41,.04,.78,.04,1.14,.04Zm2.99,6.76c.81,1.47,1.37,3.05,1.7,4.2l-2.1,.49c-.07-1.33-.18-2.91-.44-4.45l.85-.25Zm2.81,4.06c-.48-1.29-1.14-2.87-1.81-4.17l.74-.46c1.07,.98,2.14,2.28,2.95,3.64l-1.88,.98Z" fill="#fff"/>
    </g>
  </g>
</svg>