<?xml version="1.0" encoding="UTF-8"?>
<svg xmlns="http://www.w3.org/2000/svg" viewBox="0 0 383.18 33.11">
  <g isolation="isolate">
    <g id="_圖層_2" data-name="圖層 2">
      <g id="content">
        <g>
          <g opacity=".4">
            <g mix-blend-mode="lighten" opacity=".49">
              <path d="M.06,16.17c-.01-.41-.03-.82-.06-1.24,.11,.01,.23,.02,.37,.03s.28,.01,.44,.01c.23,0,.47,0,.72-.02,.25-.02,.49-.02,.73-.02,.47,0,.83,.03,1.1,.1,.26,.07,.47,.16,.62,.29,.21,.17,.37,.35,.46,.55s.15,.45,.15,.74c0,.36-.06,.68-.19,.94-.13,.26-.3,.47-.53,.64-.23,.16-.5,.28-.8,.36s-.65,.11-1.02,.11h-.5c0,.48,0,.95,.01,1.43,0,.47,.03,.95,.06,1.41-.11-.01-.23-.02-.37-.02H.37c-.13,0-.25,0-.37,.02,.03-.4,.05-.8,.06-1.21,.01-.41,.02-.88,.02-1.41v-1.3c0-.53,0-1-.02-1.41Zm2.88-.01c-.06-.17-.13-.3-.23-.4-.1-.1-.21-.17-.34-.22-.13-.04-.26-.07-.4-.07h-.33s-.06,0-.09,0c0,.46-.01,.91-.01,1.35,0,.44,0,.89,0,1.33,.16,0,.33-.02,.51-.05,.17-.03,.33-.1,.48-.2s.26-.24,.36-.43c.09-.18,.14-.43,.14-.74,0-.24-.03-.45-.08-.61Z" fill="#fff"/>
              <path d="M22.14,16.17c-.01-.41-.03-.82-.06-1.24,.11,.01,.23,.02,.37,.03,.13,0,.28,.01,.44,.01s.31,0,.44-.01,.25-.02,.37-.03c-.03,.41-.05,.83-.06,1.24-.01,.41-.02,.88-.02,1.41v1.3c0,.36,0,.71,0,1.05,0,.34,0,.63,.01,.88,.38,0,.75,0,1.13-.03,.38-.02,.75-.05,1.14-.1-.01,.07-.02,.13-.03,.19,0,.06,0,.14,0,.24s0,.18,0,.24c0,.06,.02,.11,.03,.14-.18,0-.4-.01-.66-.01-.26,0-.62,0-1.07,0h-1.56c-.15,0-.26,0-.34,0-.08,0-.14,0-.19,.01,.03-.4,.05-.8,.06-1.21,.01-.41,.02-.88,.02-1.41v-1.3c0-.53,0-1-.02-1.41Z" fill="#fff"/>
              <path d="M49.71,21.52c-.16-.01-.31-.02-.45-.02h-.84c-.14,0-.28,0-.42,.02-.11-.31-.21-.63-.33-.96s-.23-.65-.36-.98c-.21,0-.42-.01-.63-.01-.21,0-.42,0-.63,0-.17,0-.34,0-.51,0-.17,0-.34,0-.51,.01-.13,.32-.25,.65-.37,.98-.11,.32-.21,.64-.31,.96-.08-.01-.16-.02-.23-.02h-.47c-.08,0-.16,0-.26,.02,.08-.17,.18-.4,.32-.69,.13-.29,.28-.62,.43-.99,.16-.37,.33-.77,.51-1.19,.18-.42,.36-.85,.54-1.29,.18-.43,.36-.86,.53-1.28,.17-.42,.33-.81,.48-1.18,.07,.01,.13,.02,.19,.03s.12,.01,.19,.01,.13,0,.19-.01c.06,0,.12-.02,.19-.03,.21,.54,.44,1.12,.68,1.74,.24,.62,.48,1.23,.73,1.82,.24,.6,.48,1.16,.71,1.7,.23,.54,.44,.99,.63,1.36Zm-3.49-4.77c-.17,.38-.33,.76-.48,1.13s-.3,.75-.44,1.14h1.81c-.14-.39-.29-.77-.43-1.14-.14-.37-.29-.75-.45-1.13Z" fill="#fff"/>
              <path d="M69.04,15.98c0-.15-.01-.26-.02-.33-.1,0-.22,0-.37,0-.14,0-.3,.01-.46,.02-.16,0-.33,.02-.5,.04-.17,.02-.33,.03-.47,.05,.01-.07,.02-.14,.03-.21,0-.07,.01-.14,.01-.21s0-.14-.01-.21c0-.07-.02-.14-.03-.21,.22,0,.43,.01,.61,.02,.18,0,.37,.01,.55,.01,.19,0,.39,0,.61,0,.22,0,.49,0,.79,0s.57,0,.79,0c.22,0,.42,0,.61,0,.18,0,.36,0,.54-.01,.17,0,.36-.01,.57-.02-.01,.07-.02,.14-.03,.21,0,.07-.01,.14-.01,.21s0,.14,.01,.21c0,.07,.02,.14,.03,.21-.13-.02-.28-.04-.44-.05-.16-.02-.33-.03-.49-.04-.16,0-.31-.02-.46-.02-.14,0-.27,0-.37,0,0,.03-.01,.08-.01,.13,0,.06,0,.12,0,.2v2.9c0,.53,0,1,.02,1.41,.01,.41,.03,.81,.06,1.21-.11-.01-.23-.02-.37-.02h-.89c-.13,0-.25,0-.37,.02,.03-.4,.05-.8,.06-1.21s.02-.88,.02-1.41v-2.39c0-.18,0-.35,0-.51Z" fill="#fff"/>
              <path d="M89.84,16.17c-.01-.41-.03-.82-.06-1.24,.11,.01,.23,.02,.37,.03,.13,0,.28,.01,.44,.01s.31,0,.44-.01,.25-.02,.37-.03c-.03,.41-.05,.83-.06,1.24-.01,.41-.02,.88-.02,1.41v1.3c0,.53,0,1,.02,1.41,.01,.41,.03,.81,.06,1.21-.11-.01-.23-.02-.37-.02h-.89c-.13,0-.25,0-.37,.02,.03-.4,.05-.8,.06-1.21,.01-.41,.02-.88,.02-1.41v-1.3c0-.53,0-1-.02-1.41Z" fill="#fff"/>
              <path d="M109.08,15.73c-.01-.3-.02-.56-.03-.79,.18,.03,.33,.05,.44,.05s.26-.02,.44-.05c.72,.77,1.43,1.53,2.13,2.28,.7,.75,1.42,1.5,2.16,2.28v-1.76c0-.31,0-.62,0-.92,0-.3,0-.58,0-.84,0-.25,0-.47-.02-.66s-.02-.31-.03-.37c.18,.03,.33,.05,.44,.05s.26-.02,.44-.05c-.03,.58-.06,1.1-.08,1.57s-.04,.91-.05,1.32c-.01,.41-.02,.82-.02,1.23,0,.4,0,.84,0,1.3v1.15c-.13-.01-.27-.02-.4-.02s-.27,0-.38,.02c-1.36-1.53-2.79-3.07-4.31-4.62,0,.19-.01,.37-.01,.55,0,.19,0,.37,0,.56v1.11c0,.38,0,.71,0,.98,0,.27,0,.49,.01,.68,0,.19,.01,.34,.02,.45,0,.12,.01,.21,.02,.28-.08-.01-.16-.02-.24-.02h-.23c-.15,0-.3,0-.45,.02,.01-.05,.03-.23,.05-.54s.04-.69,.06-1.14c.02-.45,.04-.94,.06-1.46,.02-.53,.02-1.03,.02-1.52,0-.44,0-.81-.02-1.11Z" fill="#fff"/>
              <path d="M134.38,21.43c-.37-.09-.68-.23-.95-.43-.27-.2-.48-.46-.64-.77-.15-.32-.23-.7-.23-1.15,0-.25,0-.48,0-.68,0-.2,0-.39,0-.56s0-.34,0-.5c0-.16,0-.32,0-.5,0-.52,0-.93,0-1.25,0-.32-.02-.56-.03-.72,.13,.01,.27,.02,.4,.03,.14,0,.27,.01,.4,.01s.27,0,.4-.01c.14,0,.27-.02,.4-.03-.07,.62-.11,1.19-.12,1.73-.01,.53-.02,1.07-.02,1.62,0,.58,.04,1.05,.13,1.41s.21,.63,.38,.83c.17,.19,.37,.32,.62,.39,.24,.06,.53,.1,.85,.1,.39,0,.7-.1,.93-.29,.22-.19,.39-.45,.51-.77,.11-.32,.19-.68,.21-1.09,.03-.41,.04-.84,.04-1.29s0-.88-.02-1.31c-.01-.44-.03-.87-.06-1.31,.09,.01,.18,.02,.27,.03s.16,.01,.24,.01c.09,0,.17,0,.25-.01s.16-.02,.25-.03c-.01,.14-.03,.33-.04,.56-.01,.24-.03,.51-.04,.82-.01,.31-.02,.65-.03,1.02s-.01,.77-.01,1.18c0,1.11-.25,1.9-.74,2.39-.49,.48-1.22,.72-2.17,.72-.42,0-.81-.04-1.18-.13Z" fill="#fff"/>
              <path d="M157.19,19.36c-.05,.71-.11,1.43-.16,2.14-.08-.01-.16-.02-.24-.02h-.46c-.08,0-.15,0-.23,.02,.21-1.1,.4-2.19,.56-3.27,.16-1.08,.32-2.18,.45-3.3,.07,.01,.14,.02,.2,.03,.06,0,.13,.01,.2,.01,.06,0,.12,0,.19-.01s.13-.02,.21-.03c.18,.38,.36,.77,.56,1.17,.19,.4,.39,.79,.58,1.18s.39,.78,.58,1.15c.19,.38,.38,.73,.56,1.07,.39-.71,.79-1.46,1.18-2.24,.39-.78,.77-1.56,1.12-2.33,.16,.03,.31,.05,.42,.05,.11,0,.25-.02,.41-.05,.07,.55,.14,1.14,.21,1.77,.08,.63,.15,1.25,.22,1.85,.07,.6,.14,1.16,.22,1.69,.07,.52,.14,.94,.2,1.26-.13-.01-.27-.02-.4-.02h-.8c-.14,0-.28,0-.41,.02-.03-.66-.09-1.37-.16-2.13-.08-.76-.15-1.52-.23-2.28h-.02c-.38,.75-.74,1.49-1.11,2.22-.36,.73-.72,1.46-1.08,2.19-.03,0-.06-.01-.09-.01-.03,0-.06,0-.09,0s-.06,0-.09,0c-.03,0-.06,0-.09,.01-.36-.71-.71-1.43-1.06-2.14-.35-.71-.72-1.44-1.09-2.17h-.02c-.11,.73-.18,1.46-.24,2.17Z" fill="#fff"/>
            </g>
            <g mix-blend-mode="lighten" opacity=".49">
              <path d="M195.28,18.49v.39c0,.53,0,1,.02,1.41,.01,.41,.03,.81,.06,1.21-.11-.01-.23-.02-.37-.02h-.89c-.13,0-.25,0-.37,.02,.03-.4,.05-.8,.06-1.21,.01-.41,.02-.88,.02-1.41v-1.3c0-.53,0-1-.02-1.41-.01-.41-.03-.82-.06-1.24,.11,.01,.23,.02,.37,.03,.13,0,.28,.01,.44,.01,.18,0,.38,0,.61-.02,.23-.02,.51-.02,.84-.02,.25,0,.46,0,.64,.02,.18,.01,.33,.03,.46,.06,.13,.03,.24,.06,.34,.1s.19,.09,.27,.15c.2,.14,.35,.31,.47,.52,.11,.21,.17,.45,.17,.74,0,.47-.13,.84-.39,1.14-.26,.29-.64,.5-1.14,.62,.32,.54,.65,1.08,1.02,1.62s.72,1.07,1.09,1.6c-.15-.01-.3-.02-.44-.02h-.89c-.15,0-.3,0-.45,.02l-1.77-3.01h-.09Zm1.47-2.43c-.06-.17-.15-.29-.27-.38-.12-.09-.28-.14-.47-.17-.19-.03-.43-.04-.7-.04-.02,.87-.03,1.73-.03,2.6,.04,0,.08,.01,.11,.01,.04,0,.07,0,.1,0,.43,0,.77-.11,1-.34,.23-.23,.35-.57,.35-1.03,0-.28-.03-.5-.09-.67Z" fill="#fff"/>
              <path d="M217.09,16.17c-.01-.41-.03-.82-.06-1.24,.11,.01,.23,.02,.37,.03,.13,0,.28,.01,.44,.01s.31,0,.44-.01,.25-.02,.37-.03c-.03,.41-.05,.83-.06,1.24-.01,.41-.02,.88-.02,1.41v1.3c0,.53,0,1,.02,1.41,.01,.41,.03,.81,.06,1.21-.11-.01-.23-.02-.37-.02h-.89c-.13,0-.25,0-.37,.02,.03-.4,.05-.8,.06-1.21,.01-.41,.02-.88,.02-1.41v-1.3c0-.53,0-1-.02-1.41Z" fill="#fff"/>
              <path d="M241.27,17.29c.32-.82,.61-1.6,.87-2.36,.16,.03,.31,.05,.43,.05s.27-.02,.43-.05c-.16,.38-.36,.83-.59,1.36s-.47,1.09-.72,1.68c-.25,.59-.5,1.2-.74,1.81-.24,.61-.46,1.19-.65,1.72-.13-.01-.28-.02-.43-.02s-.3,0-.43,.02c-.1-.25-.22-.56-.36-.93-.14-.36-.29-.75-.45-1.16-.16-.41-.33-.83-.51-1.25-.18-.43-.35-.84-.51-1.24s-.32-.77-.46-1.11c-.14-.34-.27-.64-.38-.88,.15,.01,.3,.02,.45,.03s.29,.01,.44,.01,.29,0,.43-.01,.29-.02,.43-.03c.11,.36,.24,.73,.38,1.13,.14,.4,.29,.8,.44,1.21,.15,.41,.31,.82,.47,1.24,.16,.41,.32,.82,.47,1.22,.34-.81,.67-1.62,1-2.44Z" fill="#fff"/>
              <path d="M261.16,16.17c-.01-.41-.03-.82-.05-1.24,.3,0,.59,.02,.88,.03,.29,.01,.58,.02,.88,.02,.49,0,.92,0,1.3-.01s.63-.02,.77-.03c-.03,.1-.04,.24-.04,.4,0,.1,0,.18,0,.24,0,.06,.02,.12,.03,.19-.19-.01-.4-.03-.63-.04-.23-.01-.45-.03-.66-.04-.21-.01-.41-.02-.58-.03-.17,0-.29,0-.37,0-.03,.35-.04,.7-.04,1.04s0,.69,0,1.04c.43,0,.81-.02,1.16-.03,.35-.01,.71-.03,1.08-.05-.02,.11-.03,.19-.04,.25,0,.06,0,.12,0,.18,0,.05,0,.1,.01,.16,0,.05,.02,.13,.03,.23-.75-.06-1.5-.09-2.24-.09,0,.2,0,.41,0,.61s0,.41,0,.61c0,.41,0,.81,.03,1.19,.38,0,.75,0,1.13-.03s.75-.05,1.14-.1c-.01,.07-.02,.13-.03,.19,0,.06,0,.14,0,.24s0,.18,0,.24c0,.06,.02,.11,.03,.14-.18,0-.4-.01-.66-.01-.26,0-.62,0-1.07,0h-1.56c-.15,0-.26,0-.34,0-.08,0-.14,0-.19,.01,.02-.4,.04-.8,.05-1.21s.02-.88,.02-1.41v-1.3c0-.53,0-1-.02-1.41Z" fill="#fff"/>
              <path d="M284.58,18.49v.39c0,.53,0,1,.02,1.41,.01,.41,.03,.81,.06,1.21-.11-.01-.23-.02-.37-.02h-.89c-.13,0-.25,0-.37,.02,.03-.4,.05-.8,.06-1.21,.01-.41,.02-.88,.02-1.41v-1.3c0-.53,0-1-.02-1.41-.01-.41-.03-.82-.06-1.24,.11,.01,.23,.02,.37,.03,.13,0,.28,.01,.44,.01,.18,0,.38,0,.61-.02,.23-.02,.51-.02,.84-.02,.25,0,.46,0,.64,.02,.18,.01,.33,.03,.46,.06,.13,.03,.24,.06,.34,.1s.19,.09,.27,.15c.2,.14,.35,.31,.47,.52,.11,.21,.17,.45,.17,.74,0,.47-.13,.84-.39,1.14-.26,.29-.64,.5-1.14,.62,.32,.54,.65,1.08,1.02,1.62,.36,.54,.72,1.07,1.09,1.6-.15-.01-.3-.02-.44-.02h-.89c-.15,0-.3,0-.45,.02l-1.77-3.01h-.09Zm1.47-2.43c-.06-.17-.15-.29-.27-.38-.12-.09-.28-.14-.47-.17-.19-.03-.43-.04-.7-.04-.02,.87-.03,1.73-.03,2.6,.04,0,.08,.01,.11,.01,.04,0,.07,0,.1,0,.43,0,.77-.11,1-.34,.23-.23,.35-.57,.35-1.03,0-.28-.03-.5-.09-.67Z" fill="#fff"/>
              <path d="M306.39,16.17c-.01-.41-.04-.82-.07-1.24,.11,.01,.23,.02,.37,.03,.13,0,.28,.01,.44,.01,.28,0,.58,0,.89-.02,.31-.02,.61-.02,.89-.02s.57,.03,.81,.09,.45,.15,.63,.26c.18,.12,.31,.27,.41,.46,.1,.19,.14,.41,.14,.67s-.06,.49-.17,.67-.25,.34-.41,.47c-.16,.12-.34,.22-.53,.29-.19,.07-.36,.12-.51,.14v.02c.15,0,.33,.04,.53,.1,.2,.06,.4,.15,.58,.28,.18,.13,.34,.29,.47,.49,.13,.2,.19,.44,.19,.73,0,.34-.06,.64-.19,.88-.13,.24-.3,.44-.51,.59-.21,.15-.46,.26-.73,.32s-.56,.09-.86,.09c-.26,0-.51,0-.73,0-.23,0-.46,0-.71,0h-.55c-.19,0-.34,0-.45,.02,.03-.4,.05-.8,.07-1.21,.01-.41,.02-.88,.02-1.41v-1.3c0-.53,0-1-.02-1.41Zm3,0c-.04-.14-.1-.25-.18-.35-.09-.1-.19-.18-.33-.24s-.3-.09-.49-.09c-.14,0-.25,0-.3,0-.06,0-.12,.01-.18,.02-.01,.24-.02,.47-.03,.72,0,.24,0,.45,0,.61s0,.34,0,.49c0,.16,0,.32,0,.48h.44c.14,0,.27-.03,.41-.08s.25-.13,.36-.22c.11-.1,.19-.22,.26-.38s.1-.33,.1-.54c0-.15-.02-.3-.05-.44Zm-.19,2.52c-.21-.22-.51-.33-.9-.33-.09,0-.17,0-.24,0-.07,0-.13,0-.19,0,0,.13,0,.27,0,.42,0,.14,0,.31,0,.51,0,.15,0,.31,0,.47,0,.16,0,.32,0,.47s0,.29,0,.42c0,.13,0,.23,0,.32,.09,0,.18,.01,.26,.01,.08,0,.17,0,.29,0,.14,0,.28-.03,.41-.09,.13-.06,.25-.14,.35-.25,.1-.11,.18-.25,.24-.41s.09-.34,.09-.55c0-.45-.1-.78-.31-1Z" fill="#fff"/>
              <path d="M335.48,21.52c-.16-.01-.31-.02-.45-.02h-.84c-.14,0-.28,0-.42,.02-.11-.31-.21-.63-.33-.96s-.23-.65-.36-.98c-.21,0-.42-.01-.63-.01-.21,0-.42,0-.63,0-.17,0-.34,0-.51,0-.17,0-.34,0-.51,.01-.13,.32-.25,.65-.37,.98-.11,.32-.21,.64-.31,.96-.08-.01-.16-.02-.23-.02h-.47c-.08,0-.16,0-.26,.02,.08-.17,.18-.4,.32-.69,.13-.29,.28-.62,.43-.99,.16-.37,.33-.77,.51-1.19,.18-.42,.36-.85,.54-1.29,.18-.43,.36-.86,.53-1.28,.17-.42,.33-.81,.48-1.18,.07,.01,.13,.02,.19,.03s.12,.01,.19,.01,.13,0,.19-.01c.06,0,.12-.02,.19-.03,.21,.54,.44,1.12,.68,1.74,.24,.62,.48,1.23,.73,1.82,.24,.6,.48,1.16,.71,1.7s.44,.99,.63,1.36Zm-3.49-4.77c-.17,.38-.33,.76-.48,1.13s-.3,.75-.44,1.14h1.81c-.14-.39-.29-.77-.43-1.14-.14-.37-.29-.75-.45-1.13Z" fill="#fff"/>
              <path d="M353.76,15.73c-.01-.3-.02-.56-.03-.79,.18,.03,.33,.05,.44,.05s.26-.02,.44-.05c.72,.77,1.43,1.53,2.13,2.28,.7,.75,1.42,1.5,2.16,2.28v-1.76c0-.31,0-.62,0-.92,0-.3,0-.58,0-.84,0-.25,0-.47-.02-.66s-.02-.31-.03-.37c.18,.03,.33,.05,.44,.05s.26-.02,.44-.05c-.03,.58-.06,1.1-.08,1.57-.02,.47-.04,.91-.05,1.32-.01,.41-.02,.82-.02,1.23,0,.4,0,.84,0,1.3v1.15c-.13-.01-.27-.02-.4-.02s-.27,0-.38,.02c-1.36-1.53-2.79-3.07-4.31-4.62,0,.19-.01,.37-.01,.55,0,.19,0,.37,0,.56v1.11c0,.38,0,.71,0,.98,0,.27,0,.49,.01,.68,0,.19,.01,.34,.02,.45,0,.12,.01,.21,.02,.28-.08-.01-.16-.02-.24-.02h-.23c-.15,0-.3,0-.45,.02,.01-.05,.03-.23,.05-.54s.04-.69,.06-1.14c.02-.45,.04-.94,.06-1.46,.02-.53,.02-1.03,.02-1.52,0-.44,0-.81-.02-1.11Z" fill="#fff"/>
              <path d="M379.38,20.32c0,.5,.03,.89,.07,1.19-.11-.01-.23-.02-.37-.02h-.89c-.13,0-.25,0-.37,.02,.03-.4,.05-.8,.06-1.21,.01-.41,.02-.88,.02-1.41v-1.3c0-.53,0-1-.02-1.41-.01-.41-.03-.82-.06-1.24,.11,.01,.23,.02,.37,.03s.28,.01,.44,.01,.31,0,.44-.01,.25-.02,.37-.03c-.03,.19-.05,.48-.06,.86s-.01,.81-.01,1.27v.92c.22-.25,.46-.53,.72-.84,.26-.3,.5-.6,.74-.88,.24-.29,.45-.55,.64-.79,.19-.24,.33-.42,.41-.54,.09,.01,.18,.02,.28,.03,.09,0,.18,.01,.28,.01s.19,0,.28-.01,.2-.02,.31-.03c-.11,.11-.28,.28-.51,.53-.23,.24-.48,.5-.74,.78s-.51,.55-.75,.82c-.24,.26-.42,.47-.55,.63,.21,.31,.44,.66,.7,1.03,.26,.38,.51,.74,.77,1.1,.25,.36,.49,.69,.71,.99,.22,.3,.39,.53,.52,.68-.19-.01-.36-.02-.51-.02h-.87c-.14,0-.28,0-.43,.02-.34-.48-.66-.98-.99-1.48-.32-.5-.65-1-.99-1.5h-.02c0,.69,0,1.29,0,1.79Z" fill="#fff"/>
            </g>
          </g>
          <g opacity=".3">
            <path d="M136.7,31.42c-.54,.29-1.2,.56-1.97,.79-.77,.23-1.63,.44-2.57,.63-.95,.19-1.94,.28-2.97,.28-2.2,0-4.24-.35-6.11-1.05-1.87-.7-3.48-1.76-4.83-3.18-1.35-1.42-2.41-3.17-3.18-5.22-.77-2.06-1.15-4.4-1.15-7.04s.38-4.98,1.15-7.04c.77-2.06,1.84-3.8,3.22-5.22,1.38-1.42,3.03-2.51,4.96-3.25,1.92-.74,4.04-1.11,6.36-1.11,1.84,0,3.52,.21,5.04,.63,1.52,.42,2.87,.92,4.04,1.51-.22,.43-.4,1.02-.54,1.76-.14,.74-.25,1.36-.33,1.86l-.25,.09c-.28-.37-.67-.79-1.17-1.25-.5-.46-1.09-.91-1.76-1.35-.67-.43-1.42-.8-2.26-1.09-.84-.29-1.76-.44-2.76-.44-1.65,0-3.17,.29-4.58,.88-1.41,.59-2.64,1.49-3.68,2.72-1.05,1.22-1.86,2.77-2.45,4.64-.59,1.87-.88,4.09-.88,6.66s.29,4.79,.88,6.66c.59,1.87,1.4,3.42,2.45,4.64,1.05,1.22,2.27,2.13,3.68,2.72,1.41,.59,2.94,.88,4.58,.88,1,0,1.93-.14,2.78-.42,.85-.28,1.63-.61,2.34-1,.71-.39,1.35-.8,1.92-1.25,.57-.45,1.05-.84,1.44-1.18l.17,.19-.38,2.74c-.25,.25-.65,.52-1.19,.81Z" fill="#fff"/>
            <path d="M143.45,9.59c.77-2.06,1.84-3.8,3.22-5.22,1.38-1.42,3.03-2.51,4.96-3.25,1.92-.74,4.03-1.11,6.32-1.11s4.44,.37,6.36,1.11c1.92,.74,3.58,1.83,4.96,3.25,1.38,1.42,2.45,3.17,3.22,5.22,.77,2.06,1.15,4.4,1.15,7.04s-.38,4.98-1.15,7.04c-.77,2.06-1.84,3.8-3.22,5.22-1.38,1.42-3.03,2.48-4.96,3.18-1.93,.7-4.05,1.05-6.36,1.05s-4.39-.35-6.32-1.05c-1.93-.7-3.58-1.76-4.96-3.18-1.38-1.42-2.46-3.17-3.22-5.22-.77-2.06-1.15-4.4-1.15-7.04s.38-4.98,1.15-7.04Zm25.21,.37c-.59-1.87-1.4-3.42-2.45-4.64-1.05-1.22-2.27-2.13-3.68-2.72-1.41-.59-2.94-.88-4.58-.88s-3.13,.29-4.54,.88c-1.41,.59-2.64,1.49-3.68,2.72-1.05,1.22-1.86,2.77-2.45,4.64-.59,1.87-.88,4.09-.88,6.66s.29,4.79,.88,6.66c.59,1.87,1.4,3.42,2.45,4.64,1.05,1.22,2.27,2.13,3.68,2.72,1.41,.59,2.92,.88,4.54,.88s3.17-.29,4.58-.88c1.41-.59,2.64-1.49,3.68-2.72,1.05-1.22,1.86-2.77,2.45-4.64,.59-1.87,.88-4.09,.88-6.66s-.29-4.79-.88-6.66Z" fill="#fff"/>
            <path d="M185.53,25.91c-1.06-2.57-2.2-5.28-3.41-8.13-1.21-2.85-2.45-5.76-3.72-8.73-1.27-2.97-2.49-5.79-3.65-8.45,.45,.06,.89,.12,1.31,.16,.42,.05,.82,.07,1.21,.07s.79-.02,1.21-.07c.42-.05,.85-.1,1.31-.16,.71,2.04,1.49,4.19,2.35,6.43,.85,2.25,1.76,4.53,2.71,6.85,.95,2.32,1.93,4.68,2.93,7.06,1,2.38,2.01,4.75,3.05,7.1,.58-1.27,1.21-2.69,1.89-4.25,.68-1.56,1.36-3.19,2.06-4.88,.69-1.69,1.38-3.41,2.05-5.15,.68-1.75,1.33-3.43,1.96-5.04,.63-1.61,1.2-3.11,1.72-4.5,.52-1.39,.95-2.6,1.31-3.62,.71,.16,1.31,.23,1.79,.23s1.08-.08,1.79-.23c-2.51,5.39-4.93,10.73-7.25,16.02-2.32,5.29-4.55,10.59-6.67,15.88-.52-.06-1.05-.09-1.6-.09-.65,0-1.18,.03-1.6,.09-.74-1.83-1.64-4.02-2.71-6.59Z" fill="#fff"/>
            <path d="M213.58,6.55c-.1-1.98-.22-3.96-.34-5.94,1.85,.06,3.69,.12,5.52,.16,1.83,.05,3.67,.07,5.52,.07s3.68-.02,5.49-.07c1.81-.05,3.64-.1,5.49-.16-.12,.46-.18,.93-.18,1.39s.06,.93,.18,1.39c-1.32-.06-2.52-.12-3.61-.19-1.09-.06-2.24-.12-3.45-.19-1.21-.06-2.54-.12-3.98-.16-1.44-.05-3.17-.07-5.18-.07-.04,.99-.09,1.94-.15,2.83-.06,.9-.09,1.92-.09,3.07,0,1.21,0,2.38,.03,3.53,.02,1.15,.03,2.01,.03,2.6,1.81,0,3.43-.02,4.87-.05,1.44-.03,2.75-.07,3.95-.12,1.19-.05,2.29-.09,3.3-.14,1.01-.05,1.96-.1,2.87-.16-.12,.46-.18,.94-.18,1.44,0,.46,.06,.93,.18,1.39-1.07-.09-2.31-.17-3.73-.23-1.42-.06-2.84-.1-4.25-.12-1.42-.02-2.76-.03-4.01-.05-1.25-.02-2.25-.02-2.99-.02,0,.28-.01,.58-.03,.91-.02,.33-.03,.74-.03,1.23v4.6c0,1.76,0,3.22,.03,4.37,.02,1.15,.05,2.01,.09,2.6h4.32c1.56,0,3.09-.02,4.59-.07,1.5-.05,2.92-.11,4.26-.19,1.34-.08,2.5-.19,3.48-.35-.08,.22-.13,.46-.15,.72-.02,.26-.03,.5-.03,.72,0,.5,.06,.9,.19,1.21-1.85-.06-3.69-.09-5.52-.09h-11.19c-1.85,0-3.72,.03-5.61,.09,.12-1.98,.24-3.95,.34-5.92,.1-1.97,.15-3.97,.15-6.01v-7.99c0-2.04-.05-4.06-.15-6.04Z" fill="#fff"/>
            <path d="M241.8,6.63c-.09-1.97-.19-3.97-.3-6.01,1.06,.06,2.11,.12,3.13,.16,1.03,.05,2.07,.07,3.13,.07s2.11-.04,3.13-.12c1.03-.08,2.07-.12,3.13-.12,1.54,0,3,.12,4.4,.37,1.39,.25,2.61,.66,3.66,1.23,1.04,.57,1.87,1.32,2.47,2.25,.6,.93,.91,2.09,.91,3.48,0,1.49-.39,2.76-1.18,3.83-.79,1.07-1.75,1.95-2.89,2.65-1.14,.7-2.36,1.24-3.66,1.63-1.3,.39-2.48,.64-3.55,.77,.44,.46,1.04,1.11,1.81,1.95,.77,.84,1.63,1.76,2.58,2.76,.95,1.01,1.94,2.06,2.97,3.16,1.03,1.1,2.01,2.15,2.97,3.16,.95,1.01,1.85,1.93,2.69,2.76,.84,.84,1.52,1.47,2.03,1.9-.55-.06-1.1-.09-1.65-.09h-3.24c-.55,0-1.08,.03-1.59,.09-.55-.65-1.38-1.63-2.5-2.93-1.12-1.3-2.36-2.69-3.71-4.18-1.36-1.49-2.74-2.96-4.15-4.43-1.41-1.47-2.7-2.72-3.88-3.74h-2.09v3.39c0,2.04,.04,4.06,.14,6.04,.09,1.98,.19,3.93,.3,5.85-.84-.06-1.74-.09-2.69-.09s-1.85,.03-2.69,.09c.11-1.92,.21-3.87,.3-5.85,.09-1.98,.14-3.99,.14-6.04v-7.99c0-2.04-.05-4.05-.14-6.01Zm6.32,8.85c.6,.03,1.27,.05,2.01,.05,1.14,0,2.32-.11,3.55-.33,1.23-.22,2.35-.6,3.38-1.14,1.03-.54,1.88-1.27,2.56-2.18,.68-.91,1.02-2.07,1.02-3.46,0-1.21-.27-2.21-.8-3-.53-.79-1.22-1.42-2.06-1.88-.84-.46-1.76-.78-2.75-.95-.99-.17-1.96-.26-2.91-.26-1.28,0-2.34,.02-3.19,.07-.84,.05-1.56,.1-2.14,.16-.07,1.7-.15,3.39-.22,5.06-.07,1.67-.11,3.34-.11,5.02v2.65c.51,.09,1.07,.16,1.68,.19Z" fill="#fff"/>
          </g>
        </g>
      </g>
    </g>
  </g>
</svg>