<?xml version="1.0" encoding="UTF-8"?>
<svg xmlns="http://www.w3.org/2000/svg" viewBox="0 0 476.62 20.34">
  <g isolation="isolate">
    <g id="_圖層_2" data-name="圖層 2">
      <g id="content">
        <g>
          <g mix-blend-mode="lighten" opacity=".5">
            <path d="M.05,10.47c-.01-.37-.03-.73-.05-1.1,.1,.01,.21,.02,.33,.03s.25,.01,.4,.01c.21,0,.42,0,.64-.02,.22-.01,.44-.02,.65-.02,.42,0,.74,.03,.98,.09,.23,.06,.42,.15,.55,.26,.19,.15,.33,.31,.41,.49s.13,.4,.13,.66c0,.32-.06,.6-.17,.84-.11,.23-.27,.42-.47,.57-.2,.14-.44,.25-.72,.32s-.58,.1-.91,.1h-.45c0,.43,0,.85,.01,1.27,0,.42,.03,.84,.06,1.26-.1-.01-.21-.02-.33-.02H.33c-.12,0-.23,0-.33,.02,.02-.35,.04-.71,.05-1.08,.01-.37,.02-.79,.02-1.26v-1.16c0-.47,0-.89-.02-1.26Zm2.57-.01c-.05-.15-.12-.27-.2-.35-.09-.09-.18-.15-.3-.19-.11-.04-.23-.06-.36-.06h-.29s-.06,0-.08,0c0,.41-.01,.81-.01,1.21,0,.4,0,.79,0,1.19,.15,0,.3-.01,.45-.04,.16-.03,.3-.09,.43-.17s.23-.21,.32-.38c.08-.16,.12-.38,.12-.66,0-.22-.02-.4-.07-.55Z" fill="#fff"/>
            <path d="M31.14,10.47c-.01-.37-.03-.73-.05-1.1,.1,.01,.21,.02,.33,.03,.12,0,.25,.01,.4,.01s.28,0,.4-.01,.23-.02,.33-.03c-.02,.37-.04,.74-.05,1.1-.01,.37-.02,.79-.02,1.26v1.16c0,.32,0,.64,0,.94,0,.3,0,.56,.01,.78,.33,0,.67,0,1-.03,.33-.02,.67-.05,1.01-.09-.01,.06-.02,.12-.03,.17,0,.05,0,.12,0,.21s0,.16,0,.21c0,.05,.01,.09,.03,.13-.16,0-.35,0-.59-.01-.23,0-.55,0-.95,0h-1.39c-.13,0-.23,0-.3,0-.07,0-.12,0-.17,.01,.02-.35,.04-.71,.05-1.08,.01-.37,.02-.79,.02-1.26v-1.16c0-.47,0-.89-.02-1.26Z" fill="#fff"/>
            <path d="M66.34,15.24c-.14-.01-.27-.02-.4-.02h-.75c-.13,0-.25,0-.37,.02-.09-.28-.19-.56-.29-.85s-.21-.58-.32-.87c-.19,0-.38,0-.56-.01-.19,0-.38,0-.56,0-.15,0-.31,0-.46,0-.15,0-.31,0-.46,.01-.12,.29-.23,.58-.33,.87-.1,.29-.19,.57-.27,.85-.07-.01-.14-.02-.21-.02h-.42c-.07,0-.15,0-.23,.02,.07-.15,.16-.35,.28-.61,.12-.26,.25-.56,.39-.89,.14-.33,.29-.68,.45-1.06,.16-.38,.32-.76,.48-1.15,.16-.39,.32-.77,.48-1.14,.16-.37,.3-.72,.43-1.05,.06,.01,.11,.02,.17,.03s.11,.01,.17,.01,.11,0,.17-.01c.05,0,.11-.02,.17-.03,.19,.48,.39,1,.6,1.55,.21,.55,.43,1.09,.65,1.62,.22,.53,.43,1.04,.63,1.51s.39,.88,.56,1.21Zm-3.12-4.25c-.15,.34-.3,.68-.43,1.01s-.27,.67-.4,1.02h1.61c-.13-.35-.26-.69-.38-1.02-.13-.33-.26-.67-.4-1.01Z" fill="#fff"/>
            <path d="M93.65,10.31c0-.14-.01-.24-.02-.3-.09,0-.2,0-.33,0-.13,0-.27,.01-.41,.02-.15,0-.3,.02-.45,.03-.15,.01-.29,.03-.42,.05,.01-.06,.02-.12,.03-.19,0-.06,.01-.12,.01-.19s0-.12-.01-.19c0-.06-.02-.12-.03-.19,.2,0,.38,.01,.54,.02,.16,0,.33,.01,.49,.01,.17,0,.35,0,.55,0,.2,0,.43,0,.71,0s.51,0,.71,0c.2,0,.38,0,.54,0,.16,0,.32,0,.48-.01,.16,0,.32-.01,.51-.02-.01,.06-.02,.13-.03,.19,0,.06-.01,.13-.01,.19s0,.12,.01,.19c0,.06,.02,.13,.03,.19-.12-.02-.25-.03-.4-.05-.15-.01-.29-.03-.44-.03-.14,0-.28-.02-.41-.02-.13,0-.24,0-.33,0,0,.03-.01,.07-.01,.12,0,.05,0,.11,0,.18v2.58c0,.47,0,.89,.02,1.26,.01,.37,.03,.73,.05,1.08-.1-.01-.21-.02-.33-.02h-.79c-.12,0-.23,0-.33,.02,.02-.35,.04-.71,.05-1.08,.01-.37,.02-.79,.02-1.26v-2.13c0-.16,0-.32,0-.45Z" fill="#fff"/>
            <path d="M124.35,10.47c-.01-.37-.03-.73-.05-1.1,.1,.01,.21,.02,.33,.03,.12,0,.25,.01,.4,.01s.28,0,.4-.01,.23-.02,.33-.03c-.02,.37-.04,.74-.05,1.1-.01,.37-.02,.79-.02,1.26v1.16c0,.47,0,.89,.02,1.26,.01,.37,.03,.73,.05,1.08-.1-.01-.21-.02-.33-.02h-.79c-.12,0-.23,0-.33,.02,.02-.35,.04-.71,.05-1.08,.01-.37,.02-.79,.02-1.26v-1.16c0-.47,0-.89-.02-1.26Z" fill="#fff"/>
            <path d="M153.19,10.08c-.01-.27-.02-.5-.03-.71,.16,.03,.3,.04,.4,.04s.23-.01,.4-.04c.64,.69,1.27,1.36,1.9,2.03,.62,.66,1.27,1.34,1.92,2.03v-1.57c0-.28,0-.55,0-.82,0-.27,0-.52,0-.75,0-.23,0-.42-.02-.59s-.02-.28-.03-.33c.16,.03,.3,.04,.4,.04s.23-.01,.4-.04c-.03,.52-.05,.98-.07,1.4s-.03,.81-.04,1.18c-.01,.37-.02,.73-.02,1.09,0,.36,0,.75,0,1.15v1.02c-.12-.01-.24-.02-.36-.02s-.24,0-.34,.02c-1.21-1.36-2.49-2.74-3.85-4.12,0,.17-.01,.33-.01,.49,0,.17,0,.33,0,.5v.99c0,.34,0,.63,0,.87,0,.24,0,.44,.01,.6,0,.17,.01,.3,.02,.4,0,.11,.01,.19,.02,.25-.07-.01-.14-.02-.21-.02h-.2c-.14,0-.27,0-.4,.02,.01-.05,.03-.21,.04-.49s.04-.62,.06-1.02c.02-.4,.04-.84,.05-1.3,.01-.47,.02-.92,.02-1.35,0-.39,0-.72-.02-.99Z" fill="#fff"/>
            <path d="M185.45,15.16c-.33-.08-.61-.2-.85-.38-.24-.18-.43-.41-.57-.69s-.21-.62-.21-1.03c0-.23,0-.43,0-.61,0-.18,0-.35,0-.5s0-.3,0-.44c0-.14,0-.29,0-.44,0-.46,0-.83,0-1.12,0-.28-.01-.5-.03-.64,.12,.01,.24,.02,.36,.03,.12,0,.24,.01,.36,.01s.24,0,.36-.01c.12,0,.24-.02,.36-.03-.06,.55-.09,1.06-.11,1.54-.01,.47-.02,.96-.02,1.44,0,.52,.04,.93,.11,1.25s.19,.56,.34,.74c.15,.17,.33,.29,.55,.35,.22,.06,.47,.09,.76,.09,.35,0,.63-.09,.83-.26,.2-.17,.35-.4,.45-.68,.1-.28,.17-.61,.19-.98,.02-.37,.04-.75,.04-1.15s0-.78-.02-1.17c-.01-.39-.03-.78-.05-1.17,.08,.01,.16,.02,.24,.03s.15,.01,.21,.01c.08,0,.15,0,.22-.01s.14-.02,.22-.03c-.01,.13-.02,.29-.04,.5-.01,.21-.02,.45-.04,.73-.01,.28-.02,.58-.03,.91s-.01,.68-.01,1.05c0,.99-.22,1.7-.66,2.13s-1.09,.64-1.94,.64c-.38,0-.73-.04-1.05-.12Z" fill="#fff"/>
            <path d="M214.62,13.31c-.05,.64-.09,1.27-.14,1.91-.07-.01-.14-.02-.21-.02h-.41c-.07,0-.14,0-.21,.02,.19-.98,.35-1.95,.5-2.91,.15-.97,.28-1.95,.4-2.94,.06,.01,.12,.02,.18,.03,.06,0,.12,.01,.18,.01,.05,0,.11,0,.17-.01s.12-.02,.18-.03c.16,.34,.32,.69,.5,1.04,.17,.35,.35,.7,.52,1.05s.35,.69,.52,1.03c.17,.34,.34,.65,.5,.95,.35-.64,.7-1.3,1.05-2,.35-.7,.68-1.39,1-2.08,.15,.03,.27,.04,.38,.04,.1,0,.22-.01,.37-.04,.06,.49,.12,1.01,.19,1.58,.07,.56,.13,1.11,.2,1.65,.06,.54,.13,1.04,.19,1.5,.06,.47,.12,.84,.18,1.12-.12-.01-.24-.02-.36-.02h-.72c-.12,0-.25,0-.37,.02-.03-.59-.08-1.22-.14-1.9-.07-.68-.14-1.36-.21-2.03h-.02c-.33,.67-.66,1.33-.99,1.98-.32,.65-.64,1.3-.96,1.95-.03,0-.06,0-.08-.01-.03,0-.05,0-.08,0s-.06,0-.08,0c-.03,0-.05,0-.08,.01-.32-.64-.63-1.27-.95-1.91-.31-.64-.64-1.28-.97-1.93h-.02c-.09,.65-.16,1.3-.21,1.93Z" fill="#fff"/>
          </g>
          <g mix-blend-mode="lighten" opacity=".5">
            <path d="M258.8,13.49v.35c0,.47,0,.89,.02,1.26,.01,.37,.03,.73,.05,1.08-.1-.01-.21-.02-.33-.02h-.79c-.12,0-.23,0-.33,.02,.02-.35,.04-.71,.05-1.08,.01-.37,.02-.79,.02-1.26v-1.16c0-.47,0-.89-.02-1.26-.01-.37-.03-.73-.05-1.1,.1,.01,.21,.02,.33,.03,.12,0,.25,.01,.4,.01,.16,0,.34,0,.54-.02,.2-.01,.45-.02,.75-.02,.22,0,.41,0,.57,.02,.16,.01,.29,.03,.41,.05,.11,.02,.21,.05,.3,.09s.17,.08,.24,.13c.18,.12,.32,.28,.42,.46,.1,.18,.15,.4,.15,.66,0,.41-.12,.75-.35,1.01-.23,.26-.57,.45-1.01,.55,.28,.48,.58,.96,.91,1.44s.65,.96,.97,1.43c-.14-.01-.27-.02-.4-.02h-.8c-.13,0-.27,0-.4,.02l-1.58-2.68h-.08Zm1.31-2.16c-.05-.15-.13-.26-.24-.34-.11-.08-.25-.13-.42-.15-.17-.02-.38-.03-.62-.03-.02,.77-.03,1.55-.03,2.32,.04,0,.07,0,.1,.01,.03,0,.06,0,.09,0,.39,0,.68-.1,.89-.3,.21-.2,.31-.51,.31-.92,0-.25-.03-.45-.08-.6Z" fill="#fff"/>
            <path d="M285.89,11.43c-.01-.37-.03-.73-.05-1.1,.1,.01,.21,.02,.33,.03,.12,0,.25,.01,.4,.01s.28,0,.4-.01,.23-.02,.33-.03c-.02,.37-.04,.74-.05,1.1-.01,.37-.02,.79-.02,1.26v1.16c0,.47,0,.89,.02,1.26,.01,.37,.03,.73,.05,1.08-.1-.01-.21-.02-.33-.02h-.79c-.12,0-.23,0-.33,.02,.02-.35,.04-.71,.05-1.08,.01-.37,.02-.79,.02-1.26v-1.16c0-.47,0-.89-.02-1.26Z" fill="#fff"/>
            <path d="M314.6,12.42c.29-.73,.55-1.43,.77-2.1,.15,.03,.28,.04,.39,.04s.24-.01,.39-.04c-.15,.34-.32,.74-.53,1.21s-.42,.97-.64,1.5-.44,1.07-.66,1.61c-.22,.55-.41,1.06-.58,1.53-.12-.01-.25-.02-.39-.02s-.27,0-.39,.02c-.09-.23-.2-.5-.32-.83-.13-.32-.26-.67-.4-1.03-.14-.36-.29-.74-.45-1.12-.16-.38-.31-.75-.46-1.1s-.28-.69-.41-.99c-.13-.31-.24-.57-.33-.78,.14,.01,.27,.02,.4,.03s.26,.01,.39,.01,.26,0,.39-.01,.26-.02,.39-.03c.1,.32,.21,.65,.34,1.01,.13,.35,.26,.71,.39,1.08,.13,.37,.27,.73,.42,1.1,.14,.37,.28,.73,.42,1.09,.3-.72,.6-1.45,.89-2.18Z" fill="#fff"/>
            <path d="M338.52,11.43c-.01-.37-.03-.73-.05-1.1,.26,0,.52,.01,.78,.03,.26,.01,.52,.02,.78,.02,.43,0,.82,0,1.16-.01,.34,0,.56-.02,.68-.03-.02,.09-.04,.21-.04,.36,0,.09,0,.16,0,.21,0,.05,.01,.11,.03,.17-.17-.01-.36-.02-.56-.03-.2-.01-.4-.02-.59-.03-.19-.01-.36-.02-.51-.03-.15,0-.26,0-.33,0-.02,.31-.04,.62-.04,.93s0,.62,0,.93c.38,0,.73-.01,1.03-.03,.31-.01,.63-.03,.96-.04-.02,.1-.03,.17-.04,.22,0,.05,0,.11,0,.16,0,.05,0,.09,.01,.14,0,.05,.02,.12,.03,.21-.67-.05-1.33-.08-2-.08,0,.18,0,.36,0,.55s0,.36,0,.55c0,.37,0,.72,.03,1.07,.33,0,.67,0,1-.03s.67-.05,1.01-.09c-.01,.06-.02,.12-.03,.17,0,.05,0,.12,0,.21s0,.16,0,.21c0,.05,.01,.09,.03,.13-.16,0-.35,0-.59-.01-.23,0-.55,0-.95,0h-1.39c-.13,0-.23,0-.3,0-.07,0-.12,0-.17,.01,.02-.35,.04-.71,.05-1.08,.01-.37,.02-.79,.02-1.26v-1.16c0-.47,0-.89-.02-1.26Z" fill="#fff"/>
            <path d="M366.05,13.49v.35c0,.47,0,.89,.02,1.26,.01,.37,.03,.73,.05,1.08-.1-.01-.21-.02-.33-.02h-.79c-.12,0-.23,0-.33,.02,.02-.35,.04-.71,.05-1.08,.01-.37,.02-.79,.02-1.26v-1.16c0-.47,0-.89-.02-1.26-.01-.37-.03-.73-.05-1.1,.1,.01,.21,.02,.33,.03,.12,0,.25,.01,.4,.01,.16,0,.34,0,.54-.02,.2-.01,.45-.02,.75-.02,.22,0,.41,0,.57,.02,.16,.01,.29,.03,.41,.05,.11,.02,.21,.05,.3,.09s.17,.08,.24,.13c.18,.12,.32,.28,.42,.46,.1,.18,.15,.4,.15,.66,0,.41-.12,.75-.35,1.01-.23,.26-.57,.45-1.01,.55,.28,.48,.58,.96,.91,1.44s.65,.96,.97,1.43c-.14-.01-.27-.02-.4-.02h-.8c-.13,0-.27,0-.4,.02l-1.58-2.68h-.08Zm1.31-2.16c-.05-.15-.13-.26-.24-.34-.11-.08-.25-.13-.42-.15-.17-.02-.38-.03-.62-.03-.02,.77-.03,1.55-.03,2.32,.04,0,.07,0,.1,.01,.03,0,.06,0,.09,0,.39,0,.68-.1,.89-.3,.21-.2,.31-.51,.31-.92,0-.25-.03-.45-.08-.6Z" fill="#fff"/>
            <path d="M391.75,11.43c-.01-.37-.03-.73-.06-1.1,.1,.01,.21,.02,.33,.03,.12,0,.25,.01,.4,.01,.25,0,.52,0,.79-.02,.28-.01,.54-.02,.79-.02s.5,.03,.72,.08,.4,.13,.56,.23c.16,.11,.28,.24,.37,.41,.08,.17,.13,.37,.13,.6s-.05,.43-.15,.6-.22,.31-.37,.42c-.14,.11-.3,.2-.47,.26-.17,.06-.32,.11-.45,.13v.02c.13,0,.29,.04,.47,.09,.18,.05,.35,.14,.52,.25,.16,.11,.3,.26,.42,.44,.11,.18,.17,.4,.17,.65,0,.31-.06,.57-.17,.78-.11,.22-.27,.39-.46,.53-.19,.14-.41,.23-.65,.29s-.5,.08-.76,.08c-.23,0-.45,0-.65,0-.2,0-.41,0-.64,0h-.49c-.17,0-.3,0-.4,.02,.03-.35,.05-.71,.06-1.08,.01-.37,.02-.79,.02-1.26v-1.16c0-.47,0-.89-.02-1.26Zm2.67,0c-.03-.12-.09-.23-.16-.32-.08-.09-.17-.16-.29-.21s-.26-.08-.44-.08c-.13,0-.22,0-.27,0-.05,0-.1,0-.16,.02-.01,.21-.02,.42-.03,.64,0,.22,0,.4,0,.55s0,.3,0,.44c0,.14,0,.28,0,.43h.4c.12,0,.24-.02,.37-.07s.23-.11,.32-.2c.09-.09,.17-.2,.23-.34s.09-.3,.09-.48c0-.14-.02-.27-.05-.39Zm-.17,2.25c-.18-.2-.45-.29-.81-.29-.08,0-.15,0-.21,0-.06,0-.11,0-.17,0,0,.12,0,.24,0,.37,0,.13,0,.28,0,.46,0,.14,0,.28,0,.42,0,.14,0,.28,0,.42s0,.26,0,.37c0,.11,0,.21,0,.28,.08,0,.16,0,.23,.01,.07,0,.16,0,.26,0,.13,0,.25-.03,.37-.08,.12-.05,.22-.13,.31-.23,.09-.1,.16-.22,.21-.36s.08-.31,.08-.49c0-.4-.09-.69-.28-.89Z" fill="#fff"/>
            <path d="M423.43,16.18c-.14-.01-.27-.02-.4-.02h-.75c-.13,0-.25,0-.37,.02-.09-.28-.19-.56-.29-.85s-.21-.58-.32-.87c-.19,0-.38,0-.56-.01-.19,0-.38,0-.56,0-.15,0-.31,0-.46,0-.15,0-.31,0-.46,.01-.12,.29-.23,.58-.33,.87-.1,.29-.19,.57-.27,.85-.07-.01-.14-.02-.21-.02h-.42c-.07,0-.15,0-.23,.02,.07-.15,.16-.35,.28-.61,.12-.26,.25-.56,.39-.89,.14-.33,.29-.68,.45-1.06,.16-.38,.32-.76,.48-1.15,.16-.39,.32-.77,.48-1.14,.16-.37,.3-.72,.43-1.05,.06,.01,.11,.02,.17,.03s.11,.01,.17,.01,.11,0,.17-.01c.05,0,.11-.02,.17-.03,.19,.48,.39,1,.6,1.55,.21,.55,.43,1.09,.65,1.62,.22,.53,.43,1.04,.63,1.51,.21,.48,.39,.88,.56,1.21Zm-3.12-4.25c-.15,.34-.3,.68-.43,1.01-.14,.33-.27,.67-.4,1.02h1.61c-.13-.35-.26-.69-.38-1.02-.13-.33-.26-.67-.4-1.01Z" fill="#fff"/>
            <path d="M444.85,11.03c-.01-.27-.02-.5-.03-.71,.16,.03,.3,.04,.4,.04s.23-.01,.4-.04c.64,.69,1.27,1.36,1.9,2.03,.62,.66,1.27,1.34,1.92,2.03v-1.57c0-.28,0-.55,0-.82,0-.27,0-.52,0-.75,0-.23,0-.42-.02-.59s-.02-.28-.03-.33c.16,.03,.3,.04,.4,.04s.23-.01,.4-.04c-.03,.52-.05,.98-.07,1.4s-.03,.81-.04,1.18c-.01,.37-.02,.73-.02,1.09,0,.36,0,.75,0,1.15v1.02c-.12-.01-.24-.02-.36-.02s-.24,0-.34,.02c-1.21-1.36-2.49-2.74-3.85-4.12,0,.17-.01,.33-.01,.49,0,.17,0,.33,0,.5v.99c0,.34,0,.63,0,.87,0,.24,0,.44,.01,.6,0,.17,.01,.3,.02,.4,0,.11,.01,.19,.02,.25-.07-.01-.14-.02-.21-.02h-.2c-.14,0-.27,0-.4,.02,.01-.05,.03-.21,.04-.49,.02-.28,.04-.62,.06-1.02,.02-.4,.04-.84,.05-1.3,.01-.47,.02-.92,.02-1.35,0-.39,0-.72-.02-.99Z" fill="#fff"/>
            <path d="M473.23,15.12c0,.44,.03,.8,.06,1.06-.1-.01-.21-.02-.33-.02h-.79c-.12,0-.23,0-.33,.02,.02-.35,.04-.71,.05-1.08,.01-.37,.02-.79,.02-1.26v-1.16c0-.47,0-.89-.02-1.26-.01-.37-.03-.73-.05-1.1,.1,.01,.21,.02,.33,.03s.25,.01,.4,.01,.28,0,.4-.01,.23-.02,.33-.03c-.03,.17-.05,.43-.06,.77s-.01,.72-.01,1.13v.82c.2-.23,.41-.48,.64-.75,.23-.27,.45-.53,.66-.79,.21-.26,.4-.49,.57-.7,.17-.21,.29-.37,.37-.48,.08,.01,.16,.02,.25,.03,.08,0,.16,.01,.25,.01s.17,0,.25-.01,.18-.02,.28-.03c-.1,.1-.25,.25-.46,.47-.21,.22-.42,.45-.66,.7s-.45,.49-.66,.73c-.21,.24-.38,.42-.49,.56,.19,.28,.4,.59,.62,.92,.23,.34,.46,.66,.68,.98,.23,.32,.44,.62,.63,.89,.19,.27,.35,.47,.47,.61-.17-.01-.32-.02-.46-.02h-.78c-.13,0-.25,0-.38,.02-.3-.43-.59-.87-.88-1.32-.29-.45-.58-.89-.88-1.33h-.02c0,.62,0,1.15,0,1.59Z" fill="#fff"/>
          </g>
          <g opacity=".4">
            <path d="M204.16,19.3c-.33,.18-.74,.34-1.21,.49-.47,.14-1,.27-1.58,.39-.58,.11-1.19,.17-1.83,.17-1.35,0-2.61-.21-3.75-.64-1.15-.43-2.14-1.08-2.97-1.95-.83-.87-1.48-1.94-1.95-3.21-.47-1.26-.71-2.71-.71-4.32s.24-3.06,.71-4.32c.47-1.26,1.13-2.33,1.98-3.21,.85-.87,1.86-1.54,3.05-2,1.18-.46,2.49-.68,3.91-.68,1.13,0,2.16,.13,3.1,.39,.93,.26,1.76,.57,2.48,.93-.14,.27-.25,.63-.33,1.08-.09,.46-.15,.84-.21,1.14l-.15,.06c-.17-.23-.41-.49-.72-.77-.31-.29-.67-.56-1.08-.83-.41-.27-.87-.49-1.39-.67-.51-.18-1.08-.27-1.7-.27-1.01,0-1.95,.18-2.82,.54-.87,.36-1.62,.92-2.26,1.67-.64,.75-1.14,1.7-1.5,2.85-.36,1.15-.54,2.52-.54,4.09s.18,2.94,.54,4.09c.36,1.15,.86,2.1,1.5,2.85,.64,.75,1.4,1.31,2.26,1.67,.87,.36,1.8,.54,2.82,.54,.62,0,1.19-.09,1.71-.26,.52-.17,1-.38,1.44-.61,.44-.24,.83-.49,1.18-.77,.35-.28,.65-.52,.89-.73l.1,.11-.23,1.68c-.15,.15-.4,.32-.73,.5Z" fill="#fff"/>
            <path d="M208.3,5.89c.47-1.26,1.13-2.33,1.98-3.21,.85-.87,1.86-1.54,3.05-2,1.18-.46,2.48-.68,3.88-.68s2.73,.23,3.91,.68c1.18,.46,2.2,1.12,3.05,2,.85,.88,1.51,1.94,1.98,3.21,.47,1.27,.71,2.71,.71,4.32s-.24,3.06-.71,4.32c-.47,1.27-1.13,2.34-1.98,3.21-.85,.88-1.86,1.53-3.05,1.95-1.18,.43-2.49,.64-3.91,.64s-2.7-.21-3.88-.64c-1.18-.43-2.2-1.08-3.05-1.95-.85-.87-1.51-1.94-1.98-3.21-.47-1.26-.71-2.71-.71-4.32s.24-3.06,.71-4.32Zm15.49,.23c-.36-1.15-.86-2.1-1.5-2.85-.64-.75-1.4-1.31-2.26-1.67-.87-.36-1.8-.54-2.82-.54s-1.92,.18-2.79,.54c-.87,.36-1.62,.92-2.26,1.67-.64,.75-1.14,1.7-1.5,2.85-.36,1.15-.54,2.52-.54,4.09s.18,2.94,.54,4.09c.36,1.15,.86,2.1,1.5,2.85,.64,.75,1.4,1.31,2.26,1.67,.87,.36,1.8,.54,2.79,.54s1.95-.18,2.82-.54c.87-.36,1.62-.92,2.26-1.67,.64-.75,1.14-1.7,1.5-2.85,.36-1.15,.54-2.52,.54-4.09s-.18-2.94-.54-4.09Z" fill="#fff"/>
            <path d="M234.16,15.92c-.65-1.58-1.35-3.24-2.09-4.99-.74-1.75-1.51-3.54-2.29-5.36-.78-1.83-1.53-3.56-2.24-5.19,.28,.04,.54,.07,.8,.1,.26,.03,.51,.04,.74,.04s.49-.01,.74-.04c.26-.03,.52-.06,.8-.1,.44,1.26,.92,2.57,1.44,3.95,.52,1.38,1.08,2.78,1.66,4.21,.58,1.43,1.18,2.87,1.8,4.34,.61,1.46,1.24,2.92,1.87,4.37,.36-.78,.74-1.65,1.16-2.61,.42-.96,.84-1.96,1.26-3,.43-1.04,.85-2.09,1.26-3.17,.42-1.07,.82-2.11,1.2-3.1,.39-.99,.74-1.91,1.05-2.77,.32-.86,.58-1.6,.8-2.23,.44,.1,.8,.14,1.1,.14s.66-.05,1.1-.14c-1.54,3.31-3.03,6.59-4.46,9.84-1.43,3.25-2.79,6.51-4.1,9.76-.32-.04-.64-.06-.98-.06-.4,0-.72,.02-.98,.06-.46-1.12-1.01-2.47-1.66-4.05Z" fill="#fff"/>
            <path d="M251.39,4.02c-.06-1.22-.13-2.43-.21-3.65,1.14,.04,2.27,.07,3.39,.1,1.12,.03,2.25,.04,3.39,.04s2.26-.01,3.37-.04c1.11-.03,2.24-.06,3.37-.1-.08,.29-.11,.57-.11,.86s.04,.57,.11,.86c-.81-.04-1.55-.08-2.22-.11-.67-.04-1.38-.08-2.12-.11-.75-.04-1.56-.07-2.44-.1-.88-.03-1.95-.04-3.18-.04-.03,.61-.06,1.19-.09,1.74-.04,.55-.06,1.18-.06,1.88,0,.74,0,1.46,.02,2.17,.01,.7,.02,1.24,.02,1.6,1.11,0,2.11,0,2.99-.03,.88-.02,1.69-.04,2.42-.07,.73-.03,1.41-.06,2.03-.09,.62-.03,1.21-.06,1.76-.1-.08,.29-.11,.58-.11,.88,0,.29,.04,.57,.11,.86-.66-.06-1.42-.1-2.29-.14-.87-.04-1.74-.06-2.61-.07-.87,0-1.69-.02-2.46-.03-.77,0-1.38-.01-1.84-.01,0,.17,0,.36-.02,.56-.01,.2-.02,.45-.02,.76v2.82c0,1.08,0,1.98,.02,2.68,.01,.7,.03,1.24,.06,1.6h2.65c.96,0,1.9-.01,2.82-.04,.92-.03,1.79-.07,2.61-.11,.82-.05,1.53-.12,2.14-.21-.05,.13-.08,.28-.09,.44-.01,.16-.02,.31-.02,.44,0,.3,.04,.55,.11,.74-1.14-.04-2.27-.06-3.39-.06h-6.88c-1.14,0-2.29,.02-3.45,.06,.08-1.22,.15-2.43,.21-3.64,.06-1.21,.09-2.44,.09-3.69V7.73c0-1.26-.03-2.49-.09-3.71Z" fill="#fff"/>
            <path d="M268.73,4.07c-.06-1.21-.12-2.44-.19-3.69,.65,.04,1.29,.07,1.92,.1,.63,.03,1.27,.04,1.93,.04s1.29-.02,1.92-.07c.63-.05,1.27-.07,1.93-.07,.95,0,1.85,.08,2.7,.23,.85,.15,1.6,.4,2.25,.76,.64,.35,1.15,.81,1.52,1.38,.37,.57,.56,1.28,.56,2.14,0,.91-.24,1.7-.73,2.35-.48,.66-1.08,1.2-1.77,1.63-.7,.43-1.45,.76-2.25,1-.8,.24-1.53,.4-2.18,.47,.27,.29,.64,.68,1.11,1.2,.47,.51,1,1.08,1.59,1.7,.58,.62,1.19,1.27,1.82,1.94,.63,.68,1.24,1.32,1.82,1.94,.59,.62,1.14,1.18,1.65,1.7s.93,.9,1.25,1.17c-.34-.04-.68-.06-1.01-.06h-1.99c-.34,0-.66,.02-.98,.06-.34-.4-.85-1-1.54-1.8-.69-.8-1.45-1.65-2.28-2.57-.83-.91-1.68-1.82-2.55-2.72-.87-.9-1.66-1.67-2.38-2.3h-1.28v2.08c0,1.26,.03,2.49,.08,3.71,.06,1.22,.12,2.42,.19,3.59-.52-.04-1.07-.06-1.65-.06s-1.14,.02-1.65,.06c.07-1.18,.13-2.38,.19-3.59,.06-1.22,.08-2.45,.08-3.71V7.77c0-1.26-.03-2.49-.08-3.69Zm3.88,5.44c.37,.02,.78,.03,1.23,.03,.7,0,1.42-.07,2.18-.2,.75-.13,1.45-.37,2.08-.7,.63-.33,1.15-.78,1.57-1.34,.42-.56,.62-1.27,.62-2.13,0-.74-.16-1.36-.49-1.84s-.75-.87-1.27-1.16c-.52-.29-1.08-.48-1.69-.58-.61-.1-1.2-.16-1.79-.16-.79,0-1.44,.01-1.96,.04-.52,.03-.96,.06-1.32,.1-.05,1.05-.09,2.08-.14,3.11-.05,1.03-.07,2.05-.07,3.08v1.63c.31,.06,.66,.1,1.03,.11Z" fill="#fff"/>
          </g>
        </g>
      </g>
    </g>
  </g>
</svg>