<?xml version="1.0" encoding="UTF-8"?>
<svg id="_圖層_2" data-name="圖層 2" xmlns="http://www.w3.org/2000/svg" viewBox="0 0 287.63 34.79">
  <g id="content">
    <g>
      <path d="M26.5,.46c1.67,.3,3.25,.8,4.71,1.47,.26,.11,.43,.22,.51,.35,.07,.13,.13,.4,.17,.83l.73,6.7c0,.11-.1,.18-.31,.21-.21,.04-.33-.02-.37-.16C30.03,3.9,26.15,.91,20.32,.91c-2.97,0-5.61,.66-7.9,1.98-2.3,1.32-4.07,3.2-5.33,5.63-1.26,2.43-1.89,5.27-1.89,8.52s.69,6.05,2.06,8.6c1.37,2.56,3.24,4.56,5.59,6,2.35,1.45,4.94,2.17,7.76,2.17s5.34-.71,7.22-2.12c1.88-1.41,3.41-3.6,4.57-6.57,.04-.07,.13-.11,.28-.11,.07,0,.16,.03,.25,.08,.09,.05,.14,.1,.14,.13l-.62,6.11c-.04,.43-.09,.7-.17,.8-.08,.11-.26,.23-.56,.38-1.88,.82-3.69,1.4-5.42,1.74-1.73,.34-3.63,.51-5.7,.51-3.99,0-7.54-.74-10.67-2.22-3.12-1.48-5.56-3.55-7.31-6.19-1.75-2.64-2.62-5.68-2.62-9.11s.89-6.35,2.68-8.98c1.79-2.63,4.26-4.66,7.42-6.11C13.26,.72,16.8,0,20.71,0c2.18,0,4.11,.15,5.79,.46Z" fill="#a1a9d8"/>
      <path d="M44.33,32.41c-2.73-1.55-4.84-3.66-6.32-6.33-1.49-2.66-2.23-5.57-2.23-8.71,0-3.68,.98-6.83,2.94-9.46,1.96-2.63,4.47-4.6,7.53-5.92,3.07-1.32,6.2-1.98,9.4-1.98,3.57,0,6.72,.8,9.43,2.39,2.71,1.59,4.79,3.69,6.24,6.3,1.45,2.61,2.17,5.38,2.17,8.31,0,3.25-.9,6.24-2.71,8.95-1.81,2.72-4.22,4.86-7.25,6.43-3.03,1.57-6.31,2.36-9.85,2.36s-6.61-.78-9.34-2.33Zm17.81-.62c1.92-1.18,3.43-2.9,4.54-5.17,1.11-2.27,1.67-4.98,1.67-8.12,0-3.32-.61-6.29-1.83-8.9-1.22-2.61-2.97-4.65-5.25-6.11-2.28-1.46-4.92-2.2-7.93-2.2-3.91,0-6.96,1.26-9.14,3.78-2.18,2.52-3.27,6-3.27,10.43,0,3.4,.62,6.47,1.86,9.22,1.24,2.75,2.98,4.91,5.22,6.49,2.24,1.57,4.79,2.36,7.65,2.36,2.41,0,4.57-.59,6.49-1.77Z" fill="#a1a9d8"/>
      <path d="M97.93,2.31c1.69,1.25,2.54,2.95,2.54,5.09,0,1.93-.59,3.69-1.78,5.28-1.19,1.59-2.76,2.84-4.71,3.75-1.96,.91-4.05,1.37-6.27,1.37-.79,0-1.71-.04-2.77-.11v12.06c0,1.07,.11,1.87,.34,2.39,.23,.52,.65,.87,1.27,1.05,.62,.18,1.61,.27,2.96,.27,.11,0,.17,.11,.17,.32s-.06,.32-.17,.32c-1.17,0-2.09-.02-2.77-.05l-4.06-.05-3.95,.05c-.72,.04-1.67,.05-2.88,.05-.11,0-.17-.11-.17-.32s.06-.32,.17-.32c1.35,0,2.35-.09,2.99-.27,.64-.18,1.07-.53,1.3-1.05,.23-.52,.34-1.31,.34-2.39V4.93c0-1.07-.11-1.86-.34-2.36-.23-.5-.65-.85-1.27-1.05-.62-.2-1.61-.29-2.96-.29-.08,0-.11-.11-.11-.32s.04-.32,.11-.32l2.82,.05c1.66,.07,2.97,.11,3.95,.11,.79,0,1.54-.02,2.26-.05,.71-.04,1.34-.07,1.86-.11,1.43-.11,2.73-.16,3.89-.16,3.12,0,5.53,.63,7.22,1.88Zm-3.84,.78c-1.17-1.16-2.88-1.74-5.14-1.74-1.47,0-2.5,.26-3.1,.78-.6,.52-.9,1.49-.9,2.92v11.31c1.09,.11,2.2,.16,3.33,.16,2.71,0,4.65-.6,5.81-1.8,1.17-1.2,1.75-3.06,1.75-5.6,0-2.86-.58-4.87-1.75-6.03Zm5,26.51c-2.54-3-5.62-7.2-9.23-12.6l3.78-1.13c3.2,4.47,5.89,7.95,8.07,10.45,2.18,2.5,4.11,4.32,5.79,5.44,1.67,1.13,3.3,1.69,4.88,1.69,.11,0,.17,.11,.17,.32s-.06,.32-.17,.32h-8.07c-.94,0-2.68-1.5-5.22-4.5Z" fill="#a1a9d8"/>
      <path d="M111.3,33.77c0-.21,.06-.32,.17-.32,1.35,0,2.34-.09,2.96-.27,.62-.18,1.04-.53,1.27-1.05,.23-.52,.34-1.31,.34-2.39V4.93c0-1.07-.11-1.86-.34-2.36-.23-.5-.65-.85-1.27-1.05-.62-.2-1.61-.29-2.96-.29-.11,0-.17-.11-.17-.32s.06-.32,.17-.32h23.03c.38,0,.56,.16,.56,.48l.11,6.75c0,.11-.1,.17-.31,.19-.21,.02-.33-.03-.37-.13-.26-1.97-1-3.47-2.2-4.5-1.2-1.04-2.78-1.55-4.74-1.55h-2.88c-1.66,0-2.77,.23-3.33,.7-.56,.46-.85,1.34-.85,2.63V29.54c0,1.29,.25,2.16,.76,2.63,.51,.46,1.53,.7,3.08,.7h3.73c2.11,0,3.87-.6,5.28-1.8,1.41-1.2,2.38-2.9,2.91-5.12,0-.07,.07-.11,.23-.11,.11,0,.22,.03,.31,.08,.09,.05,.14,.1,.14,.13-.38,2.57-.56,4.99-.56,7.24,0,.29-.06,.49-.17,.62-.11,.13-.34,.19-.68,.19h-24.04c-.11,0-.17-.11-.17-.32Zm19.67-15.41c-.92-.73-2.38-1.1-4.37-1.1h-8.24v-1.23h8.35c1.92,0,3.33-.31,4.23-.94,.9-.62,1.35-1.6,1.35-2.92,0-.07,.1-.11,.31-.11s.31,.04,.31,.11l-.06,4.5,.06,2.41c.07,1.14,.11,2.04,.11,2.68,0,.07-.11,.11-.34,.11s-.34-.04-.34-.11c0-1.54-.46-2.67-1.38-3.4Z" fill="#a1a9d8"/>
      <path d="M187.22,33.77c0,.21-.09,.32-.28,.32-.72,0-1.83-.04-3.33-.11-1.58-.07-2.71-.11-3.39-.11-.87,0-1.94,.04-3.22,.11-1.28,.07-2.24,.11-2.88,.11-.15,0-.23-.11-.23-.32s.07-.32,.23-.32c1.28,0,2.2-.12,2.77-.35,.56-.23,.85-.65,.85-1.26s-.28-1.45-.85-2.52l-12.14-23.96,1.81-2.57-11.01,24.23c-.53,1.22-.79,2.22-.79,3,0,1.14,.47,2,1.41,2.57,.94,.57,2.29,.86,4.06,.86,.19,0,.28,.11,.28,.32s-.09,.32-.28,.32c-.68,0-1.66-.04-2.93-.11-1.43-.07-2.67-.11-3.73-.11-.98,0-2.14,.04-3.5,.11-1.2,.07-2.18,.11-2.94,.11-.15,0-.23-.11-.23-.32s.08-.32,.23-.32c1.05,0,1.95-.2,2.68-.59,.73-.39,1.44-1.07,2.12-2.04s1.45-2.39,2.31-4.29L166.28,.21c.04-.11,.17-.17,.4-.19,.23-.02,.36,.05,.4,.19l13.55,26.54c1.32,2.61,2.42,4.38,3.3,5.31,.88,.93,1.89,1.39,3.02,1.39,.19,0,.28,.11,.28,.32Zm-28.79-14.85h15.35l.4,1.18h-16.42l.68-1.18Z" fill="#a1a9d8"/>
      <path d="M208.72,2.31c1.69,1.25,2.54,2.95,2.54,5.09,0,1.93-.59,3.69-1.78,5.28-1.19,1.59-2.76,2.84-4.71,3.75-1.96,.91-4.05,1.37-6.27,1.37-.79,0-1.71-.04-2.77-.11v12.06c0,1.07,.11,1.87,.34,2.39,.23,.52,.65,.87,1.27,1.05,.62,.18,1.61,.27,2.96,.27,.11,0,.17,.11,.17,.32s-.06,.32-.17,.32c-1.17,0-2.09-.02-2.77-.05l-4.06-.05-3.95,.05c-.72,.04-1.67,.05-2.88,.05-.11,0-.17-.11-.17-.32s.06-.32,.17-.32c1.35,0,2.35-.09,2.99-.27,.64-.18,1.07-.53,1.3-1.05,.23-.52,.34-1.31,.34-2.39V4.93c0-1.07-.11-1.86-.34-2.36-.23-.5-.65-.85-1.27-1.05-.62-.2-1.61-.29-2.96-.29-.08,0-.11-.11-.11-.32s.04-.32,.11-.32l2.82,.05c1.66,.07,2.97,.11,3.95,.11,.79,0,1.54-.02,2.26-.05,.71-.04,1.34-.07,1.86-.11,1.43-.11,2.73-.16,3.89-.16,3.12,0,5.53,.63,7.22,1.88Zm-3.84,.78c-1.17-1.16-2.88-1.74-5.14-1.74-1.47,0-2.5,.26-3.1,.78-.6,.52-.9,1.49-.9,2.92v11.31c1.09,.11,2.2,.16,3.33,.16,2.71,0,4.65-.6,5.81-1.8,1.17-1.2,1.75-3.06,1.75-5.6,0-2.86-.58-4.87-1.75-6.03Zm5,26.51c-2.54-3-5.62-7.2-9.23-12.6l3.78-1.13c3.2,4.47,5.89,7.95,8.07,10.45,2.18,2.5,4.11,4.32,5.79,5.44,1.67,1.13,3.3,1.69,4.88,1.69,.11,0,.17,.11,.17,.32s-.06,.32-.17,.32h-8.07c-.94,0-2.68-1.5-5.22-4.5Z" fill="#a1a9d8"/>
      <path d="M222.1,33.77c0-.21,.06-.32,.17-.32,1.35,0,2.34-.09,2.96-.27,.62-.18,1.04-.53,1.27-1.05,.23-.52,.34-1.31,.34-2.39V4.93c0-1.07-.11-1.86-.34-2.36-.23-.5-.65-.85-1.27-1.05-.62-.2-1.61-.29-2.96-.29-.11,0-.17-.11-.17-.32s.06-.32,.17-.32h23.03c.38,0,.56,.16,.56,.48l.11,6.75c0,.11-.1,.17-.31,.19-.21,.02-.33-.03-.37-.13-.26-1.97-1-3.47-2.2-4.5-1.2-1.04-2.78-1.55-4.74-1.55h-2.88c-1.66,0-2.77,.23-3.33,.7-.56,.46-.85,1.34-.85,2.63V29.54c0,1.29,.25,2.16,.76,2.63,.51,.46,1.53,.7,3.08,.7h3.73c2.11,0,3.87-.6,5.28-1.8,1.41-1.2,2.38-2.9,2.91-5.12,0-.07,.07-.11,.23-.11,.11,0,.22,.03,.31,.08,.09,.05,.14,.1,.14,.13-.38,2.57-.56,4.99-.56,7.24,0,.29-.06,.49-.17,.62-.11,.13-.34,.19-.68,.19h-24.04c-.11,0-.17-.11-.17-.32Zm19.67-15.41c-.92-.73-2.38-1.1-4.37-1.1h-8.24v-1.23h8.35c1.92,0,3.33-.31,4.23-.94,.9-.62,1.35-1.6,1.35-2.92,0-.07,.1-.11,.31-.11s.31,.04,.31,.11l-.06,4.5,.06,2.41c.07,1.14,.11,2.04,.11,2.68,0,.07-.11,.11-.34,.11s-.34-.04-.34-.11c0-1.54-.46-2.67-1.38-3.4Z" fill="#a1a9d8"/>
      <path d="M287.63,33.77c0,.21-.09,.32-.28,.32-.72,0-1.83-.04-3.33-.11-1.58-.07-2.71-.11-3.39-.11-.87,0-1.94,.04-3.22,.11-1.28,.07-2.24,.11-2.88,.11-.15,0-.23-.11-.23-.32s.07-.32,.23-.32c1.28,0,2.2-.12,2.77-.35,.56-.23,.85-.65,.85-1.26s-.28-1.45-.85-2.52l-12.14-23.96,1.81-2.57-11.01,24.23c-.53,1.22-.79,2.22-.79,3,0,1.14,.47,2,1.41,2.57,.94,.57,2.29,.86,4.06,.86,.19,0,.28,.11,.28,.32s-.09,.32-.28,.32c-.68,0-1.66-.04-2.93-.11-1.43-.07-2.67-.11-3.73-.11-.98,0-2.14,.04-3.5,.11-1.2,.07-2.18,.11-2.94,.11-.15,0-.23-.11-.23-.32s.08-.32,.23-.32c1.05,0,1.95-.2,2.68-.59,.73-.39,1.44-1.07,2.12-2.04s1.45-2.39,2.31-4.29L266.69,.21c.04-.11,.17-.17,.4-.19,.23-.02,.36,.05,.4,.19l13.55,26.54c1.32,2.61,2.42,4.38,3.3,5.31,.88,.93,1.89,1.39,3.02,1.39,.19,0,.28,.11,.28,.32Zm-28.79-14.85h15.35l.4,1.18h-16.42l.68-1.18Z" fill="#a1a9d8"/>
    </g>
  </g>
</svg>