<?xml version="1.0" encoding="UTF-8"?>
<svg id="_圖層_2" data-name="圖層 2" xmlns="http://www.w3.org/2000/svg" viewBox="0 0 299.41 15.31">
  <g id="content">
    <g opacity=".6">
      <g>
        <path d="M0,.44C1.02,.24,2.48,.13,3.87,.13c2.15,0,3.54,.37,4.52,1.21,.79,.66,1.23,1.67,1.23,2.82,0,1.96-1.3,3.26-2.94,3.78v.07c1.2,.4,1.92,1.45,2.29,2.99,.51,2.07,.88,3.5,1.2,4.07h-2.08c-.25-.42-.6-1.69-1.04-3.54-.46-2.05-1.3-2.82-3.13-2.88h-1.9v6.42H0V.44ZM2.02,7.2h2.06c2.15,0,3.52-1.12,3.52-2.82,0-1.91-1.46-2.75-3.59-2.77-.97,0-1.67,.09-1.99,.18V7.2Z" fill="#fff"/>
        <path d="M21.7,8.12h-6.07v5.35h6.76v1.61H13.62V.24h8.43V1.85h-6.42V6.54h6.07v1.58Z" fill="#fff"/>
        <path d="M25.9,12.74c.9,.53,2.22,.97,3.61,.97,2.06,0,3.27-1.03,3.27-2.53,0-1.39-.83-2.18-2.94-2.95-2.55-.86-4.12-2.11-4.12-4.2,0-2.31,2.02-4.03,5.05-4.03,1.6,0,2.76,.35,3.45,.73l-.56,1.56c-.51-.26-1.55-.7-2.96-.7-2.13,0-2.94,1.21-2.94,2.22,0,1.39,.95,2.07,3.1,2.86,2.64,.97,3.98,2.18,3.98,4.36,0,2.29-1.78,4.27-5.47,4.27-1.51,0-3.15-.42-3.98-.95l.51-1.61Z" fill="#fff"/>
        <path d="M46.84,8.12h-6.07v5.35h6.76v1.61h-8.78V.24h8.43V1.85h-6.42V6.54h6.07v1.58Z" fill="#fff"/>
        <path d="M54.64,1.87h-4.75V.24h11.56V1.87h-4.77V15.07h-2.04V1.87Z" fill="#fff"/>
        <path d="M72.43,1.87h-4.75V.24h11.56V1.87h-4.77V15.07h-2.04V1.87Z" fill="#fff"/>
        <path d="M84.15,.24V6.45h7.55V.24h2.04V15.07h-2.04v-6.95h-7.55v6.95h-2.02V.24h2.02Z" fill="#fff"/>
        <path d="M106.48,8.12h-6.07v5.35h6.76v1.61h-8.78V.24h8.43V1.85h-6.42V6.54h6.07v1.58Z" fill="#fff"/>
        <path d="M119.04,.24V6.45h7.55V.24h2.04V15.07h-2.04v-6.95h-7.55v6.95h-2.02V.24h2.02Z" fill="#fff"/>
        <path d="M146.62,7.5c0,5.1-3.27,7.81-7.25,7.81s-7.02-3.04-7.02-7.53c0-4.71,3.08-7.79,7.25-7.79s7.02,3.1,7.02,7.5Zm-12.11,.24c0,3.17,1.81,6.01,4.98,6.01s5-2.79,5-6.16c0-2.95-1.62-6.03-4.98-6.03s-5,2.93-5,6.18Z" fill="#fff"/>
        <path d="M150.4,.44c1.02-.2,2.48-.31,3.87-.31,2.15,0,3.54,.37,4.52,1.21,.79,.66,1.23,1.67,1.23,2.82,0,1.96-1.3,3.26-2.94,3.78v.07c1.2,.4,1.92,1.45,2.29,2.99,.51,2.07,.88,3.5,1.2,4.07h-2.08c-.25-.42-.6-1.69-1.04-3.54-.46-2.05-1.3-2.82-3.13-2.88h-1.9v6.42h-2.02V.44Zm2.02,6.76h2.06c2.15,0,3.52-1.12,3.52-2.82,0-1.91-1.46-2.75-3.59-2.77-.97,0-1.67,.09-1.99,.18V7.2Z" fill="#fff"/>
        <path d="M166.04,.24V15.07h-2.02V.24h2.02Z" fill="#fff"/>
        <path d="M169.65,13.95l8.66-12.04v-.07h-7.92V.24h10.54V1.41l-8.62,11.99v.07h8.73v1.61h-11.4v-1.12Z" fill="#fff"/>
        <path d="M197.54,7.5c0,5.1-3.27,7.81-7.25,7.81s-7.02-3.04-7.02-7.53c0-4.71,3.08-7.79,7.25-7.79s7.02,3.1,7.02,7.5Zm-12.11,.24c0,3.17,1.81,6.01,4.98,6.01s5-2.79,5-6.16c0-2.95-1.62-6.03-4.98-6.03s-5,2.93-5,6.18Z" fill="#fff"/>
        <path d="M201.31,15.07V.24h2.2l5,7.5c1.16,1.74,2.06,3.3,2.8,4.82l.05-.02c-.19-1.98-.23-3.78-.23-6.1V.24h1.9V15.07h-2.04l-4.96-7.53c-1.09-1.65-2.13-3.34-2.92-4.95l-.07,.02c.12,1.87,.16,3.65,.16,6.12v6.34h-1.9Z" fill="#fff"/>
        <path d="M237.12,7.5c0,5.1-3.27,7.81-7.25,7.81s-7.02-3.04-7.02-7.53c0-4.71,3.08-7.79,7.25-7.79s7.02,3.1,7.02,7.5Zm-12.11,.24c0,3.17,1.81,6.01,4.98,6.01s5-2.79,5-6.16c0-2.95-1.62-6.03-4.98-6.03s-5,2.93-5,6.18Z" fill="#fff"/>
        <path d="M240.9,.24h8.41V1.85h-6.39V6.78h5.91v1.58h-5.91v6.71h-2.02V.24Z" fill="#fff"/>
        <path d="M259.41,.24h2.02V13.47h6.67v1.61h-8.69V.24Z" fill="#fff"/>
        <path d="M273.51,.24V15.07h-2.02V.24h2.02Z" fill="#fff"/>
        <path d="M278.19,.24h8.41V1.85h-6.39V6.78h5.91v1.58h-5.91v6.71h-2.02V.24Z" fill="#fff"/>
        <path d="M298.72,8.12h-6.07v5.35h6.76v1.61h-8.78V.24h8.43V1.85h-6.42V6.54h6.07v1.58Z" fill="#fff"/>
      </g>
    </g>
  </g>
</svg>