<?xml version="1.0" encoding="UTF-8"?>
<svg id="_圖層_2" data-name="圖層 2" xmlns="http://www.w3.org/2000/svg" viewBox="0 0 455.74 87.13">
  <g id="content">
    <g>
      <path d="M0,26.32l1.61-2.1c1.5,1.58,3.47,2.94,6.37,2.94s5.22-1.79,5.22-4.59c0-2.98-2.06-4.94-7.98-4.94v-2.45c5.29,0,7.11-2.07,7.11-4.69,0-2.42-1.68-3.96-4.34-3.96-2.07,0-3.89,1.05-5.32,2.52l-1.72-2c1.93-1.82,4.2-3.12,7.18-3.12,4.31,0,7.46,2.28,7.46,6.34,0,3.01-1.86,4.94-4.55,5.92v.14c3.01,.74,5.43,2.94,5.43,6.37,0,4.45-3.68,7.11-8.23,7.11-4.03,0-6.55-1.68-8.23-3.5Z" fill="#231815"/>
      <path d="M22.19,26.43l1.58-2.1c1.47,1.47,3.33,2.84,6.3,2.84s5.46-2.21,5.46-5.67-2.1-5.53-5.32-5.53c-1.72,0-2.8,.56-4.27,1.54l-1.72-1.08,.81-12.01h12.5v2.73h-9.7l-.63,7.46c1.15-.63,2.27-1.05,3.81-1.05,4.27,0,7.74,2.45,7.74,7.84s-4.06,8.44-8.4,8.44c-3.99,0-6.44-1.68-8.16-3.4Z" fill="#231815"/>
      <path d="M45.15,16.8c0-8.37,3.04-12.85,8.02-12.85s7.98,4.52,7.98,12.85-3.01,13.02-7.98,13.02-8.02-4.66-8.02-13.02Zm12.88,0c0-7.32-1.96-10.29-4.87-10.29s-4.9,2.98-4.9,10.29,1.96,10.47,4.9,10.47,4.87-3.15,4.87-10.47Z" fill="#231815"/>
      <path d="M67.37,16.8c0-8.37,3.04-12.85,8.02-12.85s7.98,4.52,7.98,12.85-3.01,13.02-7.98,13.02-8.02-4.66-8.02-13.02Zm12.88,0c0-7.32-1.96-10.29-4.87-10.29s-4.9,2.98-4.9,10.29,1.96,10.47,4.9,10.47,4.87-3.15,4.87-10.47Z" fill="#231815"/>
      <path d="M99.71,.95c-.98,2.73-2.24,5.46-3.64,8.02V31.99h-2.49V12.95c-.95,1.33-1.96,2.62-2.94,3.71-.28-.63-1.05-1.96-1.47-2.56,3.22-3.4,6.27-8.61,8.12-13.9l2.42,.74Zm-1.96,29.09c1.05-1.47,2.17-3.96,2.8-5.67l2.03,.88c-.67,1.79-1.72,4.27-2.77,5.92l-2.06-1.12Zm14.67-21.11c.56-1.08,1.12-2.45,1.44-3.4h-14.04V3.5h8.75c-.35-.95-.77-2.14-1.23-3.05l2.42-.46c.52,1.05,1.15,2.52,1.5,3.5h9.03v2.03h-6.13l2.35,.6c-.56,.94-1.08,1.96-1.58,2.8h6.51v2.14h-23.28v-2.14h6.27c-.21-.84-.73-1.96-1.29-2.83l2.21-.49c.6,.84,1.19,2.1,1.4,2.87l-1.75,.45h7.42Zm6.23,13.55h-10.08c1.65,1.01,3.54,2.42,4.52,3.47l-1.65,1.44c-1.05-1.08-3.22-2.77-4.97-3.92l1.26-.98h-6.62V12.88h17.54v9.59Zm-2.56-7.84h-12.5v2.24h12.5v-2.24Zm0,3.85h-12.5v2.24h12.5v-2.24Zm-2.94,11.34c1.12,0,1.37-.31,1.44-2.63,.56,.35,1.5,.7,2.17,.84-.28,3.12-1.02,3.89-3.33,3.89h-5.74c-3.12,0-3.92-.63-3.92-3.01v-4.62h2.42v4.62c0,.81,.21,.91,1.75,.91h5.22Zm4.24-5.92c1.54,1.89,3.4,4.48,4.17,6.16l-2.14,1.05c-.77-1.71-2.52-4.41-4.1-6.34l2.07-.88Z" fill="#231815"/>
      <path d="M152.85,23.42l.46,2.24c-5.01,2.17-10.43,4.45-14.46,6.02l-1.19-2.56c2.52-.88,6.13-2.21,9.91-3.68V11.48h-8.86v-2.56h8.86V.74h2.66V24.43l2.62-1.02Zm11.66,4.69c1.58,0,1.79-1.68,2-8.37,.7,.56,1.75,1.08,2.48,1.26-.28,7.18-.91,9.66-4.27,9.66h-4.69c-3.01,0-3.89-1.01-3.89-4.66V.77h2.63V8.89h9.77v2.56h-9.77v14.6c0,1.75,.25,2.06,1.58,2.06h4.17Z" fill="#231815"/>
      <path d="M192.92,13.72v13.83h12.46v2.56h-27.34v-2.56h12.15V13.72h-14.11v-2.56h14.11V.21h2.73V11.17h14.32v2.56h-14.32Z" fill="#231815"/>
      <path d="M225.26,21c-.6-1.16-2.07-3.43-3.26-5.22V31.99h-2.56v-15.47c-1.44,3.5-3.26,6.97-5.08,9.14-.25-.7-.88-1.75-1.29-2.35,2.21-2.49,4.66-6.97,6.02-10.99h-5.53v-2.45h5.88V4.59c-1.61,.31-3.26,.6-4.8,.81-.14-.56-.49-1.47-.77-2.03,3.92-.63,8.51-1.65,11.13-2.8l1.58,2.07c-1.29,.52-2.91,1.02-4.59,1.4v5.85h5.15v2.45h-5.15v.63c1.08,1.23,4.1,5.08,4.83,6.02l-1.58,2.03Zm15.82,1.85v9.14h-2.55v-8.72l-11.41,1.89-.42-2.49,11.83-1.89V.07h2.55V20.37l4.1-.63,.38,2.38-4.48,.73Zm-6.75-4.66c-1.26-1.54-3.96-3.71-6.16-5.11l1.61-1.54c2.24,1.37,4.97,3.43,6.27,4.94l-1.71,1.72Zm.77-9.24c-1.08-1.47-3.5-3.54-5.57-4.97l1.65-1.51c2.1,1.33,4.55,3.33,5.71,4.8l-1.79,1.68Z" fill="#231815"/>
      <path d="M282.84,28.81v2.14h-31.15v-2.14h14.14v-3.01h-11.52v-2.1h11.52v-2.42h-10.47V10.5h10.47v-2.1h-13.97v-2.14h13.97V3.75c-3.64,.25-7.35,.38-10.78,.46-.04-.63-.31-1.51-.56-2.07,8.09-.21,17.89-.84,23.38-1.85l1.4,2.03c-2.98,.56-6.79,.94-10.89,1.26v2.7h14.25v2.14h-14.25v2.1h10.96v10.78h-10.96v2.42h12.25v2.1h-12.25v3.01h14.46Zm-24.92-13.79h7.91v-2.62h-7.91v2.62Zm7.91,4.41v-2.66h-7.91v2.66h7.91Zm2.56-7.04v2.62h8.33v-2.62h-8.33Zm8.33,4.38h-8.33v2.66h8.33v-2.66Z" fill="#231815"/>
      <path d="M289.06,29.09c4.87-.21,12.64-.56,20.06-.91l-.07,2c-7.21,.38-14.84,.81-19.78,1.02l-.21-2.1Zm17.96-23.38h2.17v1.79h-2.17v3.54h-6.86v1.58h7.35v1.65h-7.35v1.61h8.82v1.82h-19.67v-1.82h8.47v-1.61h-6.83v-1.65h6.83v-1.58h-6.58v-1.65h6.58v-1.89h-8.68v-1.79h8.68v-1.71h-6.44v-1.65h6.44V.1h2.38V2.35h6.86v3.36Zm-.04,13.48v7.7h-15.58v-7.7h15.58Zm-13.44,3.12h4.52v-1.68h-4.52v1.68Zm0,3.12h4.52v-1.68h-4.52v1.68Zm6.62-19.71h4.58v-1.71h-4.58v1.71Zm4.58,1.79h-4.58v1.89h4.58v-1.89Zm.04,13.13h-4.48v1.68h4.48v-1.68Zm0,3.12h-4.48v1.68h4.48v-1.68Zm8.09-.21h-2.38V4.27h2.38V23.52Zm6.69-22.75V28.77c0,1.61-.38,2.35-1.4,2.8-.98,.39-2.62,.46-5.42,.46-.07-.67-.46-1.82-.81-2.52,2.03,.07,3.85,.07,4.34,.03,.59-.03,.84-.21,.84-.77V.77h2.45Z" fill="#231815"/>
      <path d="M352.31,28c1.89,0,4.55-.14,5.81-.38,.1,.73,.28,1.92,.42,2.48-.91,.28-3.57,.32-6.27,.32h-15.4c-5.36,0-7.95-1.68-7.95-6.79V4.03h-1.44V1.68h29.33v2.35h-25.34V23.8c0,2.98,1.36,4.2,5.11,4.2h15.72Zm-18.06-11.59h9.1v8.96h-9.1v-8.96Zm2.17,7.07h4.66v-5.18h-4.66v5.18Zm14.6-9.45h-12.99V6.3h12.99v7.74Zm-2.55-5.88h-7.98v3.99h7.98v-3.99Zm6.65,17.22h-9.42v-8.96h9.42v8.96Zm-2.31-7.07h-4.87v5.18h4.87v-5.18Z" fill="#231815"/>
      <path d="M366.62,3.68h7.35c5.74,0,9.59,1.96,9.59,7.56s-3.82,7.95-9.45,7.95h-4.24v10.19h-3.26V3.68Zm7.07,12.88c4.52,0,6.65-1.65,6.65-5.32s-2.28-4.9-6.79-4.9h-3.67v10.22h3.82Z" fill="#231815"/>
      <path d="M391.54,3.68h3.26V26.6h11.2v2.77h-14.46V3.68Z" fill="#231815"/>
      <path d="M412.12,18.76V3.68h3.25v15.19c0,6.2,2.63,8.12,5.95,8.12s6.12-1.93,6.12-8.12V3.68h3.12v15.09c0,8.26-3.99,11.06-9.24,11.06s-9.21-2.8-9.21-11.06Z" fill="#231815"/>
      <path d="M438.02,26.01l1.96-2.21c1.82,1.92,4.41,3.19,7.07,3.19,3.36,0,5.39-1.68,5.39-4.2s-1.85-3.47-4.27-4.55l-3.71-1.61c-2.38-1.02-5.22-2.84-5.22-6.58,0-3.96,3.43-6.83,8.09-6.83,3.04,0,5.74,1.3,7.56,3.19l-1.71,2.07c-1.58-1.47-3.47-2.42-5.85-2.42-2.91,0-4.79,1.47-4.79,3.78,0,2.49,2.24,3.43,4.24,4.27l3.67,1.58c2.98,1.3,5.29,3.05,5.29,6.86,0,4.06-3.36,7.28-8.72,7.28-3.64,0-6.76-1.47-9-3.82Z" fill="#231815"/>
      <path d="M0,81.32l1.61-2.1c1.5,1.58,3.47,2.94,6.37,2.94s5.22-1.79,5.22-4.59c0-2.98-2.06-4.94-7.98-4.94v-2.45c5.29,0,7.11-2.07,7.11-4.69,0-2.42-1.68-3.96-4.34-3.96-2.07,0-3.89,1.05-5.32,2.52l-1.72-2c1.93-1.82,4.2-3.12,7.18-3.12,4.31,0,7.46,2.28,7.46,6.34,0,3.01-1.86,4.94-4.55,5.92v.14c3.01,.74,5.43,2.94,5.43,6.37,0,4.45-3.68,7.11-8.23,7.11-4.03,0-6.55-1.68-8.23-3.5Z" fill="#231815"/>
      <path d="M33.11,77.47h-11.2v-2.1l10.68-15.96h3.54v15.51h3.4v2.56h-3.4v6.9h-3.01v-6.9Zm0-2.56v-7.32c0-1.3,.1-3.43,.17-4.76h-.14c-.63,1.19-1.33,2.28-2.06,3.5l-5.85,8.58h7.88Z" fill="#231815"/>
      <path d="M45.15,71.8c0-8.37,3.04-12.85,8.02-12.85s7.98,4.52,7.98,12.85-3.01,13.02-7.98,13.02-8.02-4.66-8.02-13.02Zm12.88,0c0-7.32-1.96-10.29-4.87-10.29s-4.9,2.98-4.9,10.29,1.96,10.47,4.9,10.47,4.87-3.15,4.87-10.47Z" fill="#231815"/>
      <path d="M77.49,55.95c-.98,2.73-2.24,5.46-3.64,8.02v23.03h-2.49v-19.04c-.95,1.33-1.96,2.62-2.94,3.71-.28-.63-1.05-1.96-1.47-2.56,3.22-3.4,6.27-8.61,8.12-13.9l2.42,.74Zm-1.96,29.09c1.05-1.47,2.17-3.96,2.8-5.67l2.03,.88c-.67,1.79-1.72,4.27-2.77,5.92l-2.06-1.12Zm14.67-21.11c.56-1.08,1.12-2.45,1.44-3.4h-14.04v-2.03h8.75c-.35-.95-.77-2.14-1.23-3.05l2.42-.46c.52,1.05,1.15,2.52,1.5,3.5h9.03v2.03h-6.13l2.35,.6c-.56,.94-1.08,1.96-1.58,2.8h6.51v2.14h-23.28v-2.14h6.27c-.21-.84-.73-1.96-1.29-2.83l2.21-.49c.6,.84,1.19,2.1,1.4,2.87l-1.75,.45h7.42Zm6.23,13.55h-10.08c1.65,1.01,3.54,2.42,4.52,3.47l-1.65,1.44c-1.05-1.08-3.22-2.77-4.97-3.92l1.26-.98h-6.62v-9.59h17.54v9.59Zm-2.56-7.84h-12.5v2.24h12.5v-2.24Zm0,3.85h-12.5v2.24h12.5v-2.24Zm-2.94,11.34c1.12,0,1.37-.31,1.44-2.63,.56,.35,1.5,.7,2.17,.84-.28,3.12-1.02,3.89-3.33,3.89h-5.74c-3.12,0-3.92-.63-3.92-3.01v-4.62h2.42v4.62c0,.81,.21,.91,1.75,.91h5.22Zm4.24-5.92c1.54,1.89,3.4,4.48,4.17,6.16l-2.14,1.05c-.77-1.71-2.52-4.41-4.1-6.34l2.07-.88Z" fill="#231815"/>
      <path d="M122.22,67.92v4.76h12.22v2.38h-12.22v8.54h13.79v2.42h-30.07v-2.42h13.58v-8.54h-12.01v-2.38h12.01v-4.76h-7.56v-1.93c-1.79,.98-3.68,1.86-5.57,2.52-.39-.7-1.09-1.72-1.75-2.35,6.51-2.13,12.95-6.23,16.28-11.41l2.38,1.12c-.25,.39-.56,.84-.88,1.26,3.47,3.71,9.63,7.35,14.95,9.03-.63,.53-1.44,1.58-1.82,2.24-1.82-.67-3.75-1.57-5.64-2.66v2.17h-7.7Zm-9.59,7.91c1.33,1.96,2.77,4.59,3.33,6.27l-2.27,.95c-.49-1.61-1.89-4.38-3.22-6.34l2.17-.88Zm16.87-10.33c-3.15-1.85-6.23-4.2-8.51-6.58-2.31,2.52-5.11,4.76-8.19,6.58h16.7Zm-4.1,16.77c1.23-1.72,2.8-4.48,3.64-6.44l2.48,.95c-1.29,2.21-2.91,4.69-4.17,6.34l-1.96-.84Z" fill="#231815"/>
      <path d="M154.18,55.98c-1.05,2.63-2.31,5.25-3.75,7.7v23.31h-2.56v-19.36c-1.16,1.61-2.42,3.05-3.64,4.31-.28-.6-1.08-1.93-1.61-2.56,3.61-3.43,7-8.75,9-14.21l2.56,.8Zm20.3,25.83v2.7h-21.56v-2.7h21.56Zm-1.5-18.13h-18.1v-2.7h18.1v2.7Z" fill="#231815"/>
      <path d="M201.88,82.44c3.68,.95,7.49,2.14,9.94,3.05l-2.28,1.61c-2.38-1.05-6.51-2.38-10.64-3.5l1.37-1.16h-8.05l1.72,1.05c-2.91,1.54-7.6,2.87-11.34,3.5-.35-.46-1.08-1.3-1.54-1.75,3.43-.56,7.63-1.71,10.05-2.8h-5.5v-11.17h22.37v11.17h-6.09Zm-17.96-20.2h-2.21v-4.8h13.76c-.28-.7-.63-1.37-.98-2l2.52-.6c.49,.77,1.02,1.72,1.37,2.59h13.02v4.8h-2.45v-2.7h-24.85v1.89h11.17v1.65h-4.62v1.68h4.13v1.54h-4.13v1.61l4.8-.31-.04,1.79c-4.69,.35-9.49,.67-12.88,.91l-.21-1.93c1.68-.07,3.78-.18,6.13-.31v-1.75h-4.1v-1.54h4.1v-1.68h-4.52v-.84Zm4.2,12.22h17.26v-1.61h-17.26v1.61Zm0,3.19h17.26v-1.65h-17.26v1.65Zm0,3.22h17.26v-1.68h-17.26v1.68Zm16.17-14.67v2.31h3.19v-1.75h2v3.29h-12.39v-3.29h1.96v1.75h3.04v-2.31h-6.13v-1.54h1.26c-.39-.35-.95-.7-1.33-.88,1.4-1.19,2.42-2.63,3.01-3.89l1.93,.32c-.21,.49-.46,.91-.74,1.36h8.68v1.54h-4.48v1.54h6.23v1.54h-6.23Zm-2.21-1.54v-1.54h-3.01c-.42,.52-.88,1.05-1.4,1.54h4.41Z" fill="#231815"/>
      <path d="M248.89,56.68v30.45h-2.56v-1.61h-24.01v1.61h-2.49v-30.45h29.05Zm-2.56,26.5v-24.12h-24.01v24.12h24.01Zm-11.87-5.32c-3.64,.7-7.35,1.44-10.22,1.96l-.35-1.96c2.66-.42,6.55-1.12,10.47-1.82l.1,1.82Zm8.68-10.19c-.88,3.29-2.21,6.16-3.89,8.58,.74,1.86,1.68,3.05,2.83,3.22,.49,.14,.84-1.37,1.09-3.61,.42,.42,1.19,.95,1.68,1.16-.46,3.82-1.65,5.22-3.47,4.52-1.5-.31-2.69-1.54-3.64-3.4-1.37,1.58-2.91,2.91-4.62,4.03-.31-.42-1.08-1.26-1.54-1.65,2.07-1.19,3.82-2.73,5.29-4.55-.95-2.8-1.54-6.41-1.93-10.36h-10.71v-1.96h10.54c-.11-1.23-.21-2.45-.28-3.71h2.24c.07,1.26,.14,2.49,.21,3.71h7.63v1.96h-7.46c.28,3.01,.7,5.81,1.29,8.05,1.12-1.89,2-4.06,2.59-6.44l2.14,.46Zm-9.94,.14v6.79h-7.74v-6.79h7.74Zm-1.89,1.65h-4.02v3.5h4.02v-3.5Zm11.13-6.2c-.77-.77-2.38-1.85-3.75-2.45l1.22-1.29c1.37,.63,2.98,1.58,3.78,2.38l-1.26,1.36Z" fill="#231815"/>
      <path d="M267.19,57.35c-.98,2.84-2.24,6.3-3.36,9.1,2.45,2.91,3.04,5.43,3.04,7.56,0,1.89-.42,3.4-1.33,4.06-.49,.39-1.12,.56-1.75,.67-.7,.07-1.58,.1-2.31,.04-.04-.63-.25-1.58-.63-2.21,.77,.03,1.44,.07,2,.03,.42-.03,.77-.14,1.02-.35,.56-.38,.74-1.36,.74-2.42,0-1.93-.6-4.31-3.01-7.11,.98-2.52,1.96-5.53,2.66-7.88h-4.48v28.11h-2.28v-30.45h7.7l.38-.14,1.61,.98Zm4.45,9.49c.49-.63,.95-1.3,1.33-2-.77-.88-1.96-1.92-3.12-2.8-.77,1.09-1.61,2.1-2.49,2.94-.35-.35-1.22-1.02-1.71-1.33,2.38-2.07,4.34-5.18,5.46-8.54l2.03,.46c-.25,.77-.53,1.47-.84,2.21h3.68l.38-.07,1.33,.49c-.98,4.38-2.83,8.05-5.11,10.82h10.12c-2.1-2.77-3.85-6.34-4.94-10.08l1.47-.38v-1.58h6.58l.42-.1,1.47,.88c-1.05,2.87-2.83,5.92-4.66,7.98,1.51,2.31,3.29,4.24,5.29,5.39-.53,.42-1.19,1.23-1.54,1.82-1.44-.94-2.73-2.24-3.96-3.75v2h-10.82v-1.51c-1.15,1.26-2.42,2.35-3.71,3.15-.32-.49-.91-1.23-1.4-1.61,1.65-.98,3.26-2.49,4.66-4.31-1.79,.31-3.4,.56-5.01,.84l-.32-1.82c1.54-.14,3.26-.35,5.36-.6l.04,1.51Zm1.82,12.29c-1.33,2.21-3.33,4.8-4.87,6.44-.49-.38-1.47-1.05-2.1-1.36,1.65-1.58,3.43-3.85,4.66-5.85l2.31,.77Zm5.25-2.52v10.43h-2.45v-10.43h-7.67v-2.17h17.78v2.17h-7.67Zm-7.35-16.98c-.17,.31-.38,.63-.56,.91,1.05,.81,2.21,1.75,3.08,2.59,.53-1.09,.98-2.28,1.37-3.5h-3.89Zm8.54-.77c.53,1.71,1.23,3.4,2.07,4.97,1.08-1.44,2.14-3.29,2.83-4.97h-4.9Zm3.33,19.25c1.75,1.85,3.99,4.41,5.11,5.92l-1.96,1.33c-1.12-1.54-3.33-4.2-5.04-6.13l1.89-1.12Z" fill="#231815"/>
      <path d="M325.26,58.85v2.24h-30.52v-2.24h14.46c-.35-1.05-.8-2.31-1.22-3.29l2.42-.63c.49,1.23,1.12,2.77,1.5,3.92h13.37Zm-1.93,25.31c0,1.37-.35,1.96-1.37,2.35-1.05,.31-2.8,.35-5.78,.35-.14-.63-.46-1.44-.8-2,2.17,.07,4.2,.03,4.76,0,.56-.04,.77-.18,.77-.74v-15.82h-7.07v2.28c0,.77,.1,1.05,.67,1.05h3.15c.52,0,1.43-.04,1.92-.14,.04,.6,.1,1.29,.17,1.85-.42,.18-1.26,.18-2.03,.18h-3.67c-2.14,0-2.56-.91-2.56-2.98v-2.24h-3.96c-.53,3.64-2.17,5.57-7,6.65-.21-.56-.77-1.4-1.26-1.82,4.09-.73,5.46-2.14,5.95-4.83h-6.02v18.69h-2.49v-20.86h16.17c.91-1.4,2-3.36,2.55-4.76l2.63,.6c-.84,1.4-1.79,2.94-2.7,4.17h7.95v18.03Zm-18.97-22.96c.77,1.23,1.75,2.87,2.21,3.89l-2.24,.91c-.49-1.02-1.44-2.77-2.17-4.06l2.21-.73Zm1.4,21.39v1.61h-2.28v-9.56h12.78v7.95h-10.5Zm0-5.99v4.06h8.33v-4.06h-8.33Z" fill="#231815"/>
      <path d="M362.36,56.51v30.52h-2.52v-1.37h-24.15v1.37h-2.42v-30.52h29.09Zm-2.52,26.92v-24.64h-24.15v24.64h24.15Zm-1.37-13.41h-5.5c2.06,1.51,4.17,3.26,5.39,4.52l-1.58,1.33c-1.4-1.65-4.34-4.1-6.9-5.85h-5.08c-.63,.88-1.37,1.68-2.13,2.42h9.7v.8c-.14,2.59-.28,3.78-.73,4.27-.35,.39-.81,.56-1.58,.6-.53,.04-1.68,.07-2.77-.04-.07-.46-.25-1.12-.49-1.54,1.12,.1,2.14,.1,2.49,.1s.59-.04,.77-.25c.17-.21,.28-.84,.35-2.27h-6.37v5.15c0,.91,.32,1.08,2.03,1.08h6.13c1.23,0,1.47-.39,1.61-2.8,.49,.31,1.26,.6,1.86,.7-.25,3.08-.91,3.82-3.22,3.82h-6.51c-3.12,0-4.03-.49-4.03-2.77v-6.13c-1.26,1.08-2.7,2.07-4.27,2.87-.28-.42-.98-1.36-1.44-1.79,2.35-1.05,4.27-2.49,5.88-4.24h-4.9v-1.75h6.27c.53-.74,.98-1.47,1.4-2.31h-6.02v-1.71h6.76c.56-1.44,.98-2.98,1.33-4.66l2.17,.25c-.35,1.61-.77,3.05-1.23,4.41h3.57c.7-1.19,1.47-2.84,1.89-4.06l2.07,.63c-.63,1.16-1.29,2.42-1.93,3.43h3.68v1.71h-9.98c-.39,.81-.74,1.58-1.19,2.31h12.5v1.75Zm-16.59-5.92c-.28-.91-1.08-2.24-1.92-3.15l1.68-.67c.88,.91,1.68,2.17,2,3.08l-1.75,.73Z" fill="#231815"/>
    </g>
  </g>
</svg>