<?xml version="1.0" encoding="UTF-8"?>
<svg id="_圖層_2" data-name="圖層 2" xmlns="http://www.w3.org/2000/svg" viewBox="0 0 334.22 87.31">
  <g id="content">
    <g>
      <path d="M15.19,23.59l.46,2.24c-5.01,2.17-10.43,4.45-14.46,6.02l-1.19-2.56c2.52-.88,6.13-2.21,9.91-3.68V11.66H1.05v-2.56H9.91V.91h2.66V24.61l2.62-1.02Zm11.66,4.69c1.58,0,1.79-1.68,2-8.37,.7,.56,1.75,1.08,2.48,1.26-.28,7.18-.91,9.66-4.27,9.66h-4.69c-3.01,0-3.89-1.01-3.89-4.66V.94h2.63V9.07h9.77v2.56h-9.77v14.6c0,1.75,.25,2.06,1.58,2.06h4.17Z" fill="#231815"/>
      <path d="M55.16,7.91v4.73h11.34v12.25c0,1.5-.35,2.27-1.47,2.73-1.19,.42-3.15,.46-6.13,.46-.1-.81-.56-1.85-.91-2.59,2.38,.07,4.48,.07,5.08,.07,.63-.07,.81-.21,.81-.7V15.19h-8.72v16.98h-2.62V15.19h-8.19v12.99h-2.59V12.64h10.78V7.91h-14.18v-2.56h14.91c-.56-1.37-1.51-3.19-2.31-4.59l2.48-.77c1.05,1.61,2.24,3.82,2.73,5.18l-.46,.17h13.9v2.56h-14.46Z" fill="#231815"/>
      <path d="M87.61,21.18c-.6-1.16-2.07-3.43-3.26-5.22v16.21h-2.56v-15.47c-1.44,3.5-3.26,6.97-5.08,9.14-.25-.7-.88-1.75-1.29-2.35,2.21-2.49,4.66-6.97,6.02-10.99h-5.53v-2.45h5.88V4.76c-1.61,.31-3.26,.6-4.8,.81-.14-.56-.49-1.47-.77-2.03,3.92-.63,8.51-1.65,11.13-2.8l1.58,2.07c-1.29,.52-2.91,1.02-4.59,1.4v5.85h5.15v2.45h-5.15v.63c1.08,1.23,4.1,5.08,4.83,6.02l-1.58,2.03Zm15.82,1.85v9.14h-2.56v-8.72l-11.41,1.89-.42-2.49,11.83-1.89V.25h2.56V20.55l4.1-.63,.39,2.38-4.48,.73Zm-6.76-4.66c-1.26-1.54-3.96-3.71-6.16-5.11l1.61-1.54c2.24,1.37,4.97,3.43,6.27,4.94l-1.72,1.72Zm.77-9.24c-1.08-1.47-3.5-3.54-5.57-4.97l1.65-1.51c2.1,1.33,4.55,3.33,5.71,4.8l-1.79,1.68Z" fill="#231815"/>
      <path d="M131.15,7.49c-.39,1.12-.74,2.24-1.16,3.22h11.13v21.53h-2.66v-2h-17.85v2h-2.56V10.71h9.17c.31-1.02,.63-2.21,.84-3.22h-14v-2.42h9.03c-.7-1.19-1.89-2.77-2.98-3.96l2.28-.98c1.26,1.23,2.66,2.94,3.29,4.13l-1.5,.8h9.24c1.12-1.44,2.42-3.43,3.19-4.87l2.84,.73c-.95,1.47-2.07,2.94-3.12,4.13h8.82v2.42h-14Zm7.32,5.53h-17.85v3.47h17.85v-3.47Zm0,5.57h-17.85v3.57h17.85v-3.57Zm0,9.35v-3.71h-17.85v3.71h17.85Z" fill="#231815"/>
      <path d="M156.45,6.41v7.25c0,5.32-.42,13.2-3.29,18.48-.46-.46-1.58-1.23-2.17-1.47,2.66-4.97,2.94-12.01,2.94-17.05V3.96h14.6c-.52-1.05-1.19-2.21-1.85-3.12l2.42-.81c.88,1.19,1.82,2.7,2.42,3.92h11.48v2.45h-26.53Zm14.6,22.61h12.04v2.31h-26.46v-2.31h11.9v-5.18h-9.66v-2.28h9.66V7.81h2.52v10.22c2.84-2.14,4.52-5.5,5.25-9.63l2.35,.35c-.28,1.54-.7,2.98-1.23,4.31,2.07,1.68,4.45,3.78,5.67,5.15l-1.57,1.68c-1.09-1.29-3.08-3.19-4.97-4.83-.98,1.82-2.21,3.33-3.68,4.52-.39-.39-1.26-1.08-1.82-1.47v3.47h9.91v2.28h-9.91v5.18Zm-6.51-20.34c-.25,1.51-.63,2.94-1.08,4.24,1.65,1.47,3.5,3.29,4.45,4.52l-1.58,1.68c-.77-1.08-2.24-2.7-3.71-4.06-.94,2-2.21,3.68-3.75,5.01-.39-.42-1.4-1.16-1.93-1.47,2.87-2.28,4.55-5.85,5.22-10.19l2.38,.28Z" fill="#231815"/>
      <path d="M195.13,6.62c-1.33,1.65-2.8,3.12-4.31,4.31-.28-.49-1.08-1.54-1.61-2.03,2.94-2.1,5.74-5.43,7.42-8.86l2.31,.74c-.59,1.19-1.29,2.38-2.06,3.5h22.61v2.35h-24.36Zm25.48,14.18v2.35h-30.84v-2.35h5.36v-5.95h-4.2v-2.35h4.2v-3.85h2.35v3.85h3.64v-3.85h2.24v3.85h4.06v-3.85h2.24v3.85h3.85v-3.85h2.42v3.85h3.96v2.35h-3.96v5.95h4.69Zm-30.28,10.47c1.23-1.68,2.66-4.41,3.54-6.69l2.45,.63c-.88,2.27-2.24,5.18-3.54,7.04l-2.45-.98Zm7.14-10.47h3.64v-5.95h-3.64v5.95Zm4.66,4.55c.46,2.03,.84,4.66,.88,6.23l-2.56,.38c0-1.61-.31-4.31-.74-6.41l2.42-.21Zm1.23-10.5v5.95h4.06v-5.95h-4.06Zm5.95,10.22c.98,2,1.93,4.66,2.28,6.3l-2.56,.52c-.31-1.65-1.23-4.34-2.1-6.41l2.38-.42Zm.35-10.22v5.95h3.85v-5.95h-3.85Zm6.83,9.56c1.29,2.1,2.91,4.97,3.68,6.69l-2.52,1.09c-.67-1.75-2.24-4.66-3.5-6.83l2.35-.95Z" fill="#231815"/>
      <path d="M238.53,23.24c-3.82,1.54-7.84,3.15-10.96,4.34l-.84-2.63c1.3-.42,2.87-.95,4.62-1.61V11.27h-4.62v-2.52h4.62V.73h2.49V8.75h4.2v2.52h-4.2v11.2c1.37-.52,2.8-1.05,4.2-1.61l.49,2.38Zm10.68,5.95c1.05,.18,2.14,.21,3.33,.21,.84,0,5.67,0,6.9-.03-.38,.56-.67,1.65-.77,2.31h-6.23c-5.08,0-8.82-.95-11.17-5.71-.98,2.56-2.38,4.62-4.2,6.27-.38-.46-1.33-1.23-1.92-1.61,3.15-2.42,4.73-6.34,5.29-11.52l2.42,.28c-.14,1.4-.39,2.73-.7,3.96,1.01,2.84,2.59,4.38,4.58,5.22v-11.1h-9.28v-2.21h21.28v2.21h-9.52v4.1h7.42v2.14h-7.42v5.5Zm7.18-16.42h-16.77V1.44h16.77V12.78Zm-2.52-9.38h-11.83v2.77h11.83V3.4Zm0,4.59h-11.83v2.8h11.83v-2.8Z" fill="#231815"/>
      <path d="M277.55,9.73c-1.68,9.1-5.78,15.58-10.71,19.04-.38-.56-1.44-1.58-2.07-1.96,4.45-2.91,7.98-8.16,9.66-15.05h-8.54v-2.59h9.45l.53-.1,1.68,.67Zm16.56-1.26c-2.31,2.66-5.36,5.81-7.81,7.88,2.98,4.31,6.76,7.95,10.96,9.91-.59,.53-1.47,1.58-1.92,2.35-5.43-2.87-9.94-8.4-13.13-14.7v14.77c0,1.71-.42,2.56-1.43,3.01-1.05,.49-2.8,.56-5.46,.56-.1-.77-.56-2.07-.98-2.84,2,.07,3.82,.07,4.34,.07,.6-.04,.81-.21,.81-.81V.35h2.73V8.75c.77,1.92,1.72,3.85,2.8,5.67,2.34-2.17,5.08-5.25,6.76-7.63l2.34,1.68Z" fill="#231815"/>
      <path d="M308,13.48v4.38c0,4.1-.56,9.87-3.5,13.76-.42-.53-1.51-1.37-2.1-1.68,2.73-3.57,3.04-8.44,3.04-12.11v-6.69h28.25v2.35h-25.69Zm23.84-5.11h-26.18V1.61h2.55V6.02h9.03V.28h2.7V6.02h9.24V1.61h2.66v6.76Zm2.38,16.42h-11.48v7.46h-2.7v-7.46h-10.92v-2.35h10.92v-3.75h-9.17v-2.24h21.49v2.24h-9.63v3.75h11.48v2.35Z" fill="#231815"/>
      <path d="M30.7,56.85v30.45h-2.56v-1.61H4.13v1.61H1.65v-30.45H30.7Zm-2.56,26.5v-24.12H4.13v24.12H28.14Zm-11.87-5.32c-3.64,.7-7.35,1.44-10.22,1.96l-.35-1.96c2.66-.42,6.55-1.12,10.47-1.82l.1,1.82Zm8.68-10.19c-.88,3.29-2.21,6.16-3.89,8.58,.73,1.86,1.68,3.05,2.84,3.22,.49,.14,.84-1.37,1.08-3.61,.42,.42,1.19,.95,1.68,1.16-.46,3.82-1.65,5.22-3.47,4.52-1.51-.31-2.7-1.54-3.64-3.4-1.36,1.58-2.91,2.91-4.62,4.03-.31-.42-1.09-1.26-1.54-1.65,2.07-1.19,3.82-2.73,5.29-4.55-.94-2.8-1.54-6.41-1.93-10.36H6.06v-1.96h10.54c-.1-1.23-.21-2.45-.28-3.71h2.24c.07,1.26,.14,2.49,.21,3.71h7.63v1.96h-7.46c.28,3.01,.7,5.81,1.3,8.05,1.12-1.89,2-4.06,2.59-6.44l2.14,.46Zm-9.94,.14v6.79H7.28v-6.79h7.74Zm-1.89,1.65h-4.03v3.5h4.03v-3.5Zm11.13-6.2c-.77-.77-2.38-1.85-3.75-2.45l1.23-1.29c1.37,.63,2.98,1.58,3.78,2.38l-1.26,1.36Z" fill="#231815"/>
      <path d="M49,57.52c-.98,2.84-2.24,6.3-3.36,9.1,2.45,2.91,3.05,5.43,3.05,7.56,0,1.89-.42,3.4-1.33,4.06-.49,.39-1.12,.56-1.75,.67-.7,.07-1.58,.1-2.31,.04-.04-.63-.25-1.58-.63-2.21,.77,.03,1.44,.07,2,.03,.42-.03,.77-.14,1.02-.35,.56-.38,.73-1.36,.73-2.42,0-1.93-.59-4.31-3.01-7.11,.98-2.52,1.96-5.53,2.66-7.88h-4.48v28.11h-2.27v-30.45h7.7l.38-.14,1.61,.98Zm4.45,9.49c.49-.63,.95-1.3,1.33-2-.77-.88-1.96-1.92-3.12-2.8-.77,1.09-1.61,2.1-2.48,2.94-.35-.35-1.23-1.02-1.72-1.33,2.38-2.07,4.34-5.18,5.46-8.54l2.03,.46c-.25,.77-.52,1.47-.84,2.21h3.68l.38-.07,1.33,.49c-.98,4.38-2.83,8.05-5.11,10.82h10.12c-2.1-2.77-3.85-6.34-4.94-10.08l1.47-.38v-1.58h6.58l.42-.1,1.47,.88c-1.05,2.87-2.84,5.92-4.66,7.98,1.5,2.31,3.29,4.24,5.29,5.39-.52,.42-1.19,1.23-1.54,1.82-1.44-.94-2.73-2.24-3.96-3.75v2h-10.82v-1.51c-1.16,1.26-2.42,2.35-3.71,3.15-.31-.49-.91-1.23-1.4-1.61,1.65-.98,3.26-2.49,4.66-4.31-1.79,.31-3.4,.56-5.01,.84l-.31-1.82c1.54-.14,3.26-.35,5.36-.6l.03,1.51Zm1.82,12.29c-1.33,2.21-3.33,4.8-4.87,6.44-.49-.38-1.47-1.05-2.1-1.36,1.65-1.58,3.43-3.85,4.66-5.85l2.31,.77Zm5.25-2.52v10.43h-2.45v-10.43h-7.67v-2.17h17.78v2.17h-7.67Zm-7.35-16.98c-.18,.31-.39,.63-.56,.91,1.05,.81,2.21,1.75,3.08,2.59,.53-1.09,.98-2.28,1.37-3.5h-3.89Zm8.54-.77c.52,1.71,1.23,3.4,2.06,4.97,1.09-1.44,2.14-3.29,2.84-4.97h-4.9Zm3.33,19.25c1.75,1.85,3.99,4.41,5.11,5.92l-1.96,1.33c-1.12-1.54-3.33-4.2-5.04-6.13l1.89-1.12Z" fill="#231815"/>
      <path d="M87.19,56.29c-1.05,2.56-2.35,5.11-3.82,7.49v23.38h-2.56v-19.64c-1.3,1.72-2.7,3.29-4.13,4.62-.24-.63-1.08-2-1.57-2.63,3.85-3.33,7.42-8.54,9.49-14.04l2.59,.81Zm11.73,10.36c2.24,5.57,5.88,11.13,9.52,14.07-.63,.49-1.54,1.4-1.96,2.1-3.4-3.15-6.72-8.47-9.07-14.07v18.48h-2.56v-17.75c-2.35,5.46-5.67,10.47-9.1,13.48-.49-.6-1.36-1.54-1.96-2,3.78-2.98,7.49-8.61,9.7-14.32h-8.47v-2.52h9.84v-8.4h2.56v8.4h10.12v2.52h-8.61Z" fill="#231815"/>
      <path d="M113.58,84.79c2.62-1.37,4.13-3.82,4.83-6.62l2.28,.81c-.77,2.98-2.1,5.74-5.01,7.32l-2.1-1.5Zm7.11-20.72h-6.48v-2.14h6.48v-2.73h-5.15v-2.1h12.57v2.1h-5.01v2.73h6.3v2.14h-6.3v3.05h4.9v7.88h-9.77v1.44h-2.31v-9.31h4.76v-3.05Zm5.04,5.11h-7.49v3.78h7.49v-3.78Zm8.09,15.33c1.51,0,1.75-.46,1.93-3.68,.56,.46,1.61,.84,2.35,.98-.35,4.06-1.16,5.04-4.06,5.04h-6.72c-3.61,0-4.52-.73-4.52-3.36v-5.36h2.56v5.32c0,.88,.31,1.05,2.17,1.05h6.3Zm-7-8.93c2.21,1.02,4.8,2.77,6.02,4.17l-1.82,1.58c-1.19-1.4-3.71-3.22-5.92-4.34l1.71-1.4Zm6.27,.77h-2.42v-17.78h4.1c.49-1.12,.95-2.52,1.19-3.5l2.84,.42c-.46,1.05-.95,2.17-1.4,3.08h6.72v17.57h-2.49v-1.29h-8.54v1.5Zm0-15.65v2.73h8.54v-2.73h-8.54Zm8.54,7.35v-2.77h-8.54v2.77h8.54Zm0,4.66v-2.8h-8.54v2.8h8.54Zm-2.49,5.15c2.59,1.92,5.32,4.76,6.48,6.93l-2.28,1.33c-1.02-2.14-3.71-5.01-6.27-7l2.06-1.26Z" fill="#231815"/>
      <path d="M182.95,83.6v2.52h-31.01v-2.52h14.18v-8.89h-10.4v-2.52h10.4v-7.63h-8.23c-1.12,2.21-2.35,4.13-3.64,5.71-.52-.42-1.68-1.19-2.38-1.54,2.87-3.08,5.11-7.91,6.48-12.88l2.63,.56c-.56,1.93-1.19,3.82-1.96,5.6h7.11v-6.72h2.66v6.72h12.53v2.56h-12.53v7.63h11.24v2.52h-11.24v8.89h14.18Z" fill="#231815"/>
      <path d="M195.69,70.89c-1.44-.98-4.31-2.66-6.44-3.78l1.44-1.89c2.03,1.02,4.94,2.56,6.48,3.54l-1.47,2.14Zm-5.6,14.11c1.89-2.63,4.59-7.25,6.62-11.2l1.89,1.72c-1.82,3.68-4.27,8.02-6.34,11.24l-2.17-1.75Zm7.35-23.59c-1.44-1.02-4.34-2.7-6.48-3.85l1.44-1.85c2.14,1.01,5.08,2.62,6.55,3.6l-1.5,2.1Zm14,6.55v5.74h7.32v13.34h-2.48v-1.3h-12.43v1.47h-2.42v-13.51h7.53v-5.74h-10.08v-2.52h10.08v-5.67c-2.56,.39-5.18,.7-7.67,.95-.14-.63-.49-1.61-.73-2.21,6.02-.63,13.06-1.71,16.94-3.12l2.03,2.03c-2.28,.77-5.08,1.44-8.09,1.96v6.06h9.59v2.52h-9.59Zm4.83,8.16h-12.43v7.21h12.43v-7.21Z" fill="#231815"/>
      <path d="M252.46,83.18c1.89,0,4.55-.14,5.81-.38,.1,.73,.28,1.92,.42,2.48-.91,.28-3.57,.32-6.27,.32h-15.4c-5.36,0-7.95-1.68-7.95-6.79v-19.6h-1.44v-2.35h29.33v2.35h-25.34v19.78c0,2.98,1.36,4.2,5.11,4.2h15.72Zm-18.06-11.59h9.1v8.96h-9.1v-8.96Zm2.17,7.07h4.66v-5.18h-4.66v5.18Zm14.6-9.45h-12.99v-7.74h12.99v7.74Zm-2.55-5.88h-7.98v3.99h7.98v-3.99Zm6.65,17.22h-9.42v-8.96h9.42v8.96Zm-2.31-7.07h-4.87v5.18h4.87v-5.18Z" fill="#231815"/>
    </g>
  </g>
</svg>