<?xml version="1.0" encoding="UTF-8"?>
<svg id="_圖層_2" data-name="圖層 2" xmlns="http://www.w3.org/2000/svg" viewBox="0 0 376.43 15.31">
  <g id="content">
    <g opacity=".6">
      <g>
        <path d="M11.84,14.59c-.74,.35-2.22,.7-4.12,.7C3.31,15.29,0,12.65,0,7.79S3.31,0,8.15,0c1.95,0,3.17,.4,3.71,.66l-.49,1.56c-.76-.35-1.85-.62-3.15-.62C4.56,1.61,2.13,3.83,2.13,7.72c0,3.63,2.2,5.96,6,5.96,1.23,0,2.48-.24,3.29-.62l.42,1.52Z" fill="#fff"/>
        <path d="M28.37,7.5c0,5.1-3.27,7.81-7.25,7.81s-7.02-3.04-7.02-7.53c0-4.71,3.08-7.79,7.25-7.79s7.02,3.1,7.02,7.5Zm-12.11,.24c0,3.17,1.81,6.01,4.98,6.01s5-2.79,5-6.16c0-2.95-1.62-6.03-4.98-6.03s-5,2.93-5,6.18Z" fill="#fff"/>
        <path d="M32.15,.24h2.02V13.47h6.67v1.61h-8.69V.24Z" fill="#fff"/>
        <path d="M44.24,.24h2.02V13.47h6.67v1.61h-8.69V.24Z" fill="#fff"/>
        <path d="M64.42,8.12h-6.07v5.35h6.76v1.61h-8.78V.24h8.43V1.85h-6.42V6.53h6.07v1.58Z" fill="#fff"/>
        <path d="M79.8,14.59c-.74,.35-2.22,.7-4.12,.7-4.4,0-7.71-2.64-7.71-7.5s3.31-7.79,8.15-7.79c1.95,0,3.17,.4,3.71,.66l-.49,1.56c-.76-.35-1.85-.62-3.15-.62-3.66,0-6.09,2.22-6.09,6.12,0,3.63,2.2,5.96,6,5.96,1.23,0,2.48-.24,3.29-.62l.42,1.52Z" fill="#fff"/>
        <path d="M93.9,14.59c-.74,.35-2.22,.7-4.12,.7-4.4,0-7.71-2.64-7.71-7.5s3.31-7.79,8.15-7.79c1.95,0,3.17,.4,3.71,.66l-.49,1.56c-.76-.35-1.85-.62-3.15-.62-3.66,0-6.09,2.22-6.09,6.12,0,3.63,2.2,5.96,6,5.96,1.23,0,2.48-.24,3.29-.62l.42,1.52Z" fill="#fff"/>
        <path d="M101.2,1.87h-4.75V.24h11.56V1.87h-4.77V15.07h-2.04V1.87Z" fill="#fff"/>
        <path d="M116.97,.42c.97-.15,2.25-.29,3.87-.29,1.99,0,3.45,.44,4.38,1.23,.86,.7,1.37,1.78,1.37,3.1s-.42,2.4-1.2,3.17c-1.07,1.08-2.8,1.63-4.77,1.63-.6,0-1.16-.02-1.62-.13v5.94h-2.02V.42Zm2.02,7.15c.44,.11,1,.15,1.67,.15,2.43,0,3.91-1.12,3.91-3.17s-1.46-2.9-3.68-2.9c-.88,0-1.55,.07-1.9,.15V7.57Z" fill="#fff"/>
        <path d="M130.46,.44c1.02-.2,2.48-.31,3.87-.31,2.15,0,3.54,.37,4.52,1.21,.79,.66,1.23,1.67,1.23,2.82,0,1.96-1.3,3.26-2.94,3.78v.07c1.2,.4,1.92,1.45,2.29,2.99,.51,2.07,.88,3.5,1.2,4.07h-2.08c-.25-.42-.6-1.69-1.04-3.54-.46-2.05-1.3-2.82-3.13-2.88h-1.9v6.42h-2.02V.44Zm2.02,6.75h2.06c2.15,0,3.52-1.12,3.52-2.82,0-1.91-1.46-2.75-3.59-2.77-.97,0-1.67,.09-1.99,.18V7.2Z" fill="#fff"/>
        <path d="M146.09,.24V15.07h-2.02V.24h2.02Z" fill="#fff"/>
        <path d="M161.68,14.59c-.74,.35-2.22,.7-4.12,.7-4.4,0-7.71-2.64-7.71-7.5s3.31-7.79,8.15-7.79c1.95,0,3.17,.4,3.71,.66l-.49,1.56c-.76-.35-1.85-.62-3.15-.62-3.66,0-6.09,2.22-6.09,6.12,0,3.63,2.2,5.96,6,5.96,1.23,0,2.48-.24,3.29-.62l.42,1.52Z" fill="#fff"/>
        <path d="M173.45,8.12h-6.07v5.35h6.76v1.61h-8.78V.24h8.43V1.85h-6.42V6.53h6.07v1.58Z" fill="#fff"/>
        <path d="M177.92,.24h2.02V13.47h6.67v1.61h-8.69V.24Z" fill="#fff"/>
        <path d="M198.09,8.12h-6.07v5.35h6.76v1.61h-8.78V.24h8.43V1.85h-6.42V6.53h6.07v1.58Z" fill="#fff"/>
        <path d="M202.29,12.74c.9,.53,2.22,.97,3.61,.97,2.06,0,3.27-1.03,3.27-2.53,0-1.39-.83-2.18-2.94-2.95-2.55-.86-4.12-2.11-4.12-4.2,0-2.31,2.02-4.03,5.05-4.03,1.6,0,2.76,.35,3.45,.73l-.56,1.56c-.51-.26-1.55-.7-2.96-.7-2.13,0-2.94,1.21-2.94,2.22,0,1.39,.95,2.07,3.1,2.86,2.64,.97,3.98,2.18,3.98,4.36,0,2.29-1.78,4.27-5.47,4.27-1.51,0-3.15-.42-3.98-.95l.51-1.61Z" fill="#fff"/>
        <path d="M214.86,12.74c.9,.53,2.22,.97,3.61,.97,2.06,0,3.27-1.03,3.27-2.53,0-1.39-.83-2.18-2.94-2.95-2.55-.86-4.12-2.11-4.12-4.2,0-2.31,2.02-4.03,5.05-4.03,1.6,0,2.76,.35,3.45,.73l-.56,1.56c-.51-.26-1.55-.7-2.96-.7-2.13,0-2.94,1.21-2.94,2.22,0,1.39,.95,2.07,3.1,2.86,2.64,.97,3.98,2.18,3.98,4.36,0,2.29-1.78,4.27-5.47,4.27-1.51,0-3.15-.42-3.98-.95l.51-1.61Z" fill="#fff"/>
        <path d="M233.79,.24h2.02V13.47h6.67v1.61h-8.69V.24Z" fill="#fff"/>
        <path d="M247.89,.24V15.07h-2.02V.24h2.02Z" fill="#fff"/>
        <path d="M252.57,.24h8.41V1.85h-6.39V6.78h5.91v1.58h-5.91v6.71h-2.02V.24Z" fill="#fff"/>
        <path d="M273.1,8.12h-6.07v5.35h6.76v1.61h-8.78V.24h8.43V1.85h-6.42V6.53h6.07v1.58Z" fill="#fff"/>
        <path d="M283.36,12.74c.9,.53,2.22,.97,3.61,.97,2.06,0,3.27-1.03,3.27-2.53,0-1.39-.83-2.18-2.94-2.95-2.55-.86-4.12-2.11-4.12-4.2,0-2.31,2.02-4.03,5.05-4.03,1.6,0,2.76,.35,3.45,.73l-.56,1.56c-.51-.26-1.55-.7-2.96-.7-2.13,0-2.94,1.21-2.94,2.22,0,1.39,.95,2.07,3.1,2.86,2.64,.97,3.98,2.18,3.98,4.36,0,2.29-1.78,4.27-5.47,4.27-1.51,0-3.15-.42-3.98-.95l.51-1.61Z" fill="#fff"/>
        <path d="M307.12,14.59c-.74,.35-2.22,.7-4.12,.7-4.4,0-7.71-2.64-7.71-7.5s3.31-7.79,8.15-7.79c1.95,0,3.17,.4,3.71,.66l-.49,1.56c-.76-.35-1.85-.62-3.15-.62-3.66,0-6.09,2.22-6.09,6.12,0,3.63,2.2,5.96,6,5.96,1.23,0,2.48-.24,3.29-.62l.42,1.52Z" fill="#fff"/>
        <path d="M318.89,8.12h-6.07v5.35h6.76v1.61h-8.78V.24h8.43V1.85h-6.42V6.53h6.07v1.58Z" fill="#fff"/>
        <path d="M323.36,15.07V.24h2.2l5,7.5c1.16,1.74,2.06,3.3,2.8,4.82l.05-.02c-.19-1.98-.23-3.78-.23-6.09V.24h1.9V15.07h-2.04l-4.96-7.52c-1.09-1.65-2.13-3.34-2.92-4.95l-.07,.02c.12,1.87,.16,3.65,.16,6.12v6.34h-1.9Z" fill="#fff"/>
        <path d="M347.84,8.12h-6.07v5.35h6.76v1.61h-8.78V.24h8.43V1.85h-6.42V6.53h6.07v1.58Z" fill="#fff"/>
        <path d="M352.31,.44c1.02-.2,2.48-.31,3.87-.31,2.15,0,3.54,.37,4.52,1.21,.79,.66,1.23,1.67,1.23,2.82,0,1.96-1.3,3.26-2.94,3.78v.07c1.2,.4,1.92,1.45,2.29,2.99,.51,2.07,.88,3.5,1.2,4.07h-2.08c-.25-.42-.6-1.69-1.04-3.54-.46-2.05-1.3-2.82-3.13-2.88h-1.9v6.42h-2.02V.44Zm2.02,6.75h2.06c2.15,0,3.52-1.12,3.52-2.82,0-1.91-1.46-2.75-3.59-2.77-.97,0-1.67,.09-1.99,.18V7.2Z" fill="#fff"/>
        <path d="M369.16,15.07v-6.29L364.22,.24h2.29l2.2,4.09c.6,1.12,1.07,2.02,1.55,3.06h.05c.44-.97,.97-1.94,1.57-3.06l2.25-4.09h2.29l-5.23,8.52v6.31h-2.04Z" fill="#fff"/>
      </g>
    </g>
  </g>
</svg>