<?xml version="1.0" encoding="UTF-8"?>
<svg id="_圖層_2" data-name="圖層 2" xmlns="http://www.w3.org/2000/svg" viewBox="0 0 330.86 35.7">
  <g id="content">
    <g>
      <path d="M3.61,4.48c-1.32,1.23-2.3,3.21-2.94,5.92-.04,.07-.16,.11-.37,.11s-.31-.05-.31-.16c.15-1,.32-2.63,.51-4.88C.7,3.22,.79,1.52,.79,.38c0-.18,.11-.27,.34-.27s.34,.09,.34,.27c0,.79,1.03,1.18,3.1,1.18,3.24,.11,7.02,.16,11.35,.16,2.22,0,4.57-.04,7.06-.11l3.84-.05c1.39,0,2.41-.09,3.05-.27,.64-.18,1.05-.54,1.24-1.07,.04-.14,.16-.21,.37-.21s.31,.07,.31,.21c-.11,1-.24,2.61-.37,4.82-.13,2.22-.2,3.99-.2,5.31,0,.11-.1,.16-.31,.16s-.31-.05-.31-.16c-.26-2.75-1.02-4.73-2.26-5.92-1.24-1.2-3.09-1.8-5.53-1.8-1.39,0-2.39,.08-2.99,.24-.6,.16-1.02,.46-1.24,.91-.23,.45-.34,1.19-.34,2.22V30.72c0,1.11,.12,1.91,.37,2.41,.24,.5,.72,.84,1.44,1.02,.71,.18,1.86,.27,3.44,.27,.08,0,.11,.11,.11,.32s-.04,.32-.11,.32c-1.32,0-2.35-.02-3.1-.05l-4.46-.05-4.35,.05c-.75,.04-1.81,.05-3.16,.05-.11,0-.17-.11-.17-.32s.06-.32,.17-.32c1.54,0,2.68-.09,3.41-.27,.73-.18,1.23-.53,1.5-1.05,.26-.52,.4-1.31,.4-2.39V5.9c0-1-.11-1.72-.34-2.17-.23-.45-.65-.74-1.27-.88-.62-.14-1.63-.21-3.02-.21-2.33,0-4.16,.62-5.48,1.85Z" fill="#a1a9d8"/>
      <path d="M37.31,3.54c-.23-.5-.66-.85-1.3-1.05-.64-.2-1.66-.29-3.05-.29-.11,0-.17-.11-.17-.32s.06-.32,.17-.32l2.88,.05c1.58,.07,2.9,.11,3.95,.11,1.17,0,2.62-.04,4.35-.11l2.88-.05c.08,0,.11,.11,.11,.32s-.04,.32-.11,.32c-1.43,0-2.48,.11-3.16,.32s-1.14,.58-1.38,1.1c-.25,.52-.37,1.31-.37,2.39V30.72c0,1.07,.12,1.87,.37,2.39,.24,.52,.7,.87,1.35,1.05,.66,.18,1.72,.27,3.19,.27,.08,0,.11,.11,.11,.32s-.04,.32-.11,.32c-1.24,0-2.2-.02-2.88-.05l-4.35-.05-4.01,.05c-.72,.04-1.69,.05-2.94,.05-.08,0-.11-.11-.11-.32s.04-.32,.11-.32c1.39,0,2.42-.09,3.08-.27,.66-.18,1.11-.53,1.35-1.05,.24-.52,.37-1.31,.37-2.39V5.9c0-1.07-.11-1.86-.34-2.36Zm2.43,13.46h24.95v1.23h-24.95v-1.23ZM62.37,3.62c-.23-.52-.68-.88-1.35-1.1s-1.73-.32-3.16-.32c-.11,0-.17-.11-.17-.32s.06-.32,.17-.32l2.65,.05c1.73,.07,3.22,.11,4.46,.11,1.05,0,2.41-.04,4.06-.11l2.88-.05c.11,0,.17,.11,.17,.32s-.06,.32-.17,.32c-1.39,0-2.42,.1-3.08,.29-.66,.2-1.1,.55-1.33,1.05-.23,.5-.34,1.29-.34,2.36V30.72c0,1.07,.11,1.87,.34,2.39,.23,.52,.67,.87,1.33,1.05,.66,.18,1.68,.27,3.08,.27,.11,0,.17,.11,.17,.32s-.06,.32-.17,.32c-1.2,0-2.16-.02-2.88-.05l-4.06-.05-4.46,.05c-.64,.04-1.52,.05-2.65,.05-.11,0-.17-.11-.17-.32s.06-.32,.17-.32c1.47,0,2.53-.09,3.19-.27,.66-.18,1.1-.52,1.33-1.02,.23-.5,.34-1.3,.34-2.41V6c0-1.07-.11-1.87-.34-2.39Z" fill="#a1a9d8"/>
      <path d="M73.37,34.74c0-.21,.06-.32,.17-.32,1.35,0,2.34-.09,2.96-.27,.62-.18,1.04-.53,1.27-1.05,.23-.52,.34-1.31,.34-2.39V5.9c0-1.07-.11-1.86-.34-2.36-.23-.5-.65-.85-1.27-1.05-.62-.2-1.61-.29-2.96-.29-.11,0-.17-.11-.17-.32s.06-.32,.17-.32h23.03c.38,0,.56,.16,.56,.48l.11,6.75c0,.11-.1,.17-.31,.19-.21,.02-.33-.03-.37-.13-.26-1.97-1-3.47-2.2-4.5-1.2-1.04-2.79-1.55-4.74-1.55h-2.88c-1.66,0-2.77,.23-3.33,.7-.56,.46-.85,1.34-.85,2.63V30.5c0,1.29,.25,2.16,.76,2.63,.51,.46,1.53,.7,3.08,.7h3.73c2.11,0,3.87-.6,5.28-1.8,1.41-1.2,2.38-2.9,2.91-5.12,0-.07,.08-.11,.23-.11,.11,0,.22,.03,.31,.08,.09,.05,.14,.1,.14,.13-.38,2.57-.56,4.99-.56,7.24,0,.29-.06,.49-.17,.62-.11,.13-.34,.19-.68,.19h-24.04c-.11,0-.17-.11-.17-.32Zm19.67-15.41c-.92-.73-2.38-1.1-4.37-1.1h-8.24v-1.23h8.35c1.92,0,3.33-.31,4.23-.94,.9-.62,1.35-1.6,1.35-2.92,0-.07,.1-.11,.31-.11s.31,.04,.31,.11l-.06,4.5,.06,2.41c.08,1.14,.11,2.04,.11,2.68,0,.07-.11,.11-.34,.11s-.34-.04-.34-.11c0-1.54-.46-2.67-1.38-3.4Z" fill="#a1a9d8"/>
      <path d="M115.59,3.54c-.23-.5-.66-.85-1.3-1.05-.64-.2-1.66-.29-3.05-.29-.11,0-.17-.11-.17-.32s.06-.32,.17-.32l2.88,.05c1.58,.07,2.9,.11,3.95,.11,1.17,0,2.62-.04,4.35-.11l2.88-.05c.08,0,.11,.11,.11,.32s-.04,.32-.11,.32c-1.43,0-2.48,.11-3.16,.32s-1.14,.58-1.38,1.1c-.25,.52-.37,1.31-.37,2.39V30.72c0,1.07,.12,1.87,.37,2.39,.24,.52,.7,.87,1.35,1.05,.66,.18,1.72,.27,3.19,.27,.08,0,.11,.11,.11,.32s-.04,.32-.11,.32c-1.24,0-2.2-.02-2.88-.05l-4.35-.05-4.01,.05c-.72,.04-1.69,.05-2.94,.05-.08,0-.11-.11-.11-.32s.04-.32,.11-.32c1.39,0,2.42-.09,3.08-.27,.66-.18,1.11-.53,1.35-1.05,.24-.52,.37-1.31,.37-2.39V5.9c0-1.07-.11-1.86-.34-2.36Zm2.43,13.46h24.95v1.23h-24.95v-1.23Zm22.63-13.38c-.23-.52-.68-.88-1.35-1.1s-1.73-.32-3.16-.32c-.11,0-.17-.11-.17-.32s.06-.32,.17-.32l2.65,.05c1.73,.07,3.22,.11,4.46,.11,1.05,0,2.41-.04,4.06-.11l2.88-.05c.11,0,.17,.11,.17,.32s-.06,.32-.17,.32c-1.39,0-2.42,.1-3.08,.29-.66,.2-1.1,.55-1.33,1.05-.23,.5-.34,1.29-.34,2.36V30.72c0,1.07,.11,1.87,.34,2.39,.23,.52,.67,.87,1.33,1.05,.66,.18,1.68,.27,3.08,.27,.11,0,.17,.11,.17,.32s-.06,.32-.17,.32c-1.2,0-2.16-.02-2.88-.05l-4.06-.05-4.46,.05c-.64,.04-1.52,.05-2.65,.05-.11,0-.17-.11-.17-.32s.06-.32,.17-.32c1.47,0,2.53-.09,3.19-.27,.66-.18,1.1-.52,1.33-1.02,.23-.5,.34-1.3,.34-2.41V6c0-1.07-.11-1.87-.34-2.39Z" fill="#a1a9d8"/>
      <path d="M161.45,33.13c.21,.5,.62,.84,1.24,1.02,.62,.18,1.63,.27,3.02,.27,.07,0,.11,.11,.11,.32s-.04,.32-.11,.32c-1.2,0-2.15-.02-2.82-.05l-4.06-.05-3.95,.05c-.72,.04-1.69,.05-2.94,.05-.08,0-.11-.11-.11-.32s.04-.32,.11-.32c1.35,0,2.35-.09,2.99-.27,.64-.18,1.08-.53,1.33-1.05,.24-.52,.37-1.31,.37-2.39V5.9c0-1.07-.12-1.86-.37-2.36-.25-.5-.69-.85-1.33-1.05-.64-.2-1.64-.29-2.99-.29-.08,0-.11-.11-.11-.32s.04-.32,.11-.32l2.94,.05c1.66,.07,2.97,.11,3.95,.11,1.09,0,2.46-.04,4.12-.11l2.77-.05c.07,0,.11,.11,.11,.32s-.04,.32-.11,.32c-1.35,0-2.34,.11-2.96,.32-.62,.21-1.04,.58-1.27,1.1-.23,.52-.34,1.31-.34,2.39V30.72c0,1.11,.1,1.91,.31,2.41Z" fill="#a1a9d8"/>
      <path d="M175.25,11.12c.71,1.02,1.58,1.9,2.6,2.63,1.02,.73,2.43,1.62,4.23,2.65,1.88,1.11,3.38,2.06,4.49,2.87,1.11,.8,2.06,1.8,2.85,2.98,.79,1.18,1.19,2.57,1.19,4.18,0,1.75-.48,3.33-1.44,4.74-.96,1.41-2.33,2.52-4.12,3.32-1.79,.8-3.87,1.21-6.24,1.21-1.51,0-2.99-.17-4.46-.51-1.47-.34-2.75-.83-3.84-1.47-.19-.11-.32-.23-.4-.38-.08-.14-.11-.36-.11-.64l-.56-7.67c-.04-.14,.05-.23,.25-.27,.21-.04,.33,.02,.37,.16,.9,2.72,2.16,5.02,3.78,6.92,1.62,1.89,3.73,2.84,6.32,2.84,1.77,0,3.25-.46,4.46-1.37,1.2-.91,1.81-2.4,1.81-4.48,0-1.57-.38-2.95-1.13-4.13-.75-1.18-1.67-2.17-2.77-2.98-1.09-.8-2.54-1.72-4.35-2.76-1.77-1.07-3.17-1.99-4.2-2.76-1.04-.77-1.91-1.72-2.62-2.84-.72-1.13-1.07-2.44-1.07-3.94,0-1.82,.52-3.38,1.55-4.66,1.03-1.29,2.39-2.24,4.06-2.87,1.67-.62,3.43-.94,5.28-.94,2.48,0,4.76,.41,6.83,1.23,.56,.25,.85,.57,.85,.96l.28,6.7c0,.14-.1,.22-.31,.24-.21,.02-.33-.04-.37-.19-.41-1.93-1.29-3.75-2.62-5.47-1.34-1.72-3.25-2.57-5.73-2.57-1.88,0-3.34,.54-4.37,1.61-1.04,1.07-1.55,2.43-1.55,4.07,0,1.36,.36,2.55,1.07,3.56Z" fill="#a1a9d8"/>
      <path d="M196.58,4.48c-1.32,1.23-2.3,3.21-2.94,5.92-.04,.07-.16,.11-.37,.11s-.31-.05-.31-.16c.15-1,.32-2.63,.51-4.88,.19-2.25,.28-3.95,.28-5.09,0-.18,.11-.27,.34-.27s.34,.09,.34,.27c0,.79,1.03,1.18,3.1,1.18,3.24,.11,7.02,.16,11.34,.16,2.22,0,4.57-.04,7.06-.11l3.84-.05c1.39,0,2.41-.09,3.05-.27,.64-.18,1.05-.54,1.24-1.07,.04-.14,.16-.21,.37-.21s.31,.07,.31,.21c-.11,1-.24,2.61-.37,4.82-.13,2.22-.2,3.99-.2,5.31,0,.11-.1,.16-.31,.16s-.31-.05-.31-.16c-.26-2.75-1.02-4.73-2.26-5.92-1.24-1.2-3.09-1.8-5.53-1.8-1.39,0-2.39,.08-2.99,.24-.6,.16-1.02,.46-1.24,.91-.23,.45-.34,1.19-.34,2.22V30.72c0,1.11,.12,1.91,.37,2.41,.24,.5,.72,.84,1.44,1.02,.71,.18,1.86,.27,3.44,.27,.07,0,.11,.11,.11,.32s-.04,.32-.11,.32c-1.32,0-2.35-.02-3.1-.05l-4.46-.05-4.35,.05c-.75,.04-1.81,.05-3.16,.05-.11,0-.17-.11-.17-.32s.06-.32,.17-.32c1.54,0,2.68-.09,3.42-.27,.73-.18,1.23-.53,1.5-1.05,.26-.52,.4-1.31,.4-2.39V5.9c0-1-.11-1.72-.34-2.17-.23-.45-.65-.74-1.27-.88-.62-.14-1.63-.21-3.02-.21-2.33,0-4.16,.62-5.47,1.85Z" fill="#a1a9d8"/>
      <path d="M234.49,33.37c-2.73-1.55-4.84-3.66-6.32-6.33-1.49-2.66-2.23-5.57-2.23-8.71,0-3.68,.98-6.83,2.94-9.46,1.96-2.63,4.47-4.6,7.53-5.92,3.07-1.32,6.2-1.98,9.4-1.98,3.57,0,6.72,.8,9.43,2.39,2.71,1.59,4.79,3.69,6.24,6.3,1.45,2.61,2.17,5.38,2.17,8.31,0,3.25-.9,6.24-2.71,8.95-1.81,2.72-4.22,4.86-7.25,6.43-3.03,1.57-6.31,2.36-9.85,2.36s-6.61-.78-9.34-2.33Zm17.81-.62c1.92-1.18,3.43-2.9,4.54-5.17,1.11-2.27,1.67-4.98,1.67-8.12,0-3.32-.61-6.29-1.83-8.9-1.22-2.61-2.97-4.65-5.25-6.11-2.28-1.46-4.92-2.2-7.93-2.2-3.91,0-6.96,1.26-9.14,3.78-2.18,2.52-3.27,6-3.27,10.43,0,3.4,.62,6.47,1.86,9.22,1.24,2.75,2.98,4.91,5.22,6.49,2.24,1.57,4.79,2.36,7.65,2.36,2.41,0,4.57-.59,6.49-1.77Z" fill="#a1a9d8"/>
      <path d="M288.08,3.27c1.69,1.25,2.54,2.95,2.54,5.09,0,1.93-.59,3.69-1.78,5.28-1.19,1.59-2.76,2.84-4.71,3.75-1.96,.91-4.05,1.37-6.27,1.37-.79,0-1.71-.04-2.77-.11v12.06c0,1.07,.11,1.87,.34,2.39,.23,.52,.65,.87,1.27,1.05,.62,.18,1.61,.27,2.96,.27,.11,0,.17,.11,.17,.32s-.06,.32-.17,.32c-1.17,0-2.09-.02-2.77-.05l-4.06-.05-3.95,.05c-.72,.04-1.67,.05-2.88,.05-.11,0-.17-.11-.17-.32s.06-.32,.17-.32c1.35,0,2.35-.09,2.99-.27,.64-.18,1.07-.53,1.3-1.05,.23-.52,.34-1.31,.34-2.39V5.9c0-1.07-.11-1.86-.34-2.36-.23-.5-.65-.85-1.27-1.05-.62-.2-1.61-.29-2.96-.29-.08,0-.11-.11-.11-.32s.04-.32,.11-.32l2.82,.05c1.66,.07,2.97,.11,3.95,.11,.79,0,1.54-.02,2.26-.05,.71-.04,1.33-.07,1.86-.11,1.43-.11,2.73-.16,3.89-.16,3.12,0,5.53,.63,7.22,1.88Zm-3.84,.78c-1.17-1.16-2.88-1.74-5.14-1.74-1.47,0-2.5,.26-3.1,.78-.6,.52-.9,1.49-.9,2.92v11.31c1.09,.11,2.2,.16,3.33,.16,2.71,0,4.65-.6,5.81-1.8,1.17-1.2,1.75-3.06,1.75-5.6,0-2.86-.58-4.87-1.75-6.03Zm5,26.51c-2.54-3-5.62-7.2-9.23-12.6l3.78-1.13c3.2,4.47,5.89,7.95,8.07,10.45,2.18,2.5,4.11,4.32,5.79,5.44,1.67,1.13,3.3,1.69,4.88,1.69,.11,0,.17,.11,.17,.32s-.06,.32-.17,.32h-8.07c-.94,0-2.68-1.5-5.22-4.5Z" fill="#a1a9d8"/>
      <path d="M298.94,3.19c-.92-.66-1.91-.99-2.96-.99-.11,0-.17-.11-.17-.32s.06-.32,.17-.32c.41,0,1.07,.04,1.98,.11l1.86,.05c1.24,0,2.95-.04,5.14-.11l3.27-.05c.07,0,.11,.11,.11,.32s-.04,.32-.11,.32c-1.81,0-2.71,.43-2.71,1.29,0,.39,.23,.89,.68,1.5l9.14,13.03-3.56,2.47-9.65-13.72c-1.21-1.72-2.27-2.9-3.19-3.56Zm16.68,14.77v12.76c0,1.11,.1,1.91,.31,2.41,.21,.5,.62,.84,1.24,1.02,.62,.18,1.61,.27,2.96,.27,.11,0,.17,.11,.17,.32s-.06,.32-.17,.32c-1.17,0-2.09-.02-2.77-.05l-4.06-.05-3.95,.05c-.68,.04-1.64,.05-2.88,.05-.08,0-.11-.11-.11-.32s.04-.32,.11-.32c1.35,0,2.35-.09,2.99-.27,.64-.18,1.07-.53,1.3-1.05,.23-.52,.34-1.31,.34-2.39v-12.28l4.52-.48Zm6.94-13.62c0-1.43-1.04-2.14-3.1-2.14-.08,0-.11-.11-.11-.32s.04-.32,.11-.32l2.77,.05c1.5,.07,2.88,.11,4.12,.11,.64,0,1.41-.04,2.31-.11l2.09-.05c.07,0,.11,.11,.11,.32s-.04,.32-.11,.32c-1.32,0-2.71,.54-4.18,1.61-1.47,1.07-2.79,2.5-3.95,4.29l-8.35,12.54-1.07-.86,8.01-11.95c.9-1.39,1.35-2.55,1.35-3.48Z" fill="#a1a9d8"/>
    </g>
  </g>
</svg>