<?xml version="1.0" encoding="UTF-8"?>
<svg id="_圖層_2" data-name="圖層 2" xmlns="http://www.w3.org/2000/svg" viewBox="0 0 559.9 108.47">
  <g id="content">
    <g>
      <path d="M0,32.34l1.98-2.58c1.85,1.94,4.26,3.61,7.83,3.61s6.41-2.19,6.41-5.63c0-3.65-2.54-6.06-9.8-6.06v-3.01c6.49,0,8.73-2.54,8.73-5.76,0-2.97-2.06-4.86-5.33-4.86-2.54,0-4.77,1.29-6.54,3.1l-2.11-2.45c2.36-2.24,5.16-3.83,8.81-3.83,5.29,0,9.16,2.79,9.16,7.78,0,3.7-2.28,6.06-5.59,7.27v.17c3.7,.9,6.66,3.61,6.66,7.83,0,5.46-4.51,8.73-10.1,8.73-4.94,0-8.04-2.06-10.1-4.3Z" fill="#231815"/>
      <path d="M27.26,32.46l1.94-2.58c1.81,1.81,4.08,3.48,7.74,3.48s6.71-2.71,6.71-6.97-2.58-6.79-6.54-6.79c-2.11,0-3.44,.69-5.25,1.89l-2.11-1.33,.99-14.75h15.35v3.35h-11.91l-.77,9.16c1.42-.77,2.79-1.29,4.69-1.29,5.25,0,9.5,3.01,9.5,9.63s-4.99,10.36-10.32,10.36c-4.9,0-7.91-2.06-10.02-4.17Z" fill="#231815"/>
      <path d="M55.47,20.64c0-10.28,3.74-15.78,9.85-15.78s9.8,5.55,9.8,15.78-3.7,16-9.8,16-9.85-5.72-9.85-16Zm15.82,0c0-8.99-2.41-12.64-5.98-12.64s-6.02,3.65-6.02,12.64,2.41,12.86,6.02,12.86,5.98-3.87,5.98-12.86Z" fill="#231815"/>
      <path d="M82.77,20.64c0-10.28,3.74-15.78,9.85-15.78s9.8,5.55,9.8,15.78-3.7,16-9.8,16-9.85-5.72-9.85-16Zm15.82,0c0-8.99-2.41-12.64-5.98-12.64s-6.02,3.65-6.02,12.64,2.41,12.86,6.02,12.86,5.98-3.87,5.98-12.86Z" fill="#231815"/>
      <path d="M122.51,1.16c-1.2,3.35-2.75,6.71-4.47,9.85v28.29h-3.05V15.91c-1.16,1.63-2.41,3.22-3.61,4.56-.34-.77-1.29-2.41-1.81-3.14,3.96-4.17,7.7-10.58,9.98-17.07l2.97,.9Zm-2.41,35.73c1.29-1.81,2.67-4.86,3.44-6.97l2.49,1.08c-.82,2.19-2.11,5.25-3.4,7.27l-2.54-1.38Zm18.02-25.93c.69-1.33,1.38-3.01,1.76-4.17h-17.24v-2.49h10.75c-.43-1.16-.95-2.62-1.5-3.74l2.97-.56c.65,1.29,1.42,3.1,1.85,4.3h11.09v2.49h-7.52l2.88,.73c-.69,1.16-1.33,2.41-1.94,3.44h8v2.62h-28.59v-2.62h7.7c-.26-1.03-.9-2.41-1.59-3.48l2.71-.6c.73,1.03,1.46,2.58,1.72,3.53l-2.15,.56h9.12Zm7.65,16.64h-12.38c2.02,1.25,4.34,2.97,5.55,4.26l-2.02,1.76c-1.29-1.33-3.96-3.4-6.11-4.82l1.55-1.2h-8.13V15.82h21.54v11.78Zm-3.14-9.63h-15.35v2.75h15.35v-2.75Zm0,4.73h-15.35v2.75h15.35v-2.75Zm-3.61,13.93c1.38,0,1.68-.39,1.76-3.23,.69,.43,1.85,.86,2.67,1.03-.34,3.83-1.25,4.77-4.08,4.77h-7.05c-3.83,0-4.82-.77-4.82-3.7v-5.68h2.97v5.68c0,.99,.26,1.12,2.15,1.12h6.41Zm5.2-7.27c1.89,2.32,4.17,5.5,5.12,7.57l-2.62,1.29c-.95-2.11-3.1-5.42-5.03-7.78l2.54-1.08Z" fill="#231815"/>
      <path d="M187.78,28.77l.56,2.75c-6.15,2.67-12.81,5.46-17.76,7.4l-1.46-3.14c3.1-1.08,7.52-2.71,12.17-4.52V14.1h-10.88v-3.14h10.88V.9h3.27V30.01l3.23-1.25Zm14.32,5.76c1.94,0,2.19-2.06,2.45-10.28,.86,.69,2.15,1.33,3.05,1.55-.34,8.81-1.12,11.87-5.25,11.87h-5.76c-3.7,0-4.77-1.25-4.77-5.72V.95h3.23V10.92h12v3.14h-12V31.99c0,2.15,.3,2.54,1.94,2.54h5.12Z" fill="#231815"/>
      <path d="M237.01,16.86v16.98h15.31v3.14h-33.58v-3.14h14.92V16.86h-17.33v-3.14h17.33V.26h3.35V13.72h17.59v3.14h-17.59Z" fill="#231815"/>
      <path d="M276.75,25.8c-.73-1.42-2.54-4.21-4-6.41v19.91h-3.14V20.3c-1.76,4.3-4,8.56-6.23,11.22-.3-.86-1.07-2.15-1.59-2.88,2.71-3.05,5.72-8.56,7.4-13.5h-6.79v-3.01h7.22V5.63c-1.98,.39-4,.73-5.89,.99-.17-.69-.6-1.81-.95-2.49,4.82-.77,10.45-2.02,13.67-3.44l1.94,2.54c-1.59,.65-3.57,1.25-5.63,1.72v7.18h6.32v3.01h-6.32v.77c1.33,1.5,5.03,6.23,5.93,7.4l-1.94,2.49Zm19.44,2.28v11.22h-3.14v-10.71l-14.02,2.32-.52-3.05,14.53-2.32V.09h3.14V25.03l5.03-.77,.47,2.92-5.5,.9Zm-8.3-5.72c-1.55-1.89-4.86-4.56-7.57-6.28l1.98-1.89c2.75,1.68,6.11,4.21,7.7,6.06l-2.11,2.11Zm.95-11.35c-1.33-1.81-4.3-4.34-6.84-6.11l2.02-1.85c2.58,1.63,5.59,4.08,7.01,5.89l-2.19,2.06Z" fill="#231815"/>
      <path d="M347.48,35.39v2.62h-38.27v-2.62h17.37v-3.7h-14.15v-2.58h14.15v-2.97h-12.86V12.9h12.86v-2.58h-17.16v-2.62h17.16v-3.1c-4.47,.3-9.03,.47-13.24,.56-.04-.77-.39-1.85-.69-2.54,9.93-.26,21.97-1.03,28.72-2.28l1.72,2.49c-3.66,.69-8.34,1.16-13.37,1.55v3.31h17.5v2.62h-17.5v2.58h13.46v13.24h-13.46v2.97h15.05v2.58h-15.05v3.7h17.76Zm-30.62-16.94h9.72v-3.22h-9.72v3.22Zm9.72,5.42v-3.27h-9.72v3.27h9.72Zm3.14-8.64v3.22h10.23v-3.22h-10.23Zm10.23,5.38h-10.23v3.27h10.23v-3.27Z" fill="#231815"/>
      <path d="M355.14,35.73c5.98-.26,15.52-.69,24.64-1.12l-.09,2.45c-8.86,.47-18.23,.99-24.29,1.25l-.26-2.58Zm22.06-28.72h2.67v2.19h-2.67v4.34h-8.43v1.94h9.03v2.02h-9.03v1.98h10.84v2.24h-24.17v-2.24h10.41v-1.98h-8.38v-2.02h8.38v-1.94h-8.08v-2.02h8.08v-2.32h-10.66v-2.19h10.66v-2.11h-7.91V2.88h7.91V.13h2.92V2.88h8.43V7.01Zm-.04,16.55v9.46h-19.13v-9.46h19.13Zm-16.51,3.83h5.55v-2.06h-5.55v2.06Zm0,3.83h5.55v-2.06h-5.55v2.06Zm8.13-24.21h5.63v-2.11h-5.63v2.11Zm5.63,2.19h-5.63v2.32h5.63v-2.32Zm.04,16.12h-5.5v2.06h5.5v-2.06Zm0,3.83h-5.5v2.06h5.5v-2.06Zm9.93-.26h-2.92V5.25h2.92V28.9ZM392.59,.95V35.35c0,1.98-.47,2.88-1.72,3.44-1.2,.47-3.22,.56-6.67,.56-.09-.82-.56-2.24-.99-3.1,2.49,.09,4.73,.09,5.33,.04,.73-.04,1.03-.26,1.03-.95V.95h3.01Z" fill="#231815"/>
      <path d="M432.84,34.4c2.32,0,5.59-.17,7.14-.47,.13,.9,.34,2.36,.52,3.05-1.12,.34-4.39,.39-7.7,.39h-18.92c-6.58,0-9.76-2.06-9.76-8.34V4.94h-1.76V2.06h36.03v2.88h-31.13V29.24c0,3.65,1.68,5.16,6.28,5.16h19.31Zm-22.19-14.23h11.18v11.01h-11.18v-11.01Zm2.67,8.69h5.72v-6.36h-5.72v6.36Zm17.93-11.61h-15.95V7.74h15.95v9.5Zm-3.14-7.22h-9.8v4.9h9.8v-4.9Zm8.17,21.16h-11.57v-11.01h11.57v11.01Zm-2.84-8.69h-5.98v6.36h5.98v-6.36Z" fill="#231815"/>
      <path d="M450.42,4.51h9.03c7.05,0,11.78,2.41,11.78,9.29s-4.69,9.76-11.61,9.76h-5.2v12.51h-4V4.51Zm8.69,15.82c5.55,0,8.17-2.02,8.17-6.54s-2.79-6.02-8.34-6.02h-4.51v12.56h4.69Z" fill="#231815"/>
      <path d="M481.04,4.51h4v28.16h13.76v3.4h-17.76V4.51Z" fill="#231815"/>
      <path d="M506.32,23.05V4.51h4V23.18c0,7.61,3.23,9.98,7.31,9.98s7.53-2.37,7.53-9.98V4.51h3.83V23.05c0,10.15-4.9,13.59-11.35,13.59s-11.31-3.44-11.31-13.59Z" fill="#231815"/>
      <path d="M538.14,31.95l2.41-2.71c2.24,2.37,5.42,3.91,8.69,3.91,4.13,0,6.62-2.06,6.62-5.16s-2.28-4.26-5.25-5.59l-4.56-1.98c-2.92-1.25-6.41-3.48-6.41-8.08,0-4.86,4.21-8.39,9.93-8.39,3.74,0,7.05,1.59,9.29,3.91l-2.11,2.54c-1.93-1.81-4.26-2.97-7.18-2.97-3.57,0-5.89,1.81-5.89,4.64,0,3.05,2.75,4.21,5.2,5.25l4.52,1.94c3.65,1.59,6.49,3.74,6.49,8.43,0,4.99-4.13,8.94-10.71,8.94-4.47,0-8.3-1.81-11.05-4.69Z" fill="#231815"/>
      <path d="M63.06,101.34l1.98-2.58c1.85,1.94,4.26,3.61,7.83,3.61s6.41-2.19,6.41-5.63c0-3.65-2.54-6.06-9.8-6.06v-3.01c6.49,0,8.73-2.54,8.73-5.76,0-2.97-2.06-4.86-5.33-4.86-2.54,0-4.77,1.29-6.54,3.1l-2.11-2.45c2.36-2.24,5.16-3.83,8.81-3.83,5.29,0,9.16,2.79,9.16,7.78,0,3.7-2.28,6.06-5.59,7.27v.17c3.7,.9,6.66,3.61,6.66,7.83,0,5.46-4.51,8.73-10.1,8.73-4.94,0-8.04-2.06-10.1-4.3Z" fill="#231815"/>
      <path d="M103.74,96.61h-13.76v-2.58l13.11-19.61h4.34v19.05h4.17v3.14h-4.17v8.47h-3.7v-8.47Zm0-3.14v-8.99c0-1.59,.13-4.21,.22-5.85h-.17c-.77,1.46-1.63,2.79-2.54,4.3l-7.18,10.53h9.67Z" fill="#231815"/>
      <path d="M118.53,89.64c0-10.28,3.74-15.78,9.85-15.78s9.8,5.55,9.8,15.78-3.7,16-9.8,16-9.85-5.72-9.85-16Zm15.82,0c0-8.99-2.41-12.64-5.98-12.64s-6.02,3.65-6.02,12.64,2.41,12.86,6.02,12.86,5.98-3.87,5.98-12.86Z" fill="#231815"/>
      <path d="M158.26,70.16c-1.2,3.35-2.75,6.71-4.47,9.85v28.29h-3.05v-23.39c-1.16,1.63-2.41,3.22-3.61,4.56-.34-.77-1.29-2.41-1.81-3.14,3.96-4.17,7.7-10.58,9.98-17.07l2.97,.9Zm-2.41,35.73c1.29-1.81,2.67-4.86,3.44-6.97l2.49,1.08c-.82,2.19-2.11,5.25-3.4,7.27l-2.54-1.38Zm18.02-25.93c.69-1.33,1.38-3.01,1.76-4.17h-17.24v-2.49h10.75c-.43-1.16-.95-2.62-1.5-3.74l2.97-.56c.65,1.29,1.42,3.1,1.85,4.3h11.09v2.49h-7.52l2.88,.73c-.69,1.16-1.33,2.41-1.94,3.44h8v2.62h-28.59v-2.62h7.7c-.26-1.03-.9-2.41-1.59-3.48l2.71-.6c.73,1.03,1.46,2.58,1.72,3.53l-2.15,.56h9.12Zm7.65,16.64h-12.38c2.02,1.25,4.34,2.97,5.55,4.26l-2.02,1.76c-1.29-1.33-3.96-3.4-6.11-4.82l1.55-1.2h-8.13v-11.78h21.54v11.78Zm-3.14-9.63h-15.35v2.75h15.35v-2.75Zm0,4.73h-15.35v2.75h15.35v-2.75Zm-3.61,13.93c1.38,0,1.68-.39,1.76-3.23,.69,.43,1.85,.86,2.67,1.03-.34,3.83-1.25,4.77-4.08,4.77h-7.05c-3.83,0-4.82-.77-4.82-3.7v-5.68h2.97v5.68c0,.99,.26,1.12,2.15,1.12h6.41Zm5.2-7.27c1.89,2.32,4.17,5.5,5.12,7.57l-2.62,1.29c-.95-2.11-3.1-5.42-5.03-7.78l2.54-1.08Z" fill="#231815"/>
      <path d="M213.21,84.87v5.85h15.01v2.92h-15.01v10.49h16.94v2.97h-36.94v-2.97h16.68v-10.49h-14.75v-2.92h14.75v-5.85h-9.29v-2.37c-2.19,1.2-4.51,2.28-6.84,3.1-.47-.86-1.33-2.11-2.15-2.88,8-2.62,15.91-7.65,19.99-14.02l2.92,1.38c-.3,.47-.69,1.03-1.07,1.55,4.26,4.56,11.82,9.03,18.36,11.09-.77,.64-1.76,1.93-2.24,2.75-2.24-.82-4.6-1.94-6.92-3.27v2.67h-9.46Zm-11.78,9.72c1.63,2.41,3.4,5.63,4.08,7.7l-2.79,1.16c-.6-1.98-2.32-5.38-3.96-7.78l2.67-1.07Zm20.73-12.69c-3.87-2.28-7.65-5.16-10.45-8.08-2.84,3.1-6.28,5.85-10.06,8.08h20.51Zm-5.03,20.6c1.5-2.11,3.44-5.5,4.47-7.91l3.05,1.16c-1.59,2.71-3.57,5.76-5.12,7.78l-2.41-1.03Z" fill="#231815"/>
      <path d="M252.47,70.2c-1.29,3.23-2.84,6.45-4.6,9.46v28.64h-3.14v-23.78c-1.42,1.98-2.97,3.74-4.47,5.29-.34-.73-1.33-2.37-1.98-3.14,4.43-4.21,8.6-10.75,11.05-17.46l3.14,.99Zm24.94,31.73v3.31h-26.49v-3.31h26.49Zm-1.85-22.27h-22.23v-3.31h22.23v3.31Z" fill="#231815"/>
      <path d="M311.08,102.71c4.51,1.16,9.2,2.62,12.21,3.74l-2.79,1.98c-2.92-1.29-8-2.92-13.07-4.3l1.68-1.42h-9.89l2.11,1.29c-3.57,1.89-9.33,3.53-13.93,4.3-.43-.56-1.33-1.59-1.89-2.15,4.21-.69,9.37-2.11,12.34-3.44h-6.75v-13.72h27.48v13.72h-7.48Zm-22.06-24.81h-2.71v-5.89h16.9c-.34-.86-.77-1.68-1.2-2.45l3.1-.73c.6,.95,1.25,2.11,1.68,3.18h16v5.89h-3.01v-3.31h-30.53v2.32h13.72v2.02h-5.68v2.06h5.07v1.89h-5.07v1.98l5.89-.39-.04,2.19c-5.76,.43-11.65,.82-15.82,1.12l-.26-2.37c2.06-.09,4.64-.21,7.52-.39v-2.15h-5.03v-1.89h5.03v-2.06h-5.55v-1.03Zm5.16,15.01h21.2v-1.98h-21.2v1.98Zm0,3.91h21.2v-2.02h-21.2v2.02Zm0,3.96h21.2v-2.06h-21.2v2.06Zm19.87-18.02v2.84h3.91v-2.15h2.45v4.04h-15.22v-4.04h2.41v2.15h3.74v-2.84h-7.52v-1.89h1.55c-.47-.43-1.16-.86-1.63-1.08,1.72-1.46,2.97-3.22,3.7-4.77l2.37,.39c-.26,.6-.56,1.12-.9,1.68h10.66v1.89h-5.5v1.89h7.65v1.89h-7.65Zm-2.71-1.89v-1.89h-3.7c-.52,.65-1.08,1.29-1.72,1.89h5.42Z" fill="#231815"/>
      <path d="M368.83,71.06v37.41h-3.14v-1.98h-29.5v1.98h-3.05v-37.41h35.69Zm-3.14,32.55v-29.63h-29.5v29.63h29.5Zm-14.58-6.54c-4.47,.86-9.03,1.76-12.56,2.41l-.43-2.41c3.27-.52,8.04-1.38,12.86-2.24l.13,2.24Zm10.66-12.51c-1.08,4.04-2.71,7.57-4.77,10.54,.9,2.28,2.06,3.74,3.48,3.96,.6,.17,1.03-1.68,1.33-4.43,.52,.52,1.46,1.16,2.06,1.42-.56,4.69-2.02,6.41-4.26,5.55-1.85-.39-3.31-1.89-4.47-4.17-1.68,1.94-3.57,3.57-5.68,4.94-.39-.52-1.33-1.55-1.89-2.02,2.54-1.46,4.69-3.35,6.49-5.59-1.16-3.44-1.89-7.87-2.37-12.73h-13.16v-2.41h12.94c-.13-1.5-.26-3.01-.34-4.56h2.75c.09,1.55,.17,3.05,.26,4.56h9.37v2.41h-9.16c.34,3.7,.86,7.14,1.59,9.89,1.38-2.32,2.45-4.99,3.18-7.91l2.62,.56Zm-12.21,.17v8.34h-9.5v-8.34h9.5Zm-2.32,2.02h-4.94v4.3h4.94v-4.3Zm13.67-7.61c-.95-.95-2.92-2.28-4.6-3.01l1.5-1.59c1.68,.77,3.65,1.93,4.64,2.92l-1.55,1.68Z" fill="#231815"/>
      <path d="M391.32,71.88c-1.2,3.48-2.75,7.74-4.13,11.18,3.01,3.57,3.74,6.67,3.74,9.29,0,2.32-.52,4.17-1.63,4.99-.6,.47-1.38,.69-2.15,.82-.86,.09-1.93,.13-2.84,.04-.04-.77-.3-1.94-.77-2.71,.95,.04,1.76,.09,2.45,.04,.52-.04,.95-.17,1.25-.43,.69-.47,.9-1.68,.9-2.97,0-2.36-.73-5.29-3.7-8.73,1.2-3.1,2.41-6.79,3.27-9.67h-5.5v34.53h-2.79v-37.41h9.46l.47-.17,1.98,1.2Zm5.46,11.65c.6-.77,1.16-1.59,1.63-2.45-.95-1.07-2.41-2.36-3.83-3.44-.95,1.33-1.98,2.58-3.05,3.61-.43-.43-1.51-1.25-2.11-1.63,2.92-2.54,5.33-6.36,6.71-10.49l2.49,.56c-.3,.95-.65,1.81-1.03,2.71h4.51l.47-.09,1.63,.6c-1.2,5.38-3.48,9.89-6.28,13.29h12.43c-2.58-3.4-4.73-7.78-6.06-12.38l1.81-.47v-1.94h8.08l.52-.13,1.81,1.07c-1.29,3.53-3.48,7.27-5.72,9.8,1.85,2.84,4.04,5.2,6.49,6.62-.64,.52-1.46,1.5-1.89,2.24-1.76-1.16-3.35-2.75-4.86-4.6v2.45h-13.29v-1.85c-1.42,1.55-2.97,2.88-4.56,3.87-.39-.6-1.12-1.5-1.72-1.98,2.02-1.2,4-3.05,5.72-5.29-2.19,.39-4.17,.69-6.15,1.03l-.39-2.24c1.89-.17,4-.43,6.58-.73l.04,1.85Zm2.24,15.09c-1.63,2.71-4.08,5.89-5.98,7.91-.6-.47-1.81-1.29-2.58-1.68,2.02-1.94,4.21-4.73,5.72-7.18l2.84,.95Zm6.45-3.1v12.81h-3.01v-12.81h-9.42v-2.67h21.84v2.67h-9.42Zm-9.03-20.85c-.21,.39-.47,.77-.69,1.12,1.29,.99,2.71,2.15,3.78,3.18,.65-1.33,1.2-2.79,1.68-4.3h-4.77Zm10.49-.95c.64,2.11,1.5,4.17,2.54,6.11,1.33-1.76,2.62-4.04,3.48-6.11h-6.02Zm4.08,23.65c2.15,2.28,4.9,5.42,6.28,7.27l-2.41,1.63c-1.38-1.89-4.08-5.16-6.19-7.52l2.32-1.38Z" fill="#231815"/>
      <path d="M462.66,73.73v2.75h-37.5v-2.75h17.76c-.43-1.29-.99-2.84-1.5-4.04l2.97-.77c.6,1.51,1.38,3.4,1.85,4.82h16.43Zm-2.37,31.09c0,1.68-.43,2.41-1.68,2.88-1.29,.39-3.44,.43-7.09,.43-.17-.77-.56-1.76-.99-2.45,2.67,.09,5.16,.04,5.85,0,.69-.04,.95-.21,.95-.9v-19.44h-8.69v2.79c0,.95,.13,1.29,.82,1.29h3.87c.65,0,1.76-.04,2.37-.17,.04,.73,.13,1.59,.21,2.28-.52,.22-1.55,.22-2.49,.22h-4.51c-2.62,0-3.14-1.12-3.14-3.66v-2.75h-4.86c-.64,4.47-2.67,6.84-8.6,8.17-.26-.69-.95-1.72-1.55-2.24,5.03-.9,6.71-2.62,7.31-5.93h-7.4v22.96h-3.05v-25.63h19.87c1.12-1.72,2.45-4.13,3.14-5.85l3.23,.73c-1.03,1.72-2.19,3.61-3.31,5.12h9.76v22.15Zm-23.31-28.21c.95,1.5,2.15,3.53,2.71,4.77l-2.75,1.12c-.6-1.25-1.76-3.4-2.67-4.99l2.71-.9Zm1.72,26.27v1.98h-2.79v-11.74h15.69v9.76h-12.9Zm0-7.35v4.99h10.23v-4.99h-10.23Z" fill="#231815"/>
      <path d="M508.24,70.85v37.5h-3.1v-1.68h-29.67v1.68h-2.97v-37.5h35.73Zm-3.1,33.07v-30.27h-29.67v30.27h29.67Zm-1.68-16.47h-6.75c2.54,1.85,5.12,4,6.62,5.55l-1.93,1.63c-1.72-2.02-5.33-5.03-8.47-7.18h-6.24c-.77,1.08-1.68,2.06-2.62,2.97h11.91v.99c-.17,3.18-.34,4.64-.9,5.25-.43,.47-.99,.69-1.93,.73-.65,.04-2.06,.09-3.4-.04-.09-.56-.3-1.38-.6-1.89,1.38,.13,2.62,.13,3.05,.13s.73-.04,.95-.3c.21-.26,.34-1.03,.43-2.79h-7.83v6.32c0,1.12,.39,1.33,2.49,1.33h7.53c1.5,0,1.81-.47,1.98-3.44,.6,.39,1.55,.73,2.28,.86-.3,3.78-1.12,4.69-3.96,4.69h-8c-3.83,0-4.94-.6-4.94-3.4v-7.52c-1.55,1.33-3.31,2.54-5.25,3.53-.34-.52-1.2-1.68-1.76-2.19,2.88-1.29,5.25-3.05,7.22-5.2h-6.02v-2.15h7.7c.64-.9,1.2-1.81,1.72-2.84h-7.4v-2.11h8.3c.69-1.76,1.2-3.65,1.63-5.72l2.67,.3c-.43,1.98-.95,3.74-1.5,5.42h4.39c.86-1.46,1.81-3.48,2.32-4.99l2.54,.77c-.77,1.42-1.59,2.97-2.37,4.21h4.51v2.11h-12.25c-.47,.99-.9,1.94-1.46,2.84h15.35v2.15Zm-20.38-7.27c-.34-1.12-1.33-2.75-2.37-3.87l2.06-.82c1.08,1.12,2.06,2.67,2.45,3.78l-2.15,.9Z" fill="#231815"/>
    </g>
  </g>
</svg>