<?xml version="1.0" encoding="UTF-8"?>
<svg id="_圖層_2" data-name="圖層 2" xmlns="http://www.w3.org/2000/svg" viewBox="0 0 301.03 15.31">
  <g id="content">
    <g opacity=".6">
      <g>
        <path d="M12.81,14.41c-.9,.31-2.69,.81-4.79,.81-2.36,0-4.31-.57-5.84-1.96C.83,12.04,0,10.06,0,7.75,.02,3.32,3.22,.09,8.45,.09c1.81,0,3.22,.37,3.89,.68l-.49,1.56c-.83-.35-1.88-.64-3.45-.64C4.61,1.69,2.13,3.94,2.13,7.66s2.39,5.98,6.02,5.98c1.32,0,2.22-.18,2.69-.4v-4.42h-3.17v-1.54h5.14v7.13Z" fill="#fff"/>
        <path d="M30.39,7.5c0,5.1-3.27,7.81-7.25,7.81s-7.02-3.04-7.02-7.53c0-4.71,3.08-7.79,7.25-7.79s7.02,3.1,7.02,7.5Zm-12.11,.24c0,3.17,1.81,6.01,4.98,6.01s5-2.79,5-6.16c0-2.95-1.62-6.03-4.98-6.03s-5,2.93-5,6.18Z" fill="#fff"/>
        <path d="M34.17,.24h2.02V13.47h6.67v1.61h-8.69V.24Z" fill="#fff"/>
        <path d="M46.26,.44c1.23-.18,2.69-.31,4.29-.31,2.9,0,4.96,.64,6.32,1.85,1.39,1.21,2.2,2.93,2.2,5.32s-.79,4.4-2.25,5.76c-1.46,1.39-3.87,2.13-6.9,2.13-1.44,0-2.64-.07-3.66-.18V.44Zm2.02,13.11c.51,.09,1.25,.11,2.04,.11,4.31,0,6.65-2.29,6.65-6.29,.02-3.5-2.06-5.72-6.32-5.72-1.04,0-1.83,.09-2.36,.2V13.55Z" fill="#fff"/>
        <path d="M70.93,8.12h-6.07v5.35h6.76v1.61h-8.78V.24h8.43V1.85h-6.42V6.53h6.07v1.58Z" fill="#fff"/>
        <path d="M75.4,15.07V.24h2.2l5,7.5c1.16,1.74,2.06,3.3,2.8,4.82l.05-.02c-.19-1.98-.23-3.78-.23-6.09V.24h1.9V15.07h-2.04l-4.96-7.53c-1.09-1.65-2.13-3.34-2.92-4.95l-.07,.02c.12,1.87,.16,3.65,.16,6.12v6.34h-1.9Z" fill="#fff"/>
        <path d="M97.87,.44c.88-.18,2.27-.31,3.68-.31,2.02,0,3.31,.33,4.29,1.08,.81,.57,1.3,1.45,1.3,2.62,0,1.43-1,2.68-2.64,3.26v.04c1.48,.35,3.22,1.52,3.22,3.72,0,1.28-.53,2.24-1.32,2.97-1.09,.95-2.85,1.39-5.4,1.39-1.39,0-2.46-.09-3.13-.18V.44Zm2.02,6.07h1.83c2.13,0,3.38-1.06,3.38-2.49,0-1.74-1.39-2.42-3.43-2.42-.93,0-1.46,.07-1.78,.13V6.51Zm0,7.11c.39,.07,.97,.09,1.69,.09,2.08,0,4.01-.73,4.01-2.88,0-2.02-1.83-2.86-4.03-2.86h-1.67v5.65Z" fill="#fff"/>
        <path d="M113.59,.24V9.02c0,3.32,1.55,4.73,3.64,4.73,2.32,0,3.8-1.45,3.8-4.73V.24h2.04V8.89c0,4.55-2.52,6.43-5.91,6.43-3.2,0-5.61-1.74-5.61-6.34V.24h2.04Z" fill="#fff"/>
        <path d="M127.44,12.74c.9,.53,2.22,.97,3.61,.97,2.06,0,3.27-1.03,3.27-2.53,0-1.39-.83-2.18-2.94-2.95-2.55-.86-4.12-2.11-4.12-4.2,0-2.31,2.02-4.03,5.05-4.03,1.6,0,2.76,.35,3.45,.73l-.56,1.56c-.51-.26-1.55-.7-2.96-.7-2.13,0-2.94,1.21-2.94,2.22,0,1.39,.95,2.07,3.1,2.86,2.64,.97,3.98,2.18,3.98,4.36,0,2.29-1.78,4.27-5.47,4.27-1.51,0-3.15-.42-3.98-.95l.51-1.61Z" fill="#fff"/>
        <path d="M142.32,.24V15.07h-2.02V.24h2.02Z" fill="#fff"/>
        <path d="M147,15.07V.24h2.2l5,7.5c1.16,1.74,2.06,3.3,2.8,4.82l.05-.02c-.19-1.98-.23-3.78-.23-6.09V.24h1.9V15.07h-2.04l-4.96-7.53c-1.09-1.65-2.13-3.34-2.92-4.95l-.07,.02c.12,1.87,.16,3.65,.16,6.12v6.34h-1.9Z" fill="#fff"/>
        <path d="M171.48,8.12h-6.07v5.35h6.76v1.61h-8.78V.24h8.43V1.85h-6.42V6.53h6.07v1.58Z" fill="#fff"/>
        <path d="M175.67,12.74c.9,.53,2.22,.97,3.61,.97,2.06,0,3.27-1.03,3.27-2.53,0-1.39-.83-2.18-2.94-2.95-2.55-.86-4.12-2.11-4.12-4.2,0-2.31,2.02-4.03,5.05-4.03,1.6,0,2.76,.35,3.45,.73l-.56,1.56c-.51-.26-1.55-.7-2.96-.7-2.13,0-2.94,1.21-2.94,2.22,0,1.39,.95,2.07,3.1,2.86,2.64,.97,3.98,2.18,3.98,4.36,0,2.29-1.78,4.27-5.47,4.27-1.51,0-3.15-.42-3.98-.95l.51-1.61Z" fill="#fff"/>
        <path d="M188.25,12.74c.9,.53,2.22,.97,3.61,.97,2.06,0,3.27-1.03,3.27-2.53,0-1.39-.83-2.18-2.94-2.95-2.55-.86-4.12-2.11-4.12-4.2,0-2.31,2.02-4.03,5.05-4.03,1.6,0,2.76,.35,3.45,.73l-.56,1.56c-.51-.26-1.55-.7-2.96-.7-2.13,0-2.94,1.21-2.94,2.22,0,1.39,.95,2.07,3.1,2.86,2.64,.97,3.98,2.18,3.98,4.36,0,2.29-1.78,4.27-5.47,4.27-1.51,0-3.15-.42-3.98-.95l.51-1.61Z" fill="#fff"/>
        <path d="M207.17,.44c1.23-.18,2.69-.31,4.28-.31,2.9,0,4.96,.64,6.32,1.85,1.39,1.21,2.2,2.93,2.2,5.32s-.79,4.4-2.25,5.76c-1.46,1.39-3.87,2.13-6.9,2.13-1.44,0-2.64-.07-3.66-.18V.44Zm2.02,13.11c.51,.09,1.25,.11,2.04,.11,4.31,0,6.65-2.29,6.65-6.29,.02-3.5-2.06-5.72-6.32-5.72-1.04,0-1.83,.09-2.36,.2V13.55Z" fill="#fff"/>
        <path d="M225.77,.24V15.07h-2.02V.24h2.02Z" fill="#fff"/>
        <path d="M230.18,12.74c.9,.53,2.22,.97,3.61,.97,2.06,0,3.27-1.03,3.27-2.53,0-1.39-.83-2.18-2.94-2.95-2.55-.86-4.12-2.11-4.12-4.2,0-2.31,2.02-4.03,5.05-4.03,1.6,0,2.76,.35,3.45,.73l-.56,1.56c-.51-.26-1.55-.7-2.96-.7-2.13,0-2.94,1.21-2.94,2.22,0,1.39,.95,2.07,3.1,2.86,2.64,.97,3.98,2.18,3.98,4.36,0,2.29-1.78,4.27-5.47,4.27-1.51,0-3.15-.42-3.98-.95l.51-1.61Z" fill="#fff"/>
        <path d="M246,1.87h-4.75V.24h11.56V1.87h-4.77V15.07h-2.04V1.87Z" fill="#fff"/>
        <path d="M255.7,.44c1.02-.2,2.48-.31,3.87-.31,2.15,0,3.54,.37,4.52,1.21,.79,.66,1.23,1.67,1.23,2.82,0,1.96-1.3,3.26-2.94,3.78v.07c1.2,.4,1.92,1.45,2.29,2.99,.51,2.07,.88,3.5,1.2,4.07h-2.08c-.25-.42-.6-1.69-1.04-3.54-.46-2.05-1.3-2.82-3.13-2.88h-1.9v6.43h-2.02V.44Zm2.02,6.76h2.06c2.15,0,3.52-1.12,3.52-2.82,0-1.91-1.46-2.75-3.59-2.77-.97,0-1.67,.09-1.99,.18V7.2Z" fill="#fff"/>
        <path d="M271.34,.24V15.07h-2.02V.24h2.02Z" fill="#fff"/>
        <path d="M286.93,14.59c-.74,.35-2.22,.7-4.12,.7-4.4,0-7.71-2.64-7.71-7.5s3.31-7.79,8.15-7.79c1.95,0,3.17,.4,3.71,.66l-.49,1.56c-.76-.35-1.85-.62-3.15-.62-3.66,0-6.09,2.22-6.09,6.12,0,3.63,2.2,5.96,6,5.96,1.23,0,2.48-.24,3.29-.62l.42,1.52Z" fill="#fff"/>
        <path d="M294.22,1.87h-4.75V.24h11.56V1.87h-4.77V15.07h-2.04V1.87Z" fill="#fff"/>
      </g>
    </g>
  </g>
</svg>