<?xml version="1.0" encoding="UTF-8"?>
<svg id="_圖層_2" data-name="圖層 2" xmlns="http://www.w3.org/2000/svg" viewBox="0 0 35.7 251.67">
  <g id="content">
    <g>
      <path d="M3.03,9.51c-.45,.21-.75,.59-.91,1.16s-.24,1.45-.24,2.65v4.8c0,2.37,.67,4.34,2.01,5.9,1.34,1.56,3.15,2.61,5.44,3.13,.11,0,.15,.1,.13,.31-.02,.21-.08,.31-.19,.31-3.15-.34-5.75-.51-7.83-.51-.29,0-.49-.07-.62-.2-.13-.13-.19-.35-.19-.65V.11c0-.08,.11-.11,.32-.11s.32,.04,.32,.11c0,1.35,.09,2.35,.27,2.99,.18,.64,.53,1.07,1.05,1.3,.52,.23,1.31,.34,2.39,.34H29.81c1.07,0,1.86-.11,2.36-.34,.5-.23,.85-.66,1.05-1.3,.2-.64,.29-1.64,.29-2.99,0-.08,.11-.11,.32-.11s.32,.04,.32,.11l-.05,2.82c-.07,1.66-.11,2.99-.11,4.01s.04,2.35,.11,4.01l.05,2.82c0,.07-.11,.11-.32,.11s-.32-.04-.32-.11c0-1.35-.1-2.34-.29-2.96-.2-.62-.55-1.04-1.07-1.27-.52-.23-1.31-.34-2.39-.34H5.2c-1,0-1.72,.1-2.17,.31Z" fill="#a1a9d8"/>
      <path d="M2.57,37.79c-.5,.21-.84,.62-1.02,1.24-.18,.62-.27,1.63-.27,3.02,0,.07-.11,.11-.32,.11s-.32-.04-.32-.11c0-1.2,.02-2.14,.05-2.82l.05-4.06-.05-3.95c-.04-.72-.05-1.69-.05-2.94,0-.08,.11-.11,.32-.11s.32,.04,.32,.11c0,1.35,.09,2.35,.27,2.99,.18,.64,.53,1.08,1.05,1.33,.52,.24,1.31,.37,2.39,.37H29.81c1.07,0,1.86-.12,2.36-.37,.5-.25,.85-.69,1.05-1.33,.2-.64,.29-1.64,.29-2.99,0-.08,.11-.11,.32-.11s.32,.04,.32,.11l-.05,2.94c-.07,1.66-.11,2.97-.11,3.95,0,1.09,.04,2.46,.11,4.12l.05,2.77c0,.07-.11,.11-.32,.11s-.32-.04-.32-.11c0-1.35-.11-2.34-.32-2.96s-.58-1.04-1.1-1.27c-.52-.23-1.31-.34-2.39-.34H4.99c-1.11,0-1.91,.1-2.41,.31Z" fill="#a1a9d8"/>
      <path d="M.96,43.91c.21,0,.32,.06,.32,.17,0,1.39,.09,2.41,.27,3.05,.18,.64,.53,1.08,1.05,1.33,.52,.24,1.31,.37,2.39,.37H29.81c1.07,0,1.86-.11,2.36-.34,.5-.23,.85-.65,1.05-1.27,.2-.62,.29-1.61,.29-2.96,0-.11,.11-.17,.32-.17s.32,.06,.32,.17v23.03c0,.38-.16,.56-.48,.56l-6.75,.11c-.11,0-.17-.1-.19-.31-.02-.21,.03-.33,.13-.37,1.97-.26,3.47-1,4.5-2.2,1.04-1.2,1.55-2.78,1.55-4.74v-2.88c0-1.62-.22-2.72-.67-3.3-.45-.58-1.28-.87-2.49-.87H5.2c-1.14,0-1.98,.16-2.49,.48-.52,.32-.88,.93-1.1,1.83s-.32,2.33-.32,4.29c0,.07-.11,.11-.32,.11s-.32-.04-.32-.11c0-1.54,.02-2.75,.05-3.61l.05-5.31-.05-3.95c-.04-.72-.05-1.69-.05-2.93,0-.11,.11-.17,.32-.17Zm14.77,19.08c.73-.98,1.1-2.54,1.1-4.68v-7.17h1.23v7.34c0,2.03,.32,3.53,.97,4.49,.64,.96,1.61,1.44,2.89,1.44,.07,0,.11,.11,.11,.34s-.04,.34-.11,.34l-4.5-.06c-1.07,0-1.88,.02-2.41,.06l-2.68,.06c-.07,0-.11-.11-.11-.34s.04-.34,.11-.34c1.54,0,2.67-.49,3.4-1.47Z" fill="#a1a9d8"/>
      <path d="M.96,70.21c.21,0,.32,.06,.32,.17,0,1.35,.09,2.34,.27,2.96,.18,.62,.53,1.04,1.05,1.27,.52,.23,1.31,.34,2.39,.34H29.81c1.07,0,1.86-.11,2.36-.34,.5-.23,.85-.65,1.05-1.27,.2-.62,.29-1.61,.29-2.96,0-.11,.11-.17,.32-.17s.32,.06,.32,.17v23.03c0,.38-.16,.56-.48,.56l-6.75,.11c-.11,0-.17-.1-.19-.31-.02-.21,.03-.33,.13-.37,1.97-.26,3.47-1,4.5-2.2,1.04-1.2,1.55-2.79,1.55-4.74v-2.88c0-1.66-.23-2.77-.7-3.33-.46-.56-1.34-.85-2.63-.85H5.2c-1.29,0-2.16,.25-2.63,.76-.46,.51-.7,1.53-.7,3.08v3.72c0,2.11,.6,3.87,1.8,5.28,1.2,1.41,2.9,2.38,5.12,2.91,.07,0,.11,.07,.11,.23,0,.11-.03,.22-.08,.31-.05,.09-.1,.14-.13,.14-2.57-.38-4.99-.56-7.24-.56-.29,0-.49-.06-.62-.17-.13-.11-.19-.34-.19-.68v-24.04c0-.11,.11-.17,.32-.17Zm15.41,19.67c.73-.92,1.1-2.38,1.1-4.37v-8.24h1.23v8.35c0,1.92,.31,3.33,.94,4.23,.62,.9,1.6,1.35,2.92,1.35,.07,0,.11,.1,.11,.31s-.04,.31-.11,.31l-4.5-.06-2.41,.06c-1.14,.07-2.04,.11-2.68,.11-.07,0-.11-.11-.11-.34s.04-.34,.11-.34c1.54,0,2.67-.46,3.4-1.38Z" fill="#a1a9d8"/>
      <path d="M24.58,115.87c-1.02,.71-1.9,1.58-2.63,2.6-.73,1.02-1.62,2.43-2.65,4.23-1.11,1.88-2.06,3.38-2.87,4.49-.8,1.11-1.8,2.06-2.98,2.85-1.18,.79-2.57,1.18-4.18,1.18-1.75,0-3.33-.48-4.74-1.44-1.41-.96-2.52-2.33-3.32-4.12s-1.21-3.87-1.21-6.24c0-1.51,.17-2.99,.51-4.46,.34-1.47,.83-2.75,1.47-3.84,.11-.19,.23-.32,.38-.4,.14-.08,.36-.11,.64-.11l7.67-.56c.14-.04,.23,.05,.27,.25,.04,.21-.02,.33-.16,.37-2.72,.9-5.02,2.16-6.92,3.78-1.89,1.62-2.84,3.72-2.84,6.32,0,1.77,.46,3.25,1.37,4.46,.91,1.2,2.4,1.81,4.48,1.81,1.57,0,2.95-.38,4.13-1.13,1.18-.75,2.17-1.67,2.98-2.77,.8-1.09,1.72-2.54,2.76-4.35,1.07-1.77,1.99-3.17,2.76-4.21,.77-1.04,1.72-1.91,2.84-2.62,1.13-.72,2.44-1.07,3.94-1.07,1.82,0,3.38,.52,4.66,1.55,1.29,1.03,2.24,2.39,2.87,4.06,.62,1.67,.94,3.43,.94,5.28,0,2.48-.41,4.76-1.23,6.83-.25,.56-.57,.85-.96,.85l-6.7,.28c-.14,0-.22-.1-.24-.31-.02-.21,.04-.33,.19-.37,1.93-.41,3.75-1.29,5.47-2.62,1.72-1.34,2.57-3.25,2.57-5.73,0-1.88-.54-3.34-1.61-4.37-1.07-1.04-2.43-1.55-4.07-1.55-1.36,0-2.55,.36-3.56,1.07Z" fill="#a1a9d8"/>
      <path d="M31.23,137.21c-1.23-1.32-3.21-2.3-5.92-2.93-.07-.04-.11-.16-.11-.37s.05-.31,.16-.31c1,.15,2.63,.32,4.88,.51,2.25,.19,3.95,.28,5.09,.28,.18,0,.27,.11,.27,.34s-.09,.34-.27,.34c-.79,0-1.18,1.03-1.18,3.1-.11,3.24-.16,7.02-.16,11.34,0,2.22,.04,4.57,.11,7.06l.05,3.84c0,1.39,.09,2.41,.27,3.05,.18,.64,.54,1.05,1.07,1.24,.14,.04,.21,.16,.21,.37s-.07,.31-.21,.31c-1-.11-2.61-.24-4.82-.37-2.22-.13-3.99-.2-5.31-.2-.11,0-.16-.1-.16-.31s.05-.31,.16-.31c2.75-.26,4.73-1.02,5.92-2.26,1.2-1.24,1.8-3.09,1.8-5.53,0-1.39-.08-2.39-.24-2.99-.16-.6-.46-1.02-.91-1.24-.45-.23-1.19-.34-2.22-.34H4.99c-1.11,0-1.91,.12-2.41,.37-.5,.24-.84,.72-1.02,1.44-.18,.71-.27,1.86-.27,3.44,0,.07-.11,.11-.32,.11s-.32-.04-.32-.11c0-1.32,.02-2.35,.05-3.1l.05-4.46-.05-4.35c-.04-.75-.05-1.81-.05-3.16,0-.11,.11-.17,.32-.17s.32,.06,.32,.17c0,1.54,.09,2.68,.27,3.42,.18,.73,.53,1.23,1.05,1.5,.52,.26,1.31,.4,2.39,.4H29.81c1,0,1.72-.11,2.17-.34,.45-.23,.74-.65,.88-1.27,.14-.62,.21-1.63,.21-3.02,0-2.33-.62-4.16-1.85-5.48Z" fill="#a1a9d8"/>
      <path d="M17.74,184.28H4.99c-1.11,0-1.91,.1-2.41,.31-.5,.21-.84,.62-1.02,1.24-.18,.62-.27,1.61-.27,2.96,0,.11-.11,.17-.32,.17s-.32-.06-.32-.17c0-1.17,.02-2.09,.05-2.77l.05-4.06-.05-3.95c-.04-.68-.05-1.64-.05-2.88,0-.08,.11-.11,.32-.11s.32,.04,.32,.11c0,1.35,.09,2.35,.27,2.99,.18,.64,.53,1.07,1.05,1.3,.52,.23,1.31,.34,2.39,.34h12.28l.48,4.52Zm13.62,6.94c1.43,0,2.14-1.04,2.14-3.1,0-.08,.11-.11,.32-.11s.32,.04,.32,.11l-.05,2.77c-.07,1.5-.11,2.88-.11,4.12,0,.64,.04,1.41,.11,2.31l.05,2.09c0,.08-.11,.11-.32,.11s-.32-.04-.32-.11c0-1.32-.54-2.71-1.61-4.18-1.07-1.47-2.5-2.79-4.29-3.95l-12.54-8.35,.86-1.07,11.95,8.02c1.39,.9,2.55,1.35,3.48,1.35Zm1.15-23.62c.66-.92,.99-1.91,.99-2.96,0-.11,.11-.17,.32-.17s.32,.06,.32,.17c0,.41-.04,1.07-.11,1.98l-.05,1.86c0,1.24,.04,2.95,.11,5.14l.05,3.27c0,.08-.11,.11-.32,.11s-.32-.04-.32-.11c0-1.81-.43-2.71-1.29-2.71-.39,0-.89,.23-1.5,.68l-13.03,9.14-2.47-3.56,13.72-9.65c1.72-1.2,2.9-2.27,3.56-3.19Z" fill="#a1a9d8"/>
      <path d="M3.03,207.56c-.45,.21-.75,.59-.91,1.16s-.24,1.45-.24,2.65v4.8c0,2.37,.67,4.34,2.01,5.9,1.34,1.56,3.15,2.6,5.44,3.13,.11,0,.15,.1,.13,.31-.02,.21-.08,.31-.19,.31-3.15-.34-5.75-.51-7.83-.51-.29,0-.49-.07-.62-.2-.13-.13-.19-.35-.19-.65v-26.3c0-.08,.11-.11,.32-.11s.32,.04,.32,.11c0,1.35,.09,2.35,.27,2.99,.18,.64,.53,1.07,1.05,1.3,.52,.23,1.31,.34,2.39,.34H29.81c1.07,0,1.86-.11,2.36-.34,.5-.23,.85-.66,1.05-1.3,.2-.64,.29-1.64,.29-2.99,0-.08,.11-.11,.32-.11s.32,.04,.32,.11l-.05,2.82c-.07,1.66-.11,2.99-.11,4.01s.04,2.35,.11,4.01l.05,2.82c0,.07-.11,.11-.32,.11s-.32-.04-.32-.11c0-1.35-.1-2.34-.29-2.96-.2-.62-.55-1.04-1.07-1.27-.52-.23-1.31-.34-2.39-.34H5.2c-1,0-1.72,.1-2.17,.31Z" fill="#a1a9d8"/>
      <path d="M.96,226.05c.21,0,.32,.06,.32,.17,0,1.35,.09,2.34,.27,2.96,.18,.62,.53,1.04,1.05,1.27,.52,.23,1.31,.34,2.39,.34H29.81c1.07,0,1.86-.11,2.36-.34,.5-.23,.85-.65,1.05-1.27,.2-.62,.29-1.61,.29-2.96,0-.11,.11-.17,.32-.17s.32,.06,.32,.17v23.03c0,.38-.16,.56-.48,.56l-6.75,.11c-.11,0-.17-.1-.19-.31-.02-.21,.03-.33,.13-.37,1.97-.26,3.47-1,4.5-2.2,1.04-1.21,1.55-2.79,1.55-4.74v-2.88c0-1.66-.23-2.77-.7-3.33-.46-.56-1.34-.85-2.63-.85H5.2c-1.29,0-2.16,.25-2.63,.76-.46,.51-.7,1.53-.7,3.08v3.73c0,2.11,.6,3.87,1.8,5.28,1.2,1.41,2.9,2.38,5.12,2.91,.07,0,.11,.07,.11,.23,0,.11-.03,.22-.08,.31-.05,.09-.1,.14-.13,.14-2.57-.38-4.99-.56-7.24-.56-.29,0-.49-.06-.62-.17-.13-.11-.19-.34-.19-.68v-24.04c0-.11,.11-.17,.32-.17Zm15.41,19.67c.73-.92,1.1-2.38,1.1-4.37v-8.24h1.23v8.35c0,1.92,.31,3.33,.94,4.23,.62,.9,1.6,1.35,2.92,1.35,.07,0,.11,.1,.11,.31s-.04,.31-.11,.31l-4.5-.06-2.41,.06c-1.14,.07-2.04,.11-2.68,.11-.07,0-.11-.11-.11-.34s.04-.34,.11-.34c1.54,0,2.67-.46,3.4-1.38Z" fill="#a1a9d8"/>
    </g>
  </g>
</svg>