<?xml version="1.0" encoding="UTF-8"?>
<svg id="_圖層_2" data-name="圖層 2" xmlns="http://www.w3.org/2000/svg" viewBox="0 0 338.84 32.28">
  <g id="content">
    <g>
      <g>
        <path d="M31.15,28.88v2.14H0v-2.14H14.14v-3.01H2.63v-2.1H14.14v-2.42H3.68V10.57H14.14v-2.1H.18v-2.14H14.14V3.82c-3.64,.25-7.35,.38-10.78,.46-.03-.63-.31-1.51-.56-2.07,8.09-.21,17.89-.84,23.38-1.85l1.4,2.03c-2.98,.56-6.79,.94-10.89,1.26v2.7h14.25v2.14h-14.25v2.1h10.96v10.78h-10.96v2.42h12.25v2.1h-12.25v3.01h14.46ZM6.23,15.09h7.91v-2.62H6.23v2.62Zm7.91,4.41v-2.66H6.23v2.66h7.91Zm2.56-7.04v2.62h8.33v-2.62h-8.33Zm8.33,4.38h-8.33v2.66h8.33v-2.66Z" fill="#231815"/>
        <path d="M37.38,29.16c4.87-.21,12.64-.56,20.06-.91l-.07,2c-7.21,.38-14.84,.81-19.78,1.02l-.21-2.1ZM55.34,5.78h2.17v1.79h-2.17v3.54h-6.86v1.58h7.35v1.65h-7.35v1.61h8.82v1.82h-19.67v-1.82h8.47v-1.61h-6.83v-1.65h6.83v-1.58h-6.58v-1.65h6.58v-1.89h-8.68v-1.79h8.68v-1.71h-6.44v-1.65h6.44V.17h2.38V2.42h6.86v3.36Zm-.04,13.48v7.7h-15.58v-7.7h15.58Zm-13.44,3.12h4.52v-1.68h-4.52v1.68Zm0,3.12h4.52v-1.68h-4.52v1.68Zm6.62-19.71h4.59v-1.71h-4.59v1.71Zm4.59,1.79h-4.59v1.89h4.59v-1.89Zm.04,13.13h-4.48v1.68h4.48v-1.68Zm0,3.12h-4.48v1.68h4.48v-1.68Zm8.09-.21h-2.38V4.34h2.38V23.59ZM67.87,.84V28.84c0,1.61-.38,2.35-1.4,2.8-.98,.39-2.63,.46-5.43,.46-.07-.67-.46-1.82-.81-2.52,2.03,.07,3.85,.07,4.34,.03,.6-.03,.84-.21,.84-.77V.84h2.45Z" fill="#231815"/>
        <path d="M149.28,28.49v2.52h-31.01v-2.52h14.18v-8.89h-10.4v-2.52h10.4v-7.63h-8.23c-1.12,2.21-2.35,4.13-3.64,5.71-.52-.42-1.68-1.19-2.38-1.54,2.87-3.08,5.11-7.91,6.48-12.88l2.63,.56c-.56,1.93-1.19,3.82-1.96,5.6h7.11V.17h2.66V6.9h12.53v2.56h-12.53v7.63h11.24v2.52h-11.24v8.89h14.18Z" fill="#231815"/>
        <path d="M162.02,15.79c-1.44-.98-4.31-2.66-6.44-3.78l1.44-1.89c2.03,1.02,4.94,2.56,6.48,3.54l-1.47,2.14Zm-5.6,14.11c1.89-2.63,4.59-7.25,6.62-11.2l1.89,1.72c-1.82,3.68-4.27,8.02-6.34,11.24l-2.17-1.75Zm7.35-23.59c-1.44-1.02-4.34-2.7-6.48-3.85l1.44-1.85c2.14,1.01,5.08,2.62,6.55,3.6l-1.5,2.1Zm14,6.55v5.74h7.32v13.34h-2.48v-1.3h-12.43v1.47h-2.42v-13.51h7.53v-5.74h-10.08v-2.52h10.08V4.66c-2.56,.39-5.18,.7-7.67,.95-.14-.63-.49-1.61-.73-2.21,6.02-.63,13.06-1.71,16.94-3.12l2.03,2.03c-2.28,.77-5.08,1.44-8.09,1.96v6.06h9.59v2.52h-9.59Zm4.83,8.16h-12.43v7.21h12.43v-7.21Z" fill="#231815"/>
        <path d="M203.07,.6c-.59,1.71-1.23,3.64-1.82,5.15h5.81V28.46h-9.73v2.77h-2.38V5.74h3.92c.52-1.68,1.16-4.03,1.4-5.67l2.8,.53Zm1.61,7.49h-7.35v7.32h7.35v-7.32Zm0,18.03v-8.4h-7.35v8.4h7.35Zm19.5-19.15c-.56,15.96-1.02,21.35-2.42,23.07-.77,.98-1.57,1.29-2.77,1.4-1.23,.14-3.22,.07-5.18-.04-.07-.77-.38-1.82-.88-2.56,2.28,.21,4.38,.21,5.18,.21,.7,0,1.08-.07,1.44-.52,1.16-1.23,1.68-6.55,2.14-20.48h-8.89c-.98,2.35-2.06,4.48-3.29,6.13-.46-.42-1.58-1.12-2.14-1.47,2.35-3.08,4.24-7.91,5.36-12.71l2.49,.6c-.42,1.71-.91,3.4-1.51,5.04h10.47v1.33Zm-7.74,15.79c-1.05-2.1-3.4-5.57-5.32-8.09l2.03-1.19c1.96,2.49,4.38,5.85,5.5,7.91l-2.21,1.37Z" fill="#231815"/>
        <path d="M243.88,9.63c-1.68,9.1-5.78,15.58-10.71,19.04-.38-.56-1.44-1.58-2.07-1.96,4.45-2.91,7.98-8.16,9.66-15.05h-8.54v-2.59h9.45l.53-.1,1.68,.67Zm16.56-1.26c-2.31,2.66-5.36,5.81-7.81,7.88,2.98,4.31,6.76,7.95,10.96,9.91-.59,.53-1.47,1.58-1.92,2.35-5.43-2.87-9.94-8.4-13.13-14.7v14.77c0,1.71-.42,2.56-1.43,3.01-1.05,.49-2.8,.56-5.46,.56-.1-.77-.56-2.07-.98-2.84,2,.07,3.82,.07,4.34,.07,.6-.04,.81-.21,.81-.81V.25h2.73V8.65c.77,1.92,1.72,3.85,2.8,5.67,2.35-2.17,5.08-5.25,6.76-7.63l2.34,1.68Z" fill="#231815"/>
        <path d="M300.51,19.85h-14.35v12.25h-2.66v-12.25h-14.14v-2.56h14.14V5.08h-12.32V2.52h27.37v2.56h-12.39v12.22h14.35v2.56Zm-24.61-13.06c1.44,2.52,2.87,5.81,3.33,7.88l-2.45,.84c-.49-2.06-1.82-5.46-3.15-8.02l2.28-.7Zm14.07,8.09c1.29-2.17,2.91-5.74,3.78-8.26l2.73,.77c-1.26,2.8-2.94,6.13-4.31,8.23l-2.21-.73Z" fill="#231815"/>
        <path d="M316.65,21.39c-.07-.6-.21-1.3-.35-2-6.96,1.02-8.05,1.26-8.68,1.61-.14-.56-.56-1.79-.84-2.48,.74-.18,1.5-1.02,2.56-2.31,.52-.6,1.64-2.03,2.87-3.89-3.57,.46-4.31,.6-4.8,.81-.14-.49-.56-1.72-.84-2.35,.59-.14,1.19-.88,1.86-1.93,.77-1.02,3.12-5.01,4.48-8.75l2.42,.98c-1.5,3.29-3.4,6.69-5.29,9.28l3.64-.35c.95-1.47,1.82-3.08,2.59-4.66l2.31,1.33c-2.24,4.03-5,8.05-7.81,11.31l5.04-.67c-.32-1.19-.67-2.42-1.05-3.47l2-.52c.84,2.42,1.75,5.57,2.03,7.42l-2.13,.63Zm-6.3,1.47c-.38,3.08-1.01,6.41-1.79,8.61-.46-.25-1.44-.6-2-.77,.84-2.17,1.37-5.32,1.68-8.19l2.1,.35Zm3.25-.42c.39,2.38,.77,5.43,.88,7.46l-2.07,.35c-.04-2-.38-5.11-.77-7.46l1.96-.35Zm3.12-.84c.7,1.75,1.43,4.1,1.75,5.6l-1.93,.63c-.28-1.54-1.01-3.92-1.64-5.71l1.82-.52Zm10.54-2.14c-1.26,5.29-4.31,9.03-7.84,11.03-.35-.56-1.02-1.44-1.51-1.86,2.66-1.33,5.15-4.06,6.41-7.46h-4.52v-2.17h5.53l.42-.1,1.51,.56Zm10.78-.56c-1.58,1.44-3.36,3.05-4.9,4.2,1.51,2.38,3.47,4.31,5.71,5.46-.56,.46-1.29,1.4-1.71,2.06-2.77-1.71-4.97-4.55-6.62-7.95v6.58c0,1.33-.28,2.03-1.23,2.45-.91,.42-2.38,.46-4.62,.46-.14-.74-.42-1.72-.77-2.42,1.64,.07,3.12,.07,3.54,.04,.46-.04,.59-.14,.59-.56v-13.13h-6.97V3.85h5.36c.49-1.19,.95-2.62,1.19-3.71l2.91,.59c-.49,1.05-1.01,2.17-1.47,3.12h7.88v12.25h-6.41v1.26c.42,1.4,.95,2.73,1.65,4.03,1.37-1.26,2.97-2.87,3.92-4.06l1.96,1.58Zm-14.53-9.94h10.89v-3.05h-10.89v3.05Zm0,5.08h10.89v-3.12h-10.89v3.12Z" fill="#231815"/>
      </g>
      <line x1="90.95" y1="32.28" x2="90.95" y2=".41" fill="none" stroke="#fff" stroke-miterlimit="10"/>
    </g>
  </g>
</svg>