<?xml version="1.0" encoding="UTF-8"?>
<svg id="_圖層_2" data-name="圖層 2" xmlns="http://www.w3.org/2000/svg" viewBox="0 0 410.61 108.69">
  <g id="content">
    <g>
      <path d="M18.66,28.98l.56,2.75c-6.15,2.67-12.81,5.46-17.76,7.4l-1.46-3.14c3.1-1.08,7.52-2.71,12.17-4.52V14.32H1.29v-3.14H12.17V1.12h3.27V30.23l3.23-1.25Zm14.32,5.76c1.94,0,2.19-2.06,2.45-10.28,.86,.69,2.15,1.33,3.05,1.55-.34,8.81-1.12,11.87-5.25,11.87h-5.76c-3.7,0-4.77-1.25-4.77-5.72V1.16h3.23V11.14h12v3.14h-12v17.93c0,2.15,.3,2.54,1.94,2.54h5.12Z" fill="#231815"/>
      <path d="M67.77,9.72v5.81h13.93v15.05c0,1.85-.43,2.79-1.81,3.35-1.46,.52-3.87,.56-7.52,.56-.13-.99-.69-2.28-1.12-3.18,2.92,.09,5.5,.09,6.23,.09,.77-.09,.99-.26,.99-.86v-11.87h-10.71v20.85h-3.22V18.66h-10.06v15.95h-3.18V15.52h13.24v-5.81h-17.42v-3.14h18.32c-.69-1.68-1.85-3.91-2.84-5.63l3.05-.95c1.29,1.98,2.75,4.69,3.35,6.36l-.56,.22h17.07v3.14h-17.76Z" fill="#231815"/>
      <path d="M107.63,26.01c-.73-1.42-2.54-4.21-4-6.41v19.91h-3.14V20.51c-1.76,4.3-4,8.56-6.23,11.22-.3-.86-1.07-2.15-1.59-2.88,2.71-3.05,5.72-8.56,7.4-13.5h-6.79v-3.01h7.22V5.85c-1.98,.39-4,.73-5.89,.99-.17-.69-.6-1.81-.95-2.49,4.82-.77,10.45-2.02,13.67-3.44l1.94,2.54c-1.59,.65-3.57,1.25-5.63,1.72v7.18h6.32v3.01h-6.32v.77c1.33,1.5,5.03,6.23,5.93,7.4l-1.94,2.49Zm19.44,2.28v11.22h-3.14v-10.71l-14.02,2.32-.52-3.05,14.53-2.32V.3h3.14V25.24l5.03-.77,.47,2.92-5.5,.9Zm-8.3-5.72c-1.55-1.89-4.86-4.56-7.57-6.28l1.98-1.89c2.75,1.68,6.11,4.21,7.7,6.06l-2.11,2.11Zm.95-11.35c-1.33-1.81-4.3-4.34-6.84-6.11l2.02-1.85c2.58,1.63,5.59,4.08,7.01,5.89l-2.19,2.06Z" fill="#231815"/>
      <path d="M161.12,9.2c-.47,1.38-.9,2.75-1.42,3.96h13.67v26.44h-3.27v-2.45h-21.93v2.45h-3.14V13.16h11.27c.39-1.25,.77-2.71,1.03-3.96h-17.2v-2.97h11.09c-.86-1.46-2.32-3.4-3.66-4.86l2.79-1.2c1.55,1.5,3.27,3.61,4.04,5.07l-1.85,.99h11.35c1.38-1.76,2.97-4.21,3.91-5.98l3.48,.9c-1.16,1.81-2.54,3.61-3.83,5.07h10.84v2.97h-17.2Zm8.99,6.79h-21.93v4.26h21.93v-4.26Zm0,6.84h-21.93v4.39h21.93v-4.39Zm0,11.48v-4.56h-21.93v4.56h21.93Z" fill="#231815"/>
      <path d="M192.21,7.87v8.9c0,6.54-.52,16.21-4.04,22.7-.56-.56-1.94-1.51-2.67-1.81,3.27-6.11,3.61-14.75,3.61-20.94V4.86h17.93c-.65-1.29-1.46-2.71-2.28-3.83l2.97-.99c1.08,1.46,2.24,3.31,2.97,4.82h14.1v3.01h-32.59Zm17.93,27.78h14.79v2.84h-32.51v-2.84h14.62v-6.36h-11.87v-2.79h11.87V9.59h3.1v12.56c3.48-2.62,5.55-6.75,6.45-11.82l2.88,.43c-.34,1.89-.86,3.65-1.5,5.29,2.54,2.06,5.46,4.64,6.97,6.32l-1.94,2.06c-1.33-1.59-3.78-3.91-6.11-5.93-1.2,2.24-2.71,4.08-4.51,5.55-.47-.47-1.55-1.33-2.24-1.81v4.26h12.17v2.79h-12.17v6.36Zm-8-24.98c-.3,1.85-.77,3.61-1.33,5.2,2.02,1.81,4.3,4.04,5.46,5.55l-1.94,2.06c-.95-1.33-2.75-3.31-4.56-4.99-1.16,2.45-2.71,4.52-4.6,6.15-.47-.52-1.72-1.42-2.36-1.81,3.53-2.79,5.59-7.18,6.41-12.51l2.92,.34Z" fill="#231815"/>
      <path d="M239.73,8.13c-1.63,2.02-3.44,3.83-5.29,5.29-.34-.6-1.33-1.89-1.98-2.49,3.61-2.58,7.05-6.67,9.12-10.88l2.84,.9c-.73,1.46-1.59,2.92-2.54,4.3h27.78v2.88h-29.93Zm31.3,17.41v2.88h-37.88v-2.88h6.58v-7.31h-5.16v-2.88h5.16v-4.73h2.88v4.73h4.47v-4.73h2.75v4.73h4.99v-4.73h2.75v4.73h4.73v-4.73h2.97v4.73h4.86v2.88h-4.86v7.31h5.76Zm-37.19,12.86c1.5-2.06,3.27-5.42,4.34-8.21l3.01,.77c-1.08,2.79-2.75,6.36-4.34,8.64l-3.01-1.2Zm8.77-12.86h4.47v-7.31h-4.47v7.31Zm5.72,5.59c.56,2.49,1.03,5.72,1.08,7.65l-3.14,.47c0-1.98-.39-5.29-.9-7.87l2.97-.26Zm1.5-12.9v7.31h4.99v-7.31h-4.99Zm7.31,12.56c1.2,2.45,2.36,5.72,2.79,7.74l-3.14,.65c-.39-2.02-1.5-5.33-2.58-7.87l2.92-.52Zm.43-12.56v7.31h4.73v-7.31h-4.73Zm8.38,11.74c1.59,2.58,3.57,6.11,4.51,8.21l-3.1,1.33c-.82-2.15-2.75-5.72-4.3-8.39l2.88-1.16Z" fill="#231815"/>
      <path d="M293.04,28.55c-4.69,1.89-9.63,3.87-13.46,5.33l-1.03-3.22c1.59-.52,3.53-1.16,5.68-1.98V13.85h-5.68v-3.1h5.68V.9h3.05V10.75h5.16v3.1h-5.16v13.76c1.68-.65,3.44-1.29,5.16-1.98l.6,2.92Zm13.12,7.31c1.29,.22,2.62,.26,4.08,.26,1.03,0,6.97,0,8.47-.04-.47,.69-.82,2.02-.95,2.84h-7.65c-6.24,0-10.84-1.16-13.72-7.01-1.2,3.14-2.92,5.68-5.16,7.7-.47-.56-1.63-1.5-2.37-1.98,3.87-2.97,5.81-7.78,6.49-14.15l2.97,.34c-.17,1.72-.47,3.35-.86,4.86,1.25,3.48,3.18,5.38,5.63,6.41v-13.63h-11.4v-2.71h26.14v2.71h-11.7v5.03h9.12v2.62h-9.12v6.75Zm8.81-20.17h-20.6V1.76h20.6V15.69Zm-3.1-11.52h-14.53v3.4h14.53v-3.4Zm0,5.63h-14.53v3.44h14.53v-3.44Z" fill="#231815"/>
      <path d="M340.99,11.95c-2.06,11.18-7.09,19.13-13.16,23.39-.47-.69-1.76-1.94-2.54-2.41,5.46-3.57,9.8-10.02,11.87-18.49h-10.49v-3.18h11.61l.64-.13,2.06,.82Zm20.34-1.55c-2.84,3.27-6.58,7.14-9.59,9.67,3.65,5.29,8.3,9.76,13.46,12.17-.73,.65-1.81,1.94-2.37,2.88-6.67-3.53-12.21-10.32-16.12-18.06v18.15c0,2.11-.52,3.14-1.76,3.7-1.29,.6-3.44,.69-6.71,.69-.13-.95-.69-2.54-1.2-3.48,2.45,.09,4.69,.09,5.33,.09,.73-.04,.99-.26,.99-.99V.43h3.35V10.75c.95,2.36,2.11,4.73,3.44,6.97,2.88-2.67,6.23-6.45,8.3-9.37l2.88,2.06Z" fill="#231815"/>
      <path d="M378.4,16.55v5.38c0,5.03-.69,12.13-4.3,16.9-.52-.65-1.85-1.68-2.58-2.06,3.35-4.39,3.74-10.36,3.74-14.88V13.67h34.7v2.88h-31.56Zm29.28-6.28h-32.16V1.98h3.14V7.4h11.09V.34h3.31V7.4h11.35V1.98h3.27V10.28Zm2.92,20.17h-14.1v9.16h-3.31v-9.16h-13.42v-2.88h13.42v-4.6h-11.27v-2.75h26.4v2.75h-11.83v4.6h14.1v2.88Z" fill="#231815"/>
      <path d="M84.15,71.28v37.41h-3.14v-1.98h-29.5v1.98h-3.05v-37.41h35.69Zm-3.14,32.55v-29.63h-29.5v29.63h29.5Zm-14.58-6.54c-4.47,.86-9.03,1.76-12.56,2.41l-.43-2.41c3.27-.52,8.04-1.38,12.86-2.24l.13,2.24Zm10.66-12.51c-1.08,4.04-2.71,7.57-4.77,10.54,.9,2.28,2.06,3.74,3.48,3.96,.6,.17,1.03-1.68,1.33-4.43,.52,.52,1.46,1.16,2.06,1.42-.56,4.69-2.02,6.41-4.26,5.55-1.85-.39-3.31-1.89-4.47-4.17-1.68,1.94-3.57,3.57-5.68,4.94-.39-.52-1.33-1.55-1.89-2.02,2.54-1.46,4.69-3.35,6.49-5.59-1.16-3.44-1.89-7.87-2.37-12.73h-13.16v-2.41h12.94c-.13-1.5-.26-3.01-.34-4.56h2.75c.09,1.55,.17,3.05,.26,4.56h9.37v2.41h-9.16c.34,3.7,.86,7.14,1.59,9.89,1.38-2.32,2.45-4.99,3.18-7.91l2.62,.56Zm-12.21,.17v8.34h-9.5v-8.34h9.5Zm-2.32,2.02h-4.94v4.3h4.94v-4.3Zm13.67-7.61c-.95-.95-2.92-2.28-4.6-3.01l1.5-1.59c1.68,.77,3.66,1.93,4.64,2.92l-1.55,1.68Z" fill="#231815"/>
      <path d="M106.64,72.1c-1.2,3.48-2.75,7.74-4.13,11.18,3.01,3.57,3.74,6.67,3.74,9.29,0,2.32-.52,4.17-1.63,4.99-.6,.47-1.38,.69-2.15,.82-.86,.09-1.93,.13-2.84,.04-.04-.77-.3-1.94-.77-2.71,.95,.04,1.76,.09,2.45,.04,.52-.04,.95-.17,1.25-.43,.69-.47,.9-1.68,.9-2.97,0-2.36-.73-5.29-3.7-8.73,1.2-3.1,2.41-6.79,3.27-9.67h-5.5v34.53h-2.79v-37.41h9.46l.47-.17,1.98,1.2Zm5.46,11.65c.6-.77,1.16-1.59,1.63-2.45-.95-1.07-2.41-2.36-3.83-3.44-.95,1.33-1.98,2.58-3.05,3.61-.43-.43-1.51-1.25-2.11-1.63,2.92-2.54,5.33-6.36,6.71-10.49l2.49,.56c-.3,.95-.65,1.81-1.03,2.71h4.51l.47-.09,1.63,.6c-1.2,5.38-3.48,9.89-6.28,13.29h12.43c-2.58-3.4-4.73-7.78-6.06-12.38l1.81-.47v-1.94h8.08l.52-.13,1.81,1.07c-1.29,3.53-3.48,7.27-5.72,9.8,1.85,2.84,4.04,5.2,6.49,6.62-.65,.52-1.46,1.5-1.89,2.24-1.76-1.16-3.35-2.75-4.86-4.6v2.45h-13.29v-1.85c-1.42,1.55-2.97,2.88-4.56,3.87-.39-.6-1.12-1.5-1.72-1.98,2.02-1.2,4-3.05,5.72-5.29-2.19,.39-4.17,.69-6.15,1.03l-.39-2.24c1.89-.17,4-.43,6.58-.73l.04,1.85Zm2.24,15.09c-1.63,2.71-4.08,5.89-5.98,7.91-.6-.47-1.81-1.29-2.58-1.68,2.02-1.94,4.21-4.73,5.72-7.18l2.84,.95Zm6.45-3.1v12.81h-3.01v-12.81h-9.42v-2.67h21.84v2.67h-9.42Zm-9.03-20.85c-.21,.39-.47,.77-.69,1.12,1.29,.99,2.71,2.15,3.78,3.18,.65-1.33,1.2-2.79,1.68-4.3h-4.77Zm10.49-.95c.65,2.11,1.5,4.17,2.54,6.11,1.33-1.76,2.62-4.04,3.48-6.11h-6.02Zm4.08,23.65c2.15,2.28,4.9,5.42,6.28,7.27l-2.41,1.63c-1.38-1.89-4.08-5.16-6.19-7.52l2.32-1.38Z" fill="#231815"/>
      <path d="M153.55,70.59c-1.29,3.14-2.88,6.28-4.69,9.2v28.72h-3.14v-24.12c-1.59,2.11-3.31,4.04-5.07,5.68-.3-.77-1.33-2.45-1.94-3.23,4.73-4.08,9.12-10.49,11.65-17.24l3.18,.99Zm14.4,12.73c2.75,6.84,7.22,13.67,11.7,17.29-.77,.6-1.89,1.72-2.41,2.58-4.17-3.87-8.26-10.41-11.14-17.29v22.7h-3.14v-21.8c-2.88,6.71-6.97,12.86-11.18,16.55-.6-.73-1.68-1.89-2.41-2.45,4.64-3.66,9.2-10.58,11.91-17.59h-10.41v-3.1h12.08v-10.32h3.14v10.32h12.43v3.1h-10.58Z" fill="#231815"/>
      <path d="M185.98,105.59c3.22-1.68,5.07-4.69,5.93-8.13l2.79,.99c-.95,3.65-2.58,7.05-6.15,8.99l-2.58-1.85Zm8.73-25.46h-7.95v-2.62h7.95v-3.35h-6.32v-2.58h15.44v2.58h-6.15v3.35h7.74v2.62h-7.74v3.74h6.02v9.67h-12v1.76h-2.84v-11.44h5.85v-3.74Zm6.19,6.28h-9.2v4.64h9.2v-4.64Zm9.93,18.83c1.85,0,2.15-.56,2.36-4.52,.69,.56,1.98,1.03,2.88,1.2-.43,4.99-1.42,6.19-4.99,6.19h-8.26c-4.43,0-5.55-.9-5.55-4.13v-6.58h3.14v6.54c0,1.08,.39,1.29,2.67,1.29h7.74Zm-8.6-10.96c2.71,1.25,5.89,3.4,7.4,5.12l-2.24,1.94c-1.46-1.72-4.56-3.96-7.27-5.33l2.11-1.72Zm7.7,.95h-2.97v-21.84h5.03c.6-1.38,1.16-3.1,1.46-4.3l3.48,.52c-.56,1.29-1.16,2.67-1.72,3.78h8.26v21.59h-3.05v-1.59h-10.49v1.85Zm0-19.22v3.35h10.49v-3.35h-10.49Zm10.49,9.03v-3.4h-10.49v3.4h10.49Zm0,5.72v-3.44h-10.49v3.44h10.49Zm-3.05,6.32c3.18,2.37,6.54,5.85,7.96,8.51l-2.79,1.63c-1.25-2.62-4.56-6.15-7.7-8.6l2.54-1.55Z" fill="#231815"/>
      <path d="M271.2,104.13v3.1h-38.1v-3.1h17.41v-10.92h-12.77v-3.1h12.77v-9.37h-10.1c-1.38,2.71-2.88,5.07-4.47,7.01-.65-.52-2.06-1.46-2.92-1.89,3.53-3.78,6.28-9.72,7.95-15.82l3.23,.69c-.69,2.36-1.46,4.69-2.41,6.88h8.73v-8.26h3.27v8.26h15.39v3.14h-15.39v9.37h13.8v3.1h-13.8v10.92h17.41Z" fill="#231815"/>
      <path d="M286.85,88.52c-1.76-1.2-5.29-3.27-7.91-4.64l1.76-2.32c2.49,1.25,6.06,3.14,7.96,4.34l-1.81,2.62Zm-6.88,17.33c2.32-3.23,5.63-8.9,8.13-13.76l2.32,2.11c-2.24,4.51-5.25,9.85-7.78,13.8l-2.67-2.15Zm9.03-28.98c-1.76-1.25-5.33-3.31-7.95-4.73l1.76-2.28c2.62,1.25,6.23,3.23,8.04,4.43l-1.85,2.58Zm17.2,8.04v7.05h8.99v16.38h-3.05v-1.59h-15.26v1.81h-2.97v-16.6h9.25v-7.05h-12.38v-3.1h12.38v-6.97c-3.14,.47-6.36,.86-9.42,1.16-.17-.77-.6-1.98-.9-2.71,7.4-.77,16.04-2.11,20.81-3.83l2.49,2.49c-2.79,.95-6.23,1.76-9.93,2.41v7.44h11.78v3.1h-11.78Zm5.93,10.02h-15.26v8.86h15.26v-8.86Z" fill="#231815"/>
      <path d="M356.6,103.61c2.32,0,5.59-.17,7.14-.47,.13,.9,.34,2.36,.52,3.05-1.12,.34-4.39,.39-7.7,.39h-18.92c-6.58,0-9.76-2.06-9.76-8.34v-24.08h-1.76v-2.88h36.03v2.88h-31.13v24.29c0,3.65,1.68,5.16,6.28,5.16h19.31Zm-22.19-14.23h11.18v11.01h-11.18v-11.01Zm2.67,8.69h5.72v-6.36h-5.72v6.36Zm17.93-11.61h-15.95v-9.5h15.95v9.5Zm-3.14-7.22h-9.8v4.9h9.8v-4.9Zm8.17,21.16h-11.57v-11.01h11.57v11.01Zm-2.84-8.69h-5.98v6.36h5.98v-6.36Z" fill="#231815"/>
    </g>
  </g>
</svg>