<?xml version="1.0" encoding="UTF-8"?>
<svg id="_圖層_2" data-name="圖層 2" xmlns="http://www.w3.org/2000/svg" viewBox="0 0 251.67 35.7">
  <g id="content">
    <g>
      <path d="M9.51,32.67c.21,.45,.59,.75,1.16,.91s1.45,.24,2.65,.24h4.8c2.37,0,4.34-.67,5.9-2.01,1.56-1.34,2.6-3.15,3.13-5.44,0-.11,.1-.15,.31-.13,.21,.02,.31,.08,.31,.19-.34,3.15-.51,5.75-.51,7.83,0,.29-.07,.49-.2,.62-.13,.13-.35,.19-.65,.19H.11c-.08,0-.11-.11-.11-.32s.04-.32,.11-.32c1.35,0,2.35-.09,2.99-.27,.64-.18,1.07-.53,1.3-1.05,.23-.52,.34-1.31,.34-2.39V5.9c0-1.07-.11-1.86-.34-2.36-.23-.5-.66-.85-1.3-1.05-.64-.2-1.64-.29-2.99-.29-.08,0-.11-.11-.11-.32s.04-.32,.11-.32l2.82,.05c1.66,.07,2.99,.11,4.01,.11s2.35-.04,4.01-.11l2.82-.05c.07,0,.11,.11,.11,.32s-.04,.32-.11,.32c-1.35,0-2.34,.1-2.96,.29-.62,.2-1.04,.55-1.27,1.07-.23,.52-.34,1.31-.34,2.39V30.5c0,1,.1,1.72,.31,2.17Z" fill="#a1a9d8"/>
      <path d="M37.79,33.13c.21,.5,.62,.84,1.24,1.02,.62,.18,1.63,.27,3.02,.27,.07,0,.11,.11,.11,.32s-.04,.32-.11,.32c-1.21,0-2.15-.02-2.82-.05l-4.06-.05-3.95,.05c-.72,.04-1.69,.05-2.94,.05-.08,0-.11-.11-.11-.32s.04-.32,.11-.32c1.35,0,2.35-.09,2.99-.27,.64-.18,1.08-.53,1.33-1.05,.24-.52,.37-1.31,.37-2.39V5.9c0-1.07-.12-1.86-.37-2.36-.25-.5-.69-.85-1.33-1.05-.64-.2-1.64-.29-2.99-.29-.08,0-.11-.11-.11-.32s.04-.32,.11-.32l2.94,.05c1.66,.07,2.97,.11,3.95,.11,1.09,0,2.46-.04,4.12-.11l2.77-.05c.07,0,.11,.11,.11,.32s-.04,.32-.11,.32c-1.35,0-2.34,.11-2.96,.32s-1.04,.58-1.27,1.1c-.23,.52-.34,1.31-.34,2.39V30.72c0,1.11,.1,1.91,.31,2.41Z" fill="#a1a9d8"/>
      <path d="M43.91,34.74c0-.21,.06-.32,.17-.32,1.39,0,2.41-.09,3.05-.27,.64-.18,1.08-.53,1.33-1.05,.24-.52,.37-1.31,.37-2.39V5.9c0-1.07-.11-1.86-.34-2.36-.23-.5-.65-.85-1.27-1.05-.62-.2-1.61-.29-2.96-.29-.11,0-.17-.11-.17-.32s.06-.32,.17-.32h23.03c.38,0,.56,.16,.56,.48l.11,6.75c0,.11-.1,.17-.31,.19-.21,.02-.33-.03-.37-.13-.26-1.97-1-3.47-2.2-4.5-1.2-1.04-2.78-1.55-4.74-1.55h-2.88c-1.62,0-2.72,.22-3.3,.67-.58,.45-.88,1.28-.88,2.49V30.5c0,1.14,.16,1.98,.48,2.49,.32,.52,.93,.88,1.83,1.1,.9,.21,2.33,.32,4.29,.32,.08,0,.11,.11,.11,.32s-.04,.32-.11,.32c-1.54,0-2.75-.02-3.61-.05l-5.31-.05-3.95,.05c-.72,.04-1.69,.05-2.94,.05-.11,0-.17-.11-.17-.32Zm19.08-14.77c-.98-.73-2.54-1.1-4.68-1.1h-7.17v-1.23h7.34c2.03,0,3.53-.32,4.49-.97,.96-.64,1.44-1.61,1.44-2.89,0-.07,.11-.11,.34-.11s.34,.04,.34,.11l-.06,4.5c0,1.07,.02,1.88,.06,2.41l.06,2.68c0,.07-.11,.11-.34,.11s-.34-.04-.34-.11c0-1.54-.49-2.67-1.47-3.4Z" fill="#a1a9d8"/>
      <path d="M70.21,34.74c0-.21,.06-.32,.17-.32,1.35,0,2.34-.09,2.96-.27,.62-.18,1.04-.53,1.27-1.05,.23-.52,.34-1.31,.34-2.39V5.9c0-1.07-.11-1.86-.34-2.36-.23-.5-.65-.85-1.27-1.05-.62-.2-1.61-.29-2.96-.29-.11,0-.17-.11-.17-.32s.06-.32,.17-.32h23.03c.38,0,.56,.16,.56,.48l.11,6.75c0,.11-.1,.17-.31,.19-.21,.02-.33-.03-.37-.13-.26-1.97-1-3.47-2.2-4.5-1.2-1.04-2.78-1.55-4.74-1.55h-2.88c-1.66,0-2.77,.23-3.33,.7-.56,.46-.85,1.34-.85,2.63V30.5c0,1.29,.25,2.16,.76,2.63,.51,.46,1.53,.7,3.08,.7h3.73c2.11,0,3.87-.6,5.28-1.8,1.41-1.2,2.38-2.9,2.91-5.12,0-.07,.08-.11,.23-.11,.11,0,.22,.03,.31,.08,.09,.05,.14,.1,.14,.13-.38,2.57-.56,4.99-.56,7.24,0,.29-.06,.49-.17,.62-.11,.13-.34,.19-.68,.19h-24.04c-.11,0-.17-.11-.17-.32Zm19.67-15.41c-.92-.73-2.38-1.1-4.37-1.1h-8.24v-1.23h8.35c1.92,0,3.33-.31,4.23-.94,.9-.62,1.35-1.6,1.35-2.92,0-.07,.1-.11,.31-.11s.31,.04,.31,.11l-.06,4.5,.06,2.41c.08,1.14,.11,2.04,.11,2.68,0,.07-.11,.11-.34,.11s-.34-.04-.34-.11c0-1.54-.46-2.67-1.38-3.4Z" fill="#a1a9d8"/>
      <path d="M115.87,11.12c.71,1.02,1.58,1.9,2.6,2.63,1.02,.73,2.43,1.62,4.23,2.65,1.88,1.11,3.38,2.06,4.49,2.87,1.11,.8,2.06,1.8,2.85,2.98s1.19,2.57,1.19,4.18c0,1.75-.48,3.33-1.44,4.74-.96,1.41-2.33,2.52-4.12,3.32-1.79,.8-3.87,1.21-6.24,1.21-1.5,0-2.99-.17-4.46-.51-1.47-.34-2.75-.83-3.84-1.47-.19-.11-.32-.23-.4-.38-.08-.14-.11-.36-.11-.64l-.56-7.67c-.04-.14,.05-.23,.25-.27,.21-.04,.33,.02,.37,.16,.9,2.72,2.16,5.02,3.78,6.92,1.62,1.89,3.73,2.84,6.32,2.84,1.77,0,3.25-.46,4.46-1.37,1.2-.91,1.81-2.4,1.81-4.48,0-1.57-.38-2.95-1.13-4.13-.75-1.18-1.67-2.17-2.77-2.98-1.09-.8-2.54-1.72-4.35-2.76-1.77-1.07-3.17-1.99-4.2-2.76-1.04-.77-1.91-1.72-2.62-2.84-.71-1.13-1.07-2.44-1.07-3.94,0-1.82,.52-3.38,1.55-4.66,1.03-1.29,2.39-2.24,4.06-2.87,1.67-.62,3.43-.94,5.28-.94,2.48,0,4.76,.41,6.83,1.23,.56,.25,.85,.57,.85,.96l.28,6.7c0,.14-.1,.22-.31,.24-.21,.02-.33-.04-.37-.19-.41-1.93-1.29-3.75-2.62-5.47-1.34-1.72-3.25-2.57-5.73-2.57-1.88,0-3.34,.54-4.37,1.61-1.04,1.07-1.55,2.43-1.55,4.07,0,1.36,.36,2.55,1.07,3.56Z" fill="#a1a9d8"/>
      <path d="M137.21,4.48c-1.32,1.23-2.3,3.21-2.94,5.92-.04,.07-.16,.11-.37,.11s-.31-.05-.31-.16c.15-1,.32-2.63,.51-4.88,.19-2.25,.28-3.95,.28-5.09,0-.18,.11-.27,.34-.27s.34,.09,.34,.27c0,.79,1.04,1.18,3.1,1.18,3.24,.11,7.02,.16,11.34,.16,2.22,0,4.57-.04,7.06-.11l3.84-.05c1.39,0,2.41-.09,3.05-.27,.64-.18,1.05-.54,1.24-1.07,.04-.14,.16-.21,.37-.21s.31,.07,.31,.21c-.11,1-.24,2.61-.37,4.82-.13,2.22-.2,3.99-.2,5.31,0,.11-.1,.16-.31,.16s-.31-.05-.31-.16c-.26-2.75-1.02-4.73-2.26-5.92-1.24-1.2-3.09-1.8-5.53-1.8-1.39,0-2.39,.08-2.99,.24-.6,.16-1.02,.46-1.24,.91-.23,.45-.34,1.19-.34,2.22V30.72c0,1.11,.12,1.91,.37,2.41,.24,.5,.72,.84,1.44,1.02,.71,.18,1.86,.27,3.44,.27,.08,0,.11,.11,.11,.32s-.04,.32-.11,.32c-1.32,0-2.35-.02-3.1-.05l-4.46-.05-4.35,.05c-.75,.04-1.81,.05-3.16,.05-.11,0-.17-.11-.17-.32s.06-.32,.17-.32c1.54,0,2.68-.09,3.41-.27,.73-.18,1.23-.53,1.5-1.05,.26-.52,.39-1.31,.39-2.39V5.9c0-1-.11-1.72-.34-2.17-.23-.45-.65-.74-1.27-.88-.62-.14-1.63-.21-3.02-.21-2.33,0-4.16,.62-5.47,1.85Z" fill="#a1a9d8"/>
      <path d="M167.6,3.19c-.92-.66-1.91-.99-2.96-.99-.11,0-.17-.11-.17-.32s.06-.32,.17-.32c.41,0,1.07,.04,1.98,.11l1.86,.05c1.24,0,2.95-.04,5.14-.11l3.27-.05c.07,0,.11,.11,.11,.32s-.04,.32-.11,.32c-1.81,0-2.71,.43-2.71,1.29,0,.39,.23,.89,.68,1.5l9.14,13.03-3.56,2.47-9.65-13.72c-1.21-1.72-2.27-2.9-3.19-3.56Zm16.68,14.77v12.76c0,1.11,.1,1.91,.31,2.41,.21,.5,.62,.84,1.24,1.02,.62,.18,1.61,.27,2.96,.27,.11,0,.17,.11,.17,.32s-.06,.32-.17,.32c-1.17,0-2.09-.02-2.77-.05l-4.06-.05-3.95,.05c-.68,.04-1.64,.05-2.88,.05-.08,0-.11-.11-.11-.32s.04-.32,.11-.32c1.35,0,2.35-.09,2.99-.27,.64-.18,1.07-.53,1.3-1.05,.23-.52,.34-1.31,.34-2.39v-12.28l4.52-.48Zm6.94-13.62c0-1.43-1.04-2.14-3.1-2.14-.08,0-.11-.11-.11-.32s.04-.32,.11-.32l2.77,.05c1.5,.07,2.88,.11,4.12,.11,.64,0,1.41-.04,2.31-.11l2.09-.05c.08,0,.11,.11,.11,.32s-.04,.32-.11,.32c-1.32,0-2.71,.54-4.18,1.61-1.47,1.07-2.79,2.5-3.95,4.29l-8.35,12.54-1.07-.86,8.01-11.95c.9-1.39,1.35-2.55,1.35-3.48Z" fill="#a1a9d8"/>
      <path d="M207.56,32.67c.21,.45,.59,.75,1.16,.91s1.45,.24,2.65,.24h4.8c2.37,0,4.34-.67,5.9-2.01,1.56-1.34,2.61-3.15,3.13-5.44,0-.11,.1-.15,.31-.13,.21,.02,.31,.08,.31,.19-.34,3.15-.51,5.75-.51,7.83,0,.29-.07,.49-.2,.62-.13,.13-.35,.19-.65,.19h-26.3c-.08,0-.11-.11-.11-.32s.04-.32,.11-.32c1.35,0,2.35-.09,2.99-.27,.64-.18,1.07-.53,1.3-1.05,.23-.52,.34-1.31,.34-2.39V5.9c0-1.07-.11-1.86-.34-2.36-.23-.5-.66-.85-1.3-1.05-.64-.2-1.64-.29-2.99-.29-.08,0-.11-.11-.11-.32s.04-.32,.11-.32l2.82,.05c1.66,.07,2.99,.11,4.01,.11s2.35-.04,4.01-.11l2.82-.05c.08,0,.11,.11,.11,.32s-.04,.32-.11,.32c-1.35,0-2.34,.1-2.96,.29-.62,.2-1.04,.55-1.27,1.07-.23,.52-.34,1.31-.34,2.39V30.5c0,1,.1,1.72,.31,2.17Z" fill="#a1a9d8"/>
      <path d="M226.05,34.74c0-.21,.06-.32,.17-.32,1.35,0,2.34-.09,2.96-.27,.62-.18,1.04-.53,1.27-1.05,.23-.52,.34-1.31,.34-2.39V5.9c0-1.07-.11-1.86-.34-2.36-.23-.5-.65-.85-1.27-1.05-.62-.2-1.61-.29-2.96-.29-.11,0-.17-.11-.17-.32s.06-.32,.17-.32h23.03c.38,0,.56,.16,.56,.48l.11,6.75c0,.11-.1,.17-.31,.19-.21,.02-.33-.03-.37-.13-.26-1.97-1-3.47-2.2-4.5-1.2-1.04-2.79-1.55-4.74-1.55h-2.88c-1.66,0-2.77,.23-3.33,.7-.56,.46-.85,1.34-.85,2.63V30.5c0,1.29,.25,2.16,.76,2.63,.51,.46,1.53,.7,3.08,.7h3.73c2.11,0,3.87-.6,5.28-1.8,1.41-1.2,2.38-2.9,2.91-5.12,0-.07,.08-.11,.23-.11,.11,0,.22,.03,.31,.08,.09,.05,.14,.1,.14,.13-.38,2.57-.56,4.99-.56,7.24,0,.29-.06,.49-.17,.62-.11,.13-.34,.19-.68,.19h-24.04c-.11,0-.17-.11-.17-.32Zm19.67-15.41c-.92-.73-2.38-1.1-4.37-1.1h-8.24v-1.23h8.35c1.92,0,3.33-.31,4.23-.94,.9-.62,1.35-1.6,1.35-2.92,0-.07,.1-.11,.31-.11s.31,.04,.31,.11l-.06,4.5,.06,2.41c.08,1.14,.11,2.04,.11,2.68,0,.07-.11,.11-.34,.11s-.34-.04-.34-.11c0-1.54-.46-2.67-1.38-3.4Z" fill="#a1a9d8"/>
    </g>
  </g>
</svg>