<?xml version="1.0" encoding="UTF-8"?>
<svg id="_圖層_2" data-name="圖層 2" xmlns="http://www.w3.org/2000/svg" xmlns:xlink="http://www.w3.org/1999/xlink" viewBox="0 0 339.19 325.11">
  <defs>
    <linearGradient id="_未命名漸層_10" data-name="未命名漸層 10" x1="186.21" y1="108.96" x2="243.98" y2="107.95" gradientUnits="userSpaceOnUse">
      <stop offset="0" stop-color="#fff"/>
      <stop offset=".04" stop-color="#eceae7"/>
      <stop offset=".15" stop-color="#c4bdb4"/>
      <stop offset=".25" stop-color="#a4998b"/>
      <stop offset=".33" stop-color="#8c7f6e"/>
      <stop offset=".41" stop-color="#7e6f5c"/>
      <stop offset=".47" stop-color="#7a6a56"/>
      <stop offset=".93" stop-color="#beb092"/>
      <stop offset=".99" stop-color="#c7ba9a"/>
    </linearGradient>
    <linearGradient id="GradientFill_20" data-name="GradientFill 20" x1="195.13" y1="105.11" x2="215.73" y2="114.28" gradientUnits="userSpaceOnUse">
      <stop offset="0" stop-color="#35200d"/>
      <stop offset=".04" stop-color="#201008"/>
      <stop offset=".15" stop-color="#493111"/>
      <stop offset=".23" stop-color="#3a2510"/>
      <stop offset=".51" stop-color="#402b11"/>
      <stop offset=".67" stop-color="#392510"/>
      <stop offset=".77" stop-color="#4a3011"/>
      <stop offset=".91" stop-color="#201008"/>
      <stop offset="1" stop-color="#36220f"/>
    </linearGradient>
    <linearGradient id="_未命名漸層_10-2" data-name="未命名漸層 10" x1="95.75" y1="99.81" x2="143.79" y2="111.79" xlink:href="#_未命名漸層_10"/>
    <linearGradient id="GradientFill_20-2" data-name="GradientFill 20" x1="118.49" y1="100.45" x2="139.18" y2="109.66" xlink:href="#GradientFill_20"/>
    <linearGradient id="GradientFill_1" data-name="GradientFill 1" x1="166.8" y1="129.89" x2="165.97" y2="82.44" gradientUnits="userSpaceOnUse">
      <stop offset="0" stop-color="#d9a53e"/>
      <stop offset=".16" stop-color="#d69b3a"/>
      <stop offset=".3" stop-color="#a26b28"/>
      <stop offset=".49" stop-color="#8c5723"/>
      <stop offset=".54" stop-color="#f2f1b6"/>
      <stop offset=".56" stop-color="#f5eb98"/>
      <stop offset=".69" stop-color="#d3b567"/>
      <stop offset=".75" stop-color="#a56f29"/>
      <stop offset=".85" stop-color="#cea95b"/>
      <stop offset="1" stop-color="#dec57d"/>
    </linearGradient>
    <linearGradient id="_未命名漸層_10-3" data-name="未命名漸層 10" x1="112.89" y1="107.97" x2="219.73" y2="104.24" xlink:href="#_未命名漸層_10"/>
    <linearGradient id="_未命名漸層_10-4" data-name="未命名漸層 10" x1="139.72" y1="123.4" x2="193.92" y2="89.53" xlink:href="#_未命名漸層_10"/>
  </defs>
  <g id="content">
    <g>
      <g>
        <g>
          <path d="M10.33,268.58c-.52,4.9-1.54,8.89-2.94,12.15,3.4,3.36,8.19,4.13,14.11,4.13,1.36,0,8.89,0,10.68-.04-.38,.6-.84,1.72-.98,2.42h-9.77c-6.44,0-11.48-.88-15.12-4.38-1.23,2.21-2.7,3.92-4.38,5.25-.42-.52-1.33-1.44-1.92-1.79,1.82-1.3,3.36-3.08,4.62-5.39-1.29-1.79-2.35-3.99-3.19-6.79l1.93-.77c.63,2.1,1.36,3.85,2.35,5.29,.88-2.31,1.57-5.01,2.03-8.12H3.5c-.56,.28-1.4,.73-1.4,1.08-.18-.49-.74-1.54-1.09-2.1,.67-.14,1.51-.98,2.21-2.07,.63-.88,2.38-3.75,3.75-6.83H.91v-2.31H7.95l.84-.39,1.68,1.09c-1.61,3.36-3.36,6.62-5.08,9.21h3.01l.46-.07,1.47,.42Zm8.58-7.42h-6.48v-2.07h6.48v-2.94h2.49v2.94h7.81v4.69h2.42v2.07h-2.42v4.8h-7.81v2.7h8.61v1.96h-8.61v2.73h9.91v2.1h-9.91v3.47h-2.49v-3.47H10.43v-2.1h8.47v-2.73h-7v-1.96h7v-2.7h-6.72v-2.07h6.72v-2.73H10.15v-2.07h8.75v-2.62Zm2.49,0v2.62h5.46v-2.62h-5.46Zm5.46,4.69h-5.46v2.73h5.46v-2.73Z" fill="#231815"/>
          <path d="M43.4,260.25c-1.09,1.5-2.35,2.87-3.57,3.92-.35-.46-1.29-1.33-1.82-1.75,2.14-1.61,4.17-4.06,5.36-6.55l2.31,.67c-.28,.56-.56,1.08-.88,1.65h8.93v2.07h-6.76c1.05,.98,2.31,2.31,2.91,3.15l-1.75,1.36c-.63-.91-1.93-2.35-3.01-3.43l1.65-1.08h-3.36Zm6.69,21.18c-2.24,2.56-6.34,4.9-9.94,6.02-.39-.63-1.16-1.61-1.75-2.1,3.54-.88,7.53-2.73,9.56-4.83l2.14,.91Zm5.08-3.75h14.32v2.1h-14.32v8.3h-2.52v-8.3h-14.21v-2.1h14.21v-1.85l-.42,.17c-.35-.49-1.19-1.29-1.68-1.61,2.31-.84,3.75-1.85,4.62-2.91-1.23-.56-2.38-1.08-3.43-1.54l.98-1.58c1.05,.42,2.17,.91,3.29,1.4,.17-.49,.25-1.05,.25-1.58v-1.16h-4.03v-1.85h12.43v7.28c0,.63,0,1.02,.17,1.15,.1,.1,.28,.14,.53,.14h.94c.28,0,.52-.04,.67-.14,.18-.07,.28-.31,.39-.7,.07-.42,.1-1.44,.14-2.7,.46,.38,1.19,.73,1.79,.94-.04,1.3-.18,2.73-.35,3.29-.18,.49-.53,.88-.95,1.08s-1.05,.28-1.58,.28h-1.65c-.7,0-1.44-.14-1.89-.6-.53-.42-.67-.95-.67-2.87v-5.32h-3.75v1.23c0,.81-.1,1.61-.38,2.45,1.33,.63,2.59,1.19,3.47,1.68l-.95,1.82c-.88-.49-2.1-1.08-3.4-1.75-.8,1.08-1.92,2.14-3.71,2.98h1.68v2.24Zm-16.66-4.2c1.47-.14,3.33-.42,5.36-.7v-5.43h-4.87v-1.93h11.94v1.93h-4.66v5.08l4.73-.74,.1,2.07c-4.34,.7-8.89,1.37-12.22,1.89l-.39-2.17Zm31.26-15.26v2.06h-7.53c1.05,.88,2.28,2.14,2.87,2.91l-1.86,1.4c-.63-.88-1.89-2.24-2.94-3.26l1.54-1.05h-4.2c-.98,1.47-2.1,2.77-3.26,3.78-.42-.42-1.36-1.19-1.96-1.54,2.1-1.61,3.85-4.03,4.83-6.65l2.38,.63c-.24,.6-.45,1.16-.77,1.72h10.89Zm-10.43,22.09c3.19,1.4,7.32,3.47,9.45,5.01l-1.75,1.85c-2.07-1.5-6.16-3.75-9.42-5.18l1.71-1.68Z" fill="#231815"/>
          <path d="M106.79,283.53v2.49h-30.17v-2.49h3.85v-22.82h-3.61v-2.49h28.84v2.49h-22.61v4.87h19.64v12.15h-19.64v5.81h23.7Zm-23.7-15.44v7.14h16.98v-7.14h-16.98Z" fill="#231815"/>
          <path d="M117.21,267.67c-.49,1.65-1.15,3.29-2.24,4.69-.31-.53-1.23-1.51-1.68-1.82,2.14-2.87,2.45-6.65,2.45-9.42v-3.68h11.76v6.27h-9.56c-.07,.67-.18,1.29-.28,2h10.08v6.55h-10.54v-4.59Zm28.07,15.51h-14.53v2.17c0,1.4-.35,1.92-1.4,2.27-1.12,.35-2.87,.35-5.67,.35-.18-.63-.56-1.44-.88-2.03,2.1,.07,4.1,.07,4.62,0,.6,0,.77-.14,.77-.63v-2.14h-14.49v-1.89h14.49v-2.03h-11.87v-1.85h11.87v-1.96c-3.47,.18-7.04,.28-10.26,.31-.07-.49-.28-1.23-.49-1.68,7.53-.1,16.7-.56,21.63-1.33l1.68,1.58c-2.77,.46-6.27,.73-10.01,.98v2.1h12.18v1.85h-12.18v2.03h14.53v1.89Zm-27.23-23.87v2.56h7.04v-2.56h-7.04Zm1.26,11.13h6.23v-2.91h-6.23v2.91Zm16.24-4.76h-6.9v-1.85h4.2c-.25-.84-.67-1.93-1.12-2.73l1.93-.46c.59,.98,1.12,2.35,1.29,3.15l-.14,.04h3.54c.46-1.02,.98-2.35,1.26-3.26l2.17,.49c-.46,.94-.91,1.92-1.26,2.77h4.62v1.85h-7.14v2.17h6.27v1.85h-6.27v2.87h-2.45v-2.87h-5.92v-1.85h5.92v-2.17Zm8.61-5.18h-14.49v-1.85h6.09c-.21-.73-.49-1.47-.77-2.14l2.38-.46c.39,.77,.77,1.75,1.02,2.59h5.78v1.85Z" fill="#231815"/>
          <path d="M202.58,274.53c-.39-.94-1.12-2.59-1.89-4.06v17.64h-2.38v-15.65c-.95,3.33-2.14,6.48-3.33,8.51-.32-.74-.95-1.86-1.37-2.49,1.89-2.91,3.78-8.51,4.69-13.16v-.24h-3.89v-2.35h3.89v-6.58h2.38v6.58h3.43v2.35h-3.43v1.96c.84,1.23,2.91,4.62,3.4,5.53l-1.5,1.96Zm23.28,10.15v2.31h-23.28v-2.31h23.28Zm-16.56-19.57c.67-1.5,1.37-3.64,1.96-5.57h-7.14v-2.31h20.97v2.31h-11.48c-.35,1.23-.77,2.45-1.15,3.57h4.1v1.12c-.21,12.67-.35,16.66-1.16,17.89-.52,.74-1.15,1.02-2,1.12-.81,.07-2.06,.07-3.29,0-.04-.63-.28-1.54-.63-2.14,1.26,.11,2.35,.11,2.91,.11,.46,.03,.7-.07,.98-.46,.49-.81,.7-4.62,.88-15.65h-4.94Zm1.93,13.65h-4.73v1.82h-1.82v-14.21h6.55v12.39Zm-1.89-1.92v-8.47h-2.83v8.47h2.83Zm16-11.38c-.49,3.47-1.26,6.48-2.31,9,1.19,1.85,2.14,3.64,2.77,5.11l-1.75,1.3c-.49-1.16-1.23-2.63-2.1-4.13-1.16,2.13-2.56,3.81-4.13,5.11-.31-.52-1.09-1.4-1.58-1.75,1.72-1.3,3.19-3.19,4.34-5.57-1.05-1.58-2.14-3.15-3.22-4.52l1.61-1.19c.84,1.05,1.75,2.24,2.59,3.43,.56-1.58,.98-3.29,1.3-5.18h-5.15v-2h5.88l.42-.07,1.33,.46Z" fill="#231815"/>
          <path d="M247.73,283.39c-5.6,1.05-11.52,2.1-15.65,2.84l-.42-2.66c1.89-.28,4.31-.67,6.93-1.09v-5.67h-6.02v-2.38h6.02v-3.96h2.59v3.96h5.78v2.38h-5.78v5.25c2.1-.35,4.27-.73,6.41-1.08l.14,2.42Zm-2.59-13.13c-.21-.49-.49-1.05-.8-1.65-9.38,.84-10.61,1.02-11.38,1.37-.14-.53-.52-1.75-.8-2.42,.49-.1,1.02-.67,1.58-1.5,.53-.67,1.92-2.87,3.01-5.29h-4.66v-2.38h15.51v2.38h-8.02c-1.12,2.28-2.45,4.52-3.78,6.37l7.39-.6c-.67-1.08-1.37-2.24-2.03-3.19l1.96-.98c1.54,2.1,3.33,5.01,4.13,6.72l-2.1,1.15Zm17.5-7.25c-.95,7.11-3.08,12.67-6.02,16.98,1.96,2.63,4.27,4.66,7.04,6.09-.56,.42-1.36,1.33-1.79,2-2.66-1.5-4.87-3.57-6.75-6.06-2.28,2.7-4.9,4.76-7.84,6.2-.35-.67-1.16-1.82-1.72-2.31,3.01-1.33,5.67-3.4,7.95-6.23-1.26-2.06-2.35-4.41-3.26-6.93-.49,.95-.98,1.89-1.5,2.73-.28-.6-1.08-1.82-1.58-2.38,.74-1.08,1.37-2.38,1.92-3.75-.63-2.1-1.15-4.34-1.64-6.69l2.03-.38c.25,1.26,.52,2.45,.84,3.64,.88-2.98,1.58-6.3,2.03-9.66l2.45,.42c-.35,2-.74,3.99-1.16,5.92h6.97l.42-.1,1.61,.52Zm-9.63,2.03c-.46,1.68-.95,3.29-1.54,4.83,.95,2.8,2.13,5.43,3.54,7.77,2.21-3.43,3.89-7.63,4.8-12.6h-6.79Z" fill="#231815"/>
          <path d="M301.11,282.83v2.59h-31.22v-2.59h14.07v-20.09h-12.25v-2.66h27.65v2.66h-12.57v20.09h14.32Z" fill="#231815"/>
          <path d="M307.72,281.05h31.05v1.68h-9.21c2.83,1.16,6.2,3.22,7.98,4.69l-1.79,1.26c-.67-.6-1.54-1.23-2.55-1.89-19.46,.91-21.35,.98-22.61,1.37-.1-.46-.49-1.4-.77-1.96,.67-.07,1.47-.35,2.42-.77,.77-.35,2.7-1.4,4.73-2.7h-9.24v-1.68Zm6.37-13.3c-.56,2.03-1.96,3.08-5.22,3.75-.14-.42-.63-1.08-1.01-1.36,2.66-.42,3.88-1.09,4.38-2.38h-3.89v-1.54h6.41v-1.47h-4.73v-1.51h4.73v-1.12h2.24v1.12h4.62v1.51h-4.62v1.47h6.23v1.54h-4.55v.7c0,.7,.04,.88,.53,.88h2.07c.35,0,1.05,0,1.47-.14,.04,.46,.07,.98,.14,1.44-.35,.1-1.05,.14-1.61,.14h-2.42c-1.61,0-1.93-.7-1.93-2.35v-.67h-2.83Zm2.07-7.32h-8.09v-1.96h8.09v-2.35h2.55v2.35h4.1v1.96h-4.1v1.58h-2.55v-1.58Zm20.37,14.18c.28,0,.52-.04,.63-.1,.14-.11,.28-.35,.31-.74,.07-.42,.11-1.4,.14-2.66,.42,.35,1.05,.67,1.58,.84-.04,1.23-.14,2.7-.32,3.19-.14,.49-.46,.84-.8,1.05-.35,.21-.91,.28-1.4,.28h-1.4c-.63,0-1.26-.14-1.68-.56-.46-.39-.6-.88-.6-2.73v-6.48h-2.91c-.03,1.12-.17,2.31-.56,3.5,1.16,.73,2.1,1.44,2.77,2.1l-1.3,1.65c-.56-.52-1.33-1.15-2.21-1.79-.91,1.79-2.38,3.5-4.83,4.97-.25-.31-.81-.81-1.29-1.19-5.18,.42-10.54,.81-14.32,1.05l-.14-1.71c1.79-.07,4.03-.21,6.55-.35v-1.75h-5.08v-1.5h5.08v-1.79h2.24v1.79h5.11v1.5h-5.11v1.61l6.16-.39v.88c1.89-1.37,3.08-2.84,3.82-4.31-1.12-.63-2.24-1.23-3.29-1.72l1.26-1.47c.84,.38,1.82,.84,2.7,1.33,.25-.84,.35-1.65,.39-2.42h-3.92v-1.96h3.96v-2.38h2.07v2.38h5.01v8.58c0,.67,.04,1.05,.17,1.16,.07,.1,.25,.14,.46,.14h.77Zm-1.93,3.01v1.68h-22.51v-1.68h22.51Zm-4.13,7.56c-.95-.52-1.93-1.02-2.8-1.4l1.65-1.05h-8.79c-1.71,1.16-3.46,2.21-5.18,3.05l15.12-.6Zm-2.73-24.75h-3.82v-1.96h3.82v-2.35h2.55v2.35h8.3v1.96h-8.3v1.58h-2.55v-1.58Z" fill="#231815"/>
        </g>
        <line x1="169.27" y1="288.26" x2="169.27" y2="256.39" fill="none" stroke="#fff" stroke-miterlimit="10"/>
      </g>
      <g opacity=".6">
        <g>
          <path d="M.78,310.23c1.02-.2,2.48-.31,3.87-.31,2.15,0,3.54,.37,4.52,1.21,.79,.66,1.23,1.67,1.23,2.82,0,1.96-1.3,3.26-2.94,3.78v.07c1.2,.4,1.92,1.45,2.29,2.99,.51,2.07,.88,3.5,1.2,4.07h-2.08c-.25-.42-.6-1.69-1.04-3.54-.46-2.05-1.3-2.82-3.13-2.88h-1.9v6.42H.78v-14.63Zm2.02,6.76h2.06c2.15,0,3.52-1.12,3.52-2.82,0-1.91-1.46-2.75-3.59-2.77-.97,0-1.67,.09-1.99,.18v5.41Z" fill="#fff"/>
          <path d="M22.49,317.91h-6.07v5.35h6.76v1.61H14.4v-14.83h8.43v1.61h-6.42v4.69h6.07v1.58Z" fill="#fff"/>
          <path d="M26.68,322.53c.9,.53,2.22,.97,3.61,.97,2.06,0,3.27-1.03,3.27-2.53,0-1.39-.83-2.18-2.94-2.95-2.55-.86-4.12-2.11-4.12-4.2,0-2.31,2.02-4.03,5.05-4.03,1.6,0,2.76,.35,3.45,.73l-.56,1.56c-.51-.26-1.55-.7-2.96-.7-2.13,0-2.94,1.21-2.94,2.22,0,1.39,.95,2.07,3.1,2.86,2.64,.97,3.98,2.18,3.98,4.36,0,2.29-1.78,4.27-5.47,4.27-1.51,0-3.15-.42-3.98-.95l.51-1.61Z" fill="#fff"/>
          <path d="M47.62,317.91h-6.07v5.35h6.76v1.61h-8.78v-14.83h8.43v1.61h-6.42v4.69h6.07v1.58Z" fill="#fff"/>
          <path d="M55.43,311.66h-4.75v-1.63h11.56v1.63h-4.77v13.2h-2.04v-13.2Z" fill="#fff"/>
          <path d="M73.21,311.66h-4.75v-1.63h11.56v1.63h-4.77v13.2h-2.04v-13.2Z" fill="#fff"/>
          <path d="M84.94,310.03v6.2h7.55v-6.2h2.04v14.83h-2.04v-6.95h-7.55v6.95h-2.02v-14.83h2.02Z" fill="#fff"/>
          <path d="M107.27,317.91h-6.07v5.35h6.76v1.61h-8.78v-14.83h8.43v1.61h-6.42v4.69h6.07v1.58Z" fill="#fff"/>
          <path d="M119.82,310.03v6.2h7.55v-6.2h2.04v14.83h-2.04v-6.95h-7.55v6.95h-2.02v-14.83h2.02Z" fill="#fff"/>
          <path d="M147.41,317.29c0,5.1-3.27,7.81-7.25,7.81s-7.02-3.04-7.02-7.53c0-4.71,3.08-7.79,7.25-7.79s7.02,3.1,7.02,7.5Zm-12.11,.24c0,3.17,1.81,6.01,4.98,6.01s5-2.79,5-6.16c0-2.95-1.62-6.03-4.98-6.03s-5,2.93-5,6.18Z" fill="#fff"/>
          <path d="M151.18,310.23c1.02-.2,2.48-.31,3.87-.31,2.15,0,3.54,.37,4.52,1.21,.79,.66,1.23,1.67,1.23,2.82,0,1.96-1.3,3.26-2.94,3.78v.07c1.2,.4,1.92,1.45,2.29,2.99,.51,2.07,.88,3.5,1.2,4.07h-2.08c-.25-.42-.6-1.69-1.04-3.54-.46-2.05-1.3-2.82-3.13-2.88h-1.9v6.42h-2.02v-14.63Zm2.02,6.76h2.06c2.15,0,3.52-1.12,3.52-2.82,0-1.91-1.46-2.75-3.59-2.77-.97,0-1.67,.09-1.99,.18v5.41Z" fill="#fff"/>
          <path d="M166.82,310.03v14.83h-2.02v-14.83h2.02Z" fill="#fff"/>
          <path d="M170.43,323.74l8.66-12.04v-.07h-7.92v-1.61h10.54v1.17l-8.62,11.99v.07h8.73v1.61h-11.4v-1.12Z" fill="#fff"/>
          <path d="M198.32,317.29c0,5.1-3.27,7.81-7.25,7.81s-7.02-3.04-7.02-7.53c0-4.71,3.08-7.79,7.25-7.79s7.02,3.1,7.02,7.5Zm-12.11,.24c0,3.17,1.81,6.01,4.98,6.01s5-2.79,5-6.16c0-2.95-1.62-6.03-4.98-6.03s-5,2.93-5,6.18Z" fill="#fff"/>
          <path d="M202.1,324.86v-14.83h2.2l5,7.5c1.16,1.74,2.06,3.3,2.8,4.82l.05-.02c-.19-1.98-.23-3.78-.23-6.1v-6.2h1.9v14.83h-2.04l-4.96-7.53c-1.09-1.65-2.13-3.34-2.92-4.95l-.07,.02c.12,1.87,.16,3.65,.16,6.12v6.34h-1.9Z" fill="#fff"/>
          <path d="M237.91,317.29c0,5.1-3.27,7.81-7.25,7.81s-7.02-3.04-7.02-7.53c0-4.71,3.08-7.79,7.25-7.79s7.02,3.1,7.02,7.5Zm-12.11,.24c0,3.17,1.81,6.01,4.98,6.01s5-2.79,5-6.16c0-2.95-1.62-6.03-4.98-6.03s-5,2.93-5,6.18Z" fill="#fff"/>
          <path d="M241.68,310.03h8.41v1.61h-6.39v4.93h5.91v1.58h-5.91v6.71h-2.02v-14.83Z" fill="#fff"/>
          <path d="M260.19,310.03h2.02v13.22h6.67v1.61h-8.69v-14.83Z" fill="#fff"/>
          <path d="M274.3,310.03v14.83h-2.02v-14.83h2.02Z" fill="#fff"/>
          <path d="M278.98,310.03h8.41v1.61h-6.39v4.93h5.91v1.58h-5.91v6.71h-2.02v-14.83Z" fill="#fff"/>
          <path d="M299.5,317.91h-6.07v5.35h6.76v1.61h-8.78v-14.83h8.43v1.61h-6.42v4.69h6.07v1.58Z" fill="#fff"/>
        </g>
      </g>
      <g>
        <path d="M57.73,199.46c1.77,.79,3.13,1.87,4.09,3.24,.96,1.38,1.44,2.94,1.44,4.69,0,1.89-.52,3.6-1.55,5.12-1.04,1.52-2.45,2.72-4.23,3.59-1.79,.88-3.79,1.31-6.01,1.31-1.2,0-2.52-.05-3.95-.16-.53-.04-1.15-.07-1.86-.11-.72-.04-1.52-.05-2.43-.05l-3.95,.05c-.72,.04-1.67,.05-2.88,.05-.11,0-.17-.11-.17-.32s.06-.32,.17-.32c1.32,0,2.29-.1,2.94-.29,.64-.2,1.08-.54,1.33-1.05,.24-.5,.37-1.29,.37-2.36v-24.82c0-1.07-.12-1.86-.37-2.36-.25-.5-.68-.85-1.3-1.05-.62-.2-1.59-.29-2.91-.29-.08,0-.11-.11-.11-.32s.04-.32,.11-.32l2.82,.05c1.66,.07,2.97,.11,3.95,.11,1.05,0,2.16-.05,3.33-.16,.41-.04,.91-.07,1.5-.11,.58-.04,1.21-.05,1.89-.05,3.24,0,5.69,.64,7.37,1.9,1.67,1.27,2.51,2.98,2.51,5.12,0,2-.79,3.75-2.37,5.25s-3.73,2.56-6.43,3.16l.62-.7c2.29,0,4.33,.39,6.1,1.18Zm-10.92-14.74c-.47,.18-.81,.53-1.02,1.04-.21,.52-.31,1.31-.31,2.39v10.51l-1.86-.43c1.62,.11,3.07,.16,4.35,.16,2.48,0,4.35-.68,5.59-2.04,1.24-1.36,1.86-3.14,1.86-5.36,0-2.04-.54-3.64-1.61-4.8-1.07-1.16-2.72-1.74-4.94-1.74-.9,0-1.59,.09-2.06,.27Zm9.71,29.64c1.3-1.32,1.95-3.22,1.95-5.68,0-2.72-.79-4.9-2.37-6.54-1.58-1.64-3.82-2.48-6.72-2.52-1.88-.07-3.74,.02-5.59,.27l1.69-.59v13.56c0,.89,.13,1.58,.4,2.06,.26,.48,.75,.84,1.47,1.07,.71,.23,1.79,.35,3.22,.35,2.67,0,4.66-.66,5.95-1.98Z" fill="#a1a9d8"/>
        <path d="M65.57,216.88c0-.21,.06-.32,.17-.32,1.35,0,2.34-.09,2.96-.27,.62-.18,1.04-.53,1.27-1.05,.23-.52,.34-1.31,.34-2.39v-24.82c0-1.07-.11-1.86-.34-2.36-.23-.5-.65-.85-1.27-1.05-.62-.2-1.61-.29-2.96-.29-.11,0-.17-.11-.17-.32s.06-.32,.17-.32h23.03c.38,0,.56,.16,.56,.48l.11,6.75c0,.11-.1,.17-.31,.19-.21,.02-.33-.03-.37-.13-.26-1.97-1-3.47-2.2-4.5-1.2-1.04-2.78-1.55-4.74-1.55h-2.88c-1.66,0-2.77,.23-3.33,.7-.56,.46-.85,1.34-.85,2.63v24.39c0,1.29,.25,2.16,.76,2.63,.51,.46,1.53,.7,3.08,.7h3.73c2.11,0,3.87-.6,5.28-1.8,1.41-1.2,2.38-2.9,2.91-5.12,0-.07,.07-.11,.23-.11,.11,0,.22,.03,.31,.08,.09,.05,.14,.1,.14,.13-.38,2.57-.56,4.99-.56,7.24,0,.29-.06,.49-.17,.62-.11,.13-.34,.19-.68,.19h-24.04c-.11,0-.17-.11-.17-.32Zm19.67-15.41c-.92-.73-2.38-1.1-4.37-1.1h-8.24v-1.23h8.35c1.92,0,3.33-.31,4.23-.94,.9-.62,1.35-1.6,1.35-2.92,0-.07,.1-.11,.31-.11s.31,.04,.31,.11l-.06,4.5,.06,2.41c.07,1.14,.11,2.04,.11,2.68,0,.07-.11,.11-.34,.11s-.34-.04-.34-.11c0-1.54-.46-2.67-1.38-3.4Z" fill="#a1a9d8"/>
        <path d="M100.85,193.27c.71,1.02,1.58,1.9,2.6,2.63,1.02,.73,2.43,1.62,4.23,2.65,1.88,1.11,3.38,2.06,4.49,2.87,1.11,.8,2.06,1.8,2.85,2.98,.79,1.18,1.19,2.57,1.19,4.18,0,1.75-.48,3.33-1.44,4.74-.96,1.41-2.33,2.52-4.12,3.32-1.79,.8-3.87,1.21-6.24,1.21-1.51,0-2.99-.17-4.46-.51-1.47-.34-2.75-.83-3.84-1.47-.19-.11-.32-.23-.4-.38-.08-.14-.11-.36-.11-.64l-.56-7.67c-.04-.14,.05-.23,.25-.27,.21-.04,.33,.02,.37,.16,.9,2.72,2.16,5.02,3.78,6.92,1.62,1.89,3.73,2.84,6.32,2.84,1.77,0,3.25-.46,4.46-1.37,1.2-.91,1.81-2.4,1.81-4.48,0-1.57-.38-2.95-1.13-4.13-.75-1.18-1.67-2.17-2.77-2.98-1.09-.8-2.54-1.72-4.35-2.76-1.77-1.07-3.17-1.99-4.2-2.76-1.04-.77-1.91-1.72-2.62-2.84-.72-1.13-1.07-2.44-1.07-3.94,0-1.82,.52-3.38,1.55-4.66,1.03-1.29,2.39-2.24,4.06-2.87,1.67-.62,3.43-.94,5.28-.94,2.48,0,4.76,.41,6.83,1.23,.56,.25,.85,.57,.85,.96l.28,6.7c0,.14-.1,.22-.31,.24-.21,.02-.33-.04-.37-.19-.41-1.93-1.29-3.75-2.62-5.47-1.34-1.72-3.25-2.57-5.73-2.57-1.88,0-3.34,.54-4.37,1.61-1.04,1.07-1.55,2.43-1.55,4.07,0,1.36,.36,2.55,1.07,3.56Z" fill="#a1a9d8"/>
        <path d="M122.18,186.62c-1.32,1.23-2.3,3.21-2.94,5.92-.04,.07-.16,.11-.37,.11s-.31-.05-.31-.16c.15-1,.32-2.63,.51-4.88,.19-2.25,.28-3.95,.28-5.09,0-.18,.11-.27,.34-.27s.34,.09,.34,.27c0,.79,1.03,1.18,3.1,1.18,3.24,.11,7.02,.16,11.34,.16,2.22,0,4.57-.04,7.06-.11l3.84-.05c1.39,0,2.41-.09,3.05-.27,.64-.18,1.05-.54,1.24-1.07,.04-.14,.16-.21,.37-.21s.31,.07,.31,.21c-.11,1-.24,2.61-.37,4.82-.13,2.22-.2,3.99-.2,5.31,0,.11-.1,.16-.31,.16s-.31-.05-.31-.16c-.26-2.75-1.02-4.73-2.26-5.92-1.24-1.2-3.09-1.8-5.53-1.8-1.39,0-2.39,.08-2.99,.24-.6,.16-1.02,.46-1.24,.91-.23,.45-.34,1.19-.34,2.22v24.71c0,1.11,.12,1.91,.37,2.41,.24,.5,.72,.84,1.44,1.02,.71,.18,1.86,.27,3.44,.27,.07,0,.11,.11,.11,.32s-.04,.32-.11,.32c-1.32,0-2.35-.02-3.1-.05l-4.46-.05-4.35,.05c-.75,.04-1.81,.05-3.16,.05-.11,0-.17-.11-.17-.32s.06-.32,.17-.32c1.54,0,2.68-.09,3.41-.27,.73-.18,1.23-.53,1.5-1.05,.26-.52,.4-1.31,.4-2.39v-24.82c0-1-.11-1.72-.34-2.17-.23-.45-.65-.74-1.27-.88-.62-.14-1.63-.21-3.02-.21-2.33,0-4.16,.62-5.47,1.85Z" fill="#a1a9d8"/>
        <path d="M165.7,186.62c-1.32,1.23-2.3,3.21-2.94,5.92-.04,.07-.16,.11-.37,.11s-.31-.05-.31-.16c.15-1,.32-2.63,.51-4.88,.19-2.25,.28-3.95,.28-5.09,0-.18,.11-.27,.34-.27s.34,.09,.34,.27c0,.79,1.03,1.18,3.1,1.18,3.24,.11,7.02,.16,11.34,.16,2.22,0,4.57-.04,7.06-.11l3.84-.05c1.39,0,2.41-.09,3.05-.27,.64-.18,1.05-.54,1.24-1.07,.04-.14,.16-.21,.37-.21s.31,.07,.31,.21c-.11,1-.24,2.61-.37,4.82-.13,2.22-.2,3.99-.2,5.31,0,.11-.1,.16-.31,.16s-.31-.05-.31-.16c-.26-2.75-1.02-4.73-2.26-5.92-1.24-1.2-3.09-1.8-5.53-1.8-1.39,0-2.39,.08-2.99,.24-.6,.16-1.02,.46-1.24,.91-.23,.45-.34,1.19-.34,2.22v24.71c0,1.11,.12,1.91,.37,2.41,.24,.5,.72,.84,1.44,1.02,.71,.18,1.86,.27,3.44,.27,.07,0,.11,.11,.11,.32s-.04,.32-.11,.32c-1.32,0-2.35-.02-3.1-.05l-4.46-.05-4.35,.05c-.75,.04-1.81,.05-3.16,.05-.11,0-.17-.11-.17-.32s.06-.32,.17-.32c1.54,0,2.68-.09,3.41-.27,.73-.18,1.23-.53,1.5-1.05,.26-.52,.4-1.31,.4-2.39v-24.82c0-1-.11-1.72-.34-2.17-.23-.45-.65-.74-1.27-.88-.62-.14-1.63-.21-3.02-.21-2.33,0-4.16,.62-5.47,1.85Z" fill="#a1a9d8"/>
        <path d="M195.33,216.88c0-.21,.06-.32,.17-.32,1.35,0,2.34-.09,2.96-.27,.62-.18,1.04-.53,1.27-1.05,.23-.52,.34-1.31,.34-2.39v-24.82c0-1.07-.11-1.86-.34-2.36-.23-.5-.65-.85-1.27-1.05-.62-.2-1.61-.29-2.96-.29-.11,0-.17-.11-.17-.32s.06-.32,.17-.32h23.03c.38,0,.56,.16,.56,.48l.11,6.75c0,.11-.1,.17-.31,.19-.21,.02-.33-.03-.37-.13-.26-1.97-1-3.47-2.2-4.5-1.2-1.04-2.78-1.55-4.74-1.55h-2.88c-1.66,0-2.77,.23-3.33,.7-.56,.46-.85,1.34-.85,2.63v24.39c0,1.29,.25,2.16,.76,2.63,.51,.46,1.53,.7,3.08,.7h3.73c2.11,0,3.87-.6,5.28-1.8,1.41-1.2,2.38-2.9,2.91-5.12,0-.07,.07-.11,.23-.11,.11,0,.22,.03,.31,.08,.09,.05,.14,.1,.14,.13-.38,2.57-.56,4.99-.56,7.24,0,.29-.06,.49-.17,.62-.11,.13-.34,.19-.68,.19h-24.04c-.11,0-.17-.11-.17-.32Zm19.67-15.41c-.92-.73-2.38-1.1-4.37-1.1h-8.24v-1.23h8.35c1.92,0,3.33-.31,4.23-.94,.9-.62,1.35-1.6,1.35-2.92,0-.07,.1-.11,.31-.11s.31,.04,.31,.11l-.06,4.5,.06,2.41c.07,1.14,.11,2.04,.11,2.68,0,.07-.11,.11-.34,.11s-.34-.04-.34-.11c0-1.54-.46-2.67-1.38-3.4Z" fill="#a1a9d8"/>
        <path d="M260.86,216.88c0,.21-.09,.32-.28,.32-.72,0-1.83-.04-3.33-.11-1.58-.07-2.71-.11-3.39-.11-.87,0-1.94,.04-3.22,.11-1.28,.07-2.24,.11-2.88,.11-.15,0-.23-.11-.23-.32s.07-.32,.23-.32c1.28,0,2.2-.12,2.77-.35,.56-.23,.85-.65,.85-1.26s-.28-1.45-.85-2.52l-12.14-23.96,1.81-2.57-11.01,24.23c-.53,1.22-.79,2.22-.79,3,0,1.14,.47,2,1.41,2.57,.94,.57,2.29,.86,4.06,.86,.19,0,.28,.11,.28,.32s-.09,.32-.28,.32c-.68,0-1.66-.04-2.93-.11-1.43-.07-2.67-.11-3.73-.11-.98,0-2.14,.04-3.5,.11-1.2,.07-2.18,.11-2.94,.11-.15,0-.23-.11-.23-.32s.08-.32,.23-.32c1.05,0,1.95-.2,2.68-.59,.73-.39,1.44-1.07,2.12-2.04s1.45-2.39,2.31-4.29l12.02-26.32c.04-.11,.17-.17,.4-.19,.23-.02,.36,.05,.4,.19l13.55,26.54c1.32,2.61,2.42,4.38,3.3,5.31,.88,.93,1.89,1.39,3.02,1.39,.19,0,.28,.11,.28,.32Zm-28.79-14.85h15.35l.4,1.18h-16.42l.68-1.18Z" fill="#a1a9d8"/>
        <path d="M265.15,184.93l1.41,.11-.56,26.05c-.04,1.86,.32,3.23,1.07,4.13,.75,.89,1.98,1.34,3.67,1.34,.11,0,.17,.11,.17,.32s-.06,.32-.17,.32c-1.02,0-1.81-.02-2.37-.05l-3.1-.05-3.1,.05c-.53,.04-1.3,.05-2.31,.05-.08,0-.11-.11-.11-.32s.04-.32,.11-.32c3.12,0,4.7-1.82,4.74-5.47l.56-26.16Zm39.06,31.95c0,.21-.04,.32-.11,.32-1.24,0-2.22-.02-2.94-.05l-3.95-.05-3.78,.05c-.64,.04-1.52,.05-2.65,.05-.08,0-.11-.11-.11-.32s.04-.32,.11-.32c1.28,0,2.22-.1,2.82-.29,.6-.2,1-.54,1.19-1.05,.19-.5,.24-1.29,.17-2.36l-1.13-25.25,2.2-3-14.62,32.22c-.08,.14-.23,.21-.45,.21s-.38-.07-.45-.21l-14.73-28.68c-.68-1.32-1.47-2.29-2.37-2.9-.9-.61-1.96-.91-3.16-.91-.08,0-.11-.11-.11-.32s.04-.32,.11-.32l2.26,.05c.45,.04,1.03,.05,1.75,.05,.83,0,1.5-.02,2.03-.05,.53-.04,.94-.05,1.24-.05,.49,0,.88,.16,1.19,.48,.3,.32,.77,1.09,1.41,2.31l12.81,24.71-2.09,3.43,13.6-29.59c.38-.89,.94-1.34,1.69-1.34,.23,0,.53,.02,.9,.05,.38,.04,.87,.05,1.47,.05l2.88-.05c.45-.04,1.11-.05,1.98-.05,.07,0,.11,.11,.11,.32s-.04,.32-.11,.32c-1.88,0-3.22,.29-4.01,.86-.79,.57-1.17,1.57-1.13,3l1.19,24.66c.07,1.11,.23,1.91,.45,2.41,.23,.5,.65,.84,1.27,1.02,.62,.18,1.61,.27,2.96,.27,.07,0,.11,.11,.11,.32Z" fill="#a1a9d8"/>
      </g>
      <g>
        <g>
          <g>
            <path d="M136.31,47.83c.32,0,.46,.29,.5,.7l2.34,17.89h.07l2.16-17.89c.03-.41,.14-.7,.39-.7h4.43c.14,0,.21,.12,.21,.21,0,.16-.14,.29-.25,.41l-.89,1.2c-.21,.33-.28,.66-.28,1.16v25.03c0,.5,.07,.82,.28,1.16l.89,1.2c.11,.12,.25,.25,.25,.41,0,.08-.07,.21-.21,.21h-4.97c-.18,0-.21-.12-.21-.21,0-.16,.14-.29,.25-.45l.75-1.11c.21-.33,.25-.7,.25-1.2v-19.99h-.07l-2.7,22.64c-.04,.2-.11,.33-.28,.33h-.78c-.11,0-.14-.17-.18-.37l-2.87-22.6h-.07v19.99c0,.5,.04,.87,.25,1.2l.74,1.11c.11,.17,.25,.29,.25,.45,0,.08-.07,.21-.21,.21h-4.36c-.14,0-.21-.12-.21-.21,0-.16,.18-.29,.25-.41l.89-1.2c.21-.33,.32-.66,.32-1.16v-25.03c0-.5-.11-.82-.32-1.16l-.89-1.2c-.07-.12-.25-.25-.25-.41,0-.08,.07-.21,.21-.21h4.33Z"/>
            <path d="M146.21,78.94h-4.97c-.21,0-.34-.13-.34-.34,0-.16,.09-.29,.18-.4,.03-.04,.06-.08,.09-.12l.75-1.12c.19-.29,.23-.63,.23-1.12v-18.37l-2.5,21.02c-.02,.12-.08,.45-.41,.45h-.78c-.23,0-.27-.27-.31-.48l-2.68-21.07v18.45c0,.49,.04,.83,.23,1.12l.74,1.11s.06,.09,.09,.12c.09,.12,.18,.24,.18,.4s-.13,.34-.34,.34h-4.36c-.21,0-.34-.18-.34-.34s.1-.27,.18-.37c.03-.04,.06-.07,.08-.11l.9-1.21c.21-.32,.29-.64,.29-1.08v-25.03c0-.44-.09-.75-.3-1.08l-.88-1.19s-.06-.08-.09-.12c-.08-.1-.18-.21-.18-.37s.14-.34,.34-.34h4.33c.25,0,.57,.14,.63,.82l2.24,17.12,2.07-17.13c.02-.2,.07-.82,.52-.82h4.43c.21,0,.34,.18,.34,.34,0,.19-.12,.33-.23,.44l-.05,.06-.88,1.19c-.18,.29-.26,.59-.26,1.08v25.03c0,.49,.07,.79,.26,1.08l.93,1.24c.1,.11,.23,.25,.23,.44,0,.16-.13,.34-.34,.34Zm-11.02-23.23h.32l.02,.12,2.87,22.6c.01,.07,.04,.23,.07,.26h.76c.05,0,.11,0,.15-.23l2.71-22.75h.32v20.13c0,.54-.04,.92-.27,1.27l-.75,1.11s-.06,.09-.1,.14c-.07,.1-.13,.17-.13,.24,0,.06,.02,.08,.08,.08h4.97c.07,0,.08-.08,.08-.08,0-.09-.08-.17-.16-.26l-.06-.07-.89-1.21c-.22-.35-.31-.69-.31-1.23v-25.03c0-.54,.09-.89,.3-1.23l.96-1.28c.08-.09,.16-.17,.16-.26,0,0,0-.08-.08-.08h-4.43c-.17,0-.24,.32-.26,.58l-2.18,18.01h-.31l-.02-.11-2.34-17.89c-.05-.59-.29-.59-.37-.59h-4.33c-.06,0-.08,.06-.08,.08,0,.06,.06,.13,.12,.2,.04,.05,.09,.1,.11,.15l.88,1.18c.25,.38,.34,.74,.34,1.23v25.03c0,.5-.1,.85-.34,1.23l-.89,1.2s-.06,.09-.1,.14c-.06,.07-.12,.14-.12,.2,0,.01,.02,.08,.08,.08h4.36c.07,0,.08-.08,.08-.08,0-.07-.06-.15-.13-.24-.03-.04-.07-.09-.1-.14l-.74-1.11c-.23-.35-.27-.73-.27-1.27v-20.13Z" fill="#c7c8c8"/>
          </g>
          <g>
            <path d="M153.82,71.91c-.03-.2-.14-.37-.32-.37h-2.63c-.11,0-.18,.12-.21,.29l-.53,4.54c-.04,.29,.04,.54,.18,.74l.78,.95c.14,.21,.36,.37,.36,.5s-.07,.25-.25,.25h-4.08c-.14,0-.22-.12-.22-.25s.14-.29,.25-.41l.99-1.16c.22-.25,.25-.66,.29-1.03l3.23-27.76c.03-.2,.11-.37,.28-.37h1.31c.18,0,.29,.21,.32,.45l3.37,27.72c.04,.41,.14,.87,.39,1.12l1.03,1.07c.11,.12,.22,.25,.22,.37s-.07,.25-.25,.25h-5.11c-.18,0-.25-.12-.25-.25s.14-.25,.25-.37l.96-1.11c.14-.17,.21-.46,.18-.83l-.53-4.34Zm-.5-2.56c.11,0,.18-.12,.14-.29l-1.24-10.12h-.07l-1.17,10.16c-.03,.16,.04,.25,.11,.25h2.24Z"/>
            <path d="M158.33,78.94h-5.11c-.23,0-.38-.16-.38-.38,0-.15,.11-.27,.22-.38l.06-.07,.96-1.11c.12-.14,.18-.41,.15-.73l-.53-4.33c-.01-.06-.05-.26-.19-.26h-2.63s-.05,.05-.08,.19l-.53,4.53c-.03,.24,.02,.46,.15,.65l.77,.94c.06,.09,.12,.15,.17,.22,.11,.13,.21,.24,.21,.37,0,.23-.16,.38-.38,.38h-4.08c-.2,0-.35-.16-.35-.38,0-.17,.15-.35,.28-.5l1-1.16c.18-.21,.22-.58,.25-.93v-.04s3.23-27.76,3.23-27.76c.05-.33,.19-.49,.41-.49h1.31c.23,0,.4,.21,.45,.57l3.37,27.72c.04,.48,.17,.85,.35,1.04l1.03,1.08c.12,.14,.25,.29,.25,.46,0,.23-.16,.38-.38,.38Zm-7.45-7.53h2.63c.23,0,.4,.18,.45,.48h0s.53,4.34,.53,4.34c.04,.4-.04,.73-.21,.93l-.96,1.11s-.05,.05-.07,.08c-.06,.06-.15,.16-.15,.2,0,.12,.09,.12,.12,.12h5.11s.12,0,.12-.12c0-.08-.11-.19-.18-.28l-1.02-1.07c-.29-.29-.39-.81-.43-1.2l-3.37-27.71c-.03-.2-.11-.34-.19-.34h-1.31s-.11,0-.15,.26l-3.23,27.78c-.04,.38-.08,.8-.31,1.07l-.99,1.16c-.07,.09-.22,.25-.22,.33,0,.01,0,.12,.08,.12h4.08s.11,0,.11-.12c0-.03-.09-.13-.15-.19-.06-.07-.13-.15-.19-.23l-.77-.94c-.18-.26-.24-.54-.2-.84l.53-4.54c.08-.36,.25-.41,.34-.41Zm2.45-1.93h-2.24c-.07,0-.13-.03-.18-.09-.06-.08-.08-.19-.06-.32l1.18-10.27h.31l.02,.12,1.24,10.12c.03,.12,0,.25-.07,.34-.05,.06-.13,.1-.21,.1Zm0-.26v0h0Zm-1.13-9.45l-1.08,9.35c-.02,.07,0,.1,0,.11h2.21s.03-.06,.01-.14l-1.15-9.32Z" fill="#c7c8c8"/>
          </g>
          <g>
            <path d="M167.09,58.53c0,.12-.07,.2-.22,.2-.11,0-.18-.12-.21-.29-.57-3.35-2.27-8.55-3.9-8.55-.89,0-.96,.87-.96,1.94,0,2.02,.46,4.05,3.09,10.53,2.48,6.11,2.77,7.48,2.77,10.74,0,4.38-1.95,5.7-3.27,5.7-.96,0-1.56-.45-1.99-.79-.39-.29-.6-.41-.71-.41-.14,0-.43,.29-1.14,.91-.14,.12-.28,.29-.43,.29s-.18-.08-.18-.21v-10.41c0-.12,.04-.29,.18-.29,.11,0,.18,.16,.21,.29,.64,3.3,1.74,8.55,3.83,8.55,.67,0,1.03-.87,1.03-2.15,0-2.77-1.06-5.78-3.09-10.74-1.92-4.71-2.62-7.85-2.62-10.86,0-3.92,1.45-5.16,3.26-5.16,.67,0,1.45,.45,1.99,.95,.18,.12,.39,.25,.53,.25s.5-.29,.81-.66c.32-.33,.53-.54,.75-.54,.18,0,.25,.21,.25,.45v10.25Z"/>
            <path d="M164.39,78.94c-1.02,0-1.68-.51-2.07-.81-.46-.33-.59-.38-.63-.38-.07,.01-.32,.23-.63,.51-.12,.11-.26,.23-.42,.37-.03,.02-.06,.05-.09,.08-.13,.12-.26,.24-.43,.24-.12,0-.31-.04-.31-.34v-10.41c0-.26,.12-.42,.31-.42,.1,0,.25,.06,.34,.38,.49,2.54,1.63,8.45,3.7,8.45,.55,0,.9-.77,.9-2.02,0-2.68-.99-5.58-3.08-10.69-1.87-4.6-2.63-7.76-2.63-10.91,0-3.51,1.14-5.3,3.4-5.3,.75,0,1.57,.51,2.08,.98,.28,.19,.4,.21,.44,.21,.07,0,.37-.22,.71-.61,.36-.37,.58-.58,.85-.58,.24,0,.38,.22,.38,.59v10.25c0,.2-.13,.34-.35,.34-.1,0-.27-.05-.34-.39-.6-3.53-2.32-8.45-3.77-8.45-.7,0-.83,.61-.83,1.81,0,1.99,.45,3.98,3.08,10.48,2.52,6.21,2.78,7.59,2.78,10.79,0,4.6-2.14,5.83-3.4,5.83Zm-2.7-1.46c.12,0,.29,.07,.79,.44,.39,.3,.97,.76,1.91,.76,1.16,0,3.13-1.17,3.13-5.57,0-3.21-.24-4.48-2.76-10.69-2.65-6.54-3.1-8.55-3.1-10.58,0-.88,0-2.07,1.09-2.07,1.81,0,3.52,5.64,4.03,8.66,.03,.13,.07,.18,.08,.18,.08,0,.08-.03,.08-.07v-10.25c0-.16-.04-.32-.12-.32-.16,0-.35,.19-.65,.5-.06,.06-.61,.7-.91,.7-.15,0-.35-.09-.61-.27-.47-.43-1.23-.93-1.91-.93-2.08,0-3.13,1.69-3.13,5.03,0,3.12,.76,6.25,2.61,10.82,2.1,5.13,3.1,8.06,3.1,10.79,0,1.43-.43,2.28-1.16,2.28-2.01,0-3.09-4.16-3.96-8.66-.04-.13-.08-.18-.09-.18-.02,0-.04,.08-.04,.16v10.41c0,.06,.01,.07,.01,.07h0s.01,0,.04,0c.06,0,.16-.1,.25-.17,.03-.03,.06-.06,.09-.09,.16-.14,.3-.26,.42-.37,.47-.41,.64-.57,.8-.57Z" fill="#c7c8c8"/>
          </g>
          <g>
            <path d="M172.93,49.81h-1.31c-.21,0-.32,.21-.39,.45l-1.85,8.22c-.04,.17-.14,.25-.28,.25s-.18-.08-.18-.29v-10.45c0-.08,.07-.17,.18-.17h10.39c.1,0,.18,.08,.18,.17v10.45c0,.21-.04,.29-.18,.29s-.25-.08-.29-.25l-1.85-8.22c-.07-.25-.18-.45-.39-.45h-1.32v26.02c0,.5,.04,.87,.29,1.16l1.06,1.2c.11,.12,.25,.25,.25,.37s-.03,.25-.21,.25h-5.49c-.18,0-.21-.12-.21-.25s.14-.25,.25-.37l1.06-1.2c.25-.29,.29-.66,.29-1.16v-26.02Z"/>
            <path d="M177.04,78.94h-5.49c-.1,0-.34-.04-.34-.38,0-.15,.11-.27,.22-.38l1.13-1.27c.21-.25,.25-.57,.25-1.07v-25.89h-1.18c-.07,0-.17,.04-.26,.36l-1.84,8.21c-.05,.22-.2,.35-.41,.35-.31,0-.31-.29-.31-.42v-10.45c0-.17,.14-.3,.31-.3h10.39c.17,0,.31,.13,.31,.3v10.45c0,.13,0,.42-.31,.42-.21,0-.37-.13-.41-.35l-1.85-8.22c-.09-.31-.19-.35-.26-.35h-1.18v25.89c0,.5,.04,.82,.25,1.07l1.12,1.26c.11,.12,.22,.24,.22,.39,0,.34-.24,.38-.35,.38Zm-5.42-29.26h1.45v26.16c0,.46-.02,.9-.32,1.24l-1.07,1.2s-.04,.05-.07,.08c-.06,.06-.15,.16-.15,.2,0,.12,.03,.12,.08,.12h5.49c.06,0,.08,0,.08-.12,0-.05-.08-.14-.15-.21l-1.12-1.27c-.3-.34-.32-.79-.32-1.24v-26.16h1.45c.35,0,.47,.4,.52,.55l1.85,8.23c.03,.12,.09,.14,.16,.14,.03,0,.04-.03,.04-.16v-10.45s-.01-.03-.04-.03h-10.39s-.05,.02-.05,.03v10.45c0,.12,.02,.15,.02,.16,.09,0,.15-.02,.18-.14l1.85-8.22c.04-.14,.16-.56,.52-.56Z" fill="#c7c8c8"/>
          </g>
          <g>
            <path d="M184.88,62h.78c.18,0,.32-.08,.39-.29l1.24-2.89c.07-.16,.11-.25,.21-.25,.11,0,.15,.08,.15,.25v8.76c0,.12-.04,.21-.15,.21-.14,0-.18-.12-.25-.29l-1.2-3.01c-.07-.21-.21-.29-.39-.29h-.78v12.56h2.02c.46,0,.81-.25,.96-.74l1.91-7.93c.04-.16,.15-.25,.25-.25,.11,0,.18,.12,.18,.25v10.37c0,.2-.1,.37-.28,.37h-9.19c-.14,0-.21-.12-.21-.25s.18-.2,.25-.37l1.06-1.2c.25-.29,.32-.66,.32-1.16v-25.03c0-.5-.07-.87-.32-1.16l-1.06-1.2c-.07-.12-.25-.25-.25-.37s.07-.25,.21-.25h9.19c.14,0,.28,.17,.28,.37v10.29c0,.17-.07,.25-.18,.25-.14,0-.25-.12-.29-.29l-1.91-7.76c-.14-.54-.46-.79-.92-.79h-2.02v12.1Z"/>
            <path d="M189.92,78.94h-9.19c-.2,0-.35-.16-.35-.38,0-.12,.08-.2,.15-.27,.04-.05,.09-.1,.11-.15l.02-.03,1.06-1.2c.2-.24,.29-.55,.29-1.07v-25.03c0-.52-.08-.83-.29-1.07l-1.06-1.19c-.04-.06-.07-.1-.11-.14-.08-.09-.18-.19-.18-.32,0-.22,.15-.38,.35-.38h9.19c.22,0,.41,.23,.41,.5v10.29c0,.28-.16,.38-.31,.38-.2,0-.36-.16-.41-.39l-1.91-7.76c-.12-.46-.38-.68-.79-.68h-1.89v11.84h.64c.14,0,.22-.06,.27-.2l1.24-2.9c.08-.18,.15-.33,.34-.33,.12,0,.28,.06,.28,.38v8.76c0,.32-.21,.34-.28,.34-.21,0-.29-.17-.35-.32l-.02-.05-1.21-3.02c-.05-.15-.13-.21-.27-.21h-.64v12.29h1.89c.42,0,.7-.23,.83-.65l1.91-7.93c.05-.24,.23-.35,.38-.35,.18,0,.31,.16,.31,.38v10.37c0,.29-.18,.5-.41,.5Zm-9.04-.68c-.05,.09-.1,.15-.16,.21-.03,.03-.07,.08-.07,.09,0,0,0,.12,.08,.12h9.19c.11,0,.15-.15,.15-.24v-10.37c0-.07-.03-.11-.04-.11-.04,0-.1,.04-.12,.14l-1.91,7.93c-.16,.54-.55,.84-1.09,.84h-2.16v-12.82h.91c.25,0,.43,.13,.52,.38l1.22,3.06c.06,.14,.07,.16,.1,.16h0s.01-.02,.01-.08v-8.76c0-.1-.01-.12-.02-.12-.02,.02-.06,.11-.08,.17l-1.24,2.89c-.08,.24-.26,.37-.52,.37h-.91v-12.37h2.16c.54,0,.9,.31,1.05,.88l1.91,7.77c.02,.09,.08,.19,.16,.19,.01,0,.04,0,.04-.11v-10.29c0-.13-.09-.24-.15-.24h-9.19c-.08,0-.08,.11-.08,.12,0,.03,.07,.1,.1,.14,.05,.05,.09,.1,.12,.16l1.05,1.18c.25,.29,.36,.66,.36,1.24v25.03c0,.58-.11,.95-.36,1.24l-1.05,1.18Z" fill="#c7c8c8"/>
          </g>
          <g>
            <path d="M195.83,75.84c0,.5,.07,.87,.32,1.16l1.06,1.2c.07,.12,.25,.25,.25,.37s-.07,.25-.21,.25h-5.57c-.14,0-.21-.12-.21-.25s.18-.25,.25-.37l1.06-1.2c.25-.29,.32-.66,.32-1.16v-25.03c0-.5-.07-.87-.32-1.16l-1.06-1.2c-.07-.12-.25-.25-.25-.37s.07-.25,.21-.25h4.44c3.69,0,5.6,2.27,5.6,7.64,0,4.58-1.38,6.45-2.62,7.35,1.2,.74,2.27,2.36,2.27,4.63v8.63c0,.29,.14,.54,.32,.74l1.14,1.4c.15,.17,.29,.33,.29,.45s-.18,.12-.36,.12h-1.84c-1.63,0-2.27-1.24-2.27-2.64v-8.88c0-1.82-.96-3.18-2.2-3.18h-.6v11.73Zm0-13.8h.53c1.74,0,2.45-1.61,2.45-6.57,0-4.21-.71-5.57-2.45-5.57h-.53v12.14Z"/>
            <path d="M202.75,78.94h-1.84c-1.5,0-2.41-1.04-2.41-2.78v-8.88c0-1.74-.89-3.05-2.07-3.05h-.47v11.6c0,.52,.08,.83,.29,1.07l1.06,1.19c.04,.06,.08,.1,.11,.15,.08,.09,.17,.19,.17,.31,0,.22-.15,.38-.35,.38h-5.57c-.2,0-.35-.16-.35-.38,0-.13,.09-.23,.18-.32,.04-.04,.07-.08,.09-.12l1.08-1.22c.2-.24,.29-.55,.29-1.07v-25.03c0-.52-.08-.83-.29-1.07l-1.06-1.19c-.04-.06-.07-.1-.11-.14-.08-.09-.18-.19-.18-.32,0-.22,.15-.38,.35-.38h4.44c3.91,0,5.74,2.47,5.74,7.77,0,3.59-.83,6-2.53,7.35,1.08,.75,2.18,2.32,2.18,4.63v8.63c0,.22,.09,.43,.29,.66l1.14,1.41c.18,.21,.32,.37,.32,.54,0,.26-.3,.26-.49,.26Zm-7.05-14.97h.74c1.33,0,2.34,1.42,2.34,3.31v8.88c0,.75,.21,2.51,2.14,2.51h1.84c.08,0,.21,0,.24-.02-.02-.05-.17-.23-.26-.34l-1.14-1.41c-.23-.27-.35-.54-.35-.83v-8.63c0-2.32-1.14-3.85-2.2-4.51l-.17-.1,.16-.12c1.73-1.27,2.57-3.64,2.57-7.25,0-5.12-1.74-7.51-5.47-7.51h-4.44c-.08,0-.08,.11-.08,.12,0,.03,.07,.1,.1,.14,.05,.05,.09,.1,.12,.16l1.05,1.18c.25,.29,.36,.66,.36,1.24v25.03c0,.58-.11,.95-.36,1.24l-1.06,1.2s-.06,.09-.11,.14c-.04,.04-.1,.11-.1,.14,0,0,0,.12,.08,.12h5.57c.08,0,.08-.11,.08-.12,0-.03-.07-.1-.1-.14-.05-.05-.1-.11-.13-.17l-1.04-1.17c-.25-.29-.36-.66-.36-1.24v-11.87Zm.67-1.8h-.67v-12.41h.67c1.88,0,2.58,1.55,2.58,5.71,0,4.89-.7,6.7-2.58,6.7Zm-.4-.26h.4c1.43,0,2.31-1.08,2.31-6.44,0-4.55-.84-5.44-2.31-5.44h-.4v11.88Z" fill="#c7c8c8"/>
          </g>
        </g>
        <path d="M194.06,116.32c.4,2.39,12.42-1.11,23.04-2,8.73-.73,17.31,.43,20.67,1.69l.7-.53,.11-.08-.13-.05-1.27-.54,1.1-.83,.11-.08-.13-.05-1.27-.54,1.1-.83,.11-.08-.13-.05-1.27-.54,1.1-.83,.11-.08-.13-.05-1.27-.54,1.1-.83,.11-.08-.13-.05-1.27-.54,1.1-.83,.11-.08-.13-.05-1.27-.54,1.1-.83,.11-.08-.13-.05-1.27-.54,1.1-.83,.11-.08-.13-.05-1.27-.54,1.1-.83,.11-.08-.13-.05-1.27-.54,1.1-.83,.11-.08-.13-.05-1.27-.54,.21-.16c-6.78-2.17-32.69-1.55-34.88,4.34-1.87,3.09-7.01,7.97-6.76,10.87Z" fill="url(#_未命名漸層_10)" fill-rule="evenodd"/>
        <path d="M213.91,112.3c.08,4.39-19.4-.74-19.84,4.06-.64-1.79,2.67-8.59,7.27-15.15,3.5-.09,7.95,.11,11.42,.02,.22,3.3,.93,7.77,1.15,11.08Z" fill="url(#GradientFill_20)" fill-rule="evenodd"/>
        <path d="M138.97,99.54c-1.81-4.45-24.36-2-34.7,.43l.53,.48-1.32,.42-.13,.04,.1,.09,1.02,.93-1.31,.42-.13,.04,.1,.09,1.02,.93-1.31,.42-.13,.04,.1,.09,1.02,.93-1.31,.42-.13,.04,.1,.09,1.02,.93-1.31,.42-.13,.04,.1,.09,1.02,.93-1.31,.42-.13,.04,.1,.09,1.02,.93-1.31,.42-.13,.04,.1,.09,1.02,.93-1.31,.42-.12,.04h0s.09,.1,.09,.1l1.02,.93-1.31,.42-.08,.03v.05s.05,.06,.05,.06l.52,.48c8.16-2.03,27.27-4.17,31.84-3.07,2.06-3.14,5.81-7.91,5.76-10.72Z" fill="url(#_未命名漸層_10-2)" fill-rule="evenodd"/>
        <path d="M118.96,101.33c-.63-2.72,19.28,2.63,20.03-1.73,.29,2.11-3.47,7.87-7.66,11.25-3.5,.13-7.94,.07-11.41,.2-.16-2.37-.81-7.35-.96-9.72Z" fill="url(#GradientFill_20-2)" fill-rule="evenodd"/>
        <path d="M167.93,0l.83,1.86,2.04,.23-1.51,1.36,.41,2.01-1.76-1.01-1.79,1.01,.42-1.99-1.52-1.39,2.02-.21,.85-1.87h0Zm-14.83,4.11h0l1.64,1.19,1.88-.82-.63,1.93,1.36,1.54h-2.03s-1.04,1.77-1.04,1.77l-.63-1.93-2-.44,1.64-1.2-.2-2.04h0Zm29.72-.25h0l-.21,2.02,1.65,1.22-1.99,.42-.65,1.95-1.02-1.76h-2.05s1.36-1.53,1.36-1.53l-.62-1.96,1.86,.82,1.67-1.19h0Zm-7.19-2.91h0l.32,2.01,1.91,.75-1.81,.92-.12,2.05-1.44-1.44-1.99,.52,.92-1.81-1.11-1.73,2.01,.32,1.3-1.59h0Zm-15.38,.13h0l1.28,1.58,2.03-.31-1.1,1.71,.92,1.84-1.96-.52-1.46,1.44-.11-2.03-1.82-.95,1.9-.73,.34-2.03Z" fill="#7a6a56" fill-rule="evenodd"/>
        <path d="M193.21,9.27c.36,.19,.71,.38,1.07,.57-.68-.77-.97-1.7-1.23-2.93,3.02,.87,3.98,1.98,4.34,4.71l-.04,.04c.64,.41,1.27,.83,1.89,1.26-.71-1-.92-2.14-1.06-3.65,3.43,1.45,4.39,2.88,4.44,6.14l-.04,.02c.47,.39,.94,.78,1.4,1.18-.49-1.13-.54-2.35-.47-3.89,3.51,2.08,4.4,3.79,4.02,7.27,.39,.41,.77,.82,1.15,1.23-.22-1.1-.08-2.23,.21-3.62,3.02,2.5,3.7,4.29,2.93,7.42,.51,.68,1.01,1.38,1.5,2.08-.25-1.47,.1-2.86,.71-4.61,3.06,3.34,3.48,5.46,1.99,8.99,.5,.91,.98,1.83,1.43,2.76-.22-1.74,.34-3.2,1.3-5.06,2.63,3.82,2.7,5.99,.58,9.42,.49,1.3,.94,2.62,1.34,3.97-.15-2.22,.71-3.78,2.18-5.79,2.14,4.46,1.84,6.75-.99,10.04l-.13-.02c.32,1.51,.57,3.05,.77,4.6,.03-2.79,1.23-4.39,3.3-6.44,1.51,5.06,.81,7.41-2.72,10.4l-.24-.08c.05,.96,.08,1.93,.08,2.9,0,.64-.01,1.27-.03,1.9,.05,.28,.1,.57,.13,.88,.11-3.82,1.6-5.4,4.34-7.42,.75,5.22-.28,7.45-4.21,9.89-.15-.08-.3-.15-.45-.23-.15,1.68-.38,3.34-.68,4.97,.92-2.74,2.63-3.95,5.33-5.33-.1,5.54-1.55,7.68-6.04,9.55l-.2-.15c-.35,1.33-.75,2.64-1.19,3.93,1.5-3.09,3.64-4.17,6.97-5.26-1.08,6.12-3.05,8.24-8.34,9.53-.07-.07-.14-.14-.21-.21-.35,.8-.72,1.59-1.1,2.37,1.76-1.4,3.81-1.88,6.54-2.24-2.25,5.99-4.65,7.9-10.04,8.3-.69,1.04-1.42,2.06-2.18,3.05,2.41-1.64,4.85-1.78,8.2-1.58-3.64,5.91-6.57,7.34-12.51,6.56-.76,.77-1.53,1.53-2.33,2.25,2.29-.65,4.48-.29,7.29,.46-4.59,4.9-7.69,5.83-13.03,4.11-1.11,.77-2.25,1.5-3.42,2.19,2.8-.29,5.16,.64,8.15,2.2-6.11,4.17-9.66,4.39-15,1.22-2.25,.93-4.58,1.73-6.97,2.36,3.26,.35,5.5,2.01,8.26,4.62-7.41,2.49-11.04,1.66-15.59-3.2-2.23,.28-4.51,.42-6.82,.42-2.18,0-4.33-.13-6.44-.38-4.53,4.82-8.16,5.64-15.55,3.16,2.68-2.53,4.86-4.17,7.97-4.58-2.35-.62-4.64-1.39-6.86-2.29-5.25,3.06-8.78,2.8-14.83-1.32,2.82-1.47,5.07-2.38,7.67-2.24-1.1-.65-2.17-1.34-3.22-2.06-5.16,1.6-8.24,.61-12.74-4.2,2.57-.69,4.63-1.05,6.72-.6-.73-.67-1.44-1.36-2.13-2.07-5.7,.68-8.58-.82-12.14-6.6,2.99-.18,5.26-.09,7.42,1.1-.64-.85-1.25-1.72-1.84-2.61-5.07-.47-7.4-2.44-9.59-8.26,2.4,.32,4.28,.73,5.9,1.78-.28-.57-.54-1.15-.8-1.73-5.2-1.29-7.15-3.42-8.22-9.5,2.7,.89,4.62,1.76,6.05,3.71-.24-.76-.46-1.54-.67-2.31-4.33-1.85-5.74-4.01-5.84-9.47,2.14,1.09,3.66,2.08,4.66,3.81-.17-1.07-.3-2.16-.4-3.25l-.05,.03c-3.93-2.44-4.96-4.67-4.21-9.89,2.08,1.53,3.44,2.81,4.02,5.01v-.36c0-1,.03-1.99,.08-2.97-3.37-2.92-4.02-5.28-2.54-10.25,1.61,1.6,2.7,2.93,3.11,4.76,.16-1.07,.36-2.13,.59-3.18-2.61-3.14-2.83-5.42-.75-9.76,1.18,1.6,1.96,2.92,2.15,4.52,.34-1.06,.71-2.1,1.11-3.13-1.85-3.2-1.68-5.34,.84-9,.78,1.52,1.3,2.77,1.35,4.12,.39-.76,.79-1.52,1.21-2.26-1.27-3.28-.76-5.36,2.17-8.56,.51,1.46,.84,2.68,.79,3.9,.43-.61,.87-1.21,1.32-1.79-.61-2.87,.15-4.61,3.03-7,.24,1.16,.37,2.15,.29,3.08,.34-.37,.68-.73,1.03-1.08-.27-3.21,.68-4.87,4.06-6.87,.06,1.3,.03,2.38-.28,3.36,.39-.33,.77-.65,1.17-.96,.1-3.05,1.11-4.45,4.43-5.85-.12,1.26-.29,2.27-.76,3.15,.52-.35,1.04-.69,1.57-1.02,.38-2.57,1.37-3.64,4.31-4.49-.22,1.03-.46,1.85-.93,2.54l.35-.18c-.12,.06-.24,.13-.35,.19-.43,.63-1.05,1.15-2.03,1.62,2.16-.69,3.34-.15,5,1.02-2.81,1.41-4.27,1.24-6.37-.48l.02-.14c-.56,.36-1.11,.74-1.66,1.12-.42,.71-1.06,1.35-2.04,1.98,2.44-1.11,3.9-.64,6.01,.5-3.1,2.05-4.83,2.06-7.55,.32v-.07c-.44,.36-.87,.73-1.29,1.11-.35,.89-.97,1.72-2,2.61,2.54-1.61,4.23-1.3,6.74-.35-3.13,2.74-5.05,3.01-8.32,1.5,0-.08-.02-.16-.03-.24-.39,.42-.77,.84-1.15,1.27-.2,.98-.68,1.93-1.6,3,2.26-1.98,3.98-1.95,6.6-1.41-2.67,3.2-4.52,3.77-7.99,2.78-.05-.17-.09-.34-.14-.5-.54,.74-1.07,1.5-1.57,2.26-.18,.84-.56,1.71-1.19,2.69,2.2-2.55,4.12-2.77,7.12-2.57-2.47,3.96-4.44,4.87-8.44,4.31l-.05-.11c-.62,1.16-1.19,2.34-1.73,3.55-.13,.48-.32,.98-.57,1.52,1.83-2.83,3.69-3.31,6.69-3.53-1.86,4.17-3.64,5.39-7.5,5.44-.61,1.66-1.14,3.36-1.58,5.1,1.39-2.55,3.19-3.28,6-3.93-1.23,4.56-2.85,6.17-6.68,6.88-.3,1.48-.53,2.99-.71,4.51,1.07-2.39,2.78-3.38,5.38-4.43-.52,4.92-1.92,6.91-5.69,8.29-.04,.82-.06,1.64-.06,2.47,0,.24,0,.47,0,.71,.81-1.92,2.25-3.01,4.36-4.25,.19,4.8-.83,6.98-4.11,8.86,.15,1.54,.36,3.07,.63,4.57,.41-2.45,1.77-3.91,3.92-5.69,1.03,5.04,.29,7.47-2.95,10.03,.28,1.04,.59,2.08,.92,3.09,.06-2.72,1.31-4.56,3.35-6.87,2.02,5.41,1.62,8.23-1.52,11.63,.82,1.87,1.74,3.68,2.75,5.43,.17,.26,.34,.53,.51,.82-1.81-4.43-.87-7,1.32-10.67,3.35,5.55,3.32,8.63,.25,13.17,.94,1.39,1.95,2.74,3.01,4.04-1.72-3.42-1.19-6.07,.14-9.78,4.52,5,5.17,8.17,3.05,13.33,1.49,1.52,3.06,2.96,4.72,4.29,.37,.24,.75,.5,1.13,.79-3.57-3.6-3.68-6.5-3.03-10.98,5.56,4.1,6.76,7.13,5.55,12.89,2.13,1.45,4.37,2.74,6.7,3.88,.09,.04,.17,.08,.26,.11-4.68-3-5.49-6.07-5.87-11.01,6.91,3.04,8.93,5.99,9.02,12.41,2.79,1.13,5.7,2.02,8.7,2.67-4.25-1.74-5.76-4.48-7.35-8.81,7.71,1.09,10.59,3.43,12.51,9.66,2.04,.24,4.11,.36,6.22,.36,2.25,0,4.47-.14,6.65-.41,1.91-6.19,4.8-8.53,12.49-9.61-1.53,4.18-2.99,6.88-6.91,8.62,2.85-.66,5.6-1.55,8.26-2.65,.13-6.3,2.17-9.22,9.02-12.24-.35,4.55-1.07,7.51-4.83,10.29,2.03-1.05,3.99-2.23,5.86-3.52-1.12-5.6,.12-8.6,5.6-12.65,.6,4.12,.55,6.9-2.25,10.13,1.74-1.41,3.39-2.93,4.94-4.54-1.97-4.98-1.26-8.13,3.17-13.03,1.18,3.28,1.72,5.73,.64,8.61,.8-1.03,1.57-2.1,2.3-3.19-2.87-4.37-2.82-7.43,.46-12.86,1.89,3.18,2.85,5.54,1.9,8.99,.88-1.58,1.68-3.22,2.4-4.89-2.88-3.26-3.2-6.07-1.24-11.31,1.77,2,2.94,3.65,3.26,5.83,.24-.77,.46-1.55,.66-2.34-2.94-2.46-3.59-4.89-2.6-9.75,1.83,1.52,3.09,2.8,3.67,4.67,.2-1.25,.36-2.51,.48-3.78-2.96-1.83-3.9-4.03-3.71-8.63,1.79,1.05,3.09,1.99,3.94,3.42,0-.84-.02-1.68-.06-2.51-3.44-1.38-4.76-3.4-5.26-8.13,2.2,.89,3.76,1.73,4.84,3.42-.16-1.21-.36-2.4-.6-3.58-3.51-.76-5.06-2.41-6.24-6.8,2.35,.55,3.99,1.14,5.29,2.82-.38-1.36-.81-2.69-1.29-4-3.57-.14-5.29-1.41-7.08-5.43,2.57,.19,4.3,.57,5.89,2.45-.57-1.31-1.18-2.59-1.84-3.84-3.81,.47-5.74-.49-8.15-4.35,3-.2,4.91,.02,7.12,2.57-.28-.44-.51-.86-.7-1.26-.69-1.12-1.41-2.21-2.17-3.27l-.02,.08c-3.47,.98-5.32,.41-7.99-2.78,2.63-.54,4.34-.58,6.6,1.41-.7-.81-1.14-1.56-1.4-2.29-.49-.57-.98-1.13-1.49-1.68-3.2,1.45-5.11,1.15-8.2-1.55,2.51-.95,4.2-1.25,6.74,.35-.77-.66-1.31-1.29-1.68-1.94-.59-.54-1.19-1.07-1.81-1.59-2.6,1.61-4.33,1.55-7.36-.44,2.11-1.14,3.57-1.61,6.01-.5-.7-.45-1.23-.9-1.62-1.38-.71-.52-1.43-1.02-2.16-1.5-2.05,1.65-3.51,1.79-6.27,.4,1.65-1.17,2.83-1.71,5-1.02-.75-.36-1.29-.76-1.7-1.2-.36-.21-.73-.41-1.1-.61Z" fill="#7a6a56" fill-rule="evenodd"/>
        <path d="M188.27,75.12c-.41,0-.76,.14-1.04,.42-.28,.28-.44,.65-.47,1.12h2.97c-.04-.45-.15-.79-.34-1.01-.29-.35-.66-.52-1.12-.52Z" fill="none"/>
        <path d="M182.55,75.12c-.41,0-.76,.14-1.04,.42-.28,.28-.44,.65-.47,1.12h2.97c-.04-.45-.15-.79-.34-1.01-.29-.35-.66-.52-1.12-.52Z" fill="none"/>
        <path d="M139.57,29.52c0-.26-.13-.5-.37-.71-.18-.15-.36-.24-.56-.25s-.38,.03-.55,.14c-.1,.07-.27,.23-.48,.48l-.92,1.07,1.49,1.29,.93-1.08c.31-.36,.46-.67,.46-.93Z" fill="none"/>
        <path d="M146.92,61.33c.29-.3,.5-.62,.63-.96,.13-.35,.2-.75,.2-1.22,0-.5-.09-.94-.26-1.32-.17-.38-.44-.68-.79-.91-.31-.2-.67-.35-1.08-.43-.41-.08-.92-.13-1.53-.13h-1.61v5.84h1.33c.79,0,1.42-.06,1.91-.19,.48-.13,.89-.36,1.21-.68Z" fill="none"/>
        <path d="M172.89,20.79c.54,.1,1.02-.01,1.44-.33,.42-.32,.69-.83,.82-1.52,.08-.44,.08-.84-.01-1.2-.09-.36-.26-.65-.52-.89-.25-.23-.56-.39-.92-.45-.51-.09-.98,0-1.41,.29-.43,.28-.72,.83-.87,1.65-.12,.66-.04,1.2,.25,1.64,.28,.44,.69,.71,1.22,.81Z" fill="none"/>
        <path d="M158.07,77.67c-.15,.07-.27,.16-.36,.29-.08,.13-.13,.27-.13,.43,0,.24,.09,.44,.27,.6,.18,.16,.45,.24,.8,.24s.66-.08,.93-.23c.27-.15,.47-.36,.6-.62,.1-.2,.15-.5,.15-.9v-.33c-.32,.13-.82,.25-1.48,.34-.37,.05-.64,.11-.79,.18Z" fill="none"/>
        <path d="M189.26,28.32c.28,.24,.51,.4,.71,.48,.2,.08,.39,.12,.56,.11,.24-.02,.5-.1,.76-.26,.26-.16,.53-.39,.8-.71,.38-.44,.59-.83,.65-1.19,.06-.36,.02-.66-.11-.92-.1-.19-.31-.42-.64-.7l-.88-.76-2.75,3.19,.89,.77Z" fill="none"/>
        <path d="M158.04,61.15c.28-.28,.49-.61,.63-.99,.14-.38,.2-.83,.2-1.34,0-.43-.08-.81-.23-1.14-.15-.33-.39-.6-.7-.81-.28-.19-.6-.31-.97-.39-.37-.08-.83-.12-1.38-.12h-1.94v5.54h1.72c.56,0,1.07-.05,1.51-.15,.45-.1,.83-.3,1.15-.61Z" fill="none"/>
        <path d="M136.58,33.83c-.38-.24-.75-.39-1.11-.44-.36-.05-.7,0-1.02,.15-.31,.15-.57,.38-.76,.68-.28,.44-.37,.91-.26,1.41,.1,.51,.5,.98,1.2,1.43,.56,.36,1.1,.48,1.61,.39,.52-.1,.92-.37,1.21-.83,.29-.46,.37-.95,.24-1.46-.14-.51-.5-.95-1.1-1.33Z" fill="none"/>
        <path d="M163.78,40.59c-.34-.43-.72-.74-1.15-.93-.43-.19-.87-.28-1.33-.28-.49,0-.93,.09-1.33,.26-.4,.17-.78,.48-1.15,.93-.33,.41-.59,.96-.79,1.63-.2,.68-.3,1.49-.3,2.43s.09,1.77,.29,2.41c.19,.64,.45,1.17,.78,1.61,.34,.44,.73,.75,1.16,.94,.43,.19,.88,.28,1.34,.28s.92-.1,1.36-.3c.44-.2,.82-.51,1.14-.94,.34-.46,.6-.99,.79-1.61,.18-.61,.27-1.41,.27-2.4,0-.94-.1-1.74-.29-2.4-.19-.66-.45-1.2-.78-1.63Z" fill="none"/>
        <path d="M167.21,77.67c-.15,.07-.27,.16-.36,.29-.08,.13-.13,.27-.13,.43,0,.24,.09,.44,.28,.6,.18,.16,.45,.24,.8,.24s.66-.08,.93-.23c.27-.15,.47-.36,.6-.62,.1-.2,.15-.5,.15-.9v-.33c-.32,.13-.82,.25-1.48,.34-.37,.05-.64,.11-.79,.18Z" fill="none"/>
        <polygon points="153.48 30.89 151.72 29.64 152.41 31.68 150.67 32.97 152.84 32.94 153.52 34.99 154.16 32.93 156.33 32.91 154.56 31.66 155.21 29.6 153.48 30.89" fill="#5c3f2d"/>
        <polygon points="160.11 27.68 158.84 25.93 158.85 28.1 156.8 28.77 158.86 29.42 158.87 31.59 160.13 29.83 162.19 30.49 160.9 28.75 162.17 26.99 160.11 27.68" fill="#5c3f2d"/>
        <polygon points="173.64 29.83 174.9 31.59 174.91 29.42 176.97 28.77 174.91 28.1 174.93 25.93 173.65 27.68 171.6 26.99 172.87 28.75 171.58 30.49 173.64 29.83" fill="#5c3f2d"/>
        <polygon points="179.6 32.93 180.24 34.99 180.93 32.94 183.09 32.97 181.36 31.68 182.05 29.64 180.29 30.89 178.56 29.6 179.21 31.66 177.44 32.91 179.6 32.93" fill="#5c3f2d"/>
        <polygon points="165.26 30.03 167.01 28.76 168.75 30.03 168.08 27.98 169.83 26.71 167.67 26.71 167.01 24.66 166.34 26.71 164.18 26.71 165.93 27.98 165.26 30.03" fill="#5c3f2d"/>
        <polygon points="160.13 87.75 158.87 85.99 158.86 88.15 156.8 88.8 158.85 89.48 158.84 91.64 160.11 89.89 162.17 90.58 160.9 88.82 162.19 87.09 160.13 87.75" fill="#5c3f2d"/>
        <polygon points="180.93 84.63 180.24 82.58 179.6 84.64 177.44 84.66 179.21 85.91 178.56 87.98 180.29 86.68 182.05 87.94 181.36 85.89 183.09 84.6 180.93 84.63" fill="#5c3f2d"/>
        <polygon points="174.91 88.15 174.9 85.99 173.64 87.75 171.58 87.09 172.87 88.82 171.6 90.58 173.65 89.89 174.93 91.64 174.91 89.48 176.97 88.8 174.91 88.15" fill="#5c3f2d"/>
        <polygon points="154.16 84.64 153.52 82.58 152.84 84.63 150.67 84.6 152.41 85.89 151.72 87.94 153.48 86.68 155.21 87.98 154.56 85.91 156.33 84.66 154.16 84.64" fill="#5c3f2d"/>
        <polygon points="168.75 87.54 167.01 88.82 165.26 87.54 165.93 89.6 164.18 90.86 166.34 90.86 167.01 92.92 167.67 90.86 169.83 90.86 168.08 89.6 168.75 87.54" fill="#5c3f2d"/>
        <path d="M119.61,101.14c1.6,2.42,6.28,3.6,12.15,3.67,6.29,.08,13.89-1.13,20.54-3.43,7.34-2.54,14.56-4.82,21.75-6.67,7.2-1.86,14.39-3.28,21.64-4.1,3.68-.42,7.53-.13,10.69,.8,2.99,.88,5.38,2.34,6.45,4.34,.03,.06,.05,.12,.05,.18,.2,2.79,.36,5.48,.52,8.18,.16,2.7,.32,5.4,.52,8.19,.02,.22-.15,.42-.38,.44-.18,.01-.33-.09-.4-.24-.83-1.68-3.31-2.85-6.47-3.55-3.73-.82-8.38-.96-12.44-.47-8.83,1.07-17.05,3.81-24.96,6.46-5.49,1.84-10.84,3.63-16.16,4.78-6.17,1.34-12,1.95-16.99,2-4.58,.04-8.46-.4-11.29-1.2-2.94-.84-4.77-2.1-5.11-3.67-.04-.17-.05-.34-.06-.52h0c-.11-2.54-.23-5.03-.36-7.51-.13-2.48-.28-4.96-.45-7.43-.02-.22,.15-.42,.38-.44,.15,0,.29,.06,.37,.18h0Zm12.15,4.49h0c-5.34-.06-9.78-1.05-12-3.08,.14,2.08,.26,4.15,.37,6.23,.13,2.49,.24,4.98,.36,7.51,0,.01,0,.02,0,.03,0,.12,.01,.23,.04,.35,.27,1.25,1.9,2.3,4.54,3.05,2.75,.78,6.56,1.21,11.05,1.17,4.95-.05,10.72-.66,16.83-1.98,5.28-1.14,10.61-2.93,16.07-4.75,7.95-2.66,16.21-5.42,25.13-6.5,4.14-.5,8.89-.36,12.71,.48,2.65,.58,4.87,1.51,6.16,2.81-.16-2.3-.29-4.55-.42-6.8-.16-2.67-.32-5.34-.51-8.09-.98-1.75-3.17-3.05-5.92-3.86-3.06-.9-6.8-1.18-10.37-.78-7.21,.81-14.36,2.23-21.53,4.08-7.18,1.85-14.38,4.13-21.69,6.65-6.75,2.33-14.45,3.55-20.82,3.47Z" fill="url(#GradientFill_1)" fill-rule="evenodd"/>
        <path d="M119.27,101.36c3.45,5.24,20.11,4.92,33.17,.4,14.65-5.06,28.84-9.12,43.31-10.76,7-.79,14.62,1,16.74,4.93,.4,5.58,.64,10.8,1.04,16.38-1.9-3.89-11.66-5.19-19.33-4.26-15.01,1.81-28.18,8.43-41.16,11.25-17.91,3.88-32.92,1.67-32.96-2.99-.23-5.07-.46-10-.81-14.96Z" fill="url(#_未命名漸層_10-3)" fill-rule="evenodd"/>
        <path d="M121.17,103.87v.02h.01c.45,.55,1.14,1.01,2.03,1.39,.91,.38,2.02,.67,3.29,.87,6.59,1.05,17.34-.3,26.28-3.36,7.01-2.4,13.91-4.6,20.8-6.43,6.89-1.83,13.77-3.31,20.74-4.28h0c.94-.13,1.91-.22,2.87-.27,.96-.05,1.92-.06,2.85-.02,4.85,.18,9.18,1.48,10.76,3.85l.05,.13c-.09,3.6,.04,6.11,.66,6.8,.2,2.24,.41,4.48,.66,6.81l-.54,.18h0c-.24-.41-.63-.77-1.12-1.09-.51-.33-1.15-.63-1.88-.87-3.82-1.3-10.13-1.44-15.4-.67-8.5,1.25-16.36,3.87-23.94,6.39-5.25,1.75-10.35,3.45-15.45,4.62-6.39,1.47-12.42,2.23-17.47,2.39-4.11,.14-7.59-.12-10.11-.69-2.61-.59-4.22-1.55-4.51-2.79-.03-.11-.04-.23-.05-.34-.16-2.1-.31-4.18-.49-6.25-.17-2.06-.36-4.11-.57-6.17l.51-.21h0Zm1.82,1.94h0c-.66-.28-1.22-.6-1.68-.98,.18,1.79,.34,3.57,.49,5.38,.17,2.06,.33,4.14,.49,6.26h0c0,.09,.01,.17,.03,.25,.23,1.01,1.69,1.82,4.07,2.36,2.47,.56,5.9,.81,9.96,.67,5.02-.17,11.01-.92,17.36-2.38,5.07-1.17,10.16-2.87,15.4-4.61,7.6-2.53,15.49-5.16,24.03-6.42,5.34-.78,11.76-.64,15.67,.69,.77,.26,1.45,.58,2.01,.94,.25,.16,.47,.33,.67,.52-.2-1.98-.38-3.93-.56-5.87-.2-2.21-.4-4.42-.65-6.71-1.5-2.17-5.62-3.37-10.26-3.54-.92-.03-1.86-.03-2.8,.02-.94,.05-1.88,.14-2.82,.27h0c-6.93,.97-13.79,2.44-20.67,4.27-6.87,1.83-13.77,4.02-20.76,6.42-9.01,3.09-19.88,4.45-26.56,3.39-1.31-.21-2.47-.51-3.43-.91Z" fill="url(#_未命名漸層_10-4)" fill-rule="evenodd"/>
        <g>
          <path d="M160.06,37.2c-.12-.41-.29-.83-.43-1.05-.22-.34-.35-.43-1.09-.43h-1.35v6.19c0,.99,.11,1.13,1.38,1.21v.36h-3.91v-.36c1.25-.08,1.36-.2,1.36-1.21v-6.19h-1.23c-.74,0-.95,.08-1.18,.46-.16,.25-.27,.56-.44,1.03h-.4c.08-.77,.16-1.58,.2-2.29h.31c.2,.31,.35,.29,.73,.29h5.33c.37,0,.48-.05,.68-.29h.32c0,.6,.05,1.51,.12,2.25l-.4,.04Z"/>
          <path d="M170.91,35.56c-1.11,.1-1.22,.17-1.22,1.23v5.1c0,1.07,.12,1.1,1.22,1.22v.36h-3.6v-.36c1.11-.13,1.22-.15,1.22-1.22v-2.55h-4.6v2.55c0,1.05,.11,1.09,1.21,1.22v.36h-3.59v-.36c1.09-.12,1.21-.15,1.21-1.22v-5.1c0-1.07-.12-1.13-1.21-1.23v-.36h3.59v.36c-1.07,.09-1.21,.18-1.21,1.23v2.02h4.6v-2.02c0-1.05-.15-1.14-1.22-1.23v-.36h3.6v.36Z"/>
          <path d="M179.22,41.44c-.08,.33-.45,1.64-.58,2.02h-6.53v-.36c1.25-.09,1.34-.2,1.34-1.25v-5.02c0-1.13-.15-1.19-1.16-1.29v-.36h4.12c1.26,0,1.79-.01,1.95-.03,.01,.32,.07,1.27,.12,1.95l-.4,.06c-.12-.43-.25-.7-.4-.97-.22-.42-.53-.51-1.33-.51h-1.28c-.41,0-.44,.04-.44,.41v2.81h1.49c1.01,0,1.07-.19,1.23-1.05h.42v2.62h-.42c-.17-.91-.28-1.04-1.25-1.04h-1.48v2.53c0,.89,.3,.97,.97,.98h1.25c.82,0,.95-.11,1.25-.45,.25-.27,.54-.79,.73-1.17l.4,.1Z"/>
        </g>
        <g>
          <path d="M133.76,115.06l-1.33-4.15h-.02l-1.59,4h-.18s-1.04-3.92-1.04-3.92l-.1-.38c-.13-.51-.27-.66-.62-.7h-.05s0-.17,0-.17l1.93,.1v.16s-.04,0-.05,0c-.39,0-.5,.07-.51,.27,0,.07,.02,.2,.05,.33l.08,.3,.75,2.92h.02l1.55-3.89h.21s1.29,4.05,1.29,4.05h.02s.91-2.57,.91-2.57l.12-.31c.05-.12,.08-.26,.08-.38,.02-.32-.15-.48-.51-.51v-.16s1.42,.07,1.42,.07v.17c-.26,0-.39,.07-.52,.23-.13,.17-.2,.34-.4,.89l-1.34,3.66h-.17Z"/>
          <path d="M140.39,109.87c.74-.04,1.53,.18,2.03,.56,.58,.44,.88,1.08,.93,1.96,.08,1.4-1.05,2.51-2.63,2.59-1.71,.09-2.9-.88-2.99-2.45-.08-1.48,1.02-2.58,2.66-2.66Zm-1.36,4.22c.11,.17,.26,.31,.44,.43,.35,.21,.74,.31,1.25,.28,1.19-.06,1.83-.95,1.75-2.42-.09-1.58-.81-2.39-2.08-2.33-1.24,.06-1.87,.94-1.79,2.47,.03,.61,.2,1.21,.43,1.57Z"/>
          <path d="M149.72,113.85c-.2-.09-.25-.14-.52-.36-.2-.17-.37-.32-.5-.45-.04-.03-.14-.14-.31-.32-.35-.35-.76-.71-.96-.84-.11-.07-.21-.08-.38-.06l-.21,.03,.17,1.08c.16,1.04,.21,1.1,.82,1.01l.25-.04,.03,.16-2.46,.36-.03-.16,.17-.03c.61-.09,.64-.16,.48-1.2l-.37-2.4c-.1-.65-.13-.76-.23-.88-.11-.12-.2-.14-.63-.08h-.09s-.03-.15-.03-.15l.73-.14c.12-.03,.31-.06,.56-.1,.27-.05,.47-.09,.6-.1,.88-.13,1.44-.08,1.86,.17,.32,.18,.51,.44,.57,.77,.1,.67-.38,1.22-1.28,1.45v.02c.15,.04,.19,.06,.39,.21,.25,.18,.41,.32,.66,.55l.31,.29c.46,.43,.79,.67,1.1,.77,.2,.08,.35,.09,.64,.06l.03,.16-1.38,.2Zm-2.81-2.17l.35-.06c.54-.09,.94-.28,1.07-.53,.12-.21,.15-.46,.1-.77-.08-.49-.31-.81-.66-.91-.23-.06-.54-.06-.97,0-.11,.02-.17,.02-.32,.05l.34,2.23h.09Z"/>
          <path d="M157.07,112.32l-4.29,1-.04-.16,.15-.04c.6-.14,.62-.22,.38-1.23l-.55-2.34c-.15-.63-.18-.74-.3-.85-.11-.11-.2-.12-.62-.02l-.11,.03-.04-.16,2.42-.57,.04,.16-.22,.05c-.42,.1-.5,.15-.55,.3-.05,.16-.03,.26,.12,.89l.59,2.49c.14,.61,.15,.66,.26,.75,.13,.1,.3,.1,.71,0l.39-.09c.59-.14,.8-.26,.96-.56,.14-.26,.17-.55,.22-.99v-.05s.18-.04,.18-.04l.29,1.42Z"/>
          <path d="M158.01,106.9l.59-.23c.2-.08,.51-.2,.76-.28,.98-.33,1.68-.37,2.32-.13,.66,.25,1.16,.79,1.4,1.53,.41,1.22,.06,2.21-.99,2.83-.23,.13-.45,.25-.67,.32l-.51,.17-2.19,.74-.05-.16,.21-.07c.59-.2,.6-.27,.27-1.27l-.75-2.25c-.21-.62-.26-.72-.37-.81-.12-.11-.22-.1-.62,.04l-.15,.05-.05-.16,.8-.31Zm1.79,3.01c.29,.87,.32,.94,.46,1.04,.14,.11,.3,.1,.73-.05,.84-.29,1.23-.59,1.41-1.14,.15-.48,.14-1-.07-1.62-.22-.66-.57-1.16-1-1.46-.43-.29-.98-.38-1.54-.23-.13,.04-.26,.08-.4,.13-.24,.08-.4,.13-.61,.22l1.04,3.12Z"/>
          <path d="M171.51,102.84l-.17,.07c-.15-.25-.32-.43-.54-.56-.31-.18-.47-.18-1.08,.08l-.93,.39,.8,1.94,.45-.19c.57-.24,.66-.44,.45-.96v-.03s.16-.07,.16-.07l.66,1.6-.17,.07-.02-.06c-.23-.55-.44-.63-1.01-.39l-.45,.18,.47,1.14c.4,.97,.46,1.02,1.04,.78l.16-.07,.06,.15-2.21,.92-.06-.15,.14-.06c.58-.24,.58-.31,.18-1.29l-.92-2.24c-.25-.61-.3-.7-.42-.8-.13-.09-.23-.08-.62,.08l-.08,.03-.06-.15,3.68-1.53,.51,1.12Z"/>
          <path d="M174.86,103.62l-.03,.34-.04,.39c-.02,.21,0,.43,.03,.54,.09,.25,.35,.37,.65,.26h.03s.05,.15,.05,.15l-1.46,.48-.05-.16c.25-.13,.39-.28,.46-.5,.03-.1,.05-.2,.06-.31,0-.07,.02-.21,.03-.42,0-.06,.02-.21,.05-.46l.35-3.71,.15-.05,2.89,3.17,.26,.28c.31,.34,.46,.4,.85,.32l.05,.16-1.95,.63-.05-.15,.07-.02,.15-.05c.25-.08,.37-.22,.32-.38-.02-.06-.06-.11-.17-.23l-.16-.17-.66-.74-1.88,.61Zm.23-2.45l-.2,2.27,1.74-.57-1.53-1.7Z"/>
          <path d="M184.46,97.85l1.56-.33,.03,.16-.19,.04c-.41,.09-.51,.14-.56,.29-.05,.16-.03,.26,.1,.9l.5,2.37c.21,1.03,.26,1.09,.87,.96l.23-.05,.03,.16-2.41,.51-.04-.16,.18-.04c.6-.13,.62-.2,.41-1.23l-.65-3.07h-.02s-1.06,4.75-1.06,4.75l-.18,.04-2.91-3.91h-.02s.6,2.83,.6,2.83c.17,.79,.2,.89,.42,1.04,.18,.13,.38,.16,.67,.12l.04,.16-1.8,.38-.03-.16c.29-.09,.47-.21,.57-.41,.12-.23,.12-.34-.05-1.12l-.44-2.1c-.13-.64-.18-.75-.28-.86-.11-.11-.21-.12-.62-.04l-.14,.03-.03-.16,1.53-.33,2.7,3.6,.99-4.39Z"/>
          <path d="M191.1,96.84c.74-.06,1.54,.12,2.06,.49,.59,.42,.91,1.04,.99,1.92,.12,1.39-.97,2.52-2.55,2.65-1.71,.14-2.94-.78-3.07-2.33-.13-1.47,.93-2.59,2.57-2.72Zm-1.22,4.22c.11,.16,.27,.3,.45,.41,.36,.2,.75,.28,1.26,.24,1.19-.1,1.81-1,1.68-2.46-.13-1.56-.89-2.35-2.16-2.24-1.23,.1-1.85,.98-1.71,2.5,.05,.6,.23,1.19,.48,1.54Z"/>
          <path d="M201.93,96.88v.16c-.55,.01-.78,.22-.8,.71l-.02,.29-.09,1.64-.02,.38c-.03,.57-.19,.95-.51,1.23-.4,.34-.97,.5-1.65,.46-.82-.04-1.46-.34-1.75-.82-.17-.28-.23-.57-.2-1.06l.03-.48,.08-1.53c.04-.66,.03-.77-.04-.91-.08-.14-.17-.17-.6-.2h-.11s.01-.17,.01-.17l2.35,.12v.16s-.11,0-.11,0c-.43-.02-.52,0-.61,.13-.09,.14-.1,.24-.14,.9l-.08,1.55-.03,.44c-.04,.7,.09,1.07,.45,1.33,.25,.18,.55,.28,.94,.3,.8,.04,1.48-.32,1.67-.89,.06-.17,.09-.36,.1-.55,0-.06,.02-.2,.03-.43l.09-1.68c.04-.78-.07-.94-.73-1.02v-.17s1.74,.09,1.74,.09Z"/>
          <path d="M203.64,100.46l.2,.04c0,.56,.09,.92,.31,1.23,.21,.31,.52,.51,.91,.59,.64,.13,1.2-.18,1.31-.72,.09-.45-.15-.83-.82-1.26l-.32-.21c-.59-.38-.87-.66-1.02-.97-.11-.24-.15-.55-.09-.8,.13-.69,.8-1.09,1.57-.94,.5,.1,.79,.3,1.09,.75,.16-.12,.23-.22,.28-.38l.17,.03-.25,1.26-.17-.03c-.05-.77-.46-1.32-1.11-1.45-.53-.11-.94,.12-1.03,.58-.05,.25,.07,.54,.32,.79,.17,.16,.3,.26,.69,.52,.54,.38,.63,.44,.84,.62,.14,.13,.25,.27,.33,.41,.15,.28,.18,.58,.1,.95-.16,.79-.93,1.22-1.87,1.03-.55-.11-.98-.41-1.28-.88-.11,.11-.19,.23-.27,.43l-.19-.04,.31-1.55Z"/>
        </g>
      </g>
    </g>
  </g>
</svg>