<?xml version="1.0" encoding="UTF-8"?>
<svg id="_圖層_2" data-name="圖層 2" xmlns="http://www.w3.org/2000/svg" xmlns:xlink="http://www.w3.org/1999/xlink" viewBox="0 0 512.3 359.91">
  <defs>
    <linearGradient id="_未命名漸層_10" data-name="未命名漸層 10" x1="291.21" y1="120.44" x2="355.07" y2="119.33" gradientUnits="userSpaceOnUse">
      <stop offset="0" stop-color="#fff"/>
      <stop offset=".04" stop-color="#eceae7"/>
      <stop offset=".15" stop-color="#c4bdb4"/>
      <stop offset=".25" stop-color="#a4998b"/>
      <stop offset=".33" stop-color="#8c7f6e"/>
      <stop offset=".41" stop-color="#7e6f5c"/>
      <stop offset=".47" stop-color="#7a6a56"/>
      <stop offset=".93" stop-color="#beb092"/>
      <stop offset=".99" stop-color="#c7ba9a"/>
    </linearGradient>
    <linearGradient id="GradientFill_20" data-name="GradientFill 20" x1="301.07" y1="116.19" x2="323.84" y2="126.32" gradientUnits="userSpaceOnUse">
      <stop offset="0" stop-color="#35200d"/>
      <stop offset=".04" stop-color="#201008"/>
      <stop offset=".15" stop-color="#493111"/>
      <stop offset=".23" stop-color="#3a2510"/>
      <stop offset=".51" stop-color="#402b11"/>
      <stop offset=".67" stop-color="#392510"/>
      <stop offset=".77" stop-color="#4a3011"/>
      <stop offset=".91" stop-color="#201008"/>
      <stop offset="1" stop-color="#36220f"/>
    </linearGradient>
    <linearGradient id="_未命名漸層_10-2" data-name="未命名漸層 10" x1="191.22" y1="110.33" x2="244.32" y2="123.57" xlink:href="#_未命名漸層_10"/>
    <linearGradient id="GradientFill_20-2" data-name="GradientFill 20" x1="216.36" y1="111.04" x2="239.22" y2="121.22" xlink:href="#GradientFill_20"/>
    <linearGradient id="GradientFill_1" data-name="GradientFill 1" x1="269.76" y1="143.58" x2="268.84" y2="91.13" gradientUnits="userSpaceOnUse">
      <stop offset="0" stop-color="#d9a53e"/>
      <stop offset=".16" stop-color="#d69b3a"/>
      <stop offset=".3" stop-color="#a26b28"/>
      <stop offset=".49" stop-color="#8c5723"/>
      <stop offset=".54" stop-color="#f2f1b6"/>
      <stop offset=".56" stop-color="#f5eb98"/>
      <stop offset=".69" stop-color="#d3b567"/>
      <stop offset=".75" stop-color="#a56f29"/>
      <stop offset=".85" stop-color="#cea95b"/>
      <stop offset="1" stop-color="#dec57d"/>
    </linearGradient>
    <linearGradient id="_未命名漸層_10-3" data-name="未命名漸層 10" x1="210.17" y1="119.35" x2="328.26" y2="115.23" xlink:href="#_未命名漸層_10"/>
    <linearGradient id="_未命名漸層_10-4" data-name="未命名漸層 10" x1="239.82" y1="136.41" x2="299.73" y2="98.97" xlink:href="#_未命名漸層_10"/>
  </defs>
  <g id="content">
    <g>
      <line x1="274.03" y1="314.08" x2="274.03" y2="276.63" fill="none" stroke="#fff" stroke-linecap="round" stroke-linejoin="round" stroke-width="2"/>
      <g>
        <path d="M77.47,290.03c-.64,6.02-1.89,10.92-3.61,14.92,4.17,4.13,10.06,5.07,17.33,5.07,1.68,0,10.92,0,13.12-.04-.47,.73-1.03,2.11-1.2,2.97h-12c-7.91,0-14.1-1.08-18.58-5.38-1.5,2.71-3.31,4.82-5.38,6.45-.52-.65-1.63-1.76-2.37-2.19,2.24-1.59,4.13-3.78,5.68-6.62-1.59-2.19-2.88-4.9-3.91-8.34l2.37-.95c.77,2.58,1.68,4.73,2.88,6.49,1.08-2.84,1.94-6.15,2.49-9.98h-5.2c-.69,.34-1.72,.9-1.72,1.33-.21-.6-.9-1.89-1.33-2.58,.82-.17,1.85-1.2,2.71-2.54,.77-1.08,2.92-4.6,4.6-8.38h-7.44v-2.84h8.64l1.03-.47,2.06,1.33c-1.98,4.13-4.13,8.13-6.23,11.31h3.7l.56-.09,1.81,.52Zm10.54-9.12h-7.96v-2.54h7.96v-3.61h3.05v3.61h9.59v5.76h2.97v2.54h-2.97v5.89h-9.59v3.31h10.58v2.41h-10.58v3.35h12.17v2.58h-12.17v4.26h-3.05v-4.26h-10.41v-2.58h10.41v-3.35h-8.6v-2.41h8.6v-3.31h-8.26v-2.54h8.26v-3.35h-10.75v-2.54h10.75v-3.22Zm3.05,0v3.22h6.71v-3.22h-6.71Zm6.71,5.76h-6.71v3.35h6.71v-3.35Z" fill="#231815"/>
        <path d="M118.11,279.79c-1.33,1.85-2.88,3.53-4.39,4.82-.43-.56-1.59-1.63-2.24-2.15,2.62-1.98,5.12-4.99,6.58-8.04l2.84,.82c-.34,.69-.69,1.33-1.08,2.02h10.96v2.54h-8.3c1.29,1.2,2.84,2.84,3.57,3.87l-2.15,1.68c-.77-1.12-2.37-2.88-3.7-4.21l2.02-1.33h-4.13Zm8.21,26.01c-2.75,3.14-7.78,6.02-12.21,7.4-.47-.77-1.42-1.98-2.15-2.58,4.34-1.08,9.25-3.35,11.74-5.93l2.62,1.12Zm6.24-4.6h17.59v2.58h-17.59v10.19h-3.1v-10.19h-17.46v-2.58h17.46v-2.28l-.52,.21c-.43-.6-1.46-1.59-2.06-1.98,2.84-1.03,4.6-2.28,5.68-3.57-1.5-.69-2.92-1.33-4.21-1.89l1.2-1.93c1.29,.52,2.67,1.12,4.04,1.72,.21-.6,.3-1.29,.3-1.93v-1.42h-4.95v-2.28h15.27v8.94c0,.77,0,1.25,.21,1.42,.13,.13,.34,.17,.64,.17h1.16c.34,0,.65-.04,.82-.17,.21-.09,.34-.39,.47-.86,.09-.52,.13-1.76,.17-3.31,.56,.47,1.46,.9,2.19,1.16-.04,1.59-.21,3.35-.43,4.04-.21,.6-.65,1.08-1.16,1.33-.52,.26-1.29,.34-1.93,.34h-2.02c-.86,0-1.76-.17-2.32-.73-.64-.52-.82-1.16-.82-3.53v-6.54h-4.6v1.5c0,.99-.13,1.98-.47,3.01,1.63,.77,3.18,1.46,4.26,2.06l-1.16,2.24c-1.07-.6-2.58-1.33-4.17-2.15-.99,1.33-2.36,2.62-4.56,3.65h2.06v2.75Zm-20.47-5.16c1.81-.17,4.09-.52,6.58-.86v-6.67h-5.98v-2.37h14.66v2.37h-5.72v6.24l5.8-.9,.13,2.54c-5.33,.86-10.92,1.68-15.01,2.32l-.47-2.67Zm38.4-18.75v2.54h-9.24c1.29,1.08,2.79,2.62,3.53,3.57l-2.28,1.72c-.77-1.08-2.32-2.75-3.61-4l1.89-1.29h-5.16c-1.21,1.81-2.58,3.4-4,4.64-.52-.52-1.68-1.46-2.41-1.89,2.58-1.98,4.73-4.95,5.93-8.17l2.92,.77c-.3,.73-.56,1.42-.95,2.11h13.37Zm-12.81,27.13c3.91,1.72,8.99,4.26,11.61,6.15l-2.15,2.28c-2.54-1.85-7.57-4.6-11.57-6.36l2.11-2.06Z" fill="#231815"/>
        <path d="M195.98,308.39v3.05h-37.07v-3.05h4.73v-28.04h-4.43v-3.05h35.43v3.05h-27.78v5.98h24.12v14.92h-24.12v7.14h29.11Zm-29.11-18.96v8.77h20.85v-8.77h-20.85Z" fill="#231815"/>
        <path d="M208.79,288.91c-.6,2.02-1.42,4.04-2.75,5.76-.39-.65-1.5-1.85-2.06-2.24,2.62-3.53,3.01-8.17,3.01-11.57v-4.52h14.45v7.7h-11.74c-.09,.82-.22,1.59-.34,2.45h12.38v8.04h-12.94v-5.63Zm34.49,19.05h-17.84v2.67c0,1.72-.43,2.37-1.72,2.79-1.38,.43-3.53,.43-6.97,.43-.21-.77-.69-1.76-1.08-2.49,2.58,.09,5.03,.09,5.68,0,.73,0,.95-.17,.95-.77v-2.62h-17.8v-2.32h17.8v-2.49h-14.58v-2.28h14.58v-2.41c-4.26,.21-8.64,.34-12.6,.39-.09-.6-.34-1.5-.6-2.06,9.25-.13,20.51-.69,26.57-1.63l2.06,1.93c-3.4,.56-7.7,.9-12.3,1.2v2.58h14.96v2.28h-14.96v2.49h17.84v2.32Zm-33.45-29.33v3.14h8.64v-3.14h-8.64Zm1.55,13.67h7.65v-3.57h-7.65v3.57Zm19.95-5.85h-8.47v-2.28h5.16c-.3-1.03-.82-2.37-1.38-3.35l2.37-.56c.73,1.2,1.38,2.88,1.59,3.87l-.17,.04h4.34c.56-1.25,1.2-2.88,1.55-4l2.67,.6c-.56,1.16-1.12,2.37-1.55,3.4h5.68v2.28h-8.77v2.67h7.7v2.28h-7.7v3.53h-3.01v-3.53h-7.27v-2.28h7.27v-2.67Zm10.58-6.36h-17.8v-2.28h7.48c-.26-.9-.6-1.81-.95-2.62l2.92-.56c.47,.95,.95,2.15,1.25,3.18h7.09v2.28Z" fill="#231815"/>
        <path d="M313.67,297.34c-.47-1.16-1.38-3.18-2.32-4.99v21.67h-2.92v-19.22c-1.16,4.08-2.62,7.95-4.08,10.45-.39-.9-1.16-2.28-1.68-3.05,2.32-3.57,4.64-10.45,5.76-16.17v-.3h-4.77v-2.88h4.77v-8.08h2.92v8.08h4.21v2.88h-4.21v2.41c1.03,1.5,3.57,5.68,4.17,6.79l-1.85,2.41Zm28.59,12.47v2.84h-28.59v-2.84h28.59Zm-20.34-24.04c.82-1.85,1.68-4.47,2.41-6.84h-8.77v-2.84h25.76v2.84h-14.1c-.43,1.5-.95,3.01-1.42,4.39h5.03v1.38c-.26,15.57-.43,20.47-1.42,21.97-.65,.9-1.42,1.25-2.45,1.38-.99,.09-2.54,.09-4.04,0-.04-.77-.34-1.89-.77-2.62,1.55,.13,2.88,.13,3.57,.13,.56,.04,.86-.09,1.2-.56,.6-.99,.86-5.68,1.08-19.22h-6.06Zm2.37,16.77h-5.8v2.24h-2.24v-17.46h8.04v15.22Zm-2.32-2.36v-10.41h-3.48v10.41h3.48Zm19.65-13.98c-.6,4.26-1.55,7.96-2.84,11.05,1.46,2.28,2.62,4.47,3.4,6.28l-2.15,1.59c-.6-1.42-1.5-3.22-2.58-5.07-1.42,2.62-3.14,4.69-5.07,6.28-.39-.64-1.33-1.72-1.94-2.15,2.11-1.59,3.91-3.91,5.33-6.84-1.29-1.94-2.62-3.87-3.96-5.55l1.98-1.46c1.03,1.29,2.15,2.75,3.18,4.21,.69-1.93,1.2-4.04,1.59-6.36h-6.32v-2.45h7.22l.52-.09,1.63,.56Z" fill="#231815"/>
        <path d="M369.14,308.22c-6.88,1.29-14.15,2.58-19.22,3.48l-.52-3.27c2.32-.34,5.29-.82,8.51-1.33v-6.97h-7.4v-2.92h7.4v-4.86h3.18v4.86h7.09v2.92h-7.09v6.45c2.58-.43,5.25-.9,7.87-1.33l.17,2.97Zm-3.18-16.12c-.26-.6-.6-1.29-.99-2.02-11.52,1.03-13.03,1.25-13.98,1.68-.17-.64-.64-2.15-.99-2.97,.6-.13,1.25-.82,1.93-1.85,.65-.82,2.37-3.53,3.7-6.49h-5.72v-2.92h19.05v2.92h-9.85c-1.38,2.79-3.01,5.55-4.64,7.83l9.07-.73c-.82-1.33-1.68-2.75-2.49-3.91l2.41-1.2c1.89,2.58,4.08,6.15,5.07,8.26l-2.58,1.42Zm21.5-8.9c-1.16,8.73-3.78,15.57-7.4,20.85,2.41,3.23,5.25,5.72,8.64,7.48-.69,.52-1.68,1.63-2.19,2.45-3.27-1.85-5.98-4.39-8.3-7.44-2.79,3.31-6.02,5.85-9.63,7.61-.43-.82-1.42-2.24-2.11-2.84,3.7-1.63,6.97-4.17,9.76-7.65-1.55-2.54-2.88-5.42-4-8.51-.6,1.16-1.2,2.32-1.85,3.35-.34-.73-1.33-2.24-1.94-2.92,.9-1.33,1.68-2.92,2.37-4.6-.77-2.58-1.42-5.33-2.02-8.21l2.49-.47c.3,1.55,.65,3.01,1.03,4.47,1.08-3.66,1.93-7.74,2.49-11.87l3.01,.52c-.43,2.45-.9,4.9-1.42,7.27h8.56l.52-.13,1.98,.64Zm-11.83,2.49c-.56,2.06-1.16,4.04-1.89,5.93,1.16,3.44,2.62,6.67,4.34,9.55,2.71-4.21,4.77-9.37,5.89-15.48h-8.34Z" fill="#231815"/>
        <path d="M434.72,307.53v3.18h-38.36v-3.18h17.29v-24.68h-15.05v-3.27h33.97v3.27h-15.44v24.68h17.59Z" fill="#231815"/>
        <path d="M442.84,305.34h38.14v2.06h-11.31c3.48,1.42,7.61,3.96,9.8,5.76l-2.19,1.55c-.82-.73-1.89-1.5-3.14-2.32-23.91,1.12-26.23,1.2-27.78,1.68-.13-.56-.6-1.72-.95-2.41,.82-.09,1.81-.43,2.97-.95,.95-.43,3.31-1.72,5.8-3.31h-11.35v-2.06Zm7.83-16.34c-.69,2.49-2.41,3.78-6.41,4.6-.17-.52-.77-1.33-1.25-1.68,3.27-.52,4.77-1.33,5.38-2.92h-4.77v-1.89h7.87v-1.81h-5.8v-1.85h5.8v-1.38h2.75v1.38h5.68v1.85h-5.68v1.81h7.65v1.89h-5.59v.86c0,.86,.04,1.08,.64,1.08h2.54c.43,0,1.29,0,1.81-.17,.04,.56,.09,1.2,.17,1.76-.43,.13-1.29,.17-1.98,.17h-2.97c-1.98,0-2.37-.86-2.37-2.88v-.82h-3.48Zm2.54-8.99h-9.93v-2.41h9.93v-2.88h3.14v2.88h5.03v2.41h-5.03v1.93h-3.14v-1.93Zm25.03,17.42c.34,0,.65-.04,.77-.13,.17-.13,.34-.43,.39-.9,.09-.52,.13-1.72,.17-3.27,.52,.43,1.29,.82,1.94,1.03-.04,1.5-.17,3.31-.39,3.91-.17,.6-.56,1.03-.99,1.29s-1.12,.34-1.72,.34h-1.72c-.77,0-1.55-.17-2.06-.69-.56-.47-.73-1.08-.73-3.35v-7.95h-3.57c-.04,1.38-.21,2.84-.69,4.3,1.42,.9,2.58,1.76,3.4,2.58l-1.59,2.02c-.69-.64-1.63-1.42-2.71-2.19-1.12,2.19-2.92,4.3-5.93,6.11-.3-.39-.99-.99-1.59-1.46-6.36,.52-12.94,.99-17.59,1.29l-.17-2.11c2.19-.09,4.95-.26,8.04-.43v-2.15h-6.24v-1.85h6.24v-2.19h2.75v2.19h6.28v1.85h-6.28v1.98l7.57-.47v1.08c2.32-1.68,3.78-3.48,4.69-5.29-1.38-.77-2.75-1.5-4.04-2.11l1.55-1.81c1.03,.47,2.24,1.03,3.31,1.63,.3-1.03,.43-2.02,.47-2.97h-4.82v-2.41h4.86v-2.92h2.54v2.92h6.15v10.53c0,.82,.04,1.29,.21,1.42,.09,.13,.3,.17,.56,.17h.95Zm-2.36,3.7v2.06h-27.65v-2.06h27.65Zm-5.07,9.29c-1.16-.64-2.37-1.25-3.44-1.72l2.02-1.29h-10.79c-2.11,1.42-4.26,2.71-6.36,3.74l18.58-.73Zm-3.35-30.4h-4.69v-2.41h4.69v-2.88h3.14v2.88h10.19v2.41h-10.19v1.93h-3.14v-1.93Z" fill="#231815"/>
      </g>
      <g>
        <path d="M29.37,343.66c1.06-.17,2.45-.31,4.22-.31,2.17,0,3.76,.48,4.78,1.34,.94,.77,1.49,1.94,1.49,3.38s-.45,2.62-1.31,3.46c-1.16,1.18-3.06,1.78-5.21,1.78-.66,0-1.26-.02-1.77-.14v6.48h-2.2v-15.99Zm2.2,7.8c.48,.12,1.09,.17,1.82,.17,2.65,0,4.27-1.22,4.27-3.46s-1.59-3.17-4.02-3.17c-.96,0-1.69,.07-2.07,.17v6.29Z" fill="#fff"/>
        <path d="M52.89,352.06h-6.62v5.83h7.38v1.75h-9.58v-16.18h9.2v1.75h-7v5.11h6.62v1.73Z" fill="#fff"/>
        <path d="M57.77,343.68c1.11-.22,2.7-.34,4.22-.34,2.35,0,3.87,.41,4.93,1.32,.86,.72,1.34,1.82,1.34,3.07,0,2.14-1.42,3.55-3.21,4.13v.07c1.31,.43,2.1,1.58,2.5,3.26,.56,2.26,.96,3.82,1.31,4.44h-2.27c-.28-.46-.66-1.85-1.14-3.86-.51-2.23-1.42-3.07-3.41-3.14h-2.07v7.01h-2.2v-15.96Zm2.2,7.37h2.25c2.35,0,3.84-1.22,3.84-3.07,0-2.09-1.59-3-3.92-3.02-1.06,0-1.82,.1-2.17,.19v5.9Z" fill="#fff"/>
        <path d="M72.63,343.47h9.17v1.75h-6.97v5.38h6.44v1.73h-6.44v7.32h-2.2v-16.18Z" fill="#fff"/>
        <path d="M95.02,352.06h-6.62v5.83h7.38v1.75h-9.58v-16.18h9.2v1.75h-7v5.11h6.62v1.73Z" fill="#fff"/>
        <path d="M111.8,359.12c-.81,.38-2.43,.77-4.5,.77-4.8,0-8.41-2.88-8.41-8.18s3.61-8.5,8.89-8.5c2.12,0,3.46,.43,4.04,.72l-.53,1.7c-.83-.38-2.02-.67-3.44-.67-3.99,0-6.65,2.42-6.65,6.67,0,3.96,2.4,6.5,6.54,6.5,1.34,0,2.7-.26,3.59-.67l.46,1.66Z" fill="#fff"/>
        <path d="M119.76,345.25h-5.18v-1.78h12.61v1.78h-5.21v14.4h-2.22v-14.4Z" fill="#fff"/>
        <path d="M139.72,354.56l-1.77,5.09h-2.27l5.79-16.18h2.65l5.81,16.18h-2.35l-1.82-5.09h-6.04Zm5.58-1.63l-1.67-4.66c-.38-1.06-.63-2.02-.88-2.95h-.05c-.25,.96-.53,1.94-.86,2.93l-1.67,4.68h5.13Z" fill="#fff"/>
        <path d="M153.69,343.68c1.11-.22,2.7-.34,4.22-.34,2.35,0,3.87,.41,4.93,1.32,.86,.72,1.34,1.82,1.34,3.07,0,2.14-1.42,3.55-3.21,4.13v.07c1.31,.43,2.1,1.58,2.5,3.26,.56,2.26,.96,3.82,1.31,4.44h-2.27c-.28-.46-.66-1.85-1.14-3.86-.5-2.23-1.42-3.07-3.41-3.14h-2.07v7.01h-2.2v-15.96Zm2.2,7.37h2.25c2.35,0,3.84-1.22,3.84-3.07,0-2.09-1.59-3-3.92-3.02-1.06,0-1.82,.1-2.17,.19v5.9Z" fill="#fff"/>
        <path d="M180.53,359.12c-.81,.38-2.43,.77-4.5,.77-4.8,0-8.42-2.88-8.42-8.18s3.61-8.5,8.89-8.5c2.12,0,3.46,.43,4.04,.72l-.53,1.7c-.83-.38-2.02-.67-3.44-.67-3.99,0-6.65,2.42-6.65,6.67,0,3.96,2.4,6.5,6.54,6.5,1.34,0,2.7-.26,3.59-.67l.45,1.66Z" fill="#fff"/>
        <path d="M186.75,343.47v6.77h8.24v-6.77h2.22v16.18h-2.22v-7.58h-8.24v7.58h-2.2v-16.18h2.2Z" fill="#fff"/>
        <path d="M204.48,343.47v16.18h-2.2v-16.18h2.2Z" fill="#fff"/>
        <path d="M212.82,345.25h-5.18v-1.78h12.61v1.78h-5.21v14.4h-2.22v-14.4Z" fill="#fff"/>
        <path d="M232.23,352.06h-6.62v5.83h7.38v1.75h-9.58v-16.18h9.2v1.75h-7v5.11h6.62v1.73Z" fill="#fff"/>
        <path d="M249.01,359.12c-.81,.38-2.43,.77-4.5,.77-4.8,0-8.41-2.88-8.41-8.18s3.61-8.5,8.89-8.5c2.12,0,3.46,.43,4.04,.72l-.53,1.7c-.83-.38-2.02-.67-3.44-.67-3.99,0-6.65,2.42-6.65,6.67,0,3.96,2.4,6.5,6.54,6.5,1.34,0,2.7-.26,3.59-.67l.46,1.66Z" fill="#fff"/>
        <path d="M256.97,345.25h-5.18v-1.78h12.61v1.78h-5.21v14.4h-2.22v-14.4Z" fill="#fff"/>
        <path d="M269.75,343.47v9.58c0,3.62,1.69,5.16,3.97,5.16,2.53,0,4.14-1.58,4.14-5.16v-9.58h2.22v9.43c0,4.97-2.75,7.01-6.44,7.01-3.49,0-6.11-1.9-6.11-6.91v-9.53h2.22Z" fill="#fff"/>
        <path d="M285.17,343.68c1.11-.22,2.7-.34,4.22-.34,2.35,0,3.87,.41,4.93,1.32,.86,.72,1.34,1.82,1.34,3.07,0,2.14-1.42,3.55-3.21,4.13v.07c1.31,.43,2.1,1.58,2.5,3.26,.56,2.26,.96,3.82,1.31,4.44h-2.27c-.28-.46-.66-1.85-1.14-3.86-.51-2.23-1.42-3.07-3.41-3.14h-2.07v7.01h-2.2v-15.96Zm2.2,7.37h2.25c2.35,0,3.84-1.22,3.84-3.07,0-2.09-1.59-3-3.92-3.02-1.06,0-1.82,.1-2.17,.19v5.9Z" fill="#fff"/>
        <path d="M302.91,354.56l-1.77,5.09h-2.27l5.79-16.18h2.65l5.81,16.18h-2.35l-1.82-5.09h-6.04Zm5.58-1.63l-1.67-4.66c-.38-1.06-.63-2.02-.88-2.95h-.05c-.25,.96-.53,1.94-.86,2.93l-1.67,4.68h5.13Z" fill="#fff"/>
        <path d="M316.88,343.47h2.2v14.43h7.28v1.75h-9.48v-16.18Z" fill="#fff"/>
        <path d="M339.45,354.56l-1.77,5.09h-2.28l5.79-16.18h2.65l5.81,16.18h-2.35l-1.82-5.09h-6.04Zm5.58-1.63l-1.67-4.66c-.38-1.06-.63-2.02-.88-2.95h-.05c-.25,.96-.53,1.94-.86,2.93l-1.67,4.68h5.13Z" fill="#fff"/>
        <path d="M362.24,352.06h-6.62v5.83h7.38v1.75h-9.58v-16.18h9.2v1.75h-7v5.11h6.62v1.73Z" fill="#fff"/>
        <path d="M366.81,357.1c.99,.58,2.43,1.06,3.94,1.06,2.25,0,3.56-1.13,3.56-2.76,0-1.51-.91-2.38-3.21-3.22-2.78-.94-4.5-2.3-4.5-4.58,0-2.52,2.2-4.39,5.51-4.39,1.74,0,3.01,.38,3.77,.79l-.61,1.7c-.55-.29-1.69-.77-3.23-.77-2.32,0-3.21,1.32-3.21,2.42,0,1.51,1.04,2.26,3.39,3.12,2.88,1.06,4.35,2.38,4.35,4.75,0,2.5-1.95,4.66-5.96,4.66-1.64,0-3.44-.46-4.35-1.03l.55-1.75Z" fill="#fff"/>
        <path d="M384.07,345.25h-5.18v-1.78h12.61v1.78h-5.21v14.4h-2.22v-14.4Z" fill="#fff"/>
        <path d="M396.86,343.47v6.77h8.24v-6.77h2.22v16.18h-2.22v-7.58h-8.24v7.58h-2.2v-16.18h2.2Z" fill="#fff"/>
        <path d="M421.22,352.06h-6.62v5.83h7.38v1.75h-9.58v-16.18h9.2v1.75h-7v5.11h6.62v1.73Z" fill="#fff"/>
        <path d="M429.73,345.25h-5.18v-1.78h12.61v1.78h-5.21v14.4h-2.22v-14.4Z" fill="#fff"/>
        <path d="M442.52,343.47v16.18h-2.2v-16.18h2.2Z" fill="#fff"/>
        <path d="M459.53,359.12c-.81,.38-2.43,.77-4.5,.77-4.8,0-8.41-2.88-8.41-8.18s3.61-8.5,8.89-8.5c2.12,0,3.46,.43,4.04,.72l-.53,1.7c-.83-.38-2.02-.67-3.44-.67-3.99,0-6.65,2.42-6.65,6.67,0,3.96,2.4,6.5,6.54,6.5,1.34,0,2.7-.26,3.59-.67l.46,1.66Z" fill="#fff"/>
        <path d="M463.24,357.1c.99,.58,2.43,1.06,3.94,1.06,2.25,0,3.56-1.13,3.56-2.76,0-1.51-.91-2.38-3.21-3.22-2.78-.94-4.5-2.3-4.5-4.58,0-2.52,2.2-4.39,5.51-4.39,1.74,0,3.01,.38,3.76,.79l-.61,1.7c-.56-.29-1.69-.77-3.23-.77-2.32,0-3.21,1.32-3.21,2.42,0,1.51,1.04,2.26,3.39,3.12,2.88,1.06,4.35,2.38,4.35,4.75,0,2.5-1.95,4.66-5.96,4.66-1.64,0-3.44-.46-4.35-1.03l.56-1.75Z" fill="#fff"/>
      </g>
      <g>
        <path d="M162.07,199.46c1.77,.79,3.13,1.87,4.09,3.24s1.44,2.94,1.44,4.69c0,1.89-.52,3.6-1.55,5.12-1.04,1.52-2.45,2.72-4.23,3.59-1.79,.88-3.79,1.31-6.01,1.31-1.2,0-2.52-.05-3.95-.16-.53-.04-1.15-.07-1.86-.11-.71-.04-1.52-.05-2.43-.05l-3.95,.05c-.71,.04-1.67,.05-2.88,.05-.11,0-.17-.11-.17-.32s.06-.32,.17-.32c1.32,0,2.29-.1,2.93-.29,.64-.2,1.08-.54,1.33-1.05,.24-.5,.37-1.29,.37-2.36v-24.82c0-1.07-.12-1.86-.37-2.36-.25-.5-.68-.85-1.3-1.04-.62-.2-1.59-.29-2.91-.29-.08,0-.11-.11-.11-.32s.04-.32,.11-.32l2.82,.05c1.66,.07,2.97,.11,3.95,.11,1.05,0,2.16-.05,3.33-.16,.41-.04,.91-.07,1.5-.11,.58-.04,1.21-.05,1.89-.05,3.24,0,5.69,.64,7.37,1.9,1.67,1.27,2.51,2.97,2.51,5.12,0,2-.79,3.75-2.37,5.25s-3.73,2.56-6.43,3.16l.62-.7c2.29,0,4.33,.39,6.1,1.18Zm-10.92-14.74c-.47,.18-.81,.53-1.02,1.04-.21,.52-.31,1.31-.31,2.39v10.51l-1.86-.43c1.62,.11,3.07,.16,4.35,.16,2.48,0,4.35-.68,5.59-2.04,1.24-1.36,1.86-3.14,1.86-5.36,0-2.04-.54-3.64-1.61-4.8-1.07-1.16-2.72-1.74-4.94-1.74-.9,0-1.59,.09-2.06,.27Zm9.71,29.64c1.3-1.32,1.95-3.22,1.95-5.68,0-2.72-.79-4.9-2.37-6.54-1.58-1.64-3.82-2.48-6.72-2.52-1.88-.07-3.75,.02-5.59,.27l1.69-.59v13.56c0,.89,.13,1.58,.4,2.06,.26,.48,.75,.84,1.47,1.07,.71,.23,1.79,.35,3.22,.35,2.67,0,4.66-.66,5.96-1.98Z" fill="#a1a9d8"/>
        <path d="M169.92,216.88c0-.21,.06-.32,.17-.32,1.35,0,2.34-.09,2.96-.27,.62-.18,1.04-.53,1.27-1.04,.23-.52,.34-1.31,.34-2.39v-24.82c0-1.07-.11-1.86-.34-2.36-.23-.5-.65-.85-1.27-1.04-.62-.2-1.61-.29-2.96-.29-.11,0-.17-.11-.17-.32s.06-.32,.17-.32h23.03c.38,0,.56,.16,.56,.48l.11,6.75c0,.11-.1,.17-.31,.19-.21,.02-.33-.03-.37-.13-.26-1.97-1-3.47-2.2-4.5-1.2-1.04-2.78-1.55-4.74-1.55h-2.88c-1.66,0-2.77,.23-3.33,.7s-.85,1.34-.85,2.63v24.39c0,1.29,.25,2.16,.76,2.63,.51,.46,1.53,.7,3.08,.7h3.73c2.11,0,3.87-.6,5.28-1.8s2.38-2.9,2.91-5.12c0-.07,.08-.11,.23-.11,.11,0,.22,.03,.31,.08,.09,.05,.14,.1,.14,.13-.38,2.57-.56,4.98-.56,7.24,0,.29-.06,.49-.17,.62-.11,.12-.34,.19-.68,.19h-24.04c-.11,0-.17-.11-.17-.32Zm19.67-15.41c-.92-.73-2.38-1.1-4.37-1.1h-8.24v-1.23h8.35c1.92,0,3.33-.31,4.23-.94,.9-.62,1.35-1.6,1.35-2.92,0-.07,.1-.11,.31-.11s.31,.04,.31,.11l-.06,4.5,.06,2.41c.08,1.14,.11,2.04,.11,2.68,0,.07-.11,.11-.34,.11s-.34-.04-.34-.11c0-1.54-.46-2.67-1.38-3.4Z" fill="#a1a9d8"/>
        <path d="M205.19,193.27c.71,1.02,1.58,1.89,2.6,2.63,1.02,.73,2.43,1.62,4.23,2.65,1.88,1.11,3.38,2.06,4.49,2.87,1.11,.8,2.06,1.79,2.85,2.97,.79,1.18,1.18,2.57,1.18,4.18,0,1.75-.48,3.33-1.44,4.74-.96,1.41-2.33,2.52-4.12,3.32s-3.87,1.21-6.24,1.21c-1.51,0-2.99-.17-4.46-.51-1.47-.34-2.75-.83-3.84-1.47-.19-.11-.32-.23-.4-.38-.08-.14-.11-.36-.11-.64l-.56-7.67c-.04-.14,.05-.23,.25-.27,.21-.04,.33,.02,.37,.16,.9,2.72,2.16,5.02,3.78,6.92,1.62,1.89,3.72,2.84,6.32,2.84,1.77,0,3.25-.46,4.46-1.37,1.2-.91,1.81-2.4,1.81-4.48,0-1.57-.38-2.95-1.13-4.13-.75-1.18-1.67-2.17-2.77-2.98-1.09-.8-2.54-1.72-4.35-2.76-1.77-1.07-3.17-1.99-4.21-2.76-1.04-.77-1.91-1.71-2.62-2.84-.72-1.13-1.07-2.44-1.07-3.94,0-1.82,.52-3.38,1.55-4.66,1.03-1.29,2.39-2.24,4.06-2.87,1.67-.62,3.43-.94,5.28-.94,2.48,0,4.76,.41,6.83,1.23,.56,.25,.85,.57,.85,.96l.28,6.7c0,.14-.1,.22-.31,.24-.21,.02-.33-.04-.37-.19-.41-1.93-1.29-3.75-2.62-5.47-1.34-1.72-3.25-2.57-5.73-2.57-1.88,0-3.34,.54-4.37,1.61-1.04,1.07-1.55,2.43-1.55,4.07,0,1.36,.36,2.55,1.07,3.56Z" fill="#a1a9d8"/>
        <path d="M226.53,186.62c-1.32,1.23-2.3,3.21-2.94,5.92-.04,.07-.16,.11-.37,.11s-.31-.05-.31-.16c.15-1,.32-2.63,.51-4.88,.19-2.25,.28-3.95,.28-5.09,0-.18,.11-.27,.34-.27s.34,.09,.34,.27c0,.79,1.03,1.18,3.1,1.18,3.24,.11,7.02,.16,11.34,.16,2.22,0,4.57-.04,7.06-.11l3.84-.05c1.39,0,2.41-.09,3.05-.27s1.05-.54,1.24-1.07c.04-.14,.16-.21,.37-.21s.31,.07,.31,.21c-.11,1-.24,2.61-.37,4.83s-.2,3.98-.2,5.31c0,.11-.1,.16-.31,.16s-.31-.05-.31-.16c-.26-2.75-1.02-4.73-2.26-5.92-1.24-1.2-3.08-1.8-5.53-1.8-1.39,0-2.39,.08-2.99,.24-.6,.16-1.02,.46-1.24,.91-.23,.45-.34,1.19-.34,2.22v24.71c0,1.11,.12,1.91,.37,2.41,.25,.5,.72,.84,1.44,1.02,.71,.18,1.86,.27,3.44,.27,.08,0,.11,.11,.11,.32s-.04,.32-.11,.32c-1.32,0-2.35-.02-3.1-.05l-4.46-.05-4.35,.05c-.75,.04-1.81,.05-3.16,.05-.11,0-.17-.11-.17-.32s.06-.32,.17-.32c1.54,0,2.68-.09,3.42-.27,.73-.18,1.23-.53,1.5-1.04,.26-.52,.4-1.31,.4-2.39v-24.82c0-1-.11-1.72-.34-2.17-.23-.45-.65-.74-1.27-.88-.62-.14-1.63-.21-3.02-.21-2.33,0-4.16,.62-5.47,1.85Z" fill="#a1a9d8"/>
        <path d="M270.05,186.62c-1.32,1.23-2.3,3.21-2.94,5.92-.04,.07-.16,.11-.37,.11s-.31-.05-.31-.16c.15-1,.32-2.63,.51-4.88,.19-2.25,.28-3.95,.28-5.09,0-.18,.11-.27,.34-.27s.34,.09,.34,.27c0,.79,1.03,1.18,3.1,1.18,3.24,.11,7.02,.16,11.35,.16,2.22,0,4.57-.04,7.05-.11l3.84-.05c1.39,0,2.41-.09,3.05-.27,.64-.18,1.05-.54,1.24-1.07,.04-.14,.16-.21,.37-.21s.31,.07,.31,.21c-.11,1-.24,2.61-.37,4.83s-.2,3.98-.2,5.31c0,.11-.1,.16-.31,.16s-.31-.05-.31-.16c-.26-2.75-1.02-4.73-2.26-5.92s-3.09-1.8-5.53-1.8c-1.39,0-2.39,.08-2.99,.24-.6,.16-1.02,.46-1.24,.91-.23,.45-.34,1.19-.34,2.22v24.71c0,1.11,.12,1.91,.37,2.41,.24,.5,.72,.84,1.44,1.02,.71,.18,1.86,.27,3.44,.27,.08,0,.11,.11,.11,.32s-.04,.32-.11,.32c-1.32,0-2.35-.02-3.1-.05l-4.46-.05-4.35,.05c-.75,.04-1.81,.05-3.16,.05-.11,0-.17-.11-.17-.32s.06-.32,.17-.32c1.54,0,2.68-.09,3.42-.27,.73-.18,1.23-.53,1.5-1.04,.26-.52,.4-1.31,.4-2.39v-24.82c0-1-.11-1.72-.34-2.17-.23-.45-.65-.74-1.27-.88-.62-.14-1.63-.21-3.02-.21-2.33,0-4.16,.62-5.47,1.85Z" fill="#a1a9d8"/>
        <path d="M299.68,216.88c0-.21,.06-.32,.17-.32,1.36,0,2.34-.09,2.96-.27,.62-.18,1.04-.53,1.27-1.04,.23-.52,.34-1.31,.34-2.39v-24.82c0-1.07-.11-1.86-.34-2.36-.23-.5-.65-.85-1.27-1.04-.62-.2-1.61-.29-2.96-.29-.11,0-.17-.11-.17-.32s.06-.32,.17-.32h23.03c.38,0,.56,.16,.56,.48l.11,6.75c0,.11-.1,.17-.31,.19-.21,.02-.33-.03-.37-.13-.26-1.97-1-3.47-2.2-4.5-1.21-1.04-2.79-1.55-4.74-1.55h-2.88c-1.66,0-2.77,.23-3.33,.7s-.85,1.34-.85,2.63v24.39c0,1.29,.25,2.16,.76,2.63s1.53,.7,3.08,.7h3.73c2.11,0,3.87-.6,5.28-1.8s2.38-2.9,2.91-5.12c0-.07,.08-.11,.23-.11,.11,0,.22,.03,.31,.08,.09,.05,.14,.1,.14,.13-.38,2.57-.56,4.98-.56,7.24,0,.29-.06,.49-.17,.62-.11,.12-.34,.19-.68,.19h-24.04c-.11,0-.17-.11-.17-.32Zm19.67-15.41c-.92-.73-2.38-1.1-4.37-1.1h-8.24v-1.23h8.35c1.92,0,3.33-.31,4.23-.94,.9-.62,1.36-1.6,1.36-2.92,0-.07,.1-.11,.31-.11s.31,.04,.31,.11l-.06,4.5,.06,2.41c.08,1.14,.11,2.04,.11,2.68,0,.07-.11,.11-.34,.11s-.34-.04-.34-.11c0-1.54-.46-2.67-1.38-3.4Z" fill="#a1a9d8"/>
        <path d="M365.21,216.88c0,.21-.09,.32-.28,.32-.72,0-1.83-.04-3.33-.11-1.58-.07-2.71-.11-3.39-.11-.87,0-1.94,.04-3.22,.11-1.28,.07-2.24,.11-2.88,.11-.15,0-.23-.11-.23-.32s.08-.32,.23-.32c1.28,0,2.2-.12,2.77-.35s.85-.65,.85-1.26-.28-1.45-.85-2.52l-12.13-23.96,1.81-2.57-11.01,24.23c-.53,1.21-.79,2.22-.79,3,0,1.14,.47,2,1.41,2.57,.94,.57,2.29,.86,4.06,.86,.19,0,.28,.11,.28,.32s-.09,.32-.28,.32c-.68,0-1.66-.04-2.94-.11-1.43-.07-2.67-.11-3.72-.11-.98,0-2.14,.04-3.5,.11-1.2,.07-2.18,.11-2.93,.11-.15,0-.23-.11-.23-.32s.08-.32,.23-.32c1.05,0,1.95-.2,2.68-.59,.73-.39,1.44-1.07,2.12-2.04,.68-.96,1.45-2.39,2.31-4.29l12.02-26.32c.04-.11,.17-.17,.4-.19,.23-.02,.36,.05,.39,.19l13.55,26.54c1.32,2.61,2.42,4.38,3.3,5.31,.88,.93,1.89,1.39,3.02,1.39,.19,0,.28,.11,.28,.32Zm-28.79-14.85h15.35l.4,1.18h-16.42l.68-1.18Z" fill="#a1a9d8"/>
        <path d="M369.5,184.93l1.41,.11-.56,26.05c-.04,1.86,.32,3.23,1.07,4.13,.75,.89,1.98,1.34,3.67,1.34,.11,0,.17,.11,.17,.32s-.06,.32-.17,.32c-1.02,0-1.81-.02-2.37-.05l-3.1-.05-3.1,.05c-.53,.04-1.3,.05-2.31,.05-.08,0-.11-.11-.11-.32s.04-.32,.11-.32c3.12,0,4.7-1.82,4.74-5.47l.56-26.16Zm39.06,31.95c0,.21-.04,.32-.11,.32-1.24,0-2.22-.02-2.93-.05l-3.95-.05-3.78,.05c-.64,.04-1.52,.05-2.65,.05-.08,0-.11-.11-.11-.32s.04-.32,.11-.32c1.28,0,2.22-.1,2.82-.29,.6-.2,1-.54,1.18-1.05,.19-.5,.24-1.29,.17-2.36l-1.13-25.25,2.2-3-14.62,32.22c-.08,.14-.23,.21-.45,.21s-.38-.07-.45-.21l-14.73-28.68c-.68-1.32-1.47-2.29-2.37-2.9-.9-.61-1.96-.91-3.16-.91-.08,0-.11-.11-.11-.32s.04-.32,.11-.32l2.26,.05c.45,.04,1.04,.05,1.75,.05,.83,0,1.5-.02,2.03-.05,.53-.04,.94-.05,1.24-.05,.49,0,.88,.16,1.19,.48,.3,.32,.77,1.09,1.41,2.3l12.81,24.71-2.09,3.43,13.6-29.59c.38-.89,.94-1.34,1.69-1.34,.23,0,.53,.02,.9,.05,.38,.04,.87,.05,1.47,.05l2.88-.05c.45-.04,1.11-.05,1.98-.05,.07,0,.11,.11,.11,.32s-.04,.32-.11,.32c-1.88,0-3.22,.29-4.01,.86-.79,.57-1.17,1.57-1.13,3l1.19,24.66c.07,1.11,.23,1.91,.45,2.41s.65,.84,1.27,1.02c.62,.18,1.61,.27,2.96,.27,.08,0,.11,.11,.11,.32Z" fill="#a1a9d8"/>
      </g>
      <g>
        <g>
          <g>
            <path d="M236.05,52.87c.35,0,.51,.32,.55,.78l2.59,19.77h.08l2.39-19.77c.04-.46,.15-.78,.43-.78h4.9c.16,0,.23,.14,.23,.23,0,.18-.16,.32-.28,.46l-.98,1.32c-.23,.37-.31,.73-.31,1.28v27.67c0,.55,.08,.91,.31,1.28l.98,1.32c.12,.14,.28,.28,.28,.46,0,.09-.08,.23-.23,.23h-5.49c-.2,0-.23-.14-.23-.23,0-.18,.15-.32,.27-.5l.83-1.23c.23-.37,.28-.78,.28-1.32v-22.1h-.08l-2.98,25.02c-.04,.23-.12,.36-.31,.36h-.86c-.12,0-.16-.18-.2-.41l-3.18-24.98h-.08v22.1c0,.55,.04,.96,.28,1.32l.82,1.23c.12,.18,.28,.32,.28,.5,0,.09-.08,.23-.23,.23h-4.82c-.15,0-.23-.14-.23-.23,0-.18,.2-.32,.28-.46l.98-1.32c.23-.37,.35-.73,.35-1.28v-27.67c0-.55-.12-.91-.35-1.28l-.98-1.32c-.08-.14-.28-.28-.28-.46,0-.09,.08-.23,.23-.23h4.78Z"/>
            <path d="M246.99,87.26h-5.49c-.23,0-.38-.15-.38-.38,0-.18,.1-.32,.2-.45,.03-.04,.07-.09,.1-.13l.83-1.23c.21-.32,.25-.7,.25-1.24v-20.3l-2.77,23.24c-.02,.13-.09,.49-.46,.49h-.86c-.25,0-.3-.3-.34-.53l-2.97-23.29v20.39c0,.54,.04,.92,.25,1.24l.82,1.23s.07,.09,.1,.14c.1,.13,.2,.27,.2,.44s-.15,.38-.38,.38h-4.82c-.23,0-.38-.19-.38-.38s.11-.3,.2-.41c.03-.04,.07-.08,.09-.12l.99-1.34c.23-.36,.32-.7,.32-1.19v-27.67c0-.49-.09-.83-.33-1.2l-.97-1.32c-.03-.05-.07-.09-.1-.13-.09-.11-.2-.23-.2-.41s.15-.38,.38-.38h4.78c.28,0,.63,.16,.7,.91l2.48,18.93,2.29-18.93c.02-.22,.07-.91,.58-.91h4.9c.23,0,.38,.19,.38,.38,0,.21-.14,.36-.25,.48l-.06,.07-.97,1.31c-.2,.32-.28,.65-.28,1.19v27.67c0,.54,.08,.87,.29,1.2l1.03,1.38c.11,.12,.25,.28,.25,.48,0,.18-.15,.38-.38,.38Zm-12.18-25.68h.35l.02,.13,3.18,24.98c.01,.08,.05,.25,.08,.29h.84c.06,0,.13,0,.17-.25l2.99-25.14h.36v22.25c0,.59-.05,1.01-.3,1.4l-.83,1.23c-.03,.05-.07,.1-.11,.15-.08,.11-.14,.19-.14,.27,0,.07,.03,.08,.09,.08h5.49c.08,0,.09-.08,.09-.08,0-.09-.09-.19-.17-.29l-.07-.07-.99-1.33c-.25-.38-.34-.76-.34-1.36v-27.67c0-.6,.09-.98,.34-1.36l1.06-1.41c.09-.1,.17-.19,.17-.29,0,0,0-.08-.09-.08h-4.9c-.19,0-.26,.35-.28,.64l-2.41,19.91h-.34l-.02-.13-2.59-19.77c-.06-.65-.32-.65-.4-.65h-4.78c-.07,0-.09,.07-.09,.08,0,.07,.07,.14,.13,.22,.05,.06,.09,.11,.13,.17l.97,1.31c.27,.42,.38,.82,.38,1.36v27.67c0,.55-.11,.94-.38,1.36l-.99,1.33s-.07,.09-.11,.15c-.06,.07-.13,.15-.13,.22,0,.01,.02,.08,.09,.08h4.82c.08,0,.09-.08,.09-.08,0-.08-.07-.17-.14-.27-.04-.05-.08-.1-.11-.15l-.82-1.23c-.25-.39-.3-.81-.3-1.4v-22.25Z" fill="#c7c8c8"/>
          </g>
          <g>
            <path d="M255.41,79.49c-.04-.23-.15-.41-.35-.41h-2.9c-.12,0-.19,.14-.23,.32l-.59,5.02c-.04,.32,.04,.59,.19,.82l.86,1.05c.16,.23,.39,.41,.39,.55s-.08,.28-.27,.28h-4.51c-.16,0-.24-.14-.24-.28s.16-.32,.28-.46l1.1-1.28c.24-.28,.28-.73,.32-1.14l3.57-30.68c.04-.23,.12-.41,.31-.41h1.45c.2,0,.32,.23,.36,.5l3.72,30.64c.04,.46,.16,.96,.43,1.23l1.13,1.19c.12,.14,.24,.28,.24,.41s-.08,.28-.28,.28h-5.65c-.2,0-.28-.14-.28-.28s.16-.27,.28-.41l1.06-1.23c.16-.18,.23-.5,.2-.91l-.59-4.8Zm-.55-2.83c.12,0,.19-.13,.16-.32l-1.38-11.19h-.08l-1.29,11.23c-.04,.18,.04,.27,.12,.27h2.47Z"/>
            <path d="M260.39,87.26h-5.65c-.25,0-.42-.17-.42-.42,0-.16,.12-.3,.24-.42l.07-.08,1.06-1.23c.14-.16,.19-.45,.16-.81l-.59-4.79c-.01-.07-.06-.28-.21-.28h-2.9s-.06,.05-.09,.21l-.58,5.01c-.03,.26,.02,.51,.17,.72l.86,1.04c.06,.09,.13,.17,.19,.24,.13,.14,.23,.27,.23,.4,0,.25-.17,.42-.42,.42h-4.51c-.22,0-.38-.18-.38-.42,0-.19,.17-.39,.31-.55l1.1-1.28c.2-.23,.24-.64,.28-1.02v-.04s3.57-30.69,3.57-30.69c.06-.36,.21-.54,.46-.54h1.45c.25,0,.44,.23,.5,.63l3.72,30.64c.05,.54,.19,.94,.39,1.15l1.14,1.19c.13,.15,.28,.32,.28,.51,0,.25-.17,.42-.42,.42Zm-8.24-8.33h2.9c.25,0,.44,.2,.5,.53h0s.59,4.8,.59,4.8c.04,.44-.04,.81-.23,1.03l-1.06,1.23s-.05,.06-.08,.09c-.06,.07-.16,.18-.16,.23,0,.13,.09,.13,.13,.13h5.65s.13,0,.13-.13c0-.08-.12-.21-.2-.31l-1.13-1.18c-.32-.32-.44-.9-.47-1.32l-3.72-30.63c-.03-.22-.12-.37-.21-.37h-1.45s-.12,0-.17,.29l-3.57,30.71c-.04,.42-.09,.89-.35,1.19l-1.1,1.28c-.08,.09-.24,.28-.24,.36,0,.01,0,.13,.09,.13h4.51s.13,0,.13-.13c0-.03-.1-.14-.16-.21-.07-.08-.14-.16-.21-.25l-.86-1.04c-.19-.29-.27-.6-.23-.93l.59-5.02c.09-.39,.28-.45,.38-.45Zm2.71-2.13h-2.47c-.08,0-.15-.03-.2-.1-.07-.09-.09-.21-.06-.35l1.31-11.35h.34l.02,.13,1.38,11.19c.03,.14,0,.28-.07,.37-.06,.07-.14,.11-.23,.11Zm0-.29v0h0Zm-1.25-10.45l-1.19,10.34c-.02,.08,0,.11,0,.12h2.44s.03-.07,.01-.15l-1.27-10.3Z" fill="#c7c8c8"/>
          </g>
          <g>
            <path d="M270.07,64.7c0,.14-.08,.23-.24,.23-.12,0-.19-.13-.23-.32-.63-3.7-2.51-9.45-4.31-9.45-.98,0-1.06,.96-1.06,2.15,0,2.24,.51,4.47,3.41,11.64,2.74,6.76,3.06,8.27,3.06,11.87,0,4.84-2.16,6.3-3.61,6.3-1.06,0-1.72-.5-2.19-.87-.43-.32-.67-.46-.78-.46-.16,0-.47,.32-1.25,1-.16,.14-.31,.32-.47,.32s-.2-.09-.2-.23v-11.51c0-.14,.04-.32,.2-.32,.12,0,.19,.18,.23,.32,.7,3.65,1.92,9.45,4.23,9.45,.74,0,1.14-.96,1.14-2.38,0-3.06-1.17-6.39-3.41-11.87-2.12-5.21-2.9-8.67-2.9-12.01,0-4.34,1.61-5.71,3.61-5.71,.74,0,1.61,.5,2.19,1.05,.2,.14,.43,.28,.59,.28s.55-.32,.9-.73c.36-.36,.59-.59,.83-.59,.19,0,.28,.23,.28,.5v11.32Z"/>
            <path d="M267.09,87.26c-1.13,0-1.85-.56-2.28-.9-.5-.37-.65-.42-.7-.42-.08,.01-.35,.25-.69,.56-.13,.12-.29,.25-.46,.41-.03,.03-.06,.05-.09,.09-.14,.13-.29,.27-.47,.27-.13,0-.34-.05-.34-.38v-11.51c0-.28,.13-.46,.34-.46,.11,0,.28,.07,.38,.42,.54,2.8,1.8,9.35,4.09,9.35,.61,0,.99-.85,.99-2.23,0-2.97-1.1-6.17-3.4-11.81-2.07-5.08-2.91-8.58-2.91-12.06,0-3.88,1.26-5.85,3.75-5.85,.83,0,1.73,.56,2.29,1.09,.31,.21,.44,.23,.49,.23,.08,0,.41-.24,.79-.68,.39-.4,.64-.64,.94-.64,.26,0,.42,.24,.42,.65v11.32c0,.23-.15,.37-.38,.37-.11,0-.3-.05-.38-.43-.66-3.9-2.57-9.34-4.17-9.34-.77,0-.91,.67-.91,2,0,2.2,.49,4.4,3.4,11.59,2.79,6.86,3.07,8.39,3.07,11.93,0,5.09-2.36,6.45-3.76,6.45Zm-2.98-1.62c.13,0,.32,.08,.87,.48,.43,.34,1.08,.84,2.11,.84,1.29,0,3.46-1.3,3.46-6.15,0-3.55-.26-4.96-3.05-11.82-2.93-7.23-3.42-9.45-3.42-11.7,0-.97,0-2.29,1.21-2.29,2,0,3.89,6.23,4.45,9.57,.03,.15,.08,.19,.09,.2,.09,0,.09-.03,.09-.08v-11.32c0-.17-.04-.36-.13-.36-.17,0-.39,.21-.72,.55-.06,.07-.68,.77-1.01,.77-.16,0-.38-.1-.67-.3-.52-.48-1.36-1.02-2.11-1.02-2.29,0-3.46,1.87-3.46,5.56,0,3.45,.84,6.91,2.89,11.96,2.32,5.68,3.42,8.91,3.42,11.92,0,1.58-.48,2.52-1.28,2.52-2.23,0-3.42-4.6-4.38-9.57-.04-.14-.09-.19-.1-.2-.02,0-.04,.09-.04,.17v11.51c0,.06,.01,.08,.01,.08h0s.01,0,.04,0c.07,0,.18-.11,.27-.19,.03-.03,.07-.06,.1-.09,.18-.15,.33-.29,.46-.41,.52-.46,.71-.63,.89-.63Z" fill="#c7c8c8"/>
          </g>
          <g>
            <path d="M276.53,55.06h-1.45c-.23,0-.35,.23-.43,.5l-2.04,9.09c-.04,.18-.16,.27-.31,.27s-.2-.09-.2-.32v-11.55c0-.09,.08-.18,.2-.18h11.49c.11,0,.19,.09,.19,.18v11.55c0,.23-.04,.32-.19,.32s-.28-.09-.32-.27l-2.04-9.09c-.08-.27-.19-.5-.43-.5h-1.46v28.77c0,.55,.04,.96,.32,1.28l1.17,1.32c.12,.14,.28,.28,.28,.41s-.03,.28-.23,.28h-6.07c-.19,0-.23-.14-.23-.28s.16-.27,.28-.41l1.17-1.32c.28-.32,.32-.73,.32-1.28v-28.77Z"/>
            <path d="M281.08,87.26h-6.07c-.11,0-.38-.04-.38-.42,0-.16,.12-.3,.24-.42l1.25-1.41c.23-.27,.28-.62,.28-1.18v-28.62h-1.31c-.07,0-.19,.04-.29,.4l-2.04,9.08c-.05,.24-.22,.39-.46,.39-.34,0-.34-.32-.34-.46v-11.55c0-.18,.15-.33,.34-.33h11.49c.19,0,.34,.15,.34,.33v11.55c0,.14,0,.46-.34,.46-.23,0-.41-.14-.46-.39l-2.04-9.09c-.1-.34-.21-.39-.29-.39h-1.31v28.62c0,.56,.04,.91,.28,1.18l1.24,1.4c.12,.13,.25,.27,.25,.43,0,.38-.27,.42-.38,.42Zm-6-32.34h1.6v28.91c0,.51-.03,1-.35,1.37l-1.18,1.33s-.05,.06-.08,.09c-.06,.07-.16,.18-.16,.23,0,.13,.03,.13,.09,.13h6.07c.06,0,.09,0,.09-.13,0-.05-.09-.16-.17-.23l-1.24-1.4c-.33-.38-.36-.87-.36-1.38v-28.91h1.6c.39,0,.52,.44,.57,.61l2.04,9.1c.03,.14,.1,.16,.17,.16,.03,0,.05-.03,.05-.17v-11.55s-.01-.04-.05-.04h-11.49s-.05,.03-.05,.04v11.55c0,.14,.02,.17,.02,.17,.09,0,.17-.02,.2-.16l2.04-9.09c.05-.16,.17-.62,.57-.62Z" fill="#c7c8c8"/>
          </g>
          <g>
            <path d="M289.74,68.53h.86c.2,0,.36-.09,.44-.32l1.37-3.2c.08-.18,.12-.27,.23-.27,.12,0,.16,.09,.16,.27v9.68c0,.14-.04,.23-.16,.23-.15,0-.19-.14-.28-.32l-1.33-3.33c-.08-.23-.23-.32-.44-.32h-.86v13.88h2.23c.51,0,.9-.28,1.06-.82l2.11-8.77c.04-.18,.16-.27,.28-.27,.12,0,.19,.13,.19,.27v11.46c0,.23-.11,.41-.31,.41h-10.16c-.15,0-.23-.14-.23-.28s.19-.23,.28-.41l1.17-1.32c.28-.32,.36-.73,.36-1.28v-27.67c0-.55-.08-.96-.36-1.28l-1.17-1.32c-.08-.14-.28-.28-.28-.41s.08-.28,.23-.28h10.16c.15,0,.31,.18,.31,.41v11.37c0,.18-.07,.27-.19,.27-.15,0-.28-.13-.32-.32l-2.11-8.58c-.15-.6-.51-.87-1.02-.87h-2.23v13.38Z"/>
            <path d="M295.31,87.26h-10.16c-.22,0-.38-.18-.38-.42,0-.13,.09-.22,.17-.3,.05-.05,.1-.11,.13-.17l.02-.04,1.17-1.32c.22-.26,.32-.6,.32-1.18v-27.67c0-.58-.09-.92-.32-1.18l-1.17-1.32c-.04-.06-.08-.11-.12-.15-.09-.1-.19-.21-.19-.35,0-.24,.17-.42,.38-.42h10.16c.25,0,.46,.25,.46,.56v11.37c0,.31-.18,.42-.34,.42-.22,0-.4-.17-.46-.43l-2.11-8.58c-.13-.51-.42-.76-.88-.76h-2.09v13.08h.71c.15,0,.24-.07,.3-.22l1.37-3.21c.09-.2,.16-.36,.37-.36,.14,0,.31,.07,.31,.42v9.68c0,.35-.23,.38-.31,.38-.23,0-.32-.19-.38-.35l-.02-.05-1.34-3.34c-.06-.16-.14-.23-.3-.23h-.71v13.59h2.09c.46,0,.78-.25,.92-.72l2.11-8.76c.06-.26,.25-.38,.42-.38,.19,0,.34,.18,.34,.42v11.46c0,.32-.19,.56-.46,.56Zm-9.99-.75c-.05,.1-.11,.17-.17,.23-.03,.03-.08,.08-.08,.1,0,0,0,.13,.09,.13h10.16c.13,0,.16-.17,.16-.26v-11.46c0-.08-.03-.13-.05-.13-.05,0-.11,.05-.13,.16l-2.11,8.77c-.18,.6-.61,.93-1.2,.93h-2.38v-14.17h1.01c.28,0,.48,.14,.57,.42l1.35,3.38c.06,.15,.08,.17,.11,.17h0s.01-.02,.01-.08v-9.68c0-.11-.01-.13-.02-.13-.02,.02-.06,.12-.09,.19l-1.37,3.2c-.09,.26-.29,.41-.57,.41h-1.01v-13.67h2.38c.6,0,1,.34,1.16,.98l2.11,8.59c.02,.1,.09,.21,.17,.21,.01,0,.05,0,.05-.13v-11.37c0-.15-.1-.26-.16-.26h-10.16c-.09,0-.09,.12-.09,.13,0,.03,.07,.11,.11,.16,.05,.06,.1,.11,.14,.18l1.16,1.3c.28,.32,.4,.73,.4,1.38v27.67c0,.64-.12,1.05-.4,1.37l-1.16,1.31Z" fill="#c7c8c8"/>
          </g>
          <g>
            <path d="M301.85,83.83c0,.55,.08,.96,.36,1.28l1.17,1.32c.07,.14,.28,.28,.28,.41s-.08,.28-.23,.28h-6.16c-.15,0-.23-.14-.23-.28s.19-.27,.28-.41l1.17-1.32c.28-.32,.36-.73,.36-1.28v-27.67c0-.55-.08-.96-.36-1.28l-1.17-1.32c-.08-.14-.28-.28-.28-.41s.08-.28,.23-.28h4.9c4.07,0,6.19,2.51,6.19,8.45,0,5.07-1.53,7.13-2.9,8.13,1.33,.82,2.51,2.6,2.51,5.11v9.54c0,.32,.15,.59,.35,.82l1.25,1.55c.16,.18,.32,.36,.32,.5s-.19,.14-.4,.14h-2.03c-1.8,0-2.51-1.37-2.51-2.92v-9.82c0-2.01-1.06-3.52-2.44-3.52h-.66v12.97Zm0-15.25h.59c1.92,0,2.7-1.78,2.7-7.26,0-4.66-.78-6.16-2.7-6.16h-.59v13.42Z"/>
            <path d="M309.49,87.26h-2.03c-1.66,0-2.66-1.15-2.66-3.07v-9.82c0-1.92-.98-3.37-2.29-3.37h-.52v12.82c0,.58,.09,.92,.32,1.18l1.17,1.32c.04,.07,.09,.11,.13,.16,.09,.1,.19,.21,.19,.35,0,.24-.17,.42-.38,.42h-6.16c-.22,0-.38-.18-.38-.42,0-.14,.1-.25,.19-.35,.04-.05,.08-.09,.1-.13l1.19-1.35c.22-.26,.32-.6,.32-1.18v-27.67c0-.58-.09-.92-.32-1.18l-1.17-1.32c-.04-.06-.08-.11-.12-.15-.09-.1-.19-.21-.19-.35,0-.24,.17-.42,.38-.42h4.9c4.33,0,6.34,2.73,6.34,8.59,0,3.97-.92,6.63-2.8,8.12,1.19,.83,2.41,2.56,2.41,5.12v9.54c0,.24,.1,.48,.32,.73l1.25,1.56c.2,.23,.35,.41,.35,.59,0,.28-.33,.28-.54,.28Zm-7.79-16.55h.81c1.47,0,2.58,1.57,2.58,3.66v9.82c0,.83,.23,2.78,2.36,2.78h2.03c.09,0,.23,0,.26-.02-.02-.05-.19-.25-.29-.37l-1.26-1.56c-.26-.3-.38-.6-.38-.91v-9.54c0-2.57-1.26-4.26-2.44-4.99l-.19-.11,.18-.13c1.91-1.4,2.84-4.02,2.84-8.01,0-5.66-1.92-8.3-6.04-8.3h-4.9c-.09,0-.09,.12-.09,.13,0,.03,.07,.11,.11,.16,.05,.06,.1,.11,.14,.18l1.16,1.3c.28,.32,.4,.73,.4,1.38v27.67c0,.64-.12,1.05-.4,1.37l-1.17,1.33s-.07,.1-.12,.15c-.04,.04-.11,.13-.11,.16,0,0,0,.13,.09,.13h6.16c.09,0,.09-.12,.09-.13,0-.03-.07-.11-.11-.15-.05-.06-.11-.12-.15-.19l-1.15-1.29c-.28-.32-.4-.73-.4-1.38v-13.12Zm.74-1.99h-.74v-13.71h.74c2.08,0,2.85,1.71,2.85,6.31,0,5.4-.77,7.41-2.85,7.41Zm-.44-.29h.44c1.58,0,2.56-1.19,2.56-7.11,0-5.03-.93-6.02-2.56-6.02h-.44v13.13Z" fill="#c7c8c8"/>
          </g>
        </g>
        <path d="M299.89,128.58c.45,2.64,13.72-1.22,25.46-2.21,9.64-.81,19.13,.48,22.84,1.87l.77-.58,.12-.09-.14-.06-1.4-.59,1.22-.92,.12-.09-.14-.06-1.4-.59,1.22-.92,.12-.09-.14-.06-1.4-.59,1.22-.92,.12-.09-.14-.06-1.4-.6,1.22-.92,.12-.09-.14-.06-1.4-.59,1.22-.92,.12-.09-.14-.06-1.4-.6,1.22-.92,.12-.09-.14-.06-1.4-.59,1.22-.92,.12-.09-.14-.06-1.4-.59,1.22-.92,.12-.09-.14-.06-1.4-.6,1.22-.92,.12-.09-.14-.06-1.4-.59,.23-.17c-7.5-2.4-36.13-1.71-38.56,4.8-2.07,3.42-7.74,8.81-7.47,12.01Z" fill="url(#_未命名漸層_10)" fill-rule="evenodd"/>
        <path d="M321.83,124.14c.09,4.85-21.44-.82-21.93,4.49-.7-1.98,2.95-9.49,8.04-16.75,3.87-.1,8.79,.12,12.63,.02,.24,3.65,1.03,8.59,1.27,12.24Z" fill="url(#GradientFill_20)" fill-rule="evenodd"/>
        <path d="M238.99,110.04c-2-4.92-26.93-2.21-38.35,.48l.58,.53-1.45,.46-.14,.05,.11,.1,1.13,1.03-1.45,.46-.14,.05,.11,.1,1.13,1.03-1.45,.46-.15,.05,.11,.1,1.13,1.03-1.45,.46-.14,.05,.11,.1,1.13,1.03-1.45,.46-.14,.05,.11,.1,1.13,1.03-1.45,.46-.14,.05,.11,.1,1.13,1.03-1.45,.46-.14,.05,.11,.1,1.13,1.03-1.45,.46-.13,.04h0s.1,.11,.1,.11l1.13,1.03-1.45,.46-.09,.03v.05s.06,.06,.06,.06l.58,.53c9.02-2.24,30.15-4.61,35.19-3.39,2.27-3.47,6.43-8.75,6.36-11.85Z" fill="url(#_未命名漸層_10-2)" fill-rule="evenodd"/>
        <path d="M216.87,112.01c-.7-3.01,21.32,2.91,22.15-1.91,.32,2.33-3.84,8.7-8.47,12.44-3.87,.14-8.78,.08-12.61,.22-.17-2.62-.89-8.13-1.07-10.75Z" fill="url(#GradientFill_20-2)" fill-rule="evenodd"/>
        <path d="M271,0l.92,2.05,2.26,.25-1.67,1.51,.46,2.22-1.95-1.12-1.97,1.12,.46-2.2-1.68-1.53,2.23-.24,.94-2.07h0Zm-16.39,4.54h0l1.82,1.32,2.08-.91-.69,2.14,1.51,1.7h-2.25s-1.15,1.96-1.15,1.96l-.7-2.13-2.22-.49,1.82-1.32-.22-2.26h0Zm32.85-.28h0l-.23,2.23,1.83,1.35-2.2,.47-.72,2.15-1.13-1.94-2.27-.02,1.5-1.67-.69-2.16,2.05,.91,1.85-1.32h0Zm-7.95-3.21h0l.35,2.22,2.11,.83-2,1.02-.14,2.27-1.59-1.59-2.2,.57,1.02-2-1.22-1.91,2.22,.35,1.44-1.75h0Zm-17.01,.14h0l1.42,1.74,2.24-.34-1.22,1.89,1.02,2.03-2.17-.58-1.62,1.59-.12-2.24-2.02-1.04,2.1-.81,.37-2.24Z" fill="#7a6a56" fill-rule="evenodd"/>
        <path d="M298.94,10.25c.4,.21,.79,.42,1.18,.63-.75-.85-1.07-1.88-1.36-3.24,3.34,.96,4.4,2.19,4.8,5.21l-.05,.04c.71,.45,1.4,.91,2.09,1.39-.78-1.11-1.02-2.37-1.17-4.03,3.79,1.6,4.86,3.19,4.9,6.78l-.04,.03c.52,.43,1.04,.86,1.55,1.3-.54-1.25-.6-2.6-.52-4.3,3.88,2.3,4.87,4.19,4.44,8.03,.43,.45,.85,.9,1.27,1.36-.24-1.21-.08-2.47,.23-4,3.34,2.77,4.09,4.74,3.24,8.2,.57,.75,1.12,1.52,1.65,2.3-.27-1.63,.11-3.17,.79-5.09,3.38,3.69,3.85,6.03,2.2,9.94,.56,1,1.08,2.02,1.59,3.06-.24-1.93,.38-3.54,1.44-5.59,2.9,4.22,2.98,6.62,.64,10.42,.55,1.44,1.04,2.9,1.48,4.39-.17-2.46,.78-4.18,2.41-6.4,2.37,4.93,2.03,7.46-1.09,11.09l-.14-.02c.35,1.67,.63,3.37,.85,5.09,.03-3.08,1.36-4.86,3.64-7.12,1.67,5.59,.9,8.2-3,11.5l-.26-.09c.06,1.06,.08,2.13,.08,3.21,0,.7-.01,1.4-.04,2.1,.06,.31,.11,.63,.14,.97,.12-4.22,1.77-5.97,4.79-8.2,.83,5.77-.31,8.24-4.65,10.94-.17-.08-.34-.17-.5-.25-.17,1.86-.42,3.69-.75,5.5,1.02-3.02,2.91-4.37,5.89-5.89-.11,6.13-1.71,8.49-6.67,10.56l-.22-.16c-.39,1.47-.83,2.92-1.32,4.35,1.66-3.42,4.03-4.61,7.71-5.82-1.19,6.77-3.37,9.11-9.22,10.53-.08-.08-.16-.16-.24-.23-.39,.88-.79,1.76-1.22,2.62,1.95-1.55,4.21-2.08,7.23-2.48-2.49,6.62-5.14,8.73-11.09,9.18-.76,1.15-1.57,2.27-2.41,3.37,2.66-1.81,5.37-1.97,9.07-1.74-4.02,6.53-7.26,8.12-13.83,7.25-.84,.85-1.69,1.69-2.58,2.49,2.53-.72,4.96-.32,8.06,.51-5.07,5.42-8.5,6.45-14.41,4.55-1.23,.85-2.49,1.66-3.78,2.42,3.1-.32,5.71,.71,9.01,2.43-6.76,4.61-10.68,4.86-16.58,1.35-2.49,1.03-5.06,1.91-7.71,2.61,3.61,.39,6.08,2.22,9.13,5.1-8.2,2.75-12.21,1.83-17.23-3.54-2.47,.3-4.99,.46-7.54,.46-2.41,0-4.78-.14-7.12-.42-5.01,5.33-9.02,6.23-17.19,3.49,2.96-2.79,5.38-4.6,8.81-5.06-2.6-.68-5.13-1.53-7.58-2.54-5.8,3.39-9.71,3.09-16.39-1.46,3.11-1.63,5.61-2.63,8.48-2.47-1.21-.72-2.4-1.48-3.56-2.28-5.71,1.76-9.11,.68-14.09-4.65,2.84-.76,5.12-1.16,7.43-.67-.81-.74-1.59-1.5-2.36-2.28-6.3,.75-9.49-.9-13.42-7.3,3.3-.2,5.81-.1,8.2,1.22-.71-.94-1.38-1.9-2.03-2.88-5.61-.52-8.18-2.7-10.6-9.14,2.65,.35,4.73,.8,6.52,1.96-.31-.63-.6-1.27-.88-1.91-5.74-1.43-7.9-3.79-9.08-10.5,2.98,.98,5.1,1.95,6.68,4.1-.26-.84-.51-1.7-.74-2.56-4.78-2.04-6.34-4.43-6.45-10.46,2.36,1.21,4.05,2.3,5.15,4.21-.18-1.19-.33-2.38-.45-3.59l-.06,.03c-4.34-2.7-5.49-5.16-4.65-10.94,2.3,1.69,3.8,3.11,4.44,5.53v-.4c0-1.1,.03-2.2,.09-3.29-3.73-3.22-4.45-5.84-2.81-11.33,1.78,1.77,2.98,3.23,3.44,5.26,.18-1.18,.4-2.35,.65-3.51-2.88-3.47-3.13-5.99-.83-10.78,1.3,1.77,2.17,3.23,2.38,5,.37-1.17,.78-2.32,1.23-3.46-2.05-3.53-1.86-5.9,.92-9.95,.87,1.67,1.44,3.06,1.49,4.56,.43-.85,.88-1.68,1.34-2.5-1.41-3.63-.84-5.92,2.4-9.46,.57,1.62,.93,2.96,.87,4.31,.47-.67,.96-1.33,1.46-1.98-.67-3.17,.16-5.1,3.35-7.73,.26,1.28,.41,2.37,.32,3.4,.38-.4,.76-.8,1.14-1.2-.3-3.55,.75-5.39,4.48-7.6,.06,1.44,.03,2.63-.31,3.72,.43-.36,.86-.72,1.29-1.06,.11-3.38,1.22-4.92,4.9-6.47-.13,1.39-.32,2.51-.84,3.48,.57-.38,1.15-.76,1.74-1.13,.43-2.84,1.52-4.03,4.76-4.96-.24,1.14-.51,2.05-1.03,2.81l.38-.2c-.13,.07-.26,.14-.39,.21-.48,.69-1.17,1.27-2.24,1.79,2.39-.76,3.7-.16,5.52,1.13-3.11,1.56-4.72,1.37-7.04-.54l.02-.15c-.62,.4-1.23,.81-1.84,1.24-.47,.79-1.17,1.49-2.26,2.19,2.7-1.23,4.31-.71,6.64,.55-3.43,2.26-5.34,2.27-8.34,.36v-.08c-.48,.4-.96,.81-1.43,1.23-.39,.99-1.07,1.91-2.22,2.88,2.81-1.78,4.68-1.44,7.45-.39-3.46,3.03-5.58,3.33-9.2,1.66-.01-.09-.02-.18-.03-.26-.43,.46-.85,.93-1.27,1.4-.22,1.08-.75,2.13-1.76,3.32,2.5-2.19,4.4-2.15,7.3-1.55-2.95,3.53-4.99,4.16-8.83,3.08-.05-.19-.1-.37-.15-.56-.6,.82-1.18,1.65-1.74,2.5-.2,.93-.62,1.89-1.32,2.98,2.44-2.82,4.55-3.06,7.87-2.84-2.73,4.37-4.91,5.39-9.33,4.77l-.05-.13c-.68,1.28-1.32,2.59-1.91,3.93-.15,.53-.35,1.08-.63,1.68,2.02-3.13,4.08-3.66,7.4-3.9-2.05,4.61-4.03,5.96-8.29,6.01-.67,1.84-1.26,3.72-1.75,5.64,1.54-2.81,3.53-3.62,6.64-4.34-1.36,5.04-3.15,6.82-7.38,7.61-.33,1.64-.59,3.3-.78,4.99,1.18-2.64,3.07-3.73,5.95-4.9-.58,5.44-2.13,7.63-6.29,9.17-.04,.9-.06,1.81-.06,2.72,0,.26,0,.52,0,.78,.89-2.12,2.49-3.32,4.82-4.69,.21,5.31-.92,7.72-4.54,9.8,.16,1.71,.4,3.39,.7,5.05,.45-2.71,1.96-4.33,4.33-6.29,1.14,5.57,.32,8.26-3.26,11.09,.31,1.15,.65,2.29,1.02,3.42,.07-3.01,1.45-5.04,3.7-7.59,2.23,5.98,1.79,9.1-1.68,12.85,.9,2.07,1.92,4.07,3.04,6.01,.19,.29,.38,.59,.57,.91-2-4.9-.96-7.74,1.45-11.8,3.71,6.14,3.67,9.53,.28,14.56,1.04,1.54,2.15,3.03,3.33,4.46-1.9-3.78-1.32-6.71,.15-10.81,4.99,5.52,5.72,9.03,3.37,14.73,1.65,1.68,3.39,3.27,5.22,4.75,.41,.26,.82,.55,1.25,.88-3.94-3.98-4.07-7.19-3.35-12.13,6.15,4.53,7.47,7.89,6.14,14.25,2.36,1.6,4.83,3.03,7.4,4.29,.09,.04,.19,.08,.28,.13-5.17-3.31-6.07-6.71-6.49-12.17,7.64,3.36,9.87,6.62,9.97,13.71,3.09,1.24,6.3,2.24,9.61,2.95-4.7-1.92-6.37-4.95-8.13-9.74,8.52,1.2,11.71,3.79,13.82,10.68,2.25,.26,4.55,.4,6.87,.4,2.49,0,4.94-.16,7.35-.45,2.12-6.84,5.31-9.43,13.81-10.62-1.69,4.62-3.31,7.6-7.64,9.53,3.15-.73,6.2-1.72,9.13-2.93,.15-6.96,2.4-10.19,9.97-13.53-.39,5.03-1.18,8.3-5.33,11.37,2.24-1.16,4.41-2.47,6.48-3.89-1.24-6.19,.13-9.51,6.2-13.98,.66,4.56,.61,7.63-2.48,11.2,1.92-1.56,3.75-3.24,5.46-5.02-2.18-5.51-1.39-8.99,3.51-14.4,1.3,3.62,1.9,6.33,.71,9.52,.89-1.14,1.73-2.32,2.54-3.52-3.17-4.84-3.12-8.22,.51-14.21,2.09,3.52,3.15,6.12,2.09,9.94,.97-1.75,1.86-3.56,2.65-5.41-3.18-3.6-3.53-6.71-1.37-12.51,1.95,2.22,3.25,4.04,3.6,6.45,.26-.85,.51-1.71,.73-2.58-3.25-2.72-3.97-5.41-2.88-10.78,2.02,1.68,3.41,3.1,4.06,5.16,.22-1.38,.4-2.77,.53-4.18-3.28-2.02-4.31-4.45-4.1-9.54,1.97,1.16,3.42,2.2,4.36,3.78,0-.93-.03-1.86-.07-2.78-3.81-1.53-5.26-3.76-5.82-8.99,2.43,.99,4.16,1.92,5.35,3.78-.18-1.33-.4-2.66-.66-3.96-3.88-.84-5.59-2.67-6.9-7.51,2.6,.6,4.41,1.27,5.84,3.12-.42-1.5-.89-2.98-1.42-4.43-3.95-.15-5.85-1.56-7.83-6,2.84,.21,4.75,.63,6.51,2.71-.62-1.44-1.3-2.86-2.04-4.24-4.21,.52-6.35-.55-9.01-4.81,3.31-.22,5.43,.03,7.86,2.84-.31-.49-.57-.95-.77-1.39-.76-1.24-1.56-2.44-2.4-3.62l-.02,.09c-3.83,1.08-5.88,.45-8.83-3.08,2.9-.6,4.8-.64,7.3,1.55-.77-.9-1.26-1.72-1.55-2.53-.54-.63-1.09-1.25-1.65-1.86-3.54,1.6-5.65,1.27-9.07-1.72,2.77-1.05,4.64-1.38,7.45,.39-.85-.73-1.45-1.42-1.86-2.14-.65-.6-1.32-1.19-2-1.76-2.88,1.78-4.78,1.72-8.13-.49,2.33-1.26,3.94-1.78,6.64-.55-.78-.5-1.35-1-1.79-1.53-.78-.57-1.58-1.12-2.39-1.66-2.27,1.82-3.87,1.98-6.93,.45,1.83-1.29,3.13-1.89,5.52-1.13-.83-.4-1.43-.84-1.88-1.33-.4-.23-.81-.45-1.22-.67Z" fill="#7a6a56" fill-rule="evenodd"/>
        <path d="M293.49,83.04c-.46,0-.84,.15-1.15,.46-.31,.31-.48,.72-.52,1.23h3.28c-.04-.5-.17-.87-.38-1.12-.32-.38-.73-.58-1.23-.58Z" fill="none"/>
        <path d="M287.17,83.04c-.46,0-.84,.15-1.15,.46-.31,.31-.48,.72-.52,1.23h3.28c-.04-.5-.17-.87-.38-1.12-.32-.38-.73-.58-1.24-.58Z" fill="none"/>
        <path d="M239.66,32.63c0-.29-.14-.55-.4-.78-.19-.17-.4-.26-.62-.28-.22-.02-.42,.03-.61,.15-.11,.08-.29,.26-.53,.54l-1.02,1.18,1.65,1.42,1.03-1.19c.34-.39,.51-.74,.5-1.03Z" fill="none"/>
        <path d="M247.78,67.8c.32-.33,.55-.68,.69-1.07,.15-.39,.22-.83,.22-1.35,0-.56-.1-1.04-.29-1.45-.19-.42-.49-.75-.87-1.01-.34-.23-.74-.38-1.19-.48-.45-.09-1.02-.14-1.69-.14h-1.78v6.46h1.47c.87,0,1.57-.07,2.11-.21,.53-.14,.98-.39,1.34-.75Z" fill="none"/>
        <path d="M276.48,22.98c.6,.11,1.13-.01,1.59-.36,.46-.35,.76-.91,.9-1.68,.09-.49,.08-.93-.01-1.32-.1-.39-.29-.72-.57-.98-.28-.26-.62-.43-1.02-.5-.56-.1-1.08,0-1.56,.32-.48,.31-.8,.92-.96,1.82-.13,.72-.04,1.33,.27,1.82,.31,.49,.76,.78,1.35,.89Z" fill="none"/>
        <path d="M260.1,85.86c-.17,.07-.3,.18-.39,.32-.09,.14-.14,.3-.14,.47,0,.26,.1,.48,.3,.66,.2,.18,.5,.27,.89,.27s.73-.08,1.03-.25c.3-.17,.52-.4,.66-.69,.11-.22,.16-.56,.16-.99v-.36c-.36,.15-.9,.27-1.63,.38-.41,.06-.71,.13-.88,.2Z" fill="none"/>
        <path d="M294.58,31.3c.3,.26,.57,.44,.79,.53,.22,.09,.43,.13,.62,.12,.27-.02,.55-.12,.84-.29,.29-.18,.59-.44,.89-.78,.42-.48,.66-.92,.72-1.32,.07-.4,.02-.73-.13-1.02-.11-.2-.35-.46-.71-.78l-.97-.84-3.04,3.53,.98,.85Z" fill="none"/>
        <path d="M260.07,67.59c.31-.31,.55-.67,.7-1.09,.15-.42,.23-.92,.23-1.48,0-.47-.08-.89-.25-1.26-.17-.37-.43-.66-.78-.9-.31-.21-.67-.35-1.07-.43-.41-.09-.92-.13-1.52-.13h-2.14v6.12h1.9c.62,0,1.18-.06,1.67-.16,.49-.11,.92-.33,1.27-.67Z" fill="none"/>
        <path d="M236.35,37.39c-.42-.27-.83-.43-1.23-.49-.4-.06-.78,0-1.12,.16-.35,.16-.62,.42-.84,.75-.31,.48-.4,1-.29,1.56,.11,.56,.55,1.08,1.33,1.58,.62,.39,1.21,.54,1.78,.43,.57-.11,1.01-.41,1.33-.92,.32-.51,.41-1.05,.26-1.61-.15-.56-.56-1.05-1.22-1.47Z" fill="none"/>
        <path d="M266.41,44.87c-.38-.47-.8-.82-1.27-1.02-.48-.21-.96-.31-1.47-.31-.54,0-1.03,.09-1.47,.29-.44,.19-.86,.53-1.27,1.02-.36,.45-.65,1.06-.87,1.8-.22,.75-.34,1.65-.34,2.68s.1,1.96,.32,2.67c.21,.71,.5,1.3,.87,1.78,.38,.48,.8,.83,1.28,1.04,.48,.21,.97,.31,1.48,.31s1.02-.11,1.5-.34c.48-.22,.9-.57,1.26-1.04,.38-.51,.66-1.1,.87-1.78,.2-.67,.3-1.56,.3-2.65,0-1.04-.11-1.92-.32-2.65-.21-.73-.5-1.33-.86-1.8Z" fill="none"/>
        <path d="M270.21,85.86c-.17,.07-.3,.18-.39,.32-.09,.14-.14,.3-.14,.47,0,.26,.1,.48,.3,.66,.2,.18,.5,.27,.89,.27s.73-.08,1.03-.25c.3-.17,.52-.4,.66-.69,.11-.22,.16-.56,.16-.99v-.36c-.36,.15-.9,.27-1.63,.38-.41,.06-.71,.13-.88,.2Z" fill="none"/>
        <polygon points="255.03 34.15 253.08 32.76 253.85 35.02 251.93 36.45 254.32 36.42 255.08 38.68 255.79 36.4 258.18 36.38 256.22 35 256.94 32.72 255.03 34.15" fill="#5c3f2d"/>
        <polygon points="262.36 30.59 260.95 28.67 260.97 31.06 258.7 31.8 260.98 32.53 260.99 34.91 262.38 32.97 264.65 33.7 263.23 31.78 264.63 29.84 262.36 30.59" fill="#5c3f2d"/>
        <polygon points="277.32 32.97 278.71 34.91 278.71 32.53 280.99 31.8 278.72 31.06 278.74 28.67 277.33 30.59 275.06 29.84 276.46 31.78 275.04 33.7 277.32 32.97" fill="#5c3f2d"/>
        <polygon points="283.91 36.4 284.62 38.68 285.37 36.42 287.76 36.45 285.84 35.02 286.61 32.76 284.67 34.15 282.75 32.72 283.47 35 281.52 36.38 283.91 36.4" fill="#5c3f2d"/>
        <polygon points="268.05 33.2 269.98 31.79 271.91 33.2 271.17 30.92 273.11 29.52 270.72 29.53 269.98 27.25 269.25 29.53 266.86 29.52 268.79 30.92 268.05 33.2" fill="#5c3f2d"/>
        <polygon points="262.38 96.99 260.99 95.05 260.98 97.44 258.7 98.16 260.97 98.91 260.95 101.3 262.36 99.37 264.63 100.12 263.23 98.18 264.65 96.26 262.38 96.99" fill="#5c3f2d"/>
        <polygon points="285.37 93.55 284.62 91.28 283.91 93.56 281.52 93.59 283.47 94.97 282.75 97.25 284.67 95.82 286.61 97.2 285.84 94.94 287.76 93.52 285.37 93.55" fill="#5c3f2d"/>
        <polygon points="278.71 97.44 278.71 95.05 277.32 96.99 275.04 96.26 276.46 98.18 275.06 100.12 277.33 99.37 278.74 101.3 278.72 98.91 280.99 98.16 278.71 97.44" fill="#5c3f2d"/>
        <polygon points="255.79 93.56 255.08 91.28 254.32 93.55 251.93 93.52 253.85 94.94 253.08 97.2 255.03 95.82 256.94 97.25 256.22 94.97 258.18 93.59 255.79 93.56" fill="#5c3f2d"/>
        <polygon points="271.91 96.77 269.98 98.17 268.05 96.77 268.79 99.04 266.86 100.44 269.25 100.43 269.98 102.71 270.72 100.43 273.11 100.44 271.17 99.04 271.91 96.77" fill="#5c3f2d"/>
        <path d="M217.59,111.79c1.77,2.68,6.94,3.98,13.43,4.06,6.95,.08,15.35-1.24,22.71-3.79,8.11-2.8,16.1-5.33,24.05-7.38,7.96-2.05,15.9-3.63,23.93-4.54,4.07-.46,8.32-.14,11.82,.89,3.3,.97,5.94,2.59,7.13,4.79,.03,.06,.05,.13,.05,.2,.22,3.08,.4,6.06,.58,9.04,.18,2.98,.35,5.97,.58,9.06,.02,.25-.17,.46-.42,.48-.19,.01-.37-.1-.44-.26-.92-1.86-3.66-3.16-7.15-3.93-4.12-.91-9.26-1.06-13.75-.52-9.76,1.18-18.85,4.22-27.59,7.14-6.07,2.03-11.98,4.01-17.86,5.28-6.82,1.48-13.26,2.16-18.79,2.21-5.06,.05-9.36-.44-12.48-1.33-3.25-.93-5.28-2.32-5.65-4.05-.04-.18-.06-.37-.06-.57h0c-.13-2.81-.25-5.56-.4-8.3-.14-2.75-.31-5.48-.5-8.21-.02-.25,.17-.46,.42-.48,.17-.01,.32,.07,.41,.2h0Zm13.43,4.96h0c-5.91-.07-10.81-1.17-13.26-3.4,.15,2.29,.28,4.59,.41,6.89,.14,2.75,.27,5.51,.4,8.3,0,.01,0,.03,0,.04,0,.13,.02,.26,.04,.39,.3,1.38,2.1,2.54,5.01,3.37,3.04,.87,7.25,1.34,12.22,1.29,5.47-.05,11.85-.73,18.61-2.19,5.84-1.27,11.72-3.23,17.76-5.25,8.79-2.94,17.92-5.99,27.78-7.18,4.58-.55,9.83-.4,14.05,.53,2.93,.65,5.38,1.67,6.81,3.11-.17-2.54-.32-5.03-.47-7.51-.17-2.95-.35-5.9-.57-8.95-1.09-1.93-3.5-3.38-6.55-4.27-3.38-1-7.51-1.31-11.46-.86-7.97,.9-15.87,2.47-23.8,4.51-7.94,2.05-15.9,4.56-23.98,7.36-7.46,2.58-15.97,3.93-23.01,3.84Z" fill="url(#GradientFill_1)" fill-rule="evenodd"/>
        <path d="M217.21,112.04c3.81,5.79,22.23,5.44,36.67,.45,16.19-5.6,31.88-10.08,47.88-11.89,7.74-.87,16.16,1.11,18.5,5.45,.45,6.17,.71,11.94,1.15,18.11-2.1-4.3-12.89-5.73-21.37-4.71-16.59,2-31.15,9.32-45.5,12.43-19.8,4.29-36.38,1.85-36.43-3.3-.25-5.61-.51-11.06-.89-16.54Z" fill="url(#_未命名漸層_10-3)" fill-rule="evenodd"/>
        <path d="M219.31,114.81l.02,.02h0c.5,.61,1.27,1.12,2.25,1.53,1.01,.42,2.23,.74,3.64,.97,7.29,1.16,19.17-.33,29.05-3.72,7.75-2.66,15.38-5.08,23-7.11,7.62-2.03,15.23-3.66,22.92-4.73h0c1.04-.15,2.11-.25,3.17-.3,1.06-.05,2.12-.06,3.15-.02,5.36,.2,10.15,1.64,11.89,4.26l.05,.14c-.1,3.98,.04,6.76,.72,7.51,.23,2.48,.45,4.95,.73,7.53l-.59,.2h0c-.27-.45-.69-.85-1.24-1.21-.57-.37-1.27-.69-2.08-.97-4.22-1.44-11.2-1.59-17.02-.74-9.4,1.38-18.09,4.27-26.46,7.06-5.8,1.93-11.44,3.82-17.08,5.11-7.07,1.63-13.73,2.46-19.31,2.65-4.55,.15-8.39-.13-11.17-.76-2.88-.65-4.67-1.71-4.98-3.09-.03-.12-.05-.25-.05-.38-.17-2.33-.35-4.62-.54-6.91-.19-2.28-.4-4.54-.63-6.82l.57-.23h0Zm2.01,2.14h0c-.73-.31-1.35-.67-1.85-1.08,.2,1.97,.37,3.95,.54,5.94,.19,2.28,.36,4.58,.54,6.92h0c0,.1,.01,.19,.03,.28,.26,1.11,1.87,2.01,4.5,2.6,2.73,.62,6.52,.89,11.01,.74,5.55-.18,12.17-1.01,19.19-2.63,5.6-1.29,11.23-3.17,17.02-5.1,8.4-2.8,17.12-5.71,26.57-7.09,5.9-.87,13-.71,17.32,.77,.86,.29,1.6,.64,2.22,1.03,.28,.18,.52,.37,.74,.57-.22-2.19-.42-4.34-.62-6.49-.22-2.44-.45-4.88-.72-7.42-1.65-2.4-6.21-3.73-11.34-3.91-1.02-.04-2.06-.03-3.09,.02-1.04,.05-2.08,.15-3.12,.3h0c-7.67,1.07-15.25,2.7-22.84,4.72-7.6,2.02-15.22,4.44-22.95,7.09-9.96,3.42-21.97,4.91-29.35,3.74-1.45-.23-2.73-.57-3.79-1.01Z" fill="url(#_未命名漸層_10-4)" fill-rule="evenodd"/>
        <g>
          <path d="M262.31,41.12c-.14-.45-.32-.91-.48-1.17-.24-.38-.39-.48-1.2-.48h-1.49v6.85c0,1.09,.12,1.25,1.53,1.34v.39h-4.32v-.39c1.38-.09,1.5-.23,1.5-1.34v-6.85h-1.36c-.81,0-1.05,.09-1.31,.51-.18,.28-.3,.62-.49,1.14h-.45c.09-.86,.18-1.74,.22-2.53h.34c.22,.34,.39,.32,.8,.32h5.89c.41,0,.53-.06,.76-.32h.36c0,.66,.06,1.67,.13,2.49l-.44,.04Z"/>
          <path d="M274.29,39.3c-1.23,.11-1.35,.18-1.35,1.36v5.64c0,1.18,.13,1.22,1.35,1.35v.39h-3.98v-.39c1.23-.14,1.35-.17,1.35-1.35v-2.81h-5.08v2.81c0,1.17,.12,1.21,1.34,1.35v.39h-3.97v-.39c1.2-.13,1.34-.17,1.34-1.35v-5.64c0-1.18-.13-1.25-1.34-1.36v-.39h3.97v.39c-1.19,.1-1.34,.2-1.34,1.36v2.23h5.08v-2.23c0-1.17-.17-1.26-1.35-1.36v-.39h3.98v.39Z"/>
          <path d="M283.48,45.81c-.09,.36-.49,1.81-.64,2.23h-7.22v-.39c1.38-.1,1.48-.23,1.48-1.38v-5.55c0-1.25-.16-1.32-1.28-1.42v-.39h4.55c1.4,0,1.98-.01,2.15-.03,.01,.35,.07,1.41,.13,2.15l-.45,.07c-.13-.48-.28-.77-.44-1.07-.24-.46-.58-.56-1.47-.56h-1.42c-.46,0-.49,.04-.49,.45v3.11h1.65c1.11,0,1.19-.21,1.36-1.17h.46v2.9h-.46c-.19-1.01-.31-1.15-1.38-1.15h-1.63v2.8c0,.98,.33,1.07,1.07,1.08h1.38c.91,0,1.05-.13,1.38-.49,.28-.3,.6-.87,.8-1.29l.45,.11Z"/>
        </g>
        <g>
          <path d="M233.23,127.19l-1.47-4.59h-.02l-1.76,4.42h-.19s-1.15-4.33-1.15-4.33l-.11-.42c-.14-.56-.3-.73-.69-.77h-.06s0-.19,0-.19l2.13,.11v.18s-.04,0-.06,0c-.43,0-.56,.08-.57,.3,0,.08,.02,.22,.06,.37l.09,.33,.83,3.22h.02l1.72-4.3h.23s1.43,4.47,1.43,4.47h.02s1.01-2.84,1.01-2.84l.13-.34c.05-.14,.09-.29,.09-.42,.02-.35-.17-.54-.56-.56v-.18s1.56,.08,1.56,.08v.18c-.28,0-.44,.07-.57,.26-.14,.19-.22,.38-.44,.99l-1.48,4.05h-.19Z"/>
          <path d="M240.56,121.45c.82-.04,1.69,.19,2.25,.62,.64,.49,.97,1.19,1.02,2.17,.08,1.55-1.16,2.77-2.91,2.86-1.89,.1-3.21-.97-3.3-2.7-.09-1.64,1.12-2.85,2.94-2.95Zm-1.5,4.66c.12,.18,.29,.35,.48,.48,.38,.23,.82,.34,1.38,.31,1.31-.07,2.03-1.05,1.94-2.68-.09-1.75-.89-2.65-2.29-2.58-1.37,.07-2.07,1.03-1.98,2.73,.04,.68,.22,1.34,.47,1.74Z"/>
          <path d="M250.87,125.85c-.22-.1-.28-.15-.57-.39-.22-.19-.4-.35-.55-.49-.04-.04-.15-.15-.34-.35-.38-.38-.84-.78-1.06-.93-.12-.07-.23-.09-.42-.06l-.23,.03,.19,1.2c.17,1.15,.23,1.21,.91,1.12l.28-.04,.03,.18-2.72,.4-.03-.18,.19-.03c.68-.1,.71-.18,.54-1.33l-.41-2.65c-.11-.72-.15-.84-.25-.97-.12-.13-.23-.15-.7-.08h-.09s-.03-.17-.03-.17l.81-.16c.13-.03,.34-.07,.62-.11,.3-.05,.52-.09,.67-.11,.97-.14,1.59-.08,2.06,.18,.36,.2,.57,.48,.62,.85,.11,.74-.42,1.35-1.42,1.6v.02c.17,.05,.21,.07,.44,.23,.28,.2,.46,.35,.72,.6l.35,.32c.51,.48,.87,.74,1.21,.85,.22,.09,.39,.09,.71,.06l.03,.18-1.53,.22Zm-3.11-2.4l.39-.07c.6-.1,1.03-.31,1.18-.59,.13-.23,.17-.51,.11-.85-.08-.54-.34-.9-.72-1.01-.26-.07-.59-.07-1.07,0-.12,.02-.19,.03-.36,.06l.38,2.47h.09Z"/>
          <path d="M259,124.16l-4.74,1.11-.04-.17,.17-.04c.66-.16,.69-.24,.42-1.36l-.61-2.59c-.17-.7-.2-.82-.33-.94-.13-.12-.23-.13-.69-.03l-.13,.03-.04-.17,2.68-.63,.04,.17-.24,.06c-.46,.11-.56,.16-.61,.33-.05,.17-.04,.29,.13,.99l.65,2.76c.16,.68,.17,.72,.29,.83,.14,.11,.34,.11,.78,0l.43-.1c.66-.15,.88-.28,1.06-.62,.15-.29,.19-.61,.25-1.09v-.05s.2-.05,.2-.05l.32,1.56Z"/>
          <path d="M260.04,118.17l.66-.25c.23-.09,.57-.22,.84-.31,1.09-.37,1.85-.41,2.56-.14,.73,.27,1.28,.87,1.55,1.69,.45,1.35,.07,2.45-1.09,3.12-.25,.15-.5,.27-.74,.36l-.56,.19-2.42,.82-.06-.17,.23-.08c.65-.22,.67-.3,.3-1.4l-.83-2.49c-.23-.68-.28-.8-.41-.9-.14-.12-.25-.11-.69,.04l-.16,.05-.06-.18,.89-.34Zm1.98,3.33c.32,.96,.36,1.04,.5,1.15,.15,.12,.33,.11,.81-.05,.93-.32,1.36-.66,1.56-1.26,.17-.53,.15-1.11-.08-1.79-.24-.72-.63-1.29-1.11-1.62-.48-.32-1.08-.42-1.71-.26-.14,.04-.29,.09-.45,.14-.26,.09-.44,.15-.68,.25l1.15,3.44Z"/>
          <path d="M274.96,113.68l-.18,.08c-.16-.28-.36-.48-.59-.62-.34-.2-.52-.19-1.19,.09l-1.03,.43,.88,2.14,.5-.21c.63-.26,.73-.48,.5-1.06v-.04s.17-.08,.17-.08l.73,1.77-.19,.08-.03-.07c-.25-.61-.48-.7-1.11-.44l-.49,.2,.52,1.26c.44,1.07,.51,1.12,1.15,.86l.18-.07,.07,.17-2.45,1.02-.07-.17,.16-.07c.64-.26,.64-.35,.2-1.42l-1.02-2.47c-.28-.67-.33-.78-.47-.88-.15-.1-.25-.09-.69,.09l-.09,.04-.07-.17,4.06-1.69,.57,1.23Z"/>
          <path d="M278.66,114.54l-.03,.37-.04,.43c-.02,.23,0,.47,.03,.6,.1,.28,.38,.4,.72,.29h.03s.06,.16,.06,.16l-1.62,.53-.06-.17c.28-.14,.43-.31,.51-.55,.03-.11,.06-.23,.07-.34,0-.08,.02-.23,.03-.46,0-.06,.02-.23,.05-.51l.38-4.1,.16-.05,3.2,3.51,.29,.31c.34,.38,.5,.44,.94,.35l.06,.17-2.15,.7-.06-.17,.07-.03,.16-.05c.28-.09,.41-.25,.35-.42-.02-.07-.07-.13-.18-.25l-.17-.19-.73-.81-2.08,.68Zm.25-2.71l-.22,2.51,1.92-.63-1.7-1.88Z"/>
          <path d="M289.27,108.16l1.72-.36,.03,.18-.21,.04c-.46,.1-.56,.15-.62,.32-.06,.17-.03,.29,.11,.99l.56,2.62c.23,1.14,.29,1.2,.96,1.06l.26-.05,.03,.18-2.66,.57-.04-.18,.19-.04c.66-.14,.69-.22,.45-1.36l-.72-3.4h-.02s-1.17,5.25-1.17,5.25l-.19,.04-3.21-4.32h-.02s.66,3.13,.66,3.13c.19,.88,.22,.98,.46,1.15,.2,.14,.42,.18,.74,.14l.04,.18-1.99,.42-.03-.17c.32-.09,.52-.23,.63-.46,.13-.25,.13-.38-.05-1.24l-.49-2.32c-.15-.71-.19-.83-.31-.95-.12-.13-.23-.13-.68-.04l-.15,.03-.03-.17,1.69-.36,2.98,3.98,1.09-4.85Z"/>
          <path d="M296.62,107.04c.82-.07,1.7,.13,2.27,.54,.65,.46,1.01,1.15,1.09,2.12,.13,1.53-1.07,2.78-2.81,2.93-1.89,.16-3.25-.86-3.4-2.57-.14-1.62,1.03-2.86,2.84-3.01Zm-1.35,4.67c.13,.18,.3,.34,.5,.46,.4,.22,.83,.31,1.39,.26,1.32-.11,2-1.11,1.86-2.72-.15-1.73-.98-2.59-2.38-2.48-1.36,.11-2.04,1.09-1.89,2.77,.06,.67,.26,1.31,.53,1.7Z"/>
          <path d="M308.58,107.09v.18c-.61,.01-.86,.24-.89,.79l-.02,.32-.1,1.81-.02,.42c-.03,.63-.21,1.05-.56,1.36-.44,.37-1.07,.55-1.83,.51-.91-.05-1.61-.37-1.94-.9-.19-.31-.26-.62-.22-1.17l.03-.54,.09-1.7c.04-.72,.03-.85-.05-1-.09-.15-.19-.19-.66-.22h-.13s.01-.19,.01-.19l2.6,.13v.18s-.12,0-.12,0c-.48-.02-.58,0-.68,.15-.1,.15-.11,.27-.15,.99l-.09,1.71-.03,.49c-.04,.77,.1,1.19,.5,1.47,.28,.2,.61,.31,1.04,.34,.88,.05,1.64-.35,1.85-.99,.06-.19,.1-.39,.11-.61,0-.07,.02-.22,.03-.48l.1-1.85c.05-.87-.08-1.04-.81-1.12v-.18s1.92,.1,1.92,.1Z"/>
          <path d="M310.48,111.05l.22,.04c0,.62,.1,1.02,.34,1.36,.23,.35,.57,.57,1,.65,.71,.14,1.33-.19,1.45-.79,.1-.5-.17-.91-.91-1.4l-.35-.23c-.65-.42-.96-.73-1.12-1.07-.12-.27-.16-.6-.1-.89,.15-.76,.88-1.21,1.74-1.03,.55,.11,.88,.33,1.2,.83,.17-.13,.25-.24,.31-.42l.18,.04-.28,1.4-.19-.04c-.05-.86-.51-1.46-1.23-1.6-.59-.12-1.04,.14-1.14,.64-.05,.28,.07,.6,.35,.87,.18,.18,.33,.29,.76,.58,.6,.42,.7,.48,.93,.68,.15,.14,.28,.3,.37,.46,.16,.31,.19,.64,.11,1.05-.17,.87-1.03,1.35-2.06,1.14-.61-.12-1.09-.45-1.41-.98-.13,.12-.21,.25-.3,.48l-.21-.04,.34-1.72Z"/>
        </g>
      </g>
    </g>
  </g>
</svg>