<?xml version="1.0" encoding="UTF-8"?>
<svg id="_圖層_2" data-name="圖層 2" xmlns="http://www.w3.org/2000/svg" viewBox="0 0 596.53 35.93">
  <g id="content">
    <g>
      <path d="M40.3,34.74c0,.21-.09,.32-.28,.32-.72,0-1.83-.04-3.33-.11-1.58-.07-2.71-.11-3.39-.11-.87,0-1.94,.04-3.22,.11-1.28,.07-2.24,.11-2.88,.11-.15,0-.23-.11-.23-.32s.07-.32,.23-.32c1.28,0,2.2-.12,2.77-.35,.56-.23,.85-.65,.85-1.26s-.28-1.45-.85-2.52L17.84,6.33l1.81-2.57L8.64,27.98c-.53,1.22-.79,2.22-.79,3,0,1.14,.47,2,1.41,2.57,.94,.57,2.29,.86,4.06,.86,.19,0,.28,.11,.28,.32s-.09,.32-.28,.32c-.68,0-1.66-.04-2.94-.11-1.43-.07-2.67-.11-3.73-.11-.98,0-2.14,.04-3.5,.11-1.2,.07-2.18,.11-2.94,.11-.15,0-.23-.11-.23-.32s.08-.32,.23-.32c1.05,0,1.95-.2,2.68-.59,.73-.39,1.44-1.07,2.12-2.04,.68-.97,1.45-2.39,2.31-4.29L19.36,1.18c.04-.11,.17-.17,.4-.19,.23-.02,.36,.05,.4,.19l13.55,26.54c1.32,2.61,2.42,4.38,3.3,5.31,.88,.93,1.89,1.39,3.02,1.39,.19,0,.28,.11,.28,.32ZM11.51,19.89h15.35l.4,1.18H10.84l.68-1.18Z" fill="#a1a9d8"/>
      <path d="M61.8,3.27c1.69,1.25,2.54,2.95,2.54,5.09,0,1.93-.59,3.69-1.78,5.28-1.19,1.59-2.76,2.84-4.71,3.75-1.96,.91-4.05,1.37-6.27,1.37-.79,0-1.71-.04-2.77-.11v12.06c0,1.07,.11,1.87,.34,2.38,.23,.52,.65,.87,1.27,1.05,.62,.18,1.61,.27,2.96,.27,.11,0,.17,.11,.17,.32s-.06,.32-.17,.32c-1.17,0-2.09-.02-2.77-.05l-4.06-.05-3.95,.05c-.72,.04-1.67,.05-2.88,.05-.11,0-.17-.11-.17-.32s.06-.32,.17-.32c1.35,0,2.35-.09,2.99-.27,.64-.18,1.07-.53,1.3-1.05,.23-.52,.34-1.31,.34-2.38V5.9c0-1.07-.11-1.86-.34-2.36-.23-.5-.65-.85-1.27-1.05-.62-.2-1.61-.29-2.96-.29-.08,0-.11-.11-.11-.32s.04-.32,.11-.32l2.82,.05c1.66,.07,2.97,.11,3.95,.11,.79,0,1.54-.02,2.26-.05,.71-.04,1.34-.07,1.86-.11,1.43-.11,2.73-.16,3.89-.16,3.12,0,5.53,.63,7.22,1.88Zm-3.84,.78c-1.17-1.16-2.88-1.74-5.14-1.74-1.47,0-2.5,.26-3.1,.78-.6,.52-.9,1.49-.9,2.92v11.31c1.09,.11,2.2,.16,3.33,.16,2.71,0,4.65-.6,5.81-1.8,1.17-1.2,1.75-3.06,1.75-5.6,0-2.86-.58-4.87-1.75-6.03Zm5,26.51c-2.54-3-5.62-7.2-9.23-12.6l3.78-1.13c3.2,4.47,5.89,7.95,8.07,10.45,2.18,2.5,4.11,4.31,5.79,5.44,1.67,1.13,3.3,1.69,4.88,1.69,.11,0,.17,.11,.17,.32s-.06,.32-.17,.32h-8.07c-.94,0-2.68-1.5-5.22-4.5Z" fill="#a1a9d8"/>
      <path d="M99.54,1.42c1.67,.3,3.25,.79,4.71,1.47,.26,.11,.43,.22,.51,.35,.07,.13,.13,.4,.17,.83l.73,6.7c0,.11-.1,.18-.31,.21-.21,.04-.33-.02-.37-.16-1.92-5.97-5.79-8.95-11.63-8.95-2.97,0-5.61,.66-7.9,1.98-2.3,1.32-4.07,3.2-5.33,5.63-1.26,2.43-1.89,5.27-1.89,8.52s.69,6.05,2.06,8.6c1.37,2.56,3.24,4.56,5.59,6,2.35,1.45,4.94,2.17,7.76,2.17s5.34-.71,7.22-2.12c1.88-1.41,3.4-3.6,4.57-6.57,.04-.07,.13-.11,.28-.11,.07,0,.16,.03,.25,.08,.09,.05,.14,.1,.14,.13l-.62,6.11c-.04,.43-.09,.7-.17,.8-.08,.11-.26,.23-.56,.38-1.88,.82-3.69,1.4-5.42,1.74-1.73,.34-3.63,.51-5.7,.51-3.99,0-7.54-.74-10.67-2.22-3.12-1.48-5.56-3.55-7.31-6.19-1.75-2.64-2.62-5.68-2.62-9.11s.89-6.35,2.68-8.98c1.79-2.63,4.26-4.66,7.42-6.11,3.16-1.45,6.7-2.17,10.61-2.17,2.18,0,4.11,.15,5.79,.46Z" fill="#a1a9d8"/>
      <path d="M112.38,3.54c-.23-.5-.66-.85-1.3-1.05-.64-.2-1.66-.29-3.05-.29-.11,0-.17-.11-.17-.32s.06-.32,.17-.32l2.88,.05c1.58,.07,2.9,.11,3.95,.11,1.17,0,2.61-.04,4.35-.11l2.88-.05c.07,0,.11,.11,.11,.32s-.04,.32-.11,.32c-1.43,0-2.48,.11-3.16,.32-.68,.21-1.14,.58-1.38,1.1-.25,.52-.37,1.31-.37,2.39V30.72c0,1.07,.12,1.87,.37,2.38,.24,.52,.7,.87,1.35,1.05,.66,.18,1.72,.27,3.19,.27,.07,0,.11,.11,.11,.32s-.04,.32-.11,.32c-1.24,0-2.2-.02-2.88-.05l-4.35-.05-4.01,.05c-.71,.04-1.69,.05-2.93,.05-.08,0-.11-.11-.11-.32s.04-.32,.11-.32c1.39,0,2.42-.09,3.08-.27,.66-.18,1.11-.53,1.35-1.05,.24-.52,.37-1.31,.37-2.38V5.9c0-1.07-.11-1.86-.34-2.36Zm2.43,13.46h24.95v1.23h-24.95v-1.23Zm22.63-13.38c-.23-.52-.68-.88-1.35-1.1-.68-.21-1.73-.32-3.16-.32-.11,0-.17-.11-.17-.32s.06-.32,.17-.32l2.65,.05c1.73,.07,3.22,.11,4.46,.11,1.05,0,2.41-.04,4.06-.11l2.88-.05c.11,0,.17,.11,.17,.32s-.06,.32-.17,.32c-1.39,0-2.42,.1-3.08,.29-.66,.2-1.1,.55-1.33,1.05-.23,.5-.34,1.29-.34,2.36V30.72c0,1.07,.11,1.87,.34,2.38,.23,.52,.67,.87,1.33,1.05,.66,.18,1.68,.27,3.08,.27,.11,0,.17,.11,.17,.32s-.06,.32-.17,.32c-1.21,0-2.16-.02-2.88-.05l-4.06-.05-4.46,.05c-.64,.04-1.52,.05-2.65,.05-.11,0-.17-.11-.17-.32s.06-.32,.17-.32c1.47,0,2.53-.09,3.19-.27,.66-.18,1.1-.52,1.33-1.02,.23-.5,.34-1.3,.34-2.41V6c0-1.07-.11-1.87-.34-2.39Z" fill="#a1a9d8"/>
      <path d="M158.23,33.13c.21,.5,.62,.84,1.24,1.02,.62,.18,1.63,.27,3.02,.27,.07,0,.11,.11,.11,.32s-.04,.32-.11,.32c-1.21,0-2.15-.02-2.82-.05l-4.06-.05-3.95,.05c-.72,.04-1.69,.05-2.94,.05-.08,0-.11-.11-.11-.32s.04-.32,.11-.32c1.35,0,2.35-.09,2.99-.27,.64-.18,1.08-.53,1.33-1.05,.24-.52,.37-1.31,.37-2.38V5.9c0-1.07-.12-1.86-.37-2.36-.25-.5-.69-.85-1.33-1.05-.64-.2-1.64-.29-2.99-.29-.08,0-.11-.11-.11-.32s.04-.32,.11-.32l2.94,.05c1.66,.07,2.97,.11,3.95,.11,1.09,0,2.46-.04,4.12-.11l2.77-.05c.07,0,.11,.11,.11,.32s-.04,.32-.11,.32c-1.35,0-2.34,.11-2.96,.32-.62,.21-1.04,.58-1.27,1.1-.23,.52-.34,1.31-.34,2.39V30.72c0,1.11,.1,1.91,.31,2.41Z" fill="#a1a9d8"/>
      <path d="M168.03,4.48c-1.32,1.23-2.3,3.21-2.94,5.92-.04,.07-.16,.11-.37,.11s-.31-.05-.31-.16c.15-1,.32-2.63,.51-4.88,.19-2.25,.28-3.95,.28-5.09,0-.18,.11-.27,.34-.27s.34,.09,.34,.27c0,.79,1.03,1.18,3.1,1.18,3.24,.11,7.02,.16,11.34,.16,2.22,0,4.57-.04,7.06-.11l3.84-.05c1.39,0,2.41-.09,3.05-.27,.64-.18,1.05-.54,1.24-1.07,.04-.14,.16-.21,.37-.21s.31,.07,.31,.21c-.11,1-.24,2.61-.37,4.82-.13,2.22-.2,3.99-.2,5.31,0,.11-.1,.16-.31,.16s-.31-.05-.31-.16c-.26-2.75-1.02-4.73-2.26-5.92s-3.09-1.8-5.53-1.8c-1.39,0-2.39,.08-2.99,.24-.6,.16-1.02,.46-1.24,.91-.23,.45-.34,1.19-.34,2.22V30.72c0,1.11,.12,1.91,.37,2.41,.24,.5,.72,.84,1.44,1.02,.71,.18,1.86,.27,3.44,.27,.07,0,.11,.11,.11,.32s-.04,.32-.11,.32c-1.32,0-2.35-.02-3.1-.05l-4.46-.05-4.35,.05c-.75,.04-1.81,.05-3.16,.05-.11,0-.17-.11-.17-.32s.06-.32,.17-.32c1.54,0,2.68-.09,3.41-.27,.73-.18,1.23-.53,1.5-1.05,.26-.52,.4-1.31,.4-2.38V5.9c0-1-.11-1.72-.34-2.17-.23-.45-.65-.74-1.27-.88-.62-.14-1.63-.21-3.02-.21-2.33,0-4.16,.62-5.47,1.85Z" fill="#a1a9d8"/>
      <path d="M197.66,34.74c0-.21,.06-.32,.17-.32,1.35,0,2.34-.09,2.96-.27,.62-.18,1.04-.53,1.27-1.05,.23-.52,.34-1.31,.34-2.38V5.9c0-1.07-.11-1.86-.34-2.36-.23-.5-.65-.85-1.27-1.05-.62-.2-1.61-.29-2.96-.29-.11,0-.17-.11-.17-.32s.06-.32,.17-.32h23.03c.38,0,.56,.16,.56,.48l.11,6.75c0,.11-.1,.17-.31,.19-.21,.02-.33-.03-.37-.13-.26-1.96-1-3.47-2.2-4.5-1.21-1.04-2.79-1.55-4.74-1.55h-2.88c-1.66,0-2.77,.23-3.33,.7-.56,.46-.85,1.34-.85,2.63V30.5c0,1.29,.25,2.16,.76,2.63,.51,.46,1.53,.7,3.08,.7h3.73c2.11,0,3.87-.6,5.28-1.79s2.38-2.9,2.91-5.12c0-.07,.08-.11,.23-.11,.11,0,.22,.03,.31,.08,.09,.05,.14,.1,.14,.13-.38,2.57-.56,4.99-.56,7.24,0,.29-.06,.49-.17,.62-.11,.13-.34,.19-.68,.19h-24.04c-.11,0-.17-.11-.17-.32Zm19.67-15.41c-.92-.73-2.38-1.1-4.37-1.1h-8.24v-1.23h8.35c1.92,0,3.33-.31,4.23-.94,.9-.62,1.35-1.6,1.35-2.92,0-.07,.1-.11,.31-.11s.31,.04,.31,.11l-.06,4.5,.06,2.41c.08,1.14,.11,2.04,.11,2.68,0,.07-.11,.11-.34,.11s-.34-.04-.34-.11c0-1.54-.46-2.67-1.38-3.4Z" fill="#a1a9d8"/>
      <path d="M252.44,1.42c1.67,.3,3.25,.79,4.71,1.47,.26,.11,.43,.22,.51,.35,.07,.13,.13,.4,.17,.83l.73,6.7c0,.11-.1,.18-.31,.21-.21,.04-.33-.02-.37-.16-1.92-5.97-5.79-8.95-11.63-8.95-2.97,0-5.61,.66-7.9,1.98-2.3,1.32-4.07,3.2-5.33,5.63-1.26,2.43-1.89,5.27-1.89,8.52s.69,6.05,2.06,8.6c1.37,2.56,3.24,4.56,5.59,6,2.35,1.45,4.94,2.17,7.76,2.17s5.34-.71,7.22-2.12c1.88-1.41,3.4-3.6,4.57-6.57,.04-.07,.13-.11,.28-.11,.07,0,.16,.03,.25,.08,.09,.05,.14,.1,.14,.13l-.62,6.11c-.04,.43-.09,.7-.17,.8-.08,.11-.26,.23-.56,.38-1.88,.82-3.69,1.4-5.42,1.74-1.73,.34-3.63,.51-5.7,.51-3.99,0-7.54-.74-10.67-2.22-3.12-1.48-5.56-3.55-7.31-6.19-1.75-2.64-2.62-5.68-2.62-9.11s.89-6.35,2.68-8.98c1.79-2.63,4.26-4.66,7.42-6.11,3.16-1.45,6.7-2.17,10.61-2.17,2.18,0,4.11,.15,5.79,.46Z" fill="#a1a9d8"/>
      <path d="M264.71,4.48c-1.32,1.23-2.3,3.21-2.94,5.92-.04,.07-.16,.11-.37,.11s-.31-.05-.31-.16c.15-1,.32-2.63,.51-4.88,.19-2.25,.28-3.95,.28-5.09,0-.18,.11-.27,.34-.27s.34,.09,.34,.27c0,.79,1.03,1.18,3.1,1.18,3.24,.11,7.02,.16,11.34,.16,2.22,0,4.57-.04,7.06-.11l3.84-.05c1.39,0,2.41-.09,3.05-.27,.64-.18,1.05-.54,1.24-1.07,.04-.14,.16-.21,.37-.21s.31,.07,.31,.21c-.11,1-.24,2.61-.37,4.82-.13,2.22-.2,3.99-.2,5.31,0,.11-.1,.16-.31,.16s-.31-.05-.31-.16c-.26-2.75-1.02-4.73-2.26-5.92s-3.09-1.8-5.53-1.8c-1.39,0-2.39,.08-2.99,.24-.6,.16-1.02,.46-1.24,.91-.23,.45-.34,1.19-.34,2.22V30.72c0,1.11,.12,1.91,.37,2.41,.24,.5,.72,.84,1.44,1.02,.71,.18,1.86,.27,3.44,.27,.07,0,.11,.11,.11,.32s-.04,.32-.11,.32c-1.32,0-2.35-.02-3.1-.05l-4.46-.05-4.35,.05c-.75,.04-1.81,.05-3.16,.05-.11,0-.17-.11-.17-.32s.06-.32,.17-.32c1.54,0,2.68-.09,3.41-.27,.73-.18,1.23-.53,1.5-1.05,.26-.52,.4-1.31,.4-2.38V5.9c0-1-.11-1.72-.34-2.17-.23-.45-.65-.74-1.27-.88-.62-.14-1.63-.21-3.02-.21-2.33,0-4.16,.62-5.47,1.85Z" fill="#a1a9d8"/>
      <path d="M323.07,3.62c-.87-.95-2.11-1.42-3.73-1.42-.11,0-.17-.11-.17-.32s.06-.32,.17-.32l2.54,.05c1.35,.07,2.43,.11,3.22,.11,.68,0,1.66-.04,2.94-.11l2.43-.05c.07,0,.11,.11,.11,.32s-.04,.32-.11,.32c-1.51,0-2.64,.46-3.42,1.39-.77,.93-1.16,2.3-1.16,4.13v15.17c0,4-1.23,7.15-3.7,9.43-2.46,2.29-5.75,3.43-9.85,3.43-2.79,0-5.23-.51-7.34-1.53-2.11-1.02-3.74-2.48-4.91-4.4-1.17-1.91-1.75-4.15-1.75-6.73V5.9c0-1.07-.11-1.86-.34-2.36-.23-.5-.65-.85-1.27-1.05-.62-.2-1.61-.29-2.96-.29-.11,0-.17-.11-.17-.32s.06-.32,.17-.32l2.82,.05c1.66,.07,2.97,.11,3.95,.11,1.09,0,2.43-.04,4.01-.11l2.77-.05c.11,0,.17,.11,.17,.32s-.06,.32-.17,.32c-1.32,0-2.29,.11-2.91,.32-.62,.21-1.04,.58-1.27,1.1-.23,.52-.34,1.31-.34,2.39v15.22c0,4.22,.97,7.41,2.91,9.57,1.94,2.16,4.66,3.24,8.16,3.24,3.27,0,5.84-.97,7.7-2.92,1.86-1.95,2.79-4.67,2.79-8.17V7.72c0-1.79-.43-3.15-1.3-4.1Z" fill="#a1a9d8"/>
      <path d="M353.27,3.27c1.69,1.25,2.54,2.95,2.54,5.09,0,1.93-.59,3.69-1.78,5.28-1.19,1.59-2.76,2.84-4.71,3.75-1.96,.91-4.04,1.37-6.26,1.37-.79,0-1.71-.04-2.77-.11v12.06c0,1.07,.11,1.87,.34,2.38,.23,.52,.65,.87,1.27,1.05,.62,.18,1.61,.27,2.96,.27,.11,0,.17,.11,.17,.32s-.06,.32-.17,.32c-1.17,0-2.09-.02-2.77-.05l-4.06-.05-3.95,.05c-.72,.04-1.67,.05-2.88,.05-.11,0-.17-.11-.17-.32s.06-.32,.17-.32c1.35,0,2.35-.09,2.99-.27,.64-.18,1.07-.53,1.3-1.05,.23-.52,.34-1.31,.34-2.38V5.9c0-1.07-.11-1.86-.34-2.36-.23-.5-.65-.85-1.27-1.05-.62-.2-1.61-.29-2.96-.29-.08,0-.11-.11-.11-.32s.04-.32,.11-.32l2.82,.05c1.66,.07,2.97,.11,3.95,.11,.79,0,1.54-.02,2.26-.05,.71-.04,1.34-.07,1.86-.11,1.43-.11,2.73-.16,3.89-.16,3.12,0,5.53,.63,7.22,1.88Zm-3.84,.78c-1.17-1.16-2.88-1.74-5.14-1.74-1.47,0-2.5,.26-3.1,.78-.6,.52-.9,1.49-.9,2.92v11.31c1.09,.11,2.2,.16,3.33,.16,2.71,0,4.65-.6,5.81-1.8,1.17-1.2,1.75-3.06,1.75-5.6,0-2.86-.58-4.87-1.75-6.03Zm5,26.51c-2.54-3-5.62-7.2-9.23-12.6l3.78-1.13c3.2,4.47,5.89,7.95,8.07,10.45,2.18,2.5,4.11,4.31,5.79,5.44,1.67,1.13,3.3,1.69,4.88,1.69,.11,0,.17,.11,.17,.32s-.06,.32-.17,.32h-8.07c-.94,0-2.68-1.5-5.22-4.5Z" fill="#a1a9d8"/>
      <path d="M366.65,34.74c0-.21,.06-.32,.17-.32,1.35,0,2.34-.09,2.96-.27,.62-.18,1.04-.53,1.27-1.05,.23-.52,.34-1.31,.34-2.38V5.9c0-1.07-.11-1.86-.34-2.36-.23-.5-.65-.85-1.27-1.05-.62-.2-1.61-.29-2.96-.29-.11,0-.17-.11-.17-.32s.06-.32,.17-.32h23.03c.38,0,.56,.16,.56,.48l.11,6.75c0,.11-.1,.17-.31,.19-.21,.02-.33-.03-.37-.13-.26-1.96-1-3.47-2.2-4.5-1.2-1.04-2.79-1.55-4.74-1.55h-2.88c-1.66,0-2.77,.23-3.33,.7-.56,.46-.85,1.34-.85,2.63V30.5c0,1.29,.25,2.16,.76,2.63,.51,.46,1.53,.7,3.08,.7h3.73c2.11,0,3.87-.6,5.28-1.79,1.41-1.2,2.38-2.9,2.91-5.12,0-.07,.08-.11,.23-.11,.11,0,.22,.03,.31,.08s.14,.1,.14,.13c-.38,2.57-.56,4.99-.56,7.24,0,.29-.06,.49-.17,.62-.11,.13-.34,.19-.68,.19h-24.04c-.11,0-.17-.11-.17-.32Zm19.67-15.41c-.92-.73-2.38-1.1-4.37-1.1h-8.24v-1.23h8.35c1.92,0,3.33-.31,4.23-.94,.9-.62,1.35-1.6,1.35-2.92,0-.07,.1-.11,.31-.11s.31,.04,.31,.11l-.06,4.5,.06,2.41c.08,1.14,.11,2.04,.11,2.68,0,.07-.11,.11-.34,.11s-.34-.04-.34-.11c0-1.54-.46-2.67-1.38-3.4Z" fill="#a1a9d8"/>
      <path d="M426.47,35.11c-.56-.04-1.25-.07-2.06-.11-.81-.04-1.72-.05-2.74-.05l-3.95,.05c-.72,.04-1.69,.05-2.94,.05-.08,0-.11-.11-.11-.32s.04-.32,.11-.32c1.35,0,2.35-.09,2.99-.27,.64-.18,1.08-.53,1.33-1.05,.24-.52,.37-1.31,.37-2.38V5.9c0-1.07-.11-1.86-.34-2.36-.23-.5-.65-.85-1.27-1.05-.62-.2-1.61-.29-2.96-.29-.11,0-.17-.11-.17-.32s.06-.32,.17-.32l2.82,.05c1.66,.07,2.97,.11,3.95,.11,1.39,0,2.82-.05,4.29-.16,1.81-.07,3.03-.11,3.67-.11,3.88,0,7.32,.72,10.33,2.14,3.01,1.43,5.34,3.38,7,5.84,1.66,2.47,2.48,5.24,2.48,8.31,0,3.47-.86,6.53-2.57,9.19-1.71,2.66-4.03,4.72-6.94,6.16-2.92,1.45-6.09,2.17-9.51,2.17-1.17,0-2.48-.05-3.95-.16Zm10.89-2.6c2.18-1.2,3.88-2.95,5.11-5.25,1.22-2.3,1.83-5.08,1.83-8.34s-.58-5.92-1.75-8.44-2.81-4.5-4.94-5.95c-2.13-1.45-4.6-2.17-7.42-2.17-1.62,0-2.86,.09-3.73,.27-.87,.18-1.5,.53-1.92,1.04-.41,.52-.62,1.3-.62,2.33V30.13c0,1.04,.16,1.85,.48,2.44,.32,.59,.9,1.03,1.75,1.31,.85,.29,2.08,.43,3.7,.43,2.82,0,5.32-.6,7.51-1.79Z" fill="#a1a9d8"/>
      <path d="M451.65,34.74c0-.21,.06-.32,.17-.32,1.35,0,2.34-.09,2.96-.27,.62-.18,1.04-.53,1.27-1.05,.23-.52,.34-1.31,.34-2.38V5.9c0-1.07-.11-1.86-.34-2.36-.23-.5-.65-.85-1.27-1.05-.62-.2-1.61-.29-2.96-.29-.11,0-.17-.11-.17-.32s.06-.32,.17-.32h23.03c.38,0,.56,.16,.56,.48l.11,6.75c0,.11-.1,.17-.31,.19-.21,.02-.33-.03-.37-.13-.26-1.96-1-3.47-2.2-4.5-1.2-1.04-2.79-1.55-4.74-1.55h-2.88c-1.66,0-2.77,.23-3.33,.7-.56,.46-.85,1.34-.85,2.63V30.5c0,1.29,.25,2.16,.76,2.63,.51,.46,1.53,.7,3.08,.7h3.73c2.11,0,3.87-.6,5.28-1.79,1.41-1.2,2.38-2.9,2.91-5.12,0-.07,.08-.11,.23-.11,.11,0,.22,.03,.31,.08s.14,.1,.14,.13c-.38,2.57-.56,4.99-.56,7.24,0,.29-.06,.49-.17,.62-.11,.13-.34,.19-.68,.19h-24.04c-.11,0-.17-.11-.17-.32Zm19.67-15.41c-.92-.73-2.38-1.1-4.37-1.1h-8.24v-1.23h8.35c1.92,0,3.33-.31,4.23-.94,.9-.62,1.35-1.6,1.35-2.92,0-.07,.1-.11,.31-.11s.31,.04,.31,.11l-.06,4.5,.06,2.41c.08,1.14,.11,2.04,.11,2.68,0,.07-.11,.11-.34,.11s-.34-.04-.34-.11c0-1.54-.46-2.67-1.38-3.4Z" fill="#a1a9d8"/>
      <path d="M486.92,11.12c.71,1.02,1.58,1.89,2.6,2.63,1.02,.73,2.43,1.62,4.23,2.65,1.88,1.11,3.38,2.06,4.49,2.87,1.11,.8,2.06,1.8,2.85,2.98,.79,1.18,1.19,2.57,1.19,4.18,0,1.75-.48,3.33-1.44,4.74-.96,1.41-2.33,2.52-4.12,3.32-1.79,.8-3.87,1.21-6.24,1.21-1.5,0-2.99-.17-4.46-.51-1.47-.34-2.75-.83-3.84-1.47-.19-.11-.32-.23-.4-.38-.08-.14-.11-.36-.11-.64l-.56-7.67c-.04-.14,.05-.23,.25-.27,.21-.04,.33,.02,.37,.16,.9,2.72,2.16,5.02,3.78,6.92,1.62,1.9,3.73,2.84,6.32,2.84,1.77,0,3.25-.46,4.46-1.37s1.81-2.4,1.81-4.48c0-1.57-.38-2.95-1.13-4.13-.75-1.18-1.67-2.17-2.77-2.98-1.09-.8-2.54-1.72-4.35-2.76-1.77-1.07-3.17-1.99-4.21-2.76-1.04-.77-1.91-1.71-2.62-2.84-.72-1.13-1.07-2.44-1.07-3.94,0-1.82,.52-3.38,1.55-4.66,1.03-1.29,2.39-2.24,4.06-2.87,1.67-.62,3.43-.94,5.28-.94,2.48,0,4.76,.41,6.83,1.23,.56,.25,.85,.57,.85,.96l.28,6.7c0,.14-.1,.22-.31,.24-.21,.02-.33-.04-.37-.19-.41-1.93-1.29-3.75-2.62-5.47-1.34-1.72-3.25-2.57-5.73-2.57-1.88,0-3.34,.54-4.37,1.61-1.04,1.07-1.55,2.43-1.55,4.07,0,1.36,.36,2.55,1.07,3.56Z" fill="#a1a9d8"/>
      <path d="M514.55,33.13c.21,.5,.62,.84,1.24,1.02s1.63,.27,3.02,.27c.08,0,.11,.11,.11,.32s-.04,.32-.11,.32c-1.2,0-2.14-.02-2.82-.05l-4.06-.05-3.95,.05c-.71,.04-1.69,.05-2.93,.05-.08,0-.11-.11-.11-.32s.04-.32,.11-.32c1.35,0,2.35-.09,2.99-.27,.64-.18,1.08-.53,1.33-1.05,.24-.52,.37-1.31,.37-2.38V5.9c0-1.07-.12-1.86-.37-2.36-.25-.5-.69-.85-1.33-1.05-.64-.2-1.64-.29-2.99-.29-.08,0-.11-.11-.11-.32s.04-.32,.11-.32l2.93,.05c1.66,.07,2.97,.11,3.95,.11,1.09,0,2.46-.04,4.12-.11l2.77-.05c.08,0,.11,.11,.11,.32s-.04,.32-.11,.32c-1.35,0-2.34,.11-2.96,.32-.62,.21-1.04,.58-1.27,1.1-.23,.52-.34,1.31-.34,2.39V30.72c0,1.11,.1,1.91,.31,2.41Z" fill="#a1a9d8"/>
      <path d="M530.92,33.37c-3.1-1.55-5.48-3.66-7.11-6.33-1.64-2.66-2.46-5.6-2.46-8.82,0-3.43,.93-6.45,2.79-9.06s4.42-4.63,7.68-6.06,6.91-2.14,10.98-2.14c1.92,0,3.76,.17,5.53,.51,1.77,.34,3.24,.79,4.4,1.37,.3,.14,.48,.27,.54,.38,.06,.11,.1,.39,.14,.86l.73,6.65c0,.11-.1,.18-.31,.21-.21,.04-.33-.02-.37-.16-.79-2.5-2.19-4.6-4.2-6.3-2.01-1.7-4.64-2.55-7.87-2.55-2.82,0-5.36,.63-7.62,1.88-2.26,1.25-4.04,3.05-5.33,5.39-1.3,2.34-1.95,5.07-1.95,8.17s.66,6.05,1.97,8.71c1.32,2.66,3.25,4.8,5.79,6.41,2.54,1.61,5.56,2.41,9.06,2.41,2.56,0,4.35-.47,5.36-1.42,1.02-.95,1.52-2.65,1.52-5.12,0-1.86-.12-3.15-.37-3.89-.25-.73-.77-1.22-1.58-1.47-.81-.25-2.23-.38-4.26-.38-.23,0-.34-.14-.34-.43,0-.11,.03-.21,.08-.29,.06-.09,.12-.13,.2-.13,3.01,.18,5.46,.27,7.34,.27s3.74-.05,5.7-.16c.08,0,.14,.05,.2,.13s.08,.17,.08,.24c0,.25-.09,.38-.28,.38-.87-.04-1.47,.08-1.81,.35-.34,.27-.56,.81-.65,1.63-.09,.82-.14,2.25-.14,4.29,0,1.61,.07,2.75,.2,3.43,.13,.68,.2,1.11,.2,1.29,0,.21-.04,.36-.11,.43-.08,.07-.25,.14-.51,.21-4.74,.96-8.84,1.45-12.3,1.45-4.18,0-7.82-.78-10.92-2.33Z" fill="#a1a9d8"/>
      <path d="M591.54,35.92c-.17,.04-.29,.02-.37-.05l-26.58-29.91c-1.24-1.39-2.35-2.37-3.33-2.92-.98-.55-1.96-.83-2.93-.83-.08,0-.11-.11-.11-.32s.04-.32,.11-.32l2.2,.05c.45,.04,1.09,.05,1.92,.05l2.88-.05c.38-.04,.81-.05,1.3-.05,.3,0,.53,.07,.68,.21,.15,.14,.38,.43,.68,.86l1.35,1.71,22.01,25.2,.45,6.22c0,.07-.08,.12-.25,.16Zm-28.31-33.13l1.47,.11V28.95c0,1.86,.37,3.24,1.1,4.13,.73,.89,1.85,1.34,3.36,1.34,.08,0,.11,.11,.11,.32s-.04,.32-.11,.32c-.98,0-1.73-.02-2.26-.05l-2.88-.05-3.05,.05c-.56,.04-1.39,.05-2.48,.05-.08,0-.11-.11-.11-.32s.04-.32,.11-.32c1.62,0,2.81-.45,3.58-1.34,.77-.89,1.16-2.27,1.16-4.13V2.79Zm28.56,32.97l-1.41-1.66V7.72c0-1.86-.36-3.24-1.07-4.16-.71-.91-1.83-1.37-3.33-1.37-.08,0-.11-.11-.11-.32s.04-.32,.11-.32l2.26,.05c1.13,.07,2.09,.11,2.88,.11,.68,0,1.66-.04,2.93-.11l2.37-.05c.08,0,.11,.11,.11,.32s-.04,.32-.11,.32c-3.09,0-4.63,1.84-4.63,5.52v28.04Z" fill="#a1a9d8"/>
    </g>
  </g>
</svg>