<?xml version="1.0" encoding="UTF-8"?>
<svg id="_圖層_2" data-name="圖層 2" xmlns="http://www.w3.org/2000/svg" viewBox="0 0 468.07 34.97">
  <g id="content">
    <g>
      <path d="M40.3,33.77c0,.21-.09,.32-.28,.32-.72,0-1.83-.04-3.33-.11-1.58-.07-2.71-.11-3.39-.11-.87,0-1.94,.04-3.22,.11-1.28,.07-2.24,.11-2.88,.11-.15,0-.23-.11-.23-.32s.07-.32,.23-.32c1.28,0,2.2-.12,2.77-.35,.56-.23,.85-.65,.85-1.26s-.28-1.45-.85-2.52L17.84,5.36l1.81-2.57L8.64,27.02c-.53,1.22-.79,2.22-.79,3,0,1.14,.47,2,1.41,2.57,.94,.57,2.29,.86,4.06,.86,.19,0,.28,.11,.28,.32s-.09,.32-.28,.32c-.68,0-1.66-.04-2.93-.11-1.43-.07-2.67-.11-3.73-.11-.98,0-2.14,.04-3.5,.11-1.21,.07-2.18,.11-2.94,.11-.15,0-.23-.11-.23-.32s.08-.32,.23-.32c1.05,0,1.95-.2,2.68-.59,.73-.39,1.44-1.07,2.12-2.04,.68-.97,1.45-2.39,2.31-4.29L19.36,.21c.04-.11,.17-.17,.39-.19,.23-.02,.36,.05,.39,.19l13.55,26.54c1.32,2.61,2.42,4.38,3.3,5.31,.88,.93,1.89,1.39,3.02,1.39,.19,0,.28,.11,.28,.32ZM11.51,18.92h15.35l.4,1.18H10.84l.68-1.18Z" fill="#a1a9d8"/>
      <path d="M48.57,31.71c.21,.45,.59,.75,1.16,.91,.56,.16,1.45,.24,2.65,.24h4.8c2.37,0,4.34-.67,5.9-2.01,1.56-1.34,2.6-3.15,3.13-5.44,0-.11,.1-.15,.31-.13,.21,.02,.31,.08,.31,.19-.34,3.15-.51,5.75-.51,7.83,0,.29-.07,.49-.2,.62-.13,.13-.35,.19-.65,.19h-26.3c-.08,0-.11-.11-.11-.32s.04-.32,.11-.32c1.35,0,2.35-.09,2.99-.27s1.07-.53,1.3-1.05c.23-.52,.34-1.31,.34-2.38V4.93c0-1.07-.11-1.86-.34-2.36-.23-.5-.66-.85-1.3-1.05-.64-.2-1.64-.29-2.99-.29-.08,0-.11-.11-.11-.32s.04-.32,.11-.32l2.82,.05c1.65,.07,2.99,.11,4.01,.11s2.35-.04,4.01-.11l2.82-.05c.08,0,.11,.11,.11,.32s-.04,.32-.11,.32c-1.35,0-2.34,.1-2.96,.29-.62,.2-1.04,.55-1.27,1.07-.23,.52-.34,1.31-.34,2.39V29.54c0,1,.1,1.72,.31,2.17Z" fill="#a1a9d8"/>
      <path d="M66.88,33.77c0-.21,.06-.32,.17-.32,1.39,0,2.41-.09,3.05-.27,.64-.18,1.08-.53,1.33-1.05,.24-.52,.37-1.31,.37-2.38V4.93c0-1.07-.11-1.86-.34-2.36-.22-.5-.65-.85-1.27-1.05-.62-.2-1.61-.29-2.96-.29-.11,0-.17-.11-.17-.32s.06-.32,.17-.32h23.03c.38,0,.56,.16,.56,.48l.11,6.75c0,.11-.1,.17-.31,.19s-.33-.03-.37-.13c-.26-1.96-1-3.47-2.2-4.5-1.21-1.04-2.79-1.55-4.74-1.55h-2.88c-1.62,0-2.72,.22-3.3,.67s-.87,1.28-.87,2.49V29.54c0,1.14,.16,1.98,.48,2.49,.32,.52,.93,.88,1.83,1.1,.9,.21,2.33,.32,4.29,.32,.07,0,.11,.11,.11,.32s-.04,.32-.11,.32c-1.54,0-2.75-.02-3.61-.05l-5.3-.05-3.95,.05c-.71,.04-1.69,.05-2.94,.05-.11,0-.17-.11-.17-.32Zm19.08-14.77c-.98-.73-2.54-1.1-4.68-1.1h-7.17v-1.23h7.34c2.03,0,3.53-.32,4.49-.96,.96-.64,1.44-1.61,1.44-2.9,0-.07,.11-.11,.34-.11s.34,.04,.34,.11l-.06,4.5c0,1.07,.02,1.88,.06,2.41l.06,2.68c0,.07-.11,.11-.34,.11s-.34-.04-.34-.11c0-1.54-.49-2.67-1.47-3.4Z" fill="#a1a9d8"/>
      <path d="M129.65,33.77c0,.21-.09,.32-.28,.32-.71,0-1.83-.04-3.33-.11-1.58-.07-2.71-.11-3.39-.11-.87,0-1.94,.04-3.22,.11-1.28,.07-2.24,.11-2.88,.11-.15,0-.23-.11-.23-.32s.08-.32,.23-.32c1.28,0,2.2-.12,2.77-.35,.56-.23,.85-.65,.85-1.26s-.28-1.45-.85-2.52l-12.13-23.96,1.81-2.57-11.01,24.23c-.53,1.22-.79,2.22-.79,3,0,1.14,.47,2,1.41,2.57,.94,.57,2.29,.86,4.06,.86,.19,0,.28,.11,.28,.32s-.09,.32-.28,.32c-.68,0-1.66-.04-2.94-.11-1.43-.07-2.67-.11-3.72-.11-.98,0-2.14,.04-3.5,.11-1.2,.07-2.18,.11-2.93,.11-.15,0-.23-.11-.23-.32s.08-.32,.23-.32c1.05,0,1.95-.2,2.68-.59,.73-.39,1.44-1.07,2.12-2.04,.68-.97,1.45-2.39,2.31-4.29L108.71,.21c.04-.11,.17-.17,.4-.19,.23-.02,.36,.05,.4,.19l13.55,26.54c1.32,2.61,2.42,4.38,3.3,5.31,.88,.93,1.89,1.39,3.02,1.39,.19,0,.28,.11,.28,.32Zm-28.79-14.85h15.35l.39,1.18h-16.42l.68-1.18Z" fill="#a1a9d8"/>
      <path d="M157.19,10.16c.71,1.02,1.58,1.89,2.6,2.63,1.02,.73,2.43,1.62,4.23,2.65,1.88,1.11,3.38,2.06,4.49,2.87s2.06,1.8,2.85,2.98c.79,1.18,1.18,2.57,1.18,4.18,0,1.75-.48,3.33-1.44,4.74-.96,1.41-2.33,2.52-4.12,3.32-1.79,.8-3.87,1.21-6.24,1.21-1.51,0-2.99-.17-4.46-.51-1.47-.34-2.75-.83-3.84-1.47-.19-.11-.32-.23-.4-.38-.08-.14-.11-.36-.11-.64l-.56-7.67c-.04-.14,.05-.23,.25-.27,.21-.04,.33,.02,.37,.16,.9,2.72,2.16,5.02,3.78,6.92,1.62,1.9,3.72,2.84,6.32,2.84,1.77,0,3.25-.46,4.46-1.37,1.21-.91,1.81-2.4,1.81-4.48,0-1.57-.38-2.95-1.13-4.13-.75-1.18-1.67-2.17-2.77-2.98s-2.54-1.72-4.35-2.76c-1.77-1.07-3.17-1.99-4.21-2.76-1.04-.77-1.91-1.71-2.62-2.84s-1.07-2.44-1.07-3.94c0-1.82,.52-3.38,1.55-4.66,1.03-1.29,2.39-2.24,4.06-2.87,1.67-.62,3.43-.94,5.28-.94,2.48,0,4.76,.41,6.83,1.23,.56,.25,.85,.57,.85,.96l.28,6.7c0,.14-.1,.22-.31,.24-.21,.02-.33-.04-.37-.19-.42-1.93-1.29-3.75-2.62-5.47-1.34-1.72-3.25-2.57-5.73-2.57-1.88,0-3.34,.54-4.37,1.61-1.04,1.07-1.55,2.43-1.55,4.07,0,1.36,.36,2.55,1.07,3.56Z" fill="#a1a9d8"/>
      <path d="M212.78,33.77c0,.21-.09,.32-.28,.32-.72,0-1.83-.04-3.33-.11-1.58-.07-2.71-.11-3.39-.11-.87,0-1.94,.04-3.22,.11-1.28,.07-2.24,.11-2.88,.11-.15,0-.23-.11-.23-.32s.07-.32,.23-.32c1.28,0,2.2-.12,2.77-.35,.56-.23,.85-.65,.85-1.26s-.28-1.45-.85-2.52l-12.13-23.96,1.81-2.57-11.01,24.23c-.53,1.22-.79,2.22-.79,3,0,1.14,.47,2,1.41,2.57,.94,.57,2.29,.86,4.06,.86,.19,0,.28,.11,.28,.32s-.09,.32-.28,.32c-.68,0-1.66-.04-2.93-.11-1.43-.07-2.67-.11-3.73-.11-.98,0-2.14,.04-3.5,.11-1.21,.07-2.18,.11-2.94,.11-.15,0-.23-.11-.23-.32s.08-.32,.23-.32c1.05,0,1.95-.2,2.68-.59,.73-.39,1.44-1.07,2.12-2.04,.68-.97,1.45-2.39,2.31-4.29L191.84,.21c.04-.11,.17-.17,.39-.19,.23-.02,.36,.05,.39,.19l13.55,26.54c1.32,2.61,2.42,4.38,3.3,5.31,.88,.93,1.89,1.39,3.02,1.39,.19,0,.28,.11,.28,.32Zm-28.79-14.85h15.35l.4,1.18h-16.42l.68-1.18Z" fill="#a1a9d8"/>
      <path d="M211.88,33.77c0-.21,.06-.32,.17-.32,1.39,0,2.41-.09,3.05-.27,.64-.18,1.08-.53,1.33-1.05,.24-.52,.37-1.31,.37-2.38V4.93c0-1.07-.11-1.86-.34-2.36-.22-.5-.65-.85-1.27-1.05-.62-.2-1.61-.29-2.96-.29-.11,0-.17-.11-.17-.32s.06-.32,.17-.32h23.03c.38,0,.56,.16,.56,.48l.11,6.75c0,.11-.1,.17-.31,.19s-.33-.03-.37-.13c-.26-1.96-1-3.47-2.2-4.5-1.21-1.04-2.79-1.55-4.74-1.55h-2.88c-1.62,0-2.72,.22-3.3,.67s-.87,1.28-.87,2.49V29.54c0,1.14,.16,1.98,.48,2.49,.32,.52,.93,.88,1.83,1.1,.9,.21,2.33,.32,4.29,.32,.07,0,.11,.11,.11,.32s-.04,.32-.11,.32c-1.54,0-2.75-.02-3.61-.05l-5.3-.05-3.95,.05c-.71,.04-1.69,.05-2.94,.05-.11,0-.17-.11-.17-.32Zm19.08-14.77c-.98-.73-2.54-1.1-4.68-1.1h-7.17v-1.23h7.34c2.03,0,3.53-.32,4.49-.96,.96-.64,1.44-1.61,1.44-2.9,0-.07,.11-.11,.34-.11s.34,.04,.34,.11l-.06,4.5c0,1.07,.02,1.88,.06,2.41l.06,2.68c0,.07-.11,.11-.34,.11s-.34-.04-.34-.11c0-1.54-.49-2.67-1.47-3.4Z" fill="#a1a9d8"/>
      <path d="M238.18,33.77c0-.21,.06-.32,.17-.32,1.35,0,2.34-.09,2.96-.27,.62-.18,1.04-.53,1.27-1.05,.22-.52,.34-1.31,.34-2.38V4.93c0-1.07-.11-1.86-.34-2.36-.23-.5-.65-.85-1.27-1.05-.62-.2-1.61-.29-2.96-.29-.11,0-.17-.11-.17-.32s.06-.32,.17-.32h23.03c.38,0,.56,.16,.56,.48l.11,6.75c0,.11-.1,.17-.31,.19-.21,.02-.33-.03-.37-.13-.26-1.96-1-3.47-2.2-4.5-1.21-1.04-2.79-1.55-4.74-1.55h-2.88c-1.66,0-2.77,.23-3.33,.7-.56,.46-.85,1.34-.85,2.63V29.54c0,1.29,.25,2.16,.76,2.63,.51,.46,1.53,.7,3.08,.7h3.73c2.11,0,3.87-.6,5.28-1.79s2.38-2.9,2.91-5.12c0-.07,.07-.11,.23-.11,.11,0,.22,.03,.31,.08s.14,.1,.14,.13c-.38,2.57-.56,4.99-.56,7.24,0,.29-.06,.49-.17,.62-.11,.13-.34,.19-.68,.19h-24.04c-.11,0-.17-.11-.17-.32Zm19.67-15.41c-.92-.73-2.38-1.1-4.38-1.1h-8.24v-1.23h8.35c1.92,0,3.33-.31,4.23-.94,.9-.62,1.36-1.6,1.36-2.92,0-.07,.1-.11,.31-.11s.31,.04,.31,.11l-.06,4.5,.06,2.41c.07,1.14,.11,2.04,.11,2.68,0,.07-.11,.11-.34,.11s-.34-.04-.34-.11c0-1.54-.46-2.67-1.38-3.4Z" fill="#a1a9d8"/>
      <path d="M298.01,34.15c-.56-.04-1.25-.07-2.06-.11-.81-.04-1.72-.05-2.74-.05l-3.95,.05c-.71,.04-1.69,.05-2.93,.05-.08,0-.11-.11-.11-.32s.04-.32,.11-.32c1.35,0,2.35-.09,2.99-.27,.64-.18,1.08-.53,1.33-1.05,.24-.52,.37-1.31,.37-2.38V4.93c0-1.07-.11-1.86-.34-2.36-.23-.5-.65-.85-1.27-1.05-.62-.2-1.61-.29-2.96-.29-.11,0-.17-.11-.17-.32s.06-.32,.17-.32l2.82,.05c1.66,.07,2.97,.11,3.95,.11,1.39,0,2.82-.05,4.29-.16,1.81-.07,3.03-.11,3.67-.11,3.88,0,7.32,.72,10.33,2.14,3.01,1.43,5.34,3.38,7,5.84,1.66,2.47,2.48,5.24,2.48,8.31,0,3.47-.86,6.53-2.57,9.19-1.71,2.66-4.03,4.72-6.94,6.16-2.92,1.45-6.09,2.17-9.51,2.17-1.17,0-2.48-.05-3.95-.16Zm10.89-2.6c2.18-1.2,3.88-2.95,5.11-5.25s1.83-5.08,1.83-8.34-.58-5.92-1.75-8.44c-1.17-2.52-2.81-4.5-4.94-5.95-2.13-1.45-4.6-2.17-7.42-2.17-1.62,0-2.86,.09-3.73,.27-.87,.18-1.51,.53-1.92,1.04-.42,.52-.62,1.3-.62,2.33V29.16c0,1.04,.16,1.85,.48,2.44,.32,.59,.9,1.03,1.75,1.31,.85,.29,2.08,.43,3.7,.43,2.82,0,5.32-.6,7.51-1.79Z" fill="#a1a9d8"/>
      <path d="M323.18,33.77c0-.21,.06-.32,.17-.32,1.35,0,2.34-.09,2.96-.27s1.04-.53,1.27-1.05c.23-.52,.34-1.31,.34-2.38V4.93c0-1.07-.11-1.86-.34-2.36-.22-.5-.65-.85-1.27-1.05-.62-.2-1.61-.29-2.96-.29-.11,0-.17-.11-.17-.32s.06-.32,.17-.32h23.03c.38,0,.56,.16,.56,.48l.11,6.75c0,.11-.11,.17-.31,.19-.21,.02-.33-.03-.37-.13-.26-1.96-1-3.47-2.2-4.5-1.21-1.04-2.79-1.55-4.74-1.55h-2.88c-1.66,0-2.77,.23-3.33,.7-.56,.46-.85,1.34-.85,2.63V29.54c0,1.29,.25,2.16,.76,2.63,.51,.46,1.53,.7,3.08,.7h3.72c2.11,0,3.87-.6,5.28-1.79,1.41-1.2,2.38-2.9,2.91-5.12,0-.07,.07-.11,.22-.11,.11,0,.22,.03,.31,.08s.14,.1,.14,.13c-.38,2.57-.56,4.99-.56,7.24,0,.29-.06,.49-.17,.62-.11,.13-.34,.19-.68,.19h-24.04c-.11,0-.17-.11-.17-.32Zm19.67-15.41c-.92-.73-2.38-1.1-4.37-1.1h-8.24v-1.23h8.35c1.92,0,3.33-.31,4.23-.94,.9-.62,1.36-1.6,1.36-2.92,0-.07,.1-.11,.31-.11s.31,.04,.31,.11l-.06,4.5,.06,2.41c.07,1.14,.11,2.04,.11,2.68,0,.07-.11,.11-.34,.11s-.34-.04-.34-.11c0-1.54-.46-2.67-1.38-3.4Z" fill="#a1a9d8"/>
      <path d="M358.46,10.16c.71,1.02,1.58,1.89,2.6,2.63,1.02,.73,2.43,1.62,4.23,2.65,1.88,1.11,3.38,2.06,4.49,2.87,1.11,.8,2.06,1.8,2.85,2.98,.79,1.18,1.19,2.57,1.19,4.18,0,1.75-.48,3.33-1.44,4.74-.96,1.41-2.33,2.52-4.12,3.32-1.79,.8-3.87,1.21-6.24,1.21-1.5,0-2.99-.17-4.46-.51-1.47-.34-2.75-.83-3.84-1.47-.19-.11-.32-.23-.4-.38-.08-.14-.11-.36-.11-.64l-.56-7.67c-.04-.14,.05-.23,.25-.27,.21-.04,.33,.02,.37,.16,.9,2.72,2.16,5.02,3.78,6.92,1.62,1.9,3.73,2.84,6.32,2.84,1.77,0,3.25-.46,4.46-1.37s1.81-2.4,1.81-4.48c0-1.57-.38-2.95-1.13-4.13-.75-1.18-1.67-2.17-2.77-2.98-1.09-.8-2.54-1.72-4.35-2.76-1.77-1.07-3.17-1.99-4.21-2.76-1.04-.77-1.91-1.71-2.62-2.84-.72-1.13-1.07-2.44-1.07-3.94,0-1.82,.52-3.38,1.55-4.66,1.03-1.29,2.39-2.24,4.06-2.87,1.67-.62,3.43-.94,5.28-.94,2.48,0,4.76,.41,6.83,1.23,.56,.25,.85,.57,.85,.96l.28,6.7c0,.14-.1,.22-.31,.24-.21,.02-.33-.04-.37-.19-.41-1.93-1.29-3.75-2.62-5.47-1.34-1.72-3.25-2.57-5.73-2.57-1.88,0-3.34,.54-4.37,1.61-1.04,1.07-1.55,2.43-1.55,4.07,0,1.36,.36,2.55,1.07,3.56Z" fill="#a1a9d8"/>
      <path d="M386.09,32.16c.21,.5,.62,.84,1.24,1.02s1.63,.27,3.02,.27c.08,0,.11,.11,.11,.32s-.04,.32-.11,.32c-1.2,0-2.14-.02-2.82-.05l-4.06-.05-3.95,.05c-.71,.04-1.69,.05-2.93,.05-.08,0-.11-.11-.11-.32s.04-.32,.11-.32c1.35,0,2.35-.09,2.99-.27,.64-.18,1.08-.53,1.33-1.05,.24-.52,.37-1.31,.37-2.38V4.93c0-1.07-.12-1.86-.37-2.36-.25-.5-.69-.85-1.33-1.05-.64-.2-1.64-.29-2.99-.29-.08,0-.11-.11-.11-.32s.04-.32,.11-.32l2.93,.05c1.66,.07,2.97,.11,3.95,.11,1.09,0,2.46-.04,4.12-.11l2.77-.05c.08,0,.11,.11,.11,.32s-.04,.32-.11,.32c-1.35,0-2.34,.11-2.96,.32-.62,.21-1.04,.58-1.27,1.1-.23,.52-.34,1.31-.34,2.39V29.75c0,1.11,.1,1.91,.31,2.41Z" fill="#a1a9d8"/>
      <path d="M402.46,32.41c-3.1-1.55-5.48-3.66-7.11-6.33-1.64-2.66-2.46-5.6-2.46-8.82,0-3.43,.93-6.45,2.79-9.06s4.42-4.63,7.68-6.06,6.91-2.14,10.98-2.14c1.92,0,3.76,.17,5.53,.51,1.77,.34,3.24,.79,4.4,1.37,.3,.14,.48,.27,.54,.38,.06,.11,.1,.39,.14,.86l.73,6.65c0,.11-.1,.18-.31,.21-.21,.04-.33-.02-.37-.16-.79-2.5-2.19-4.6-4.2-6.3-2.01-1.7-4.64-2.55-7.87-2.55-2.82,0-5.36,.63-7.62,1.88-2.26,1.25-4.04,3.05-5.33,5.39-1.3,2.34-1.95,5.07-1.95,8.17s.66,6.05,1.97,8.71c1.32,2.66,3.25,4.8,5.79,6.41,2.54,1.61,5.56,2.41,9.06,2.41,2.56,0,4.35-.47,5.36-1.42,1.02-.95,1.52-2.65,1.52-5.12,0-1.86-.12-3.15-.37-3.89-.25-.73-.77-1.22-1.58-1.47-.81-.25-2.23-.38-4.26-.38-.23,0-.34-.14-.34-.43,0-.11,.03-.21,.08-.29,.06-.09,.12-.13,.2-.13,3.01,.18,5.46,.27,7.34,.27s3.74-.05,5.7-.16c.08,0,.14,.05,.2,.13s.08,.17,.08,.24c0,.25-.09,.38-.28,.38-.87-.04-1.47,.08-1.81,.35-.34,.27-.56,.81-.65,1.63-.09,.82-.14,2.25-.14,4.29,0,1.61,.07,2.75,.2,3.43,.13,.68,.2,1.11,.2,1.29,0,.21-.04,.36-.11,.43-.08,.07-.25,.14-.51,.21-4.74,.96-8.84,1.45-12.3,1.45-4.18,0-7.82-.78-10.92-2.33Z" fill="#a1a9d8"/>
      <path d="M463.07,34.95c-.17,.04-.29,.02-.37-.05l-26.58-29.91c-1.24-1.39-2.35-2.37-3.33-2.92-.98-.55-1.96-.83-2.93-.83-.08,0-.11-.11-.11-.32s.04-.32,.11-.32l2.2,.05c.45,.04,1.09,.05,1.92,.05l2.88-.05c.38-.04,.81-.05,1.3-.05,.3,0,.53,.07,.68,.21,.15,.14,.38,.43,.68,.86l1.35,1.71,22.01,25.2,.45,6.22c0,.07-.08,.12-.25,.16ZM434.77,1.82l1.47,.11V27.98c0,1.86,.37,3.24,1.1,4.13,.73,.89,1.85,1.34,3.36,1.34,.08,0,.11,.11,.11,.32s-.04,.32-.11,.32c-.98,0-1.73-.02-2.26-.05l-2.88-.05-3.05,.05c-.56,.04-1.39,.05-2.48,.05-.08,0-.11-.11-.11-.32s.04-.32,.11-.32c1.62,0,2.81-.45,3.58-1.34,.77-.89,1.16-2.27,1.16-4.13V1.82Zm28.56,32.97l-1.41-1.66V6.75c0-1.86-.36-3.24-1.07-4.16-.71-.91-1.83-1.37-3.33-1.37-.08,0-.11-.11-.11-.32s.04-.32,.11-.32l2.26,.05c1.13,.07,2.09,.11,2.88,.11,.68,0,1.66-.04,2.93-.11l2.37-.05c.08,0,.11,.11,.11,.32s-.04,.32-.11,.32c-3.09,0-4.63,1.84-4.63,5.52v28.04Z" fill="#a1a9d8"/>
    </g>
  </g>
</svg>