<?xml version="1.0" encoding="UTF-8"?>
<svg id="_圖層_2" data-name="圖層 2" xmlns="http://www.w3.org/2000/svg" viewBox="0 0 349.15 34.79">
  <g id="content">
    <g>
      <path d="M19.59,34.25c-.38,0-.58-.07-.62-.21L4.8,5.04c-.72-1.5-1.38-2.51-2-3.03-.62-.52-1.5-.78-2.62-.78-.11,0-.17-.11-.17-.32s.06-.32,.17-.32l1.75,.05c.98,.07,1.9,.11,2.77,.11,1.69,0,3.37-.04,5.02-.11,.53-.04,1.24-.05,2.14-.05,.11,0,.17,.11,.17,.32s-.06,.32-.17,.32c-1.09,0-1.88,.11-2.37,.32-.49,.21-.73,.63-.73,1.23,0,.5,.26,1.31,.79,2.41l11.97,24.28-2.14,2.95,7.11-17.15,.9,1.23-7.17,17.53c-.04,.14-.25,.21-.62,.21ZM52.72,.91c0,.21-.06,.32-.17,.32-2.67,0-4.7,1.63-6.1,4.88l-11.51,27.93c-.04,.14-.25,.21-.62,.21s-.58-.07-.62-.21L19.53,5.04c-.64-1.32-1.29-2.29-1.95-2.9-.66-.61-1.46-.91-2.4-.91-.11,0-.17-.11-.17-.32s.06-.32,.17-.32l1.75,.05c.9,.07,1.73,.11,2.48,.11,1.43,0,2.75-.04,3.95-.11,.38-.04,.88-.05,1.52-.05,.11,0,.17,.11,.17,.32s-.06,.32-.17,.32c-.64,0-1.1,.06-1.38,.19-.28,.13-.42,.35-.42,.67,0,.5,.4,1.54,1.19,3.11l11.97,24.28-2.14,2.95L44.98,6.11c.34-.86,.51-1.59,.51-2.2,0-.86-.33-1.52-.99-1.98-.66-.46-1.63-.7-2.91-.7-.11,0-.17-.11-.17-.32s.06-.32,.17-.32l2.43,.05c1.28,.07,2.45,.11,3.5,.11,.79,0,1.67-.04,2.65-.11l2.37-.05c.11,0,.17,.11,.17,.32Zm-21.28,1.98c0-1.11-.7-1.66-2.09-1.66-.08,0-.11-.11-.11-.32s.04-.32,.11-.32l1.13,.05c.75,.07,1.62,.11,2.6,.11,.68,0,1.5-.04,2.48-.11l2.26-.05c.07,0,.11,.11,.11,.32s-.04,.32-.11,.32c-1.28,0-2.39,.38-3.33,1.13-.94,.75-1.77,2-2.48,3.75l-4.35,10.4-.9-1.23,3.89-9.43c.53-1.29,.79-2.27,.79-2.95Z" fill="#a1a9d8"/>
      <path d="M59.35,32.41c-2.73-1.55-4.84-3.66-6.32-6.33-1.49-2.66-2.23-5.57-2.23-8.71,0-3.68,.98-6.83,2.94-9.46,1.96-2.63,4.47-4.6,7.53-5.92,3.07-1.32,6.2-1.98,9.4-1.98,3.57,0,6.72,.8,9.43,2.39,2.71,1.59,4.79,3.69,6.24,6.3,1.45,2.61,2.17,5.38,2.17,8.31,0,3.25-.9,6.24-2.71,8.95-1.81,2.72-4.22,4.86-7.25,6.43-3.03,1.57-6.31,2.36-9.85,2.36s-6.61-.78-9.34-2.33Zm17.81-.62c1.92-1.18,3.43-2.9,4.54-5.17,1.11-2.27,1.67-4.98,1.67-8.12,0-3.32-.61-6.29-1.83-8.9-1.22-2.61-2.97-4.65-5.25-6.11-2.28-1.46-4.92-2.2-7.93-2.2-3.91,0-6.96,1.26-9.14,3.78-2.18,2.52-3.27,6-3.27,10.43,0,3.4,.62,6.47,1.86,9.22,1.24,2.75,2.98,4.91,5.22,6.49,2.24,1.57,4.79,2.36,7.65,2.36,2.41,0,4.57-.59,6.49-1.77Z" fill="#a1a9d8"/>
      <path d="M112.94,2.31c1.69,1.25,2.54,2.95,2.54,5.09,0,1.93-.59,3.69-1.78,5.28-1.19,1.59-2.76,2.84-4.71,3.75-1.96,.91-4.05,1.37-6.27,1.37-.79,0-1.71-.04-2.77-.11v12.06c0,1.07,.11,1.87,.34,2.39,.23,.52,.65,.87,1.27,1.05,.62,.18,1.61,.27,2.96,.27,.11,0,.17,.11,.17,.32s-.06,.32-.17,.32c-1.17,0-2.09-.02-2.77-.05l-4.06-.05-3.95,.05c-.72,.04-1.67,.05-2.88,.05-.11,0-.17-.11-.17-.32s.06-.32,.17-.32c1.35,0,2.35-.09,2.99-.27,.64-.18,1.07-.53,1.3-1.05,.23-.52,.34-1.31,.34-2.39V4.93c0-1.07-.11-1.86-.34-2.36-.23-.5-.65-.85-1.27-1.05-.62-.2-1.61-.29-2.96-.29-.08,0-.11-.11-.11-.32s.04-.32,.11-.32l2.82,.05c1.66,.07,2.97,.11,3.95,.11,.79,0,1.54-.02,2.26-.05,.71-.04,1.34-.07,1.86-.11,1.43-.11,2.73-.16,3.89-.16,3.12,0,5.53,.63,7.22,1.88Zm-3.84,.78c-1.17-1.16-2.88-1.74-5.14-1.74-1.47,0-2.5,.26-3.1,.78-.6,.52-.9,1.49-.9,2.92v11.31c1.09,.11,2.2,.16,3.33,.16,2.71,0,4.65-.6,5.81-1.8,1.17-1.2,1.75-3.06,1.75-5.6,0-2.86-.58-4.87-1.75-6.03Zm5,26.51c-2.54-3-5.62-7.2-9.23-12.6l3.78-1.13c3.2,4.47,5.89,7.95,8.07,10.45,2.18,2.5,4.11,4.32,5.79,5.44,1.67,1.13,3.3,1.69,4.88,1.69,.11,0,.17,.11,.17,.32s-.06,.32-.17,.32h-8.07c-.94,0-2.68-1.5-5.22-4.5Z" fill="#a1a9d8"/>
      <path d="M135.32,31.71c.21,.45,.59,.75,1.16,.91s1.45,.24,2.65,.24h4.8c2.37,0,4.34-.67,5.9-2.01,1.56-1.34,2.61-3.15,3.13-5.44,0-.11,.1-.15,.31-.13,.21,.02,.31,.08,.31,.19-.34,3.15-.51,5.75-.51,7.83,0,.29-.07,.49-.2,.62-.13,.13-.35,.19-.65,.19h-26.3c-.08,0-.11-.11-.11-.32s.04-.32,.11-.32c1.35,0,2.35-.09,2.99-.27,.64-.18,1.07-.53,1.3-1.05,.23-.52,.34-1.31,.34-2.39V4.93c0-1.07-.11-1.86-.34-2.36-.23-.5-.66-.85-1.3-1.05-.64-.2-1.64-.29-2.99-.29-.08,0-.11-.11-.11-.32s.04-.32,.11-.32l2.82,.05c1.66,.07,2.99,.11,4.01,.11s2.35-.04,4.01-.11l2.82-.05c.07,0,.11,.11,.11,.32s-.04,.32-.11,.32c-1.35,0-2.34,.1-2.96,.29-.62,.2-1.04,.55-1.27,1.07-.23,.52-.34,1.31-.34,2.39V29.54c0,1,.1,1.72,.31,2.17Z" fill="#a1a9d8"/>
      <path d="M165.09,34.15c-.56-.04-1.25-.07-2.06-.11-.81-.04-1.72-.05-2.74-.05l-3.95,.05c-.72,.04-1.69,.05-2.94,.05-.08,0-.11-.11-.11-.32s.04-.32,.11-.32c1.35,0,2.35-.09,2.99-.27,.64-.18,1.08-.53,1.33-1.05,.24-.52,.37-1.31,.37-2.39V4.93c0-1.07-.11-1.86-.34-2.36-.23-.5-.65-.85-1.27-1.05-.62-.2-1.61-.29-2.96-.29-.11,0-.17-.11-.17-.32s.06-.32,.17-.32l2.82,.05c1.66,.07,2.97,.11,3.95,.11,1.39,0,2.82-.05,4.29-.16,1.81-.07,3.03-.11,3.67-.11,3.88,0,7.32,.72,10.33,2.14,3.01,1.43,5.34,3.38,7,5.84,1.66,2.47,2.48,5.24,2.48,8.31,0,3.47-.86,6.53-2.57,9.19-1.71,2.66-4.03,4.72-6.94,6.17-2.92,1.45-6.09,2.17-9.51,2.17-1.17,0-2.48-.05-3.95-.16Zm10.89-2.6c2.18-1.2,3.88-2.95,5.11-5.25,1.22-2.31,1.83-5.08,1.83-8.34s-.58-5.92-1.75-8.44c-1.17-2.52-2.81-4.5-4.94-5.95-2.13-1.45-4.6-2.17-7.42-2.17-1.62,0-2.86,.09-3.73,.27-.87,.18-1.51,.53-1.92,1.05-.41,.52-.62,1.3-.62,2.33V29.16c0,1.04,.16,1.85,.48,2.44,.32,.59,.9,1.03,1.75,1.31,.85,.29,2.08,.43,3.7,.43,2.82,0,5.32-.6,7.51-1.8Z" fill="#a1a9d8"/>
      <path d="M227.66,.46c1.67,.3,3.25,.8,4.71,1.47,.26,.11,.43,.22,.51,.35,.07,.13,.13,.4,.17,.83l.73,6.7c0,.11-.1,.18-.31,.21-.21,.04-.33-.02-.37-.16-1.92-5.97-5.79-8.95-11.63-8.95-2.97,0-5.61,.66-7.9,1.98-2.3,1.32-4.07,3.2-5.33,5.63-1.26,2.43-1.89,5.27-1.89,8.52s.69,6.05,2.06,8.6c1.37,2.56,3.24,4.56,5.59,6,2.35,1.45,4.94,2.17,7.76,2.17s5.34-.71,7.22-2.12c1.88-1.41,3.41-3.6,4.57-6.57,.04-.07,.13-.11,.28-.11,.07,0,.16,.03,.25,.08,.09,.05,.14,.1,.14,.13l-.62,6.11c-.04,.43-.09,.7-.17,.8-.08,.11-.26,.23-.56,.38-1.88,.82-3.69,1.4-5.42,1.74-1.73,.34-3.63,.51-5.7,.51-3.99,0-7.54-.74-10.67-2.22-3.12-1.48-5.56-3.55-7.31-6.19-1.75-2.64-2.62-5.68-2.62-9.11s.89-6.35,2.68-8.98c1.79-2.63,4.26-4.66,7.42-6.11,3.16-1.45,6.7-2.17,10.61-2.17,2.18,0,4.11,.15,5.79,.46Z" fill="#a1a9d8"/>
      <path d="M245.44,31.71c.21,.45,.59,.75,1.16,.91s1.45,.24,2.65,.24h4.8c2.37,0,4.34-.67,5.9-2.01,1.56-1.34,2.61-3.15,3.13-5.44,0-.11,.1-.15,.31-.13,.21,.02,.31,.08,.31,.19-.34,3.15-.51,5.75-.51,7.83,0,.29-.07,.49-.2,.62-.13,.13-.35,.19-.65,.19h-26.3c-.08,0-.11-.11-.11-.32s.04-.32,.11-.32c1.35,0,2.35-.09,2.99-.27,.64-.18,1.07-.53,1.3-1.05,.23-.52,.34-1.31,.34-2.39V4.93c0-1.07-.11-1.86-.34-2.36-.23-.5-.66-.85-1.3-1.05-.64-.2-1.64-.29-2.99-.29-.08,0-.11-.11-.11-.32s.04-.32,.11-.32l2.82,.05c1.66,.07,2.99,.11,4.01,.11s2.35-.04,4.01-.11l2.82-.05c.07,0,.11,.11,.11,.32s-.04,.32-.11,.32c-1.35,0-2.34,.1-2.96,.29-.62,.2-1.04,.55-1.27,1.07-.23,.52-.34,1.31-.34,2.39V29.54c0,1,.1,1.72,.31,2.17Z" fill="#a1a9d8"/>
      <path d="M301.68,33.77c0,.21-.09,.32-.28,.32-.72,0-1.83-.04-3.33-.11-1.58-.07-2.71-.11-3.39-.11-.87,0-1.94,.04-3.22,.11-1.28,.07-2.24,.11-2.88,.11-.15,0-.23-.11-.23-.32s.07-.32,.23-.32c1.28,0,2.2-.12,2.77-.35,.56-.23,.85-.65,.85-1.26s-.28-1.45-.85-2.52l-12.14-23.96,1.81-2.57-11.01,24.23c-.53,1.22-.79,2.22-.79,3,0,1.14,.47,2,1.41,2.57,.94,.57,2.29,.86,4.06,.86,.19,0,.28,.11,.28,.32s-.09,.32-.28,.32c-.68,0-1.66-.04-2.93-.11-1.43-.07-2.67-.11-3.73-.11-.98,0-2.14,.04-3.5,.11-1.2,.07-2.18,.11-2.94,.11-.15,0-.23-.11-.23-.32s.08-.32,.23-.32c1.05,0,1.95-.2,2.68-.59,.73-.39,1.44-1.07,2.12-2.04s1.45-2.39,2.31-4.29L280.74,.21c.04-.11,.17-.17,.4-.19,.23-.02,.36,.05,.4,.19l13.55,26.54c1.32,2.61,2.42,4.38,3.3,5.31,.88,.93,1.89,1.39,3.02,1.39,.19,0,.28,.11,.28,.32Zm-28.79-14.85h15.35l.4,1.18h-16.42l.68-1.18Z" fill="#a1a9d8"/>
      <path d="M308.45,10.16c.71,1.02,1.58,1.9,2.6,2.63,1.02,.73,2.43,1.62,4.23,2.65,1.88,1.11,3.38,2.06,4.49,2.87,1.11,.8,2.06,1.8,2.85,2.98,.79,1.18,1.19,2.57,1.19,4.18,0,1.75-.48,3.33-1.44,4.74-.96,1.41-2.33,2.52-4.12,3.32-1.79,.8-3.87,1.21-6.24,1.21-1.51,0-2.99-.17-4.46-.51-1.47-.34-2.75-.83-3.84-1.47-.19-.11-.32-.23-.4-.38-.08-.14-.11-.36-.11-.64l-.56-7.67c-.04-.14,.05-.23,.25-.27,.21-.04,.33,.02,.37,.16,.9,2.72,2.16,5.02,3.78,6.92,1.62,1.89,3.73,2.84,6.32,2.84,1.77,0,3.25-.46,4.46-1.37,1.2-.91,1.81-2.4,1.81-4.48,0-1.57-.38-2.95-1.13-4.13-.75-1.18-1.67-2.17-2.77-2.98-1.09-.8-2.54-1.72-4.35-2.76-1.77-1.07-3.17-1.99-4.2-2.76-1.04-.77-1.91-1.72-2.62-2.84-.72-1.13-1.07-2.44-1.07-3.94,0-1.82,.52-3.38,1.55-4.66,1.03-1.29,2.39-2.24,4.06-2.87,1.67-.62,3.43-.94,5.28-.94,2.48,0,4.76,.41,6.83,1.23,.56,.25,.85,.57,.85,.96l.28,6.7c0,.14-.1,.22-.31,.24-.21,.02-.33-.04-.37-.19-.41-1.93-1.29-3.75-2.62-5.47-1.34-1.72-3.25-2.57-5.73-2.57-1.88,0-3.34,.54-4.37,1.61-1.04,1.07-1.55,2.43-1.55,4.07,0,1.36,.36,2.55,1.07,3.56Z" fill="#a1a9d8"/>
      <path d="M333.8,10.16c.71,1.02,1.58,1.9,2.6,2.63,1.02,.73,2.43,1.62,4.23,2.65,1.88,1.11,3.38,2.06,4.49,2.87,1.11,.8,2.06,1.8,2.85,2.98,.79,1.18,1.19,2.57,1.19,4.18,0,1.75-.48,3.33-1.44,4.74-.96,1.41-2.33,2.52-4.12,3.32-1.79,.8-3.87,1.21-6.24,1.21-1.51,0-2.99-.17-4.46-.51-1.47-.34-2.75-.83-3.84-1.47-.19-.11-.32-.23-.4-.38-.08-.14-.11-.36-.11-.64l-.56-7.67c-.04-.14,.05-.23,.25-.27,.21-.04,.33,.02,.37,.16,.9,2.72,2.16,5.02,3.78,6.92,1.62,1.89,3.73,2.84,6.32,2.84,1.77,0,3.25-.46,4.46-1.37,1.2-.91,1.81-2.4,1.81-4.48,0-1.57-.38-2.95-1.13-4.13-.75-1.18-1.67-2.17-2.77-2.98-1.09-.8-2.54-1.72-4.35-2.76-1.77-1.07-3.17-1.99-4.2-2.76-1.04-.77-1.91-1.72-2.62-2.84-.72-1.13-1.07-2.44-1.07-3.94,0-1.82,.52-3.38,1.55-4.66,1.03-1.29,2.39-2.24,4.06-2.87,1.67-.62,3.43-.94,5.28-.94,2.48,0,4.76,.41,6.83,1.23,.56,.25,.85,.57,.85,.96l.28,6.7c0,.14-.1,.22-.31,.24-.21,.02-.33-.04-.37-.19-.41-1.93-1.29-3.75-2.62-5.47-1.34-1.72-3.25-2.57-5.73-2.57-1.88,0-3.34,.54-4.37,1.61-1.04,1.07-1.55,2.43-1.55,4.07,0,1.36,.36,2.55,1.07,3.56Z" fill="#a1a9d8"/>
    </g>
  </g>
</svg>