<?xml version="1.0" encoding="UTF-8"?>
<svg id="_圖層_2" data-name="圖層 2" xmlns="http://www.w3.org/2000/svg" viewBox="0 0 338.66 32.41">
  <g id="content">
    <g>
      <g>
        <path d="M5.6,11.55c-.35,3.19-1.26,6.79-3.47,9.49-.42-.49-1.5-1.33-2.14-1.61,2.8-3.4,3.22-7.95,3.22-11.2V4.06h13.02c-.25-1.23-.38-2.52-.46-3.78h2.56c.07,1.29,.21,2.56,.46,3.78h5.6c-.88-.91-2.24-2.1-3.4-2.8l1.79-1.12c1.4,.88,3.05,2.17,3.89,3.08l-1.26,.84h5.43v2.28h-11.59c.67,2.38,1.58,4.55,2.59,6.34,1.75-1.61,3.22-3.43,4.34-5.43l2.35,.73c-1.4,2.49-3.26,4.69-5.36,6.62,1.47,1.86,3.12,2.91,4.69,2.91,.91,0,1.29-1.08,1.47-4.13,.56,.49,1.44,.95,2.1,1.16-.42,4.31-1.37,5.46-3.71,5.46s-4.62-1.4-6.51-3.75c-1.68,1.26-3.5,2.42-5.29,3.33-.35-.49-1.23-1.47-1.75-1.93,2-.88,3.92-2.03,5.67-3.33-1.37-2.21-2.45-4.97-3.19-7.98H5.78v1.93c0,.38,0,.77-.04,1.19H14.35s-.03,.63-.07,.95c-.21,4.55-.49,6.41-1.16,7.11-.46,.52-1.02,.74-1.89,.81-.73,.07-2.14,.04-3.64-.04-.07-.63-.28-1.47-.6-2.03,1.37,.14,2.62,.14,3.12,.14,.46,0,.77-.03,.98-.28,.35-.39,.53-1.58,.7-4.55H5.6ZM31.5,29.09v2.38H.14v-2.38H4.45v-8.4H27.48v8.4h4.03Zm-24.61,0h4.38v-6.27H6.9v6.27Zm6.76-6.27v6.27h4.41v-6.27h-4.41Zm6.83,0v6.27h4.45v-6.27h-4.45Z" fill="#231815"/>
        <path d="M51.7,12.95s0,.84-.03,1.19c-.25,11.45-.49,15.3-1.37,16.52-.56,.73-1.16,1.02-2.07,1.12-.88,.1-2.28,.1-3.75,0-.07-.7-.32-1.72-.7-2.42,1.44,.14,2.73,.18,3.29,.18,.46,0,.77-.1,1.02-.49,.6-.77,.84-4.13,1.05-13.72h-4.73v.24c0,5.74-.7,11.66-5.32,16.59-.46-.56-1.3-1.26-1.93-1.68,4.24-4.52,4.76-10.01,4.76-14.95v-7.25h-4.13v-2.42h15.44v2.42h-8.82v4.66h7.28Zm-6.44-7.35c-.31-1.29-1.12-3.29-1.79-4.76l2.24-.67c.73,1.47,1.54,3.4,1.89,4.66l-2.35,.77Zm21.88,3.54c-.88,5.64-2.31,10.22-4.48,14,1.89,2.98,4.27,5.32,7.35,6.76-.6,.52-1.4,1.5-1.82,2.24-2.94-1.54-5.29-3.82-7.11-6.65-2.1,2.77-4.83,5.01-8.3,6.79-.25-.59-1.02-1.71-1.51-2.27,3.64-1.68,6.37-3.99,8.4-6.93-1.44-2.84-2.52-6.13-3.4-9.73-.73,1.61-1.61,3.05-2.52,4.34-.42-.53-1.44-1.51-2.03-1.96,2.84-3.68,4.76-9.52,5.85-15.51l2.62,.42c-.42,2.06-.88,4.13-1.44,6.09h10.92v2.42h-2.56Zm-9.14,0c-.07,.1-.1,.25-.14,.35,.74,4.1,1.79,7.84,3.33,11.03,1.65-3.15,2.69-6.9,3.36-11.38h-6.55Z" fill="#231815"/>
        <path d="M149.98,14.46v2.84h-31.78v-2.84h31.78Z" fill="#231815"/>
        <path d="M160.9,6.37v7.25c0,5.32-.42,13.2-3.29,18.48-.46-.46-1.58-1.23-2.17-1.47,2.66-4.97,2.94-12.01,2.94-17.05V3.92h14.6c-.52-1.05-1.19-2.21-1.85-3.12l2.42-.81c.88,1.19,1.82,2.7,2.42,3.92h11.48v2.45h-26.53Zm14.6,22.61h12.04v2.31h-26.46v-2.31h11.9v-5.18h-9.66v-2.28h9.66V7.77h2.52v10.22c2.84-2.14,4.52-5.5,5.25-9.63l2.35,.35c-.28,1.54-.7,2.98-1.23,4.31,2.07,1.68,4.45,3.78,5.67,5.15l-1.57,1.68c-1.09-1.29-3.08-3.19-4.97-4.83-.98,1.82-2.21,3.33-3.68,4.52-.39-.39-1.26-1.08-1.82-1.47v3.47h9.91v2.28h-9.91v5.18Zm-6.51-20.34c-.25,1.51-.63,2.94-1.08,4.24,1.65,1.47,3.5,3.29,4.45,4.52l-1.58,1.68c-.77-1.08-2.24-2.7-3.71-4.06-.94,2-2.21,3.68-3.75,5.01-.39-.42-1.4-1.16-1.93-1.47,2.87-2.28,4.55-5.85,5.22-10.19l2.38,.28Z" fill="#231815"/>
        <path d="M208.15,22.51V11.45h-6.37v15.93h22.51v2.56h-25.2V11.45h-5.08v-2.52h5.08V1.19h2.7v7.74h6.37V.39h2.56V8.93h6.69V.81h2.66V8.93h5.22v2.52h-5.22v11.06h-11.9Zm2.56-11.06v8.65h6.69V11.45h-6.69Z" fill="#231815"/>
        <path d="M252.53,15.33c2.62,2.69,6.76,4.94,10.92,6.02-.59,.52-1.37,1.54-1.71,2.21-2.49-.77-4.94-2-7.14-3.5v12.08h-2.66v-12.11h2.59c-1.92-1.37-3.71-2.94-5.04-4.69h-3.85c-2.87,3.68-7.7,6.76-12.29,8.37-.42-.67-1.16-1.61-1.75-2.14,4.03-1.16,8.23-3.5,10.89-6.23h-6.97V1.37h23.87V15.33h-6.86Zm-11.66,4.69h2.62v2.14c0,3.33-.8,7.53-7.56,10.26-.38-.67-1.22-1.58-1.79-2.1,6.09-2.24,6.72-5.64,6.72-8.26v-2.03Zm-2.8-12.74h8.02V3.57h-8.02v3.71Zm0,5.85h8.02v-3.78h-8.02v3.78Zm18.66-9.56h-8.09v3.71h8.09V3.57Zm0,5.78h-8.09v3.78h8.09v-3.78Z" fill="#231815"/>
        <path d="M274.12,15.37c-1.01-1.12-3.22-2.7-5-3.68l1.47-1.75c1.82,.88,4.03,2.38,5.11,3.47l-1.58,1.96Zm-4.34,15.05c1.26-2.7,3.08-7.21,4.38-11.13l2.03,1.37c-1.16,3.64-2.7,7.91-4.06,11.1l-2.34-1.33Zm4.94-24.12c-.95-1.15-3.08-2.8-4.83-3.89l1.51-1.72c1.75,.98,3.92,2.56,4.9,3.71l-1.58,1.89Zm3.88,6.83c-.35,1.72-.88,3.61-1.54,4.83-.28-.25-.95-.63-1.29-.84,.67-1.26,1.05-2.8,1.33-4.34l1.5,.35Zm4.69-1.37c-.1-.31-.24-.73-.42-1.12-4.76,.63-5.57,.84-6.06,1.09-.07-.31-.38-1.02-.59-1.37,.53-.07,1.02-.52,1.61-1.23,.38-.35,1.29-1.37,2.17-2.63-2.28,.21-2.87,.35-3.22,.49-.11-.31-.39-1.02-.6-1.33,.42-.07,.7-.39,1.05-.91,.35-.46,1.61-2.45,2.17-4.31l1.64,.6c-.59,1.44-1.47,2.94-2.34,4.1l2.34-.18c.32-.52,.63-1.02,.91-1.58l1.58,.7c-1.22,2-2.73,3.99-4.3,5.6l3.08-.39c-.21-.38-.46-.77-.67-1.15l1.29-.46c.74,1.12,1.44,2.56,1.68,3.43l-1.33,.63Zm16.24,13.44s-.04,.74-.14,1.05c-.67,3.01-1.37,4.55-2.31,5.25-.74,.53-1.47,.67-2.62,.67-1.05,.04-3.15,0-5.36-.14-.07-.6-.35-1.44-.74-2,2.24,.21,4.52,.25,5.39,.25,.77,0,1.12-.04,1.47-.28,.6-.39,1.05-1.3,1.5-3.01h-18.41c.56-1.47,1.08-3.5,1.5-5.22h15.79v-1.82h-17.05v-1.68h19.46v5.18h-16.21c-.14,.6-.32,1.19-.49,1.75h18.2Zm-19.43-7.84c-.04-1.12-.35-2.94-.77-4.31l1.37-.35c.46,1.37,.8,3.08,.84,4.17l-1.43,.49Zm3.12-5.22c.59,1.23,1.12,2.77,1.26,3.75l-1.33,.59c-.17-1.02-.67-2.62-1.22-3.92l1.29-.42Zm9.31-6.83h-8.4v-1.61h3.71c-.25-.84-.88-1.96-1.37-2.77l1.79-.46c.56,.81,1.19,2.03,1.51,2.77l-1.54,.46h4.31v1.61Zm-7.46,6.55h6.58v5.15h-6.58v-5.15Zm6.55-3.85h-6.44v-1.47h6.44v1.47Zm-6.44,1.12h6.44v1.44h-6.44v-1.44Zm1.61,6.44h3.08v-2.31h-3.08v2.31Zm8.02-2.59c-.32,1.68-.88,3.54-1.5,4.83-.28-.24-.98-.7-1.37-.91,.7-1.19,1.08-2.77,1.37-4.27l1.5,.35Zm4.83-1.16c-.11-.39-.32-.81-.53-1.33-4.76,.7-5.6,.91-6.09,1.08-.07-.28-.38-1.02-.59-1.37,.56-.07,1.01-.49,1.64-1.16,.39-.38,1.23-1.36,2.14-2.62-2.28,.17-2.87,.31-3.22,.49-.1-.32-.38-1.05-.59-1.37,.42-.04,.67-.39,1.01-.88,.39-.49,1.65-2.45,2.21-4.31l1.65,.6c-.59,1.44-1.47,2.91-2.34,4.06l2.31-.14c.35-.53,.67-1.05,.95-1.58l1.61,.7c-1.23,2-2.77,3.96-4.31,5.57l3.04-.39c-.21-.38-.42-.77-.63-1.12l1.23-.46c.8,1.12,1.58,2.7,1.86,3.68l-1.33,.53Zm-3.29,5.81c-.04-1.19-.38-3.15-.88-4.66l1.4-.35c.49,1.5,.84,3.4,.88,4.55l-1.4,.46Zm3.05-5.57c.73,1.4,1.33,3.26,1.54,4.38l-1.37,.63c-.17-1.26-.77-3.12-1.44-4.59l1.26-.42Z" fill="#231815"/>
        <path d="M312.45,13.44v4.38c0,4.1-.56,9.87-3.5,13.76-.42-.53-1.51-1.37-2.1-1.68,2.73-3.57,3.04-8.44,3.04-12.11v-6.69h28.25v2.35h-25.69Zm23.84-5.11h-26.18V1.58h2.55V5.99h9.03V.25h2.7V5.99h9.24V1.58h2.66v6.76Zm2.38,16.42h-11.48v7.46h-2.7v-7.46h-10.92v-2.35h10.92v-3.75h-9.17v-2.24h21.49v2.24h-9.63v3.75h11.48v2.35Z" fill="#231815"/>
      </g>
      <line x1="91.26" y1="32.35" x2="91.26" y2=".48" fill="none" stroke="#fff" stroke-miterlimit="10"/>
    </g>
  </g>
</svg>